<svg width="100" height="100" viewBox="0 0 100 100" fill="none" xmlns="http://www.w3.org/2000/svg">
<path d="M35.0711 59.0837H27.0932V67.5355H35.0711C38.0727 67.5355 40.0474 66.1138 40.0474 63.3491C40.0474 60.5845 38.0727 59.0837 35.0711 59.0837ZM76.4613 34.9131C76.4613 41.1532 71.7219 44.4708 66.3507 44.4708C60.9795 44.4708 56.2401 41.1532 56.2401 34.9131V19.6682H59.8736V34.8341C59.8736 38.8626 62.6382 41.1532 66.3507 41.1532C70.0632 41.1532 72.8278 38.8626 72.8278 34.8341V19.6682H76.4613V34.9131ZM43.9178 43.9179H40.1264L27.0932 24.4866V43.9179H23.4597V19.5893H28.357L40.3633 37.7567V19.5893H43.9968V43.9179H43.9178ZM23.3807 55.8452H35.703C40.6793 55.8452 43.7599 59.0047 43.7599 63.4281C43.7599 67.2196 41.3112 69.9052 37.3618 70.6161L43.6809 80.1738H39.4155L33.4123 70.8531H27.0142V80.1738H23.3017V55.8452H23.3807ZM57.346 55.8452H75.6714V59.5577H68.4044V76.6193H75.6714V80.3318H57.346V76.6193H64.6129V59.5577H57.346V55.8452ZM100 74.8815V25.1185C100 11.2164 88.7836 0 74.8815 0H25.1185C11.2164 0 0 11.2164 0 25.1185V74.8815C0 88.7836 11.2164 100 25.1185 100H74.8815C88.7046 100 100 88.7836 100 74.8815Z" fill="#2C232E"/>
</svg>
