<svg width="288" height="279" viewBox="0 0 288 279" fill="none" xmlns="http://www.w3.org/2000/svg">
<path d="M68.4105 223.311C83.4385 217.199 97.8782 209.337 110.431 198.985C116.954 193.529 122.675 187.178 127.422 180.122C129.37 177.257 131.769 174.071 132.411 170.587C132.549 169.823 132.702 168.921 132.067 168.371C131.067 167.5 127.819 168.211 126.681 168.371C118.743 169.403 111.401 172.955 104.372 176.676C97.0207 180.572 89.9743 185.019 83.2934 189.977C70.1283 199.673 58.1073 210.833 47.4616 223.242C45.2154 225.865 43.0329 228.542 40.9141 231.272C50.3555 229.679 59.5836 227.01 68.4182 223.318L68.4105 223.311ZM9.33781 274.812C7.33612 265.033 10.9499 255.98 16.0534 247.789C18.2003 244.359 20.4999 241.028 22.9295 237.773C18.842 237.2 14.5254 236.574 10.7054 235.008C2.85909 231.807 -0.708794 224.312 0.11633 216.122C0.994934 207.496 5.46427 199.825 10.4379 192.919C16.2696 185.041 22.9916 177.862 30.4702 171.527C43.9307 159.945 58.7829 150.087 74.6831 142.181C90.2993 134.327 106.473 127.81 123.465 123.562C127.539 122.544 131.66 121.647 135.826 120.873C140.991 119.911 142.236 128.017 137.072 128.933C121.378 131.649 106.057 136.195 91.4223 142.479C76.9678 148.838 63.3649 156.98 50.9301 166.713C37.2697 177.325 25.168 189.557 15.3964 203.867C12.0271 208.81 7.75633 214.914 7.90913 221.324C8.11541 229.476 16.9396 231.776 23.617 232.196C24.7936 232.273 25.9701 232.311 27.1543 232.326C28.8046 230.258 30.488 228.221 32.2045 226.214C43.9752 212.4 57.3068 199.997 71.9327 189.252C79.2347 183.921 86.8058 178.969 94.6159 174.415C102.256 169.96 109.957 165.201 118.399 162.458C125.405 160.166 140.785 157.049 140.387 168.906C140.25 172.932 137.698 176.241 135.528 179.411C132.967 183.169 130.146 186.743 127.086 190.107C114.908 203.523 100.285 214.708 84.5692 223.655C69.6253 232.166 53.2451 238.171 35.8946 238.553H35.5279C34.5118 239.974 33.5109 241.402 32.5253 242.854C28.0864 249.386 23.2503 256.171 20.2478 263.482C18.7198 267.142 17.6043 270.618 17.6119 274.606C17.6119 279.534 10.2317 279.19 9.33017 274.797" fill="#2C232E"/>
<path d="M271.391 68.0806C271.024 68.0806 229.432 81.6646 229.073 81.6951H229.012C226.093 80.572 222.625 81.2902 219.645 81.8556C216.826 82.3827 214.06 83.1391 211.287 83.8572C205.381 85.3852 199.567 87.1119 193.715 88.8003C182.137 92.1786 170.316 94.6587 158.357 96.2188C157.585 96.2758 156.838 96.5129 156.174 96.9109C155.511 97.3089 154.95 97.8569 154.537 98.5108C154.111 98.7129 153.758 99.0414 153.525 99.4516C153.293 99.8618 153.192 100.334 153.238 100.803C152.932 116.175 151.763 131.531 151.022 146.888C150.808 151.265 156.775 151.433 158.166 147.858C159.811 143.615 161.52 139.4 163.292 135.214C164.82 131.63 166.211 127.894 168.144 124.518C170.077 121.141 172.98 119.254 176.204 117.366C179.772 115.288 183.447 113.378 187.106 111.453C194.677 107.465 202.188 103.362 209.82 99.4888C213.51 97.6169 217.261 95.8903 221.051 94.2248C225.016 92.4752 270.94 77.6077 273.935 74.3607C274.422 73.8452 274.749 73.2 274.877 72.5028C275.005 71.8057 274.929 71.0863 274.658 70.4314C274.387 69.7765 273.932 69.2141 273.348 68.8119C272.764 68.4097 272.077 68.1849 271.368 68.1646" fill="#0038FF"/>
<path d="M165.149 73.0694C165.989 72.9624 166.822 72.8402 167.655 72.7256C166.822 72.8402 165.958 72.9624 165.149 73.0694Z" fill="#BEAAFF"/>
<path d="M139.073 76.4689L141.22 76.1938L139.073 76.4689Z" fill="#BEAAFF"/>
<path d="M143.612 75.8884L144.062 75.835L143.612 75.8884Z" fill="#BEAAFF"/>
<path d="M148.111 105.012C146.583 103.958 145.055 102.883 143.527 101.788C145.06 102.883 146.588 103.958 148.111 105.012Z" fill="#BEAAFF"/>
<path d="M171.421 72.1829L172.544 72.0225L171.421 72.1829Z" fill="#BEAAFF"/>
<path d="M232.251 98.2357C241.287 98.4344 250.281 98.9437 259.236 99.7637C260.203 98.5362 261.181 97.3113 262.169 96.0889C254.866 96.1423 246.889 96.616 240.395 97.2654C237.683 97.5405 234.963 97.8614 232.251 98.2357Z" fill="#BEAAFF"/>
<path d="M170.749 103.309L170.642 103.347L170.749 103.309Z" fill="#BEAAFF"/>
<path d="M167.35 104.294L167.036 104.386L167.35 104.294Z" fill="#BEAAFF"/>
<path d="M172.835 102.705L172.376 102.843L172.835 102.705Z" fill="#BEAAFF"/>
<path d="M181.102 100.237L180.773 100.337L181.102 100.237Z" fill="#BEAAFF"/>
<path d="M178.893 100.902L178.48 101.024L178.893 100.902Z" fill="#BEAAFF"/>
<path d="M174.784 102.125L174.454 102.224L174.784 102.125Z" fill="#BEAAFF"/>
<path d="M169.091 103.798L168.824 103.882L169.091 103.798Z" fill="#BEAAFF"/>
<path d="M165.622 104.791L165.439 104.837L165.622 104.791Z" fill="#BEAAFF"/>
<path d="M159.082 106.563L158.892 106.616L159.082 106.563Z" fill="#BEAAFF"/>
<path d="M161.374 105.975L161.206 106.021L161.374 105.975Z" fill="#BEAAFF"/>
<path d="M162.757 105.593L162.49 105.662L162.757 105.593Z" fill="#BEAAFF"/>
<path d="M164.194 105.196L163.988 105.249L164.194 105.196Z" fill="#BEAAFF"/>
<path d="M135.482 76.9657C136.361 76.8282 137.247 76.7059 138.126 76.5913C137.247 76.7059 136.361 76.8282 135.482 76.9657C134.104 77.0733 132.733 77.2698 131.38 77.5539C130.052 78.0609 128.678 78.437 127.277 78.677C128.678 78.437 130.052 78.0609 131.38 77.5539C132.733 77.2698 134.104 77.0733 135.482 76.9657Z" fill="#BEAAFF"/>
<path d="M152.504 107.801C153.217 108.017 153.983 107.973 154.667 107.679C153.983 107.973 153.217 108.017 152.504 107.801Z" fill="#BEAAFF"/>
<path d="M130.379 91.5735C129.271 90.6491 128.087 89.7629 127.086 88.7314C128.136 89.7356 129.237 90.6843 130.386 91.5735C132.617 93.4224 134.894 95.2331 137.194 97.0056C137.896 97.548 138.607 98.0829 139.318 98.6177C138.607 98.0829 137.896 97.548 137.194 97.0056C134.896 95.2433 132.625 93.4326 130.379 91.5735Z" fill="#BEAAFF"/>
<path d="M278.809 62.9771C269.741 64.9864 260.534 64.9329 251.305 65.4983C246.179 65.8115 241.06 66.1171 235.941 66.4456C241.06 66.1171 246.179 65.8115 251.305 65.4983C260.534 64.9329 269.741 64.9864 278.809 62.9771Z" fill="#BEAAFF"/>
<path d="M163.667 73.2373C162.842 73.3366 162.024 73.4436 161.199 73.5276L160.725 73.5811L161.55 73.4894C162.246 73.4359 162.949 73.3366 163.667 73.2373Z" fill="#BEAAFF"/>
<path d="M271.445 72.3892C265.974 74.8187 254.384 79.5326 241.694 84.6591C254.392 79.525 265.974 74.8187 271.445 72.3892Z" fill="#BEAAFF"/>
<path d="M236.041 83.2229L237.515 82.7568L236.041 83.2229Z" fill="#BEAAFF"/>
<path d="M232.014 84.4836L235.651 83.3452L232.014 84.4836Z" fill="#BEAAFF"/>
<path d="M238.287 82.5122L239.463 82.1455L238.287 82.5122Z" fill="#BEAAFF"/>
<path d="M240.548 81.8019L241.893 81.374L240.548 81.8019Z" fill="#BEAAFF"/>
<path d="M229.898 85.1484L231.701 84.583L229.898 85.1484Z" fill="#BEAAFF"/>
<path d="M227.843 85.7897L229.371 85.3008L227.843 85.7897Z" fill="#BEAAFF"/>
<path d="M247.394 79.6399L247.974 79.4565L247.394 79.6399Z" fill="#BEAAFF"/>
<path d="M242.603 81.1524L244.04 80.7017L242.603 81.1524Z" fill="#BEAAFF"/>
<path d="M244.597 80.5257L246.125 80.0444L244.597 80.5257Z" fill="#BEAAFF"/>
<path d="M247.707 114.845C242.211 114.967 236.718 115.197 231.227 115.533C221.127 116.175 210.882 117.259 201.072 120.361C197.496 121.492 194.868 124.327 195.029 128.154C195.189 131.982 197.993 134.427 201.66 134.763C211.49 135.664 221.3 136.714 231.09 137.91C233.611 134.289 236.158 130.688 238.73 127.107C241.658 122.997 244.651 118.91 247.707 114.845Z" fill="#FF8C5A"/>
<path d="M223.549 86.3859C221.738 86.6074 219.92 86.8366 218.109 87.0887L214.778 87.5701C213.296 87.7916 211.814 88.0132 210.339 88.2577C209.041 88.4716 207.749 88.6931 206.458 88.93C205.167 89.1668 203.876 89.4189 202.592 89.694C201.828 89.8544 201.019 90.0301 200.239 90.2211C198.711 90.593 197.199 91.031 195.701 91.5352C191.942 92.7956 188.378 94.5751 185.112 96.8221C184.87 96.9946 184.645 97.189 184.44 97.4028C184.307 97.5461 184.182 97.6966 184.065 97.8535C184.002 97.9266 183.944 98.0032 183.89 98.0828C183.731 98.3052 183.59 98.5403 183.469 98.7856V98.8315C183.334 99.0995 183.214 99.375 183.11 99.6566C196.335 95.6609 212.448 90.649 227.422 85.958L223.549 86.3859Z" fill="#FF8C5A"/>
<path d="M217.544 110.628C212.731 110.513 207.902 110.712 203.097 110.544C197.749 110.353 192.401 110.368 187.267 108.733C186.875 108.606 186.496 108.443 186.136 108.244L180.223 111.254C178.073 112.414 175.998 113.707 174.011 115.128L173.476 115.25C172.253 115.585 171.191 116.346 170.481 117.397L168.251 118.635C167.749 118.895 167.335 119.296 167.059 119.788C166.3 120.444 165.73 121.291 165.408 122.241C164.553 123.532 164.125 125.106 163.422 126.519C162.421 128.528 161.443 130.545 160.458 132.562C158.555 136.459 156.554 140.302 154.651 144.198C154.508 144.487 154.41 144.796 154.361 145.115C154.145 145.701 154.055 146.326 154.099 146.949C154.142 147.572 154.317 148.179 154.613 148.729C155.82 150.784 158.196 151.128 160.206 150.196C165.946 147.537 171.592 144.692 177.144 141.662C184.539 150.188 191.744 158.951 198.261 167.508C201.806 172.153 207.91 172.566 211.386 167.508C216.031 160.746 220.302 153.718 224.886 146.918C226.923 143.898 228.981 140.895 231.059 137.91C221.275 136.708 211.465 135.659 201.63 134.763C197.963 134.427 195.143 131.882 194.998 128.154C194.853 124.426 197.466 121.492 201.042 120.361C210.851 117.259 221.097 116.174 231.197 115.533C236.687 115.191 242.181 114.962 247.676 114.845L249.403 112.553C248.639 112.477 247.814 112.393 247.012 112.324C237.227 111.453 227.405 110.888 217.544 110.628Z" fill="#BEAAFF"/>
<path d="M286.832 64.8334C286.608 64.5649 286.351 64.3261 286.068 64.1229C285.571 63.7697 284.995 63.5428 284.391 63.4616C283.787 63.3804 283.172 63.4474 282.599 63.6568L282.461 63.695C282.293 63.5881 282.125 63.4888 281.95 63.3971L281.812 63.336C281.659 63.2612 281.501 63.1974 281.338 63.145H281.254C281.065 63.0839 280.871 63.0379 280.674 63.0074H280.536C280.369 62.9833 280.201 62.9706 280.032 62.9692H279.879H279.528H279.337C279.161 62.9692 278.978 63.0304 278.794 63.0762V63.0304C269.725 65.0397 260.519 64.9862 251.29 65.5516C246.164 65.8648 241.045 66.1704 235.926 66.4989C231.067 66.8147 226.228 67.1585 221.41 67.5303C211.478 68.2943 201.454 68.9208 191.522 69.9981C186.472 70.5405 181.414 70.976 176.372 71.5796C175.104 71.7324 173.843 71.9004 172.552 72.0762L171.429 72.2366L167.662 72.779C166.829 72.8936 165.997 73.0159 165.156 73.1229L163.628 73.3062C162.918 73.3902 162.215 73.4896 161.512 73.5583L160.687 73.65C155.133 74.2383 149.662 75.1245 144.131 75.8733H144.032L143.581 75.9267L141.19 76.2323L139.043 76.5074L138.095 76.6296C137.217 76.7442 136.33 76.8665 135.452 77.004C134.073 77.1116 132.703 77.3081 131.349 77.5923C130.021 78.0992 128.647 78.4754 127.246 78.7154C126.137 78.7274 125.07 79.141 124.243 79.8797C123.416 80.6183 122.884 81.6319 122.747 82.7324C122.61 83.833 122.877 84.946 123.497 85.865C124.118 86.7841 125.051 87.4469 126.123 87.7306C126.41 88.0929 126.717 88.4397 127.04 88.7696C128.056 89.801 129.225 90.6873 130.333 91.6117C132.569 93.4606 134.841 95.2713 137.148 97.0438C137.851 97.5862 138.561 98.1211 139.272 98.6559C140.678 99.7255 142.094 100.777 143.52 101.811C145.048 102.901 146.576 103.976 148.104 105.035C149.196 105.799 150.304 106.563 151.412 107.327C151.744 107.558 152.11 107.736 152.497 107.854C153.209 108.07 153.975 108.027 154.659 107.732C154.857 107.649 155.046 107.546 155.224 107.427H155.392L155.805 107.373H155.881L156.393 107.274H156.5L157.15 107.136H157.195L157.959 106.961H158.089L158.93 106.754L159.121 106.701L160.076 106.456H160.198L161.206 106.189L161.375 106.143L162.513 105.83L162.78 105.761L164.01 105.417L164.217 105.364L165.462 105.005L165.645 104.959L167.059 104.554L167.372 104.462L168.846 104.042L169.114 103.958L170.642 103.515L170.749 103.477L172.353 103.011L172.812 102.873L174.454 102.392L174.783 102.293L178.481 101.192L178.893 101.07L180.773 100.505L181.101 100.405L183.065 99.8095C183.169 99.5279 183.288 99.2524 183.424 98.9844V98.9385C183.544 98.6932 183.685 98.4581 183.844 98.2356C183.898 98.156 183.957 98.0795 184.02 98.0064C184.136 97.8495 184.261 97.699 184.394 97.5557C184.6 97.3419 184.825 97.1475 185.066 96.975C188.332 94.728 191.897 92.9485 195.655 91.6881C197.138 91.1788 198.65 90.7408 200.194 90.374C200.958 90.183 201.722 90.0073 202.547 89.8469C203.83 89.5871 205.119 89.3325 206.412 89.0829C207.704 88.846 208.995 88.6245 210.294 88.4106C211.768 88.1661 213.25 87.9445 214.733 87.723L218.064 87.2416C219.874 86.9895 221.693 86.7603 223.503 86.5388L227.323 86.0956L227.82 85.9428L229.348 85.4539L229.822 85.3011L231.625 84.7357L231.938 84.6364L235.575 83.498L235.964 83.3758L237.439 82.9097L238.203 82.6653L239.379 82.2985L240.464 81.9547L241.809 81.5269L242.519 81.3053L243.956 80.8546L244.513 80.6788L246.041 80.1975L247.317 79.7926L247.898 79.6092L252.146 78.2722C261.421 75.3385 268.579 73.0694 271.865 72.0456L272.079 71.9768L272.461 71.8546L272.659 71.7935L272.988 71.6942L273.118 71.656L273.37 71.5796L273.545 71.5184H273.645L273.217 71.7247L273.102 71.7782L272.713 71.9616L272.575 72.0227L272.132 72.2213L271.979 72.2901L271.444 72.5346H271.345C265.875 74.9641 254.293 79.6704 241.603 84.7968C244.149 84.6237 246.696 84.4785 249.243 84.3613L250.289 84.3079C252.505 84.2162 254.713 84.1398 256.928 84.0787H258.159C260.344 84.0328 262.529 84.0074 264.714 84.0023H265.875C268.411 84.0023 270.956 84.0023 273.515 84.0787C273.698 83.8794 273.866 83.6675 274.019 83.4445L274.08 83.3605C274.373 82.9169 274.6 82.4331 274.753 81.9242L274.798 81.7637C274.863 81.5128 274.909 81.2574 274.936 80.9997C276.581 79.212 278.267 77.47 279.994 75.7739C282.064 73.7341 284.203 71.7629 286.442 69.8988C287.955 68.5388 287.901 66.1475 286.832 64.8334Z" fill="#BEAAFF"/>
<path d="M249.365 84.2163C246.818 84.3335 244.272 84.4786 241.725 84.6518C244.266 84.4786 246.813 84.3335 249.365 84.2163Z" fill="#FF8C5A"/>
<path d="M203.097 110.544C207.902 110.712 212.731 110.544 217.544 110.628C227.4 110.877 237.222 111.435 247.012 112.301C247.814 112.37 248.608 112.454 249.403 112.53C252.637 108.236 255.915 103.981 259.236 99.7636C250.281 98.9385 241.287 98.4291 232.251 98.2356C234.963 97.8612 237.683 97.5403 240.395 97.2653C246.928 96.6159 254.866 96.1422 262.169 96.0887C264.161 93.5981 266.173 91.1253 268.205 88.6703C268.801 87.9521 269.405 87.2416 270 86.5311L272.613 84.7509C272.979 84.5054 273.315 84.2182 273.614 83.8952C271.078 83.8418 268.534 83.8188 265.974 83.8188H264.813C262.628 83.8188 260.443 83.8443 258.258 83.8952H257.028C254.812 83.9564 252.604 84.0328 250.388 84.1244L249.342 84.1779C246.795 84.2951 244.248 84.4402 241.702 84.6134C221.211 92.8876 197.856 102.247 192.806 104.821L186.166 108.198C186.527 108.397 186.905 108.56 187.297 108.687C192.362 110.368 197.749 110.353 203.097 110.544Z" fill="#FF8C5A"/>
<path d="M153.811 129.995C153.91 129.506 154.002 129.025 154.109 128.536C155.01 124.227 155.851 119.895 156.882 115.617C157.371 113.6 157.982 111.568 158.326 109.505C158.461 108.909 158.456 108.289 158.312 107.696C158.167 107.102 157.887 106.549 157.493 106.082C156.725 105.366 155.81 104.826 154.812 104.501C150.869 102.675 147.049 100.574 143.115 98.7399C138.584 96.6389 134.077 94.5226 129.607 92.307C127.934 91.4819 126.467 93.9191 128.133 94.8359C135.33 98.7781 142.343 103.057 149.586 106.938L152.061 108.267C152.413 108.458 152.825 108.764 153.161 108.955C152.963 109.566 152.841 110.605 152.703 111.315C152.512 112.309 152.313 113.302 152.122 114.295C151.358 118.337 150.358 122.34 149.456 126.351C148.432 130.935 147.057 135.45 146.262 140.05C146.101 140.679 146.171 141.346 146.459 141.928C146.748 142.511 147.236 142.97 147.835 143.223C148.434 143.476 149.104 143.505 149.722 143.305C150.341 143.106 150.867 142.69 151.206 142.135" fill="#2C232E"/>
<path d="M285.662 65.2153C269.351 71.5413 253.261 78.4173 237.003 84.8884C220.745 91.3595 204.556 98.0598 188.756 105.555C184.32 107.663 179.937 109.892 175.608 112.24C171.25 114.467 167.035 116.962 162.986 119.712C161.206 120.98 162.986 123.455 164.873 122.806C173.125 119.918 181.017 115.701 188.871 111.865C196.603 108.099 204.235 104.126 211.944 100.314C227.537 92.6049 243.268 85.1635 259.419 78.6541C268.533 74.9793 277.755 71.5948 287.015 68.2484C289.016 67.5303 287.664 64.4284 285.662 65.1924" fill="#2C232E"/>
<path d="M162.729 20.4315C160.647 16.9657 158.096 13.8047 155.148 11.0383C152.359 8.28389 149.055 6.10484 145.425 4.62522C144.414 4.25289 143.356 4.02632 142.281 3.95233C139.22 2.32375 135.927 1.17512 132.517 0.546637C124.945 -0.799898 117.14 0.357089 110.284 3.84247C103.357 7.30356 97.8093 13.0113 94.5461 20.0332C92.9202 23.4823 91.9944 27.2195 91.8223 31.0288C91.6503 34.838 92.2353 38.6435 93.5437 42.2251C96.2205 49.4229 101.116 55.5834 107.523 59.8166C113.677 63.8016 120.796 66.0462 128.122 66.3121C143.421 66.985 159.323 58.6218 164.843 43.9691C166.28 40.1386 166.835 36.0338 166.469 31.9592C166.103 27.8846 164.825 23.9447 162.729 20.4315ZM160.009 35.6335C160.009 36.0317 160.009 36.43 159.913 36.8282L159.831 37.4324C159.831 37.4324 159.831 37.4324 159.831 37.5286V37.7895C159.51 39.4709 159.027 41.1173 158.389 42.7058C158.307 42.898 158.224 43.0765 158.156 43.2688C157.977 43.6258 157.812 43.9966 157.62 44.3537C157.202 45.1544 156.743 45.9336 156.247 46.6882C156.027 47.0315 155.794 47.3611 155.56 47.6769L155.203 48.1713L154.983 48.446L154.777 48.6932L154.283 49.2699C153.981 49.5995 153.665 49.9428 153.349 50.2587C152.786 50.8492 152.209 51.3985 151.605 51.9341L150.548 52.8267L150.081 53.1975L149.655 53.5133L149.408 53.6918L148.914 54.0352C148.584 54.2686 148.241 54.4883 147.897 54.708C147.128 55.1887 146.332 55.6419 145.522 56.0813C144.711 56.5208 144.025 56.8366 143.269 57.1662C143.118 57.2348 142.569 57.4546 142.542 57.482L141.58 57.8253C140.07 58.3597 138.523 58.7864 136.952 59.1025C136.17 59.2673 135.373 59.4046 134.59 59.5282C134.371 59.5282 133.327 59.6655 134.055 59.5282L132.778 59.638C131.177 59.7342 129.572 59.7342 127.971 59.638C127.175 59.638 126.378 59.5282 125.582 59.4458L124.511 59.3085L123.81 59.1849C122.236 58.8915 120.681 58.5016 119.155 58.0176C118.4 57.7704 117.644 57.5095 116.903 57.2211C116.765 57.2211 116.257 56.9465 116.189 56.9327L115.09 56.4109C113.664 55.7191 112.288 54.9299 110.97 54.0489C110.394 53.6506 109.817 53.2524 109.254 52.813L108.636 52.3048C108.265 52.0027 107.908 51.6731 107.551 51.3436C106.339 50.2322 105.214 49.0293 104.186 47.7456L103.816 47.2924L103.692 47.1002C103.514 46.8667 103.335 46.6058 103.17 46.3586C102.676 45.6445 102.209 44.9854 101.797 44.1614C101.385 43.3374 101.042 42.7881 100.712 42.129C100.547 41.7857 100.382 41.4424 100.231 41.0853C100.08 40.7283 100.08 40.742 100.012 40.5635C100.009 40.5269 100.009 40.4902 100.012 40.4536V40.2751C99.454 38.7604 99.0178 37.2037 98.7071 35.6197C98.6385 35.2489 98.5835 34.8644 98.5286 34.4936C98.5286 34.3289 98.5286 34.1778 98.4599 34.013V33.9169C98.3913 33.0517 98.3363 32.2003 98.3501 31.3489C98.3638 30.4975 98.3501 29.8246 98.4599 29.0555C98.4599 28.6985 98.5423 28.3414 98.5973 27.9844C98.5927 27.9021 98.5927 27.8195 98.5973 27.7372C98.5973 27.4351 98.7071 27.133 98.7758 26.8308C99.1513 25.173 99.6705 23.551 100.328 21.9832C100.328 22.0931 100.657 21.2966 100.685 21.228C100.863 20.8572 101.055 20.5001 101.248 20.1431C101.687 19.3329 102.168 18.5501 102.621 17.7811C103.074 17.012 103.5 16.5177 103.994 15.9134L104.186 15.6937L104.585 15.2268L105.601 14.1145C106.785 12.8792 108.067 11.7403 109.432 10.7088L109.597 10.5852L110.091 10.2419L111.108 9.56896C111.877 9.08832 112.659 8.62141 113.456 8.1957C114.252 7.76999 114.898 7.48161 115.639 7.15203C116.351 6.83682 117.08 6.56173 117.823 6.32806C120.918 5.28132 124.169 4.77046 127.436 4.81748C130.833 4.87237 134.2 5.4752 137.406 6.60272C137.397 7.19388 137.585 7.7711 137.941 8.24347C138.296 8.71585 138.799 9.05656 139.369 9.21192C140.152 9.36761 140.923 9.57871 141.676 9.84362L142.212 10.0359L142.597 10.2007L143.022 10.3929L143.915 10.75H144.066L144.45 10.9148C144.835 11.107 145.219 11.2993 145.59 11.5053C145.961 11.7113 146.703 12.1507 147.238 12.5077C147.774 12.8648 147.897 13.1532 148.213 13.4828C148.525 13.8151 148.933 14.0409 149.38 14.1282C149.93 14.6088 150.479 15.1032 151.015 15.6113C152.294 16.8537 153.504 18.1648 154.64 19.5388L155.052 20.0607L155.423 20.5413L155.656 20.8434L156.041 21.3927C156.576 22.1618 157.071 22.9445 157.538 23.7685C158.005 24.5924 158.43 25.4027 158.815 26.2541C158.911 26.4601 158.993 26.6661 159.076 26.8583C159.227 27.339 159.405 27.7921 159.543 28.2316C159.799 29.0737 160.001 29.9315 160.147 30.7996C160.147 30.9918 160.215 31.1978 160.243 31.3901C160.27 31.5823 160.243 31.5823 160.243 31.7059C160.243 31.8295 160.243 31.9806 160.243 32.0218C160.243 32.3102 160.243 32.6123 160.243 32.9144C160.218 33.8199 160.14 34.7232 160.009 35.6197V35.6335Z" fill="#FF8C5A"/>
<path d="M144.45 23.7685C142.853 22.736 141.203 21.7872 139.507 20.9259C140.251 19.5428 140.788 18.0574 141.1 16.5177C141.229 15.8996 141.12 15.2554 140.794 14.7146C140.468 14.1737 139.949 13.7764 139.342 13.6025C138.735 13.4285 138.084 13.4908 137.521 13.7769C136.958 14.063 136.524 14.5516 136.307 15.1445C136.06 16.1195 135.716 17.067 135.401 18.0146C135.304 18.2892 135.195 18.5776 135.085 18.866L133.711 18.3304C133.272 18.1519 132.846 17.9871 132.338 17.8361C132.462 17.4103 132.572 16.9846 132.654 16.5864C132.914 15.4183 133.053 14.2263 133.066 13.0296C133.066 10.1183 128.479 10.0359 128.521 12.9335C128.539 13.7937 128.475 14.6537 128.328 15.5015C128.26 15.8174 128.163 16.1469 128.067 16.4628C125.587 15.7798 123.063 15.2614 120.514 14.911C118.606 14.6364 117.768 17.2456 118.798 18.4678C118.445 18.7543 118.198 19.1507 118.097 19.5938C117.449 22.5774 116.615 25.5174 115.598 28.3964C115.131 29.7697 114.582 31.0468 114.046 32.2141C113.415 33.5874 112.508 34.9606 111.959 36.3339C111.301 36.2588 110.636 36.3954 110.06 36.7238C109.485 37.0522 109.029 37.5554 108.759 38.1603C108.45 38.8473 108.404 39.6238 108.629 40.3427C108.854 41.0615 109.336 41.6727 109.981 42.0604C111.993 43.1814 114.081 44.1589 116.23 44.9854C115.969 46.1527 115.722 47.32 115.475 48.4872C115.09 50.2175 114.5 52.1676 115.79 53.637C116.114 53.952 116.53 54.1553 116.977 54.2171C117.424 54.2789 117.879 54.1959 118.276 53.9803C119.814 53.225 120.047 51.2338 120.336 49.6957C120.542 48.6658 120.748 47.6358 120.94 46.6059C121.792 46.8668 122.657 47.1002 123.508 47.3337C124.36 47.5672 125.431 47.8143 126.392 48.0341C126.385 48.1438 126.385 48.2539 126.392 48.3636C126.213 49.9057 126.213 51.4632 126.392 53.0053C126.722 54.8866 129.496 54.7493 130.017 53.0053C130.345 51.6559 130.52 50.274 130.539 48.8855C132.915 49.4335 135.353 49.669 137.79 49.5858C140.512 49.505 143.134 48.541 145.261 46.8393C146.253 45.9929 146.885 44.7999 147.028 43.5036C147.171 42.2073 146.814 40.9054 146.03 39.8632C144.467 37.9994 142.554 36.4598 140.399 35.3314L138.957 34.48C140.714 34.5711 142.471 34.324 144.134 33.7521C146.277 32.9282 148.35 31.2528 148.254 28.7672C148.158 26.2816 146.277 24.9495 144.45 23.7685ZM140.042 41.003C140.693 41.4156 141.272 41.9303 141.759 42.5273C141.824 42.6553 141.898 42.7791 141.978 42.8981C141.978 42.9805 142.047 42.9942 142.061 42.9942C142.075 42.9942 142.061 42.9942 142.061 43.0766C141.992 42.953 142.061 42.9667 142.061 43.0766C141.823 43.239 141.576 43.3858 141.319 43.516C141.057 43.666 140.781 43.7902 140.495 43.8868C139.612 44.1924 138.684 44.3502 137.749 44.3537C133.739 44.3537 129.633 43.159 125.76 42.0604C122.929 41.2884 120.172 40.2682 117.521 39.0117C118.299 37.5383 118.92 35.9872 119.375 34.3838C119.649 33.6423 119.91 32.887 120.157 32.1317C123.367 33.068 126.525 34.1727 129.619 35.4413C133.297 36.8854 136.795 38.7518 140.042 41.003ZM143.736 29.0693C143.397 29.2854 143.044 29.4781 142.679 29.6461C140.965 30.1348 139.166 30.2472 137.406 29.9757C135.51 29.8384 133.602 29.6049 131.706 29.344C128.283 28.8399 124.89 28.143 121.544 27.2566C122.107 25.1693 122.574 23.0682 122.918 20.9534C123.019 20.5012 123.019 20.0322 122.918 19.5801C128.573 20.6932 134.016 22.7004 139.04 25.5263C140.497 26.3087 141.877 27.2284 143.159 28.2728C143.383 28.4752 143.59 28.6957 143.777 28.932V29.0281C143.819 28.9869 143.681 29.1105 143.75 29.0693H143.736Z" fill="#FF8C5A"/>
</svg>
