<svg width="327" height="327" viewBox="0 0 327 327" fill="none" xmlns="http://www.w3.org/2000/svg">
<path d="M227.424 299.442C227.424 299.442 177.595 292.053 135.842 275.784C135.842 275.784 84.9821 257.787 88.2399 245.207C88.2399 245.207 89.7609 240.938 96.3551 243.735C105.383 247.582 115.932 251.35 133.82 260.907C133.82 260.907 80.1346 235.041 86.3362 219.036C86.3362 219.036 89.6333 213.875 96.5317 218.349C104.107 223.256 117.825 234.609 138.285 246.247C138.285 246.247 143.407 249.613 143.476 247.503C143.476 246.797 84.7858 210.529 94.8439 197.458C94.8439 197.458 99.2989 191.266 108.866 200.068C108.866 200.068 129.208 223.344 155.644 234.148C169.087 239.643 156.969 244.942 154.221 242.754C151.473 240.565 123.213 213.315 135.901 193.248C148.589 173.181 176.28 188.342 176.28 188.342C176.28 188.342 181.824 191.354 178.105 196.869C174.386 202.384 166.026 199.273 166.026 199.273C166.026 199.273 152.867 194.259 149.001 202.217C142.917 214.709 177.772 226.504 177.772 226.504C177.772 226.504 197.368 232.087 200.469 222.991C203.57 213.894 190.411 207.83 190.411 207.83C190.411 207.83 180.745 201.854 183.767 196.31C186.79 190.766 193.747 193.13 193.747 193.13C193.747 193.13 219.545 201.795 218.416 234.197C218.416 234.197 216.846 258.837 236.962 268.709C236.962 268.709 245.686 271.878 239.789 288.56C234.617 303.191 227.424 299.413 227.424 299.413" fill="#FF8C5A"/>
<path d="M135.547 190.275C130.199 198.312 130.033 208.497 133.516 217.28C137.157 226.455 144.526 233.353 152.16 239.231C154.28 240.929 156.495 242.505 158.794 243.951C159.467 244.37 160.256 244.566 161.048 244.51C161.839 244.453 162.592 244.148 163.2 243.637C163.525 243.337 163.776 242.965 163.934 242.552C164.092 242.139 164.153 241.694 164.111 241.254C164.069 240.813 163.926 240.388 163.693 240.011C163.46 239.635 163.144 239.318 162.768 239.084C162.494 238.892 162.182 238.764 161.853 238.708C161.523 238.652 161.186 238.67 160.864 238.76C160.59 238.593 160.266 238.456 160.02 238.318C159.039 237.759 158.136 237.19 157.204 236.601C155.536 235.551 153.878 234.452 152.298 233.275C149.117 230.926 146.205 228.234 143.613 225.248C138.496 219.47 135.596 212.063 135.43 204.347C135.332 200.119 136.553 195.966 138.923 192.463C140.395 190.334 136.96 188.165 135.518 190.314" fill="#2C232E"/>
<path d="M101.703 215.779C108.693 223.003 116.119 229.793 123.939 236.111C127.795 239.29 131.711 242.391 135.714 245.364C137.755 246.865 139.836 248.308 141.935 249.721C144.035 251.134 146.194 252.881 148.569 253.646C150.698 254.362 152.641 251.468 150.953 249.858C149.118 248.121 146.626 246.983 144.487 245.658C142.348 244.334 140.483 243.107 138.491 241.822C134.311 239.104 130.219 236.268 126.274 233.235C118.482 227.125 111.13 220.471 104.274 213.325C102.684 211.706 100.123 214.081 101.683 215.739" fill="#2C232E"/>
<path d="M95.9136 235.541C95.4576 235.974 95.1898 236.567 95.1677 237.195C95.1457 237.823 95.3713 238.434 95.7958 238.897C108.047 249.364 121.372 258.505 135.547 266.167C137.569 267.256 139.62 268.306 141.68 269.327C142.662 269.817 143.643 270.308 144.683 270.779C145.87 271.348 147.117 272.153 148.481 272.025C148.974 272.026 149.457 271.884 149.873 271.619C150.289 271.353 150.62 270.973 150.826 270.525C151.033 270.076 151.107 269.578 151.039 269.09C150.971 268.601 150.764 268.142 150.443 267.767C149.589 266.618 148.088 266.206 146.822 265.637C145.733 265.156 144.654 264.656 143.574 264.155C141.272 263.07 138.982 261.941 136.705 260.77C132.25 258.474 127.89 256.008 123.625 253.371C119.366 250.741 115.176 248.013 111.084 245.109C106.992 242.204 103.165 238.927 99.2401 235.659C98.8017 235.214 98.2097 234.954 97.5855 234.932C96.9614 234.911 96.3526 235.128 95.8841 235.541" fill="#2C232E"/>
<path d="M143.888 159.208C143.888 159.11 143.888 159.011 143.888 158.913V159.208ZM225.423 135.981C223.872 133.037 220.693 131.545 217.572 130.878C210.468 129.377 203.933 132.291 199.115 137.492C196.434 140.471 194.193 143.818 192.462 147.432C192 148.345 191.539 149.257 191.098 150.18C190.699 151.585 190.372 153.01 190.116 154.448C189.379 159.563 189.224 164.744 189.655 169.894C189.979 174.712 190.381 179.569 189.724 184.377C189.69 184.668 189.581 184.945 189.409 185.182C189.237 185.419 189.007 185.607 188.741 185.73C188.475 185.852 188.182 185.903 187.89 185.88C187.598 185.856 187.317 185.758 187.074 185.594C183.61 183.691 182.57 179.049 182.08 175.458C181.591 171.27 181.469 167.047 181.717 162.838C181.724 158.701 182.079 154.572 182.776 150.494C183.683 146.365 185.204 142.395 187.29 138.719C188.324 136.062 189.671 133.539 191.304 131.202C195.759 124.853 202.098 119.741 205.797 112.901C207.642 109.526 208.829 105.708 207.652 101.901C206.474 98.0936 203.118 95.2872 199.438 93.8545C196.169 92.7004 192.703 92.2101 189.242 92.4123C185.781 92.6145 182.395 93.5051 179.283 95.032C167.508 101.047 163.955 114.716 163.926 126.973C163.926 129.701 164.057 132.415 164.318 135.117C165.408 141.132 166.978 147.079 168.646 152.957C168.93 153.938 169.235 154.919 169.549 155.901C170.932 159.07 172.493 162.151 174.102 165.252C175.899 168.502 177.444 171.884 178.724 175.369C180.155 177.846 180.957 180.636 181.059 183.494C181.039 183.714 180.976 183.928 180.874 184.123C180.772 184.319 180.632 184.492 180.462 184.633C180.292 184.775 180.097 184.881 179.886 184.947C179.675 185.012 179.454 185.035 179.234 185.015C175.78 184.358 173.65 180.658 172.012 177.881C167.782 170.767 165.349 162.701 161.1 155.626C160.855 155.214 160.599 154.812 160.334 154.409C159.108 152.869 157.822 151.377 156.409 149.964C152.19 145.617 146.724 141.221 140.405 140.868C137.031 140.742 133.715 141.766 131 143.772C128.285 145.777 126.331 148.646 125.46 151.907C124.479 155.283 124.4 159.07 126.274 162.161C128.237 165.429 131.769 167.068 135.469 167.401C141.592 168.029 147.745 165.655 153.721 167.323C156.287 168.054 158.668 169.321 160.707 171.042C161.561 172.023 162.395 173.053 163.18 174.094C167.282 179.53 170.844 185.427 175.162 190.707C177.35 193.65 179.931 196.418 183.169 197.733C184.032 198.082 184.956 198.252 185.887 198.233C187.314 198.308 188.739 198.042 190.043 197.457C191.346 196.872 192.492 195.984 193.384 194.867C195.346 192.473 196.102 189.323 196.72 186.36C197.26 183.779 197.603 180.374 198.163 178.303C199.86 172.062 203.766 166.813 208.103 162.151C210.988 159.06 213.745 155.832 216.689 152.81C219.093 150.356 222.086 148.482 224.137 145.695C226.188 142.909 226.983 139.131 225.344 135.971" fill="#6E9E96"/>
<path d="M125.47 54.8193L125.587 54.937L125.273 54.623L125.47 54.8193ZM118.208 99.3497C118.247 99.531 118.303 99.7084 118.375 99.8796L118.247 99.9777C118.247 99.7716 118.247 99.5558 118.247 99.3497H118.208ZM118.149 97.0437C118.149 96.2979 118.149 95.5423 118.149 94.7966C118.149 94.3844 118.149 93.9625 118.149 93.5503L118.238 94.6101C118.272 95.2868 118.272 95.9647 118.238 96.6414C118.238 96.9848 118.238 97.3283 118.238 97.6226V98.0838V98.1427C118.238 97.76 118.238 97.3871 118.238 97.0044L118.149 97.0437ZM118.365 81.304C118.277 79.5867 118.179 77.8695 118.09 76.1523C118.09 75.4163 118.09 74.6705 118.09 73.9444C118.076 73.6797 118.076 73.4143 118.09 73.1496C118.09 72.6982 118.179 72.237 118.218 71.7856C118.355 70.3725 118.532 68.9595 118.689 67.5465C118.875 65.8587 119.062 64.1709 119.258 62.4831C119.356 61.649 119.445 60.8247 119.533 59.9906C119.974 60.5598 120.416 61.1191 120.848 61.6882L121.809 63.0424C121.572 63.2847 121.379 63.5671 121.24 63.8765C121.181 63.9898 121.132 64.108 121.093 64.2297C120.892 65.0422 120.755 65.8689 120.681 66.7026C120.622 67.0853 120.563 67.4581 120.495 67.8408C120.347 68.7534 120.2 69.6562 120.043 70.559C119.935 71.2263 119.867 71.9033 119.778 72.5215C119.66 73.336 119.553 74.1505 119.445 74.9747C119.337 75.799 119.288 76.4074 119.209 77.1237C119.042 78.6545 118.885 80.1951 118.738 81.7357L118.503 84.2478C118.503 84.6501 118.444 85.0525 118.414 85.4548C118.365 84.0516 118.326 82.6483 118.257 81.2451L118.365 81.304ZM115.676 46.8906C115.198 47.0176 114.77 47.2882 114.45 47.6658C114.123 48.073 113.925 48.5684 113.881 49.0886C113.832 49.4796 113.832 49.8752 113.881 50.2662C113.881 50.9432 113.881 51.6203 113.94 52.3072C113.998 52.9941 113.94 53.9165 113.891 54.7212C113.891 56.144 113.783 57.557 113.694 58.9701C113.596 60.6383 113.478 62.3064 113.351 63.9648C113.292 64.74 113.233 65.5152 113.164 66.2806C113.096 67.046 113.096 67.6937 113.066 68.4002C113.066 69.8721 113.066 71.344 113.066 72.8159C113.164 74.6019 113.272 76.378 113.38 78.1639L113.557 80.6956L113.675 83.0605C113.675 83.8062 113.675 84.552 113.675 85.288C113.675 86.7991 113.606 88.2907 113.508 89.792C113.41 91.2934 113.272 92.834 113.194 94.3648C113.194 95.1106 113.194 95.8563 113.194 96.6021C113.194 97.3479 113.194 98.074 113.194 98.81C113.194 99.5459 113.194 100.223 113.194 100.939C113.194 101.656 113.194 102.431 113.194 103.177C113.194 103.54 113.194 103.903 113.194 104.276C113.194 104.649 113.125 105.198 113.096 105.659C113.065 106.281 113.186 106.901 113.449 107.465C113.748 108.073 114.177 108.609 114.705 109.035C115.492 109.613 116.386 110.029 117.335 110.261L118.758 110.723C120.102 111.154 121.476 111.547 122.83 111.949C124.361 112.41 125.892 112.852 127.413 113.343C128.119 113.568 128.816 113.824 129.522 114.069C130.229 114.314 130.945 114.51 131.662 114.707C132.378 114.903 133.065 115.05 133.752 115.246C134.439 115.443 135.214 115.688 135.93 115.943L136.195 116.031C136.833 116.287 137.451 116.542 138.069 116.836C138.383 116.983 138.687 117.15 138.992 117.317L139.453 117.572C139.554 117.637 139.659 117.696 139.767 117.749C140.054 117.886 140.357 117.988 140.67 118.053C140.81 118.096 140.955 118.126 141.101 118.141C141.549 118.286 142.015 118.372 142.485 118.396C143.084 118.408 143.673 118.237 144.173 117.906C144.873 117.378 145.429 116.683 145.792 115.884C146.027 115.472 146.214 115.021 146.43 114.589C146.646 114.157 146.911 113.539 147.136 112.999C147.362 112.46 147.509 112.116 147.686 111.675L149.648 107.023C150.267 105.532 150.875 104.079 151.493 102.529C152.013 101.253 152.573 99.9973 153.132 98.7315C154.113 96.5432 155.094 94.3354 156.184 92.2256C156.486 91.6802 156.834 91.1615 157.224 90.6752C157.554 90.414 157.816 90.0775 157.989 89.6939C158.15 89.2404 158.181 88.7509 158.078 88.2809C157.987 87.7579 157.768 87.2656 157.44 86.8482C157.12 86.4174 156.751 86.0255 156.341 85.6805L155.536 84.9445L153.78 83.3254C152.651 82.2754 151.552 81.196 150.463 80.1166C149.374 79.0372 148.284 78.0461 147.195 77.006C146.106 75.9658 145.095 74.9747 144.026 73.9738L142.416 72.5314C142.043 72.1879 141.69 71.815 141.327 71.452C140.532 70.6473 139.757 69.8427 138.972 69.038L137.991 68.0567L136.529 66.5161C135.449 65.3877 134.399 64.2199 133.29 63.1111L131.563 61.4233C131.23 61.0995 130.906 60.7756 130.582 60.442C129.777 59.549 128.983 58.6463 128.198 57.7435C127.413 56.8407 126.392 55.7809 125.47 54.7997L124.302 53.5927C124.271 53.5717 124.244 53.5451 124.223 53.5142L124.076 53.367L123.546 52.8273L123.115 52.3857L121.623 50.8549C121.191 50.4133 120.769 49.962 120.367 49.5008C120.102 49.2064 119.886 48.8727 119.631 48.5784C119.381 48.2838 119.112 48.0052 118.826 47.7443C118.578 47.5397 118.308 47.3621 118.022 47.2144C117.562 46.9815 117.055 46.8573 116.54 46.8513C116.345 46.8217 116.146 46.8217 115.951 46.8513C115.874 46.8604 115.798 46.8802 115.726 46.9102" fill="#0038FF"/>
<path d="M144.467 128.317C144.802 128.24 145.131 128.135 145.448 128.003C145.448 128.454 145.517 128.906 145.576 129.347C145.635 129.789 145.743 130.496 145.841 131.065L145.576 130.819C144.732 130.064 143.908 129.289 143.084 128.504H143.162C143.581 128.474 143.997 128.415 144.408 128.327L144.467 128.317ZM160.177 94.3845C159.823 94.4792 159.499 94.662 159.235 94.916C158.97 95.1699 158.775 95.4868 158.666 95.8368C158.48 96.2882 158.274 96.72 158.087 97.1713C157.901 97.6227 157.695 98.0937 157.508 98.5648C157.322 99.0358 157.047 99.6834 156.831 100.243C156.537 100.949 156.282 101.685 155.968 102.382C155.654 103.079 155.34 103.824 154.986 104.541C154.506 105.659 154.005 106.758 153.475 107.867C153.279 108.289 153.083 108.721 152.857 109.133L151.876 110.919C151.631 111.351 151.385 111.773 151.12 112.195C150.708 112.842 150.296 113.48 149.894 114.157C149.491 114.834 149.177 115.335 148.795 115.904C148.589 116.218 148.392 116.522 148.157 116.817C147.921 117.111 147.686 117.425 147.44 117.719C147.032 118.199 146.593 118.652 146.126 119.073C145.765 119.365 145.436 119.694 145.144 120.055L144.428 121.036C144.054 121.551 143.644 122.04 143.201 122.498C143.066 122.592 142.926 122.678 142.779 122.753C142.46 122.874 142.132 122.969 141.798 123.038H141.337C140.811 122.935 140.294 122.797 139.786 122.626C138.874 122.263 137.981 121.841 137.088 121.458C136.509 121.203 135.92 120.958 135.351 120.683C134.782 120.408 134.007 120.045 133.389 119.701C132.77 119.358 132.005 118.956 131.318 118.583C130.631 118.21 129.993 117.867 129.355 117.503L128.963 117.229C128.188 116.689 127.413 116.149 126.647 115.59L124.999 114.403L124.518 114.069C124.027 113.735 123.537 113.408 123.046 113.088L122.634 112.842C122.282 112.661 121.91 112.522 121.525 112.43L121.358 112.381L121.142 112.244C120.674 112.003 120.157 111.876 119.631 111.871C119.269 111.866 118.911 111.939 118.58 112.087C118.25 112.234 117.955 112.452 117.718 112.725C117.495 113.008 117.338 113.337 117.256 113.688C117.175 114.039 117.172 114.403 117.247 114.756L117.482 115.482C117.71 115.983 118.045 116.429 118.463 116.787L122.153 120.359C122.614 120.801 123.134 121.213 123.576 121.635C124.017 122.057 124.557 122.498 125.038 122.881L127.148 124.5C127.707 124.932 128.306 125.324 128.884 125.736L132.574 128.366C133.604 129.102 134.537 129.917 135.596 130.672C136.794 131.575 137.997 132.468 139.208 133.351C140.365 134.205 141.533 135.029 142.691 135.873L144.457 137.178L145.439 137.953C145.743 138.179 146.018 138.444 146.302 138.689L146.42 138.787C146.587 138.964 146.744 139.131 146.891 139.317C147.038 139.504 147.382 139.926 147.607 140.24C147.602 140.272 147.602 140.305 147.607 140.338L147.725 140.642C147.84 140.942 147.999 141.223 148.196 141.476C148.376 141.707 148.58 141.917 148.804 142.104C149.212 142.451 149.697 142.696 150.217 142.82L151.042 142.928C151.31 142.919 151.577 142.879 151.837 142.811C152.338 142.666 152.781 142.367 153.102 141.957C153.365 141.594 153.57 141.194 153.711 140.77C153.943 140.03 154.127 139.276 154.26 138.513C154.879 135.726 155.379 132.909 155.919 130.103C156.458 127.297 157.057 124.215 157.656 121.272C157.93 119.878 158.254 118.475 158.549 117.081C158.843 115.688 159.127 114.56 159.422 113.294C159.589 112.558 159.805 111.832 159.991 111.105C160.177 110.379 160.413 109.565 160.58 108.78L161.257 105.738L161.178 106.081C161.247 105.777 161.306 105.473 161.375 105.159L163.062 100.851C163.21 100.498 163.347 100.145 163.484 99.7816L163.612 99.4479C163.69 99.2615 163.759 99.0848 163.818 98.8984C164.012 98.3338 164.056 97.7286 163.946 97.1419C163.772 96.3021 163.284 95.5603 162.582 95.0679C161.88 94.5755 161.016 94.3697 160.168 94.4925H159.991" fill="#0038FF"/>
<path d="M210.056 55.9576C210.056 56.1343 210.115 56.3207 210.134 56.4973C210.139 56.5921 210.139 56.6871 210.134 56.7819C210.134 56.8898 210.134 57.0272 210.134 57.0665C210.134 57.3412 210.134 57.616 210.134 57.8809C210.134 58.6071 210.134 59.343 210.134 60.0594C210.134 60.4257 210.105 60.7888 210.046 61.1486C210.013 61.3304 209.99 61.5139 209.977 61.6981C209.979 61.7275 209.979 61.757 209.977 61.7864C209.982 61.8649 209.982 61.9435 209.977 62.0219C209.691 63.5539 209.25 65.0531 208.662 66.4966L208.456 66.997C208.456 66.997 208.456 66.997 208.456 67.0559C208.28 67.3797 208.132 67.7133 207.966 68.0372C207.573 68.7633 207.151 69.4698 206.7 70.1567C206.494 70.4609 206.288 70.7651 206.072 71.0595L205.738 71.5011L205.542 71.7464L205.355 71.9819L204.904 72.502C204.629 72.8062 204.354 73.1104 204.06 73.4048C203.55 73.9248 203.02 74.4351 202.47 74.9257C202.156 75.1907 201.842 75.4654 201.489 75.7206L201.057 76.064L200.675 76.3584L200.459 76.5154L200.007 76.8294L199.026 77.4378C198.329 77.8794 197.603 78.2915 196.867 78.6742C196.131 79.0569 195.523 79.3611 194.826 79.6555L194.169 79.9303L193.295 80.2541C191.921 80.728 190.519 81.1148 189.096 81.412C188.379 81.5592 187.663 81.6867 186.937 81.7849C186.75 81.7849 185.799 81.9124 186.456 81.8536C186.073 81.8536 185.691 81.9321 185.308 81.9517C183.854 82.04 182.395 82.04 180.941 81.9517C180.215 81.9517 179.489 81.8536 178.763 81.7652L177.781 81.6377H177.723L177.095 81.5297C175.664 81.2657 174.251 80.9118 172.865 80.47C172.178 80.2541 171.491 80.0088 170.814 79.7438L170.167 79.4789L169.185 79.0177C167.882 78.3883 166.623 77.6703 165.417 76.8687C164.887 76.5154 164.367 76.1425 163.857 75.75L163.288 75.2888C162.954 75.0042 162.621 74.7099 162.307 74.4155C161.206 73.4038 160.183 72.3116 159.245 71.1478L158.921 70.7357L158.804 70.5787C158.647 70.353 158.48 70.1273 158.323 69.8918C157.881 69.2441 157.459 68.5769 157.067 67.9292C156.674 67.2816 156.39 66.7124 156.085 66.0844C155.928 65.7704 155.791 65.4564 155.644 65.1031L155.438 64.6321C155.438 64.6321 155.438 64.5536 155.438 64.5242C155.438 64.4948 155.438 64.4359 155.438 64.377C154.928 62.9993 154.534 61.5813 154.26 60.1379C154.192 59.8042 154.133 59.4608 154.084 59.1566C154.084 59.0094 154.084 58.872 154.035 58.7248C154.029 58.6923 154.029 58.6592 154.035 58.6267C153.976 57.8515 153.927 57.0763 153.936 56.3011C153.946 55.5259 153.936 54.9175 154.044 54.2208C154.044 53.9002 154.084 53.5731 154.162 53.2395C154.162 53.1708 154.162 53.0334 154.162 53.004C154.211 52.739 154.26 52.4643 154.319 52.1993C154.656 50.6911 155.129 49.2164 155.732 47.7934C155.732 47.8817 156.027 47.1654 156.056 47.0967C156.223 46.7631 156.39 46.4392 156.566 46.1154C156.969 45.3795 157.4 44.6729 157.862 43.9762C158.323 43.2795 158.656 42.8281 159.088 42.2786L159.265 42.0725L159.618 41.6506C159.922 41.3071 160.226 40.9735 160.55 40.6693C161.615 39.5311 162.77 38.4809 164.004 37.5292L164.152 37.4213L164.603 37.1073C164.907 36.9012 165.211 36.6951 165.525 36.4989C166.222 36.0573 166.938 35.6354 167.664 35.2527C168.391 34.87 168.97 34.5952 169.627 34.2714C170.267 33.9832 170.922 33.731 171.59 33.5158C174.389 32.5691 177.329 32.111 180.284 32.1616C183.371 32.2026 186.431 32.7496 189.341 33.7807C189.333 34.3148 189.504 34.8362 189.825 35.2627C190.147 35.6891 190.601 35.9963 191.117 36.1358C191.83 36.2779 192.532 36.4714 193.217 36.7148C193.384 36.7148 193.541 36.8325 193.698 36.8914L194.061 37.0386L194.444 37.2054C194.709 37.3232 194.973 37.4311 195.248 37.5292H195.386L195.739 37.696C196.092 37.8596 196.419 38.0362 196.72 38.2259C197.23 38.5072 197.731 38.8114 198.221 39.1385C198.516 39.4231 198.82 39.7175 199.105 40.0217C199.388 40.3213 199.759 40.5238 200.164 40.6006C200.675 41.0422 201.146 41.4936 201.646 41.9548C202.813 43.075 203.91 44.2645 204.933 45.5168L205.316 45.9879L205.66 46.4294C205.728 46.5275 205.846 46.6747 205.856 46.7042L206.209 47.1948C206.7 47.9013 207.19 48.6177 207.573 49.3536C207.998 50.0887 208.384 50.8453 208.731 51.6204C208.819 51.8068 208.888 51.9835 208.966 52.1699C208.966 52.1699 208.966 52.1699 208.966 52.2288C209.104 52.6605 209.271 53.0825 209.398 53.5044C209.625 54.2719 209.809 55.0517 209.948 55.8399L210.056 55.9576ZM212.568 46.1547C210.683 43.0058 208.371 40.1329 205.699 37.6175C203.165 35.1172 200.164 33.1399 196.867 31.7986C195.949 31.4611 194.988 31.2563 194.012 31.1902C191.242 29.7163 188.264 28.6739 185.18 28.0991C178.308 26.8624 171.219 27.8957 164.986 31.043C158.698 34.1959 153.663 39.3837 150.698 45.7622C149.227 48.8965 148.39 52.2907 148.235 55.7498C148.08 59.2088 148.61 62.6643 149.795 65.9176C152.221 72.4526 156.665 78.0448 162.483 81.883C168.069 85.4971 174.528 87.5316 181.177 87.7707C195.062 88.3889 209.506 80.7938 214.54 67.4877C215.842 64.0149 216.347 60.2938 216.018 56.5995C215.688 52.9053 214.533 49.3323 212.636 46.1448" fill="#2C232E"/>
<path d="M195.405 54.1226C195.093 54.3218 194.764 54.4957 194.424 54.6427C192.871 55.0821 191.242 55.1858 189.645 54.9469C187.908 54.8095 186.181 54.6034 184.464 54.3581C181.352 53.9083 178.268 53.2759 175.23 52.4642C175.75 50.5802 176.211 48.6667 176.516 46.7434C176.594 46.3263 176.577 45.8971 176.467 45.4873C181.604 46.4938 186.546 48.3159 191.107 50.8844C192.448 51.5722 193.72 52.3871 194.905 53.3179C195.103 53.5027 195.287 53.7028 195.454 53.9165L195.513 53.995C195.445 53.995 195.317 54.1618 195.386 54.1226H195.405ZM193.59 66.3395C193.59 66.3395 193.767 66.6339 193.786 66.6731C193.806 66.7124 193.855 66.7615 193.865 66.7615C193.874 66.7615 193.865 66.7615 193.865 66.84C193.806 66.732 193.865 66.7418 193.865 66.84C193.65 66.992 193.424 67.1265 193.188 67.2423C192.951 67.3787 192.701 67.4905 192.442 67.5759C191.624 67.8556 190.765 67.9981 189.9 67.9979C186.26 68.0567 182.521 66.9185 179.008 65.9176C176.425 65.2158 173.91 64.2864 171.492 63.1405C172.203 61.8085 172.769 60.4037 173.179 58.9505C173.425 58.2734 173.66 57.5865 173.886 56.8996C176.8 57.7534 179.67 58.7556 182.482 59.9023C185.851 61.2076 189.058 62.8967 192.04 64.9363C192.631 65.3099 193.158 65.7772 193.6 66.3199L193.59 66.3395ZM196.082 49.3045C194.63 48.369 193.135 47.5055 191.598 46.7139C192.272 45.457 192.758 44.1081 193.04 42.7103C193.195 42.1341 193.119 41.52 192.828 40.9993C192.536 40.4786 192.052 40.0925 191.48 39.9235C190.907 39.7719 190.297 39.8462 189.776 40.131C189.256 40.4159 188.865 40.8895 188.684 41.4543C188.458 42.3374 188.154 43.1912 187.859 44.0547C187.781 44.3098 187.673 44.5649 187.575 44.8299L186.378 44.3981L185.2 43.9467C185.308 43.564 185.406 43.1813 185.485 42.8183C185.717 41.7576 185.839 40.6757 185.848 39.5899C185.848 36.9502 181.687 36.8717 181.726 39.4917C181.751 40.2775 181.692 41.0637 181.55 41.837C181.491 42.1216 181.402 42.4159 181.314 42.7005C179.057 42.0853 176.762 41.6134 174.445 41.2875C172.708 41.052 171.972 43.4168 172.885 44.5257C172.571 44.7749 172.348 45.1193 172.247 45.507C171.662 48.2171 170.908 50.8881 169.99 53.5044C169.558 54.6917 169.068 55.9085 168.577 56.9781C167.998 58.2341 167.174 59.4313 166.683 60.7266C166.08 60.6507 165.468 60.7709 164.937 61.0695C164.407 61.3681 163.987 61.8293 163.739 62.385C163.458 63.0097 163.416 63.7163 163.622 64.3697C163.829 65.0232 164.269 65.5777 164.858 65.9274C166.685 66.9437 168.58 67.8322 170.53 68.5866C170.294 69.6366 170.069 70.6964 169.833 71.7562C169.49 73.336 168.95 75.1023 170.118 76.4369C170.415 76.7197 170.794 76.9021 171.201 76.9584C171.607 77.0148 172.021 76.9422 172.385 76.7509C173.788 76.064 173.994 74.229 174.259 72.8258C174.445 71.8935 174.622 70.9613 174.808 70.0193C175.583 70.2548 176.359 70.4707 177.144 70.6768C177.929 70.8828 178.881 71.1183 179.754 71.3146C179.728 71.4142 179.712 71.5161 179.705 71.6188C179.548 73.0209 179.548 74.4362 179.705 75.8383C180.009 77.5359 182.531 77.4181 183.002 75.8972C183.311 74.6547 183.469 73.3798 183.473 72.0996C185.632 72.5871 187.845 72.7981 190.057 72.7276C192.525 72.6748 194.908 71.8206 196.848 70.2941C197.748 69.5237 198.321 68.4388 198.448 67.2607C198.576 66.0827 198.249 64.9003 197.535 63.955C196.12 62.263 194.386 60.8659 192.432 59.8434C192 59.5785 191.559 59.3234 191.117 59.0682C192.715 59.1513 194.313 58.9281 195.827 58.4108C197.79 57.665 199.654 56.144 199.536 53.8773C199.419 51.6105 197.682 50.3545 196.024 49.2849" fill="#2C232E"/>
<path d="M199.266 199.776C199.266 202.598 194.248 203.353 190.58 203.353C186.911 203.353 183.192 201.065 183.192 198.244C183.192 195.422 185.981 192.623 190.58 192.623C192.325 192.623 193.134 192.623 196.2 194.156C197.506 195.223 199.266 198.297 199.266 199.776Z" fill="#FF8C5A"/>
</svg>
