<svg width="32" height="33" viewBox="0 0 32 33" fill="none" xmlns="http://www.w3.org/2000/svg">
<path d="M4.99976 19.5C5.55204 19.5 5.99976 19.9477 5.99976 20.5V23.5C5.99976 25.1567 7.34307 26.4998 8.99976 26.5H11.9998C12.552 26.5 12.9998 26.9477 12.9998 27.5C12.9998 28.0523 12.552 28.5 11.9998 28.5H8.99976C6.2385 28.4998 3.99976 26.2613 3.99976 23.5V20.5C3.99976 19.9478 4.44764 19.5002 4.99976 19.5ZM26.9998 19.5C27.552 19.5 27.9998 19.9477 27.9998 20.5V23.5C27.9998 26.2614 25.7612 28.5 22.9998 28.5H19.9998C19.4476 28.4998 18.9998 28.0522 18.9998 27.5C18.9998 26.9478 19.4476 26.5002 19.9998 26.5H22.9998C24.6566 26.5 25.9998 25.1569 25.9998 23.5V20.5C25.9998 19.9478 26.4476 19.5002 26.9998 19.5ZM15.9998 7.5C19.7503 7.5 22.9998 10.2812 22.9998 13.9004V16.9541C22.9998 17.5064 22.552 17.9541 21.9998 17.9541C21.4476 17.954 20.9998 17.5063 20.9998 16.9541V13.9004C20.9998 11.5788 18.8492 9.5 15.9998 9.5C13.1504 9.50012 10.9998 11.5789 10.9998 13.9004V23.5C10.9998 24.0523 10.552 24.5 9.99976 24.5C9.44758 24.4999 8.99976 24.0522 8.99976 23.5V13.9004C8.99976 10.2812 12.2493 7.50012 15.9998 7.5ZM12.9998 19.2275C13.552 19.2275 13.9998 19.6753 13.9998 20.2275V23.5C13.9997 24.0522 13.552 24.5 12.9998 24.5C12.4476 24.4999 11.9998 24.0522 11.9998 23.5V20.2275C11.9998 19.6753 12.4476 19.2276 12.9998 19.2275ZM15.9998 20.8633C16.5519 20.8633 16.9996 21.3112 16.9998 21.8633V23.5C16.9997 24.0523 16.552 24.5 15.9998 24.5C15.4476 24.4999 14.9998 24.0522 14.9998 23.5V21.8633C14.9999 21.3112 15.4477 20.8634 15.9998 20.8633ZM15.9998 10.5C18.202 10.5 19.9998 12.2972 19.9998 14.5V23.5C19.9997 24.0522 19.552 24.5 18.9998 24.5C18.4476 24.4999 17.9998 24.0522 17.9998 23.5V14.5C17.9998 13.402 17.0976 12.5 15.9998 12.5C14.902 12.5001 13.9998 13.402 13.9998 14.5V16.9541C13.9998 17.5064 13.552 17.9541 12.9998 17.9541C12.4476 17.954 11.9998 17.5063 11.9998 16.9541V14.5C11.9998 12.2973 13.7976 10.5001 15.9998 10.5ZM21.9998 19.2275C22.552 19.2275 22.9998 19.6753 22.9998 20.2275V23.5C22.9997 24.0523 22.552 24.5 21.9998 24.5C21.4476 24.4999 20.9998 24.0522 20.9998 23.5V20.2275C20.9998 19.6753 21.4476 19.2276 21.9998 19.2275ZM15.9998 13.5C16.552 13.5 16.9998 13.9477 16.9998 14.5V18.7002C16.9997 19.2524 16.552 19.7002 15.9998 19.7002C15.4476 19.7001 14.9999 19.2523 14.9998 18.7002V14.5C14.9998 13.9478 15.4476 13.5001 15.9998 13.5ZM11.9998 4.5C12.552 4.5 12.9998 4.94772 12.9998 5.5C12.9998 6.05228 12.552 6.5 11.9998 6.5H8.99976C7.3429 6.5 5.99976 7.84315 5.99976 9.5V12.5C5.99976 13.0523 5.55204 13.5 4.99976 13.5C4.44747 13.5 3.99976 13.0523 3.99976 12.5V9.5C3.99976 6.73858 6.23833 4.5 8.99976 4.5H11.9998ZM22.9998 4.5C25.7612 4.5 27.9998 6.73858 27.9998 9.5V12.5C27.9998 13.0523 27.552 13.5 26.9998 13.5C26.4475 13.5 25.9998 13.0523 25.9998 12.5V9.5C25.9998 7.84315 24.6566 6.5 22.9998 6.5H19.9998C19.4475 6.5 18.9998 6.05228 18.9998 5.5C18.9998 4.94772 19.4475 4.5 19.9998 4.5H22.9998Z" fill="#2C232E"/>
</svg>
