<svg width="32" height="32" viewBox="0 0 32 32" fill="none" xmlns="http://www.w3.org/2000/svg">
<path fill-rule="evenodd" clip-rule="evenodd" d="M16 2.00104C19.588 1.96832 23.1418 2.71133 26.4288 4.18077L26.4453 4.18814C26.9166 4.40912 27.3118 4.76324 27.5862 5.20426C27.8598 5.64405 28.0027 6.15304 28 6.67047L27.9999 6.67404L27 6.66751H28V6.67047V15.4655C27.9999 18.4432 27.1191 21.3529 25.4706 23.8113C23.822 26.27 21.4819 28.1631 18.7561 29.2371L17.5816 29.6993C16.5641 30.1001 15.4362 30.1002 14.4187 29.6994L13.2443 29.2372C10.5184 28.1633 8.17803 26.27 6.5294 23.8113C4.88095 21.3529 4.00006 18.4432 4.00004 15.4655V6.6704L4.00006 6.67404L5.00004 6.66751H4.00004V6.6704M6.39747 6.00215C6.28356 6.05706 6.18363 6.14564 6.11193 6.26088C6.03875 6.37849 5.99908 6.5175 6.00002 6.66098L6.00006 6.66751L6.00004 15.4655C6.00006 18.0497 6.76476 20.5712 8.19053 22.6975C9.61603 24.8234 11.6344 26.4532 13.9767 27.3762L15.1511 27.8384C15.6977 28.0537 16.302 28.0538 16.8485 27.8385L18.023 27.3763C20.3653 26.4534 22.384 24.8234 23.8095 22.6975C25.2352 20.5712 25.9999 18.0497 26 15.4655V6.66098C26.0009 6.51749 25.9613 6.37848 25.8881 6.26088C25.8164 6.14564 25.7164 6.05706 25.6025 6.00215C22.577 4.65132 19.3082 3.96969 16.0095 4.00103L15.9905 4.00121C12.6918 3.96987 9.42301 4.65132 6.39747 6.00215Z" fill="#2C232E"/>
<path fill-rule="evenodd" clip-rule="evenodd" d="M16 2.00104C12.412 1.96832 8.85831 2.71133 5.57127 4.18077L5.55479 4.18814C5.08351 4.40912 4.68832 4.76324 4.4139 5.20426C4.14025 5.64405 3.99733 6.15297 4.00004 6.6704L4.00006 6.67404L5.00004 6.66751H4.00004V6.6704V15.4655C4.00006 18.4432 4.88095 21.3529 6.5294 23.8113C8.17803 26.27 10.5184 28.1633 13.2443 29.2372L14.4187 29.6994C15.4362 30.1002 16.5641 30.1001 17.5816 29.6993L18.7561 29.2371C21.4819 28.1631 23.822 26.27 25.4706 23.8113C27.1191 21.3529 27.9999 18.4432 28 15.4655V6.67047L27.9999 6.67404L27 6.66751H28V6.67047M25.6025 6.00215C25.7164 6.05706 25.8164 6.14564 25.8881 6.26088C25.9613 6.37848 26.0009 6.51749 26 6.66098L26 6.66751L26 15.4655C25.9999 18.0497 25.2352 20.5712 23.8095 22.6975C22.384 24.8234 20.3653 26.4534 18.023 27.3763L16.8485 27.8385C16.302 28.0538 15.6977 28.0537 15.1511 27.8384L13.9767 27.3762C11.6344 26.4532 9.61603 24.8234 8.19053 22.6975C6.76476 20.5712 6.00006 18.0497 6.00004 15.4655L6.00002 6.66098C5.99908 6.5175 6.03875 6.37849 6.11193 6.26088C6.18363 6.14564 6.28356 6.05706 6.39747 6.00215C9.42301 4.65132 12.6918 3.96987 15.9905 4.00121L16.0095 4.00103C19.3082 3.96969 22.577 4.65132 25.6025 6.00215Z" fill="#2C232E"/>
<path fill-rule="evenodd" clip-rule="evenodd" d="M13.2108 8.04431C13.9672 7.36551 14.972 7 16 7C17.028 7 18.0328 7.36551 18.7892 8.04431C19.5492 8.72631 20 9.67597 20 10.6923V12C20 12.5523 19.5523 13 19 13C18.4477 13 18 12.5523 18 12V10.6923C18 10.2805 17.8187 9.86061 17.4534 9.5328C17.0846 9.20179 16.5633 9 16 9C15.4367 9 14.9154 9.20179 14.5466 9.5328C14.1813 9.86061 14 10.2805 14 10.6923V12C14 12.5523 13.5523 13 13 13C12.4477 13 12 12.5523 12 12V10.6923C12 9.67597 12.4508 8.72631 13.2108 8.04431Z" fill="#2C232E"/>
<path d="M17 17.5C17 18.0523 16.5523 18.5 16 18.5C15.4477 18.5 15 18.0523 15 17.5C15 16.9477 15.4477 16.5 16 16.5C16.5523 16.5 17 16.9477 17 17.5Z" fill="#2C232E"/>
<path fill-rule="evenodd" clip-rule="evenodd" d="M20 13.8999L12 13.8999V21.0999L20 21.0999V13.8999ZM12 11.8999C10.8954 11.8999 10 12.7953 10 13.8999V21.0999C10 22.2045 10.8954 23.0999 12 23.0999H20C21.1046 23.0999 22 22.2045 22 21.0999V13.8999C22 12.7953 21.1046 11.8999 20 11.8999H12Z" fill="#2C232E"/>
</svg>
