<svg width="32" height="32" viewBox="0 0 32 32" fill="none" xmlns="http://www.w3.org/2000/svg">
<path fill-rule="evenodd" clip-rule="evenodd" d="M9 14.017C8.20435 14.017 7.44129 14.3331 6.87868 14.8957C6.31607 15.4583 6 16.2214 6 17.017V23.017C6 23.8127 6.31607 24.5757 6.87868 25.1383C7.44129 25.701 8.20435 26.017 9 26.017H23C23.7956 26.017 24.5587 25.701 25.1213 25.1383C25.6839 24.5757 26 23.8127 26 23.017V17.017C26 16.6231 25.9224 16.233 25.7716 15.869C25.6209 15.505 25.3999 15.1743 25.1213 14.8957C24.8427 14.6171 24.512 14.3962 24.148 14.2454C23.7841 14.0946 23.394 14.017 23 14.017H20C19.7348 14.017 19.4804 13.9117 19.2929 13.7241C19.1054 13.5366 19 13.2822 19 13.017C19 12.7518 19.1054 12.4975 19.2929 12.3099C19.4804 12.1224 19.7348 12.017 20 12.017H23C23.6566 12.017 24.3068 12.1464 24.9134 12.3976C25.52 12.6489 26.0712 13.0172 26.5355 13.4815C26.9998 13.9458 27.3681 14.497 27.6194 15.1036C27.8707 15.7102 28 16.3604 28 17.017V23.017C28 23.6736 27.8707 24.3238 27.6194 24.9304C27.3681 25.5371 26.9998 26.0883 26.5355 26.5526C26.0712 27.0169 25.52 27.3852 24.9134 27.6364C24.3068 27.8877 23.6566 28.017 23 28.017H9C7.67392 28.017 6.40215 27.4902 5.46447 26.5526C4.52678 25.6149 4 24.3431 4 23.017V17.017C4 15.6909 4.52678 14.4192 5.46447 13.4815C6.40215 12.5438 7.67392 12.017 9 12.017H12C12.2652 12.017 12.5196 12.1224 12.7071 12.3099C12.8946 12.4975 13 12.7518 13 13.017C13 13.2822 12.8946 13.5366 12.7071 13.7241C12.5196 13.9117 12.2652 14.017 12 14.017H9ZM11.3 9.79703C11.2063 9.70406 11.1319 9.59346 11.0811 9.4716C11.0303 9.34974 11.0042 9.21904 11.0042 9.08703C11.0042 8.95501 11.0303 8.82431 11.0811 8.70245C11.1319 8.58059 11.2063 8.46999 11.3 8.37703L15.3 4.37703C15.3863 4.27279 15.4928 4.18713 15.6131 4.12525C15.7334 4.06337 15.865 4.02656 16 4.01703C16.1189 3.99432 16.2411 3.99432 16.36 4.01703C16.4886 4.06358 16.6049 4.13882 16.7 4.23703L20.7 8.23703C20.7937 8.32999 20.8681 8.44059 20.9189 8.56245C20.9697 8.68431 20.9958 8.81501 20.9958 8.94703C20.9958 9.07904 20.9697 9.20974 20.9189 9.3316C20.8681 9.45346 20.7937 9.56406 20.7 9.65703C20.6102 9.75269 20.5018 9.82893 20.3814 9.88105C20.261 9.93317 20.1312 9.96006 20 9.96006C19.8688 9.96006 19.739 9.93317 19.6186 9.88105C19.4982 9.82893 19.3898 9.75269 19.3 9.65703L17 7.49703V23.097C17 23.3622 16.8946 23.6166 16.7071 23.8041C16.5196 23.9917 16.2652 24.097 16 24.097C15.7348 24.097 15.4804 23.9917 15.2929 23.8041C15.1054 23.6166 15 23.3622 15 23.097V7.49703L12.7 9.79703C12.6102 9.89269 12.5018 9.96893 12.3814 10.0211C12.261 10.0732 12.1312 10.1001 12 10.1001C11.8688 10.1001 11.739 10.0732 11.6186 10.0211C11.4982 9.96893 11.3898 9.89269 11.3 9.79703Z" fill="#2C232E"/>
</svg>
