<svg width="32" height="32" viewBox="0 0 32 32" fill="none" xmlns="http://www.w3.org/2000/svg">
<path fill-rule="evenodd" clip-rule="evenodd" d="M16.25 9C16.8023 9 17.25 9.44772 17.25 10V10.5096C18.0205 10.569 18.7478 10.9016 19.2981 11.4519C19.9076 12.0614 20.25 12.888 20.25 13.75C20.25 14.5895 19.9252 15.3955 19.3452 16C19.9252 16.6045 20.25 17.4105 20.25 18.25C20.25 19.112 19.9076 19.9386 19.2981 20.5481C18.7478 21.0984 18.0205 21.431 17.25 21.4904V22C17.25 22.5523 16.8023 23 16.25 23C15.6977 23 15.25 22.5523 15.25 22V21.5H14C13.4477 21.5 13 21.0523 13 20.5V11.5C13 10.9477 13.4477 10.5 14 10.5H15.25V10C15.25 9.44772 15.6977 9 16.25 9ZM15 12.5V15H17C17.3315 15 17.6495 14.8683 17.8839 14.6339C18.1183 14.3995 18.25 14.0815 18.25 13.75C18.25 13.4185 18.1183 13.1005 17.8839 12.8661C17.6495 12.6317 17.3315 12.5 17 12.5H15ZM17 17H15V19.5H16.248H17C17.3315 19.5 17.6495 19.3683 17.8839 19.1339C18.1183 18.8995 18.25 18.5815 18.25 18.25C18.25 17.9185 18.1183 17.6005 17.8839 17.3661C17.6495 17.1317 17.3315 17 17 17Z" fill="#2C232E"/>
<path fill-rule="evenodd" clip-rule="evenodd" d="M11.9289 4.75839C14.0868 3.92606 16.4445 3.77473 18.6897 4.32472C20.9349 4.87468 22.9603 6.0996 24.4987 7.83574C24.865 8.24909 24.8269 8.88111 24.4135 9.24739C24.0002 9.61367 23.3682 9.57552 23.0019 9.16217C21.7318 7.72886 20.0619 6.71997 18.2139 6.26729C16.3659 5.81462 14.4255 5.93904 12.6487 6.62439C10.8718 7.30978 9.34121 8.52437 8.26052 10.1091C7.44797 11.3007 6.91878 12.659 6.70604 14.0783L7.94144 12.9972C8.35705 12.6335 8.98881 12.6756 9.35253 13.0912C9.71624 13.5068 9.67417 14.1386 9.25856 14.5023L6.25856 17.1277C5.86095 17.4756 5.26126 17.4542 4.88947 17.0788L2.28947 14.4534C1.90084 14.061 1.90392 13.4278 2.29634 13.0392C2.68876 12.6506 3.32191 12.6537 3.71053 13.0461L4.69269 14.0378C4.92256 12.2303 5.57602 10.4959 6.60815 8.98232C7.91619 7.06418 9.7712 5.59068 11.9289 4.75839Z" fill="#2C232E"/>
<path fill-rule="evenodd" clip-rule="evenodd" d="M20.0711 27.2416C17.9132 28.0739 15.5555 28.2253 13.3103 27.6753C11.0651 27.1253 9.03972 25.9004 7.50126 24.1643C7.13498 23.7509 7.17313 23.1189 7.58648 22.7526C7.99983 22.3863 8.63184 22.4245 8.99812 22.8378C10.2682 24.2711 11.9381 25.28 13.7861 25.7327C15.6341 26.1854 17.5745 26.061 19.3513 25.3756C21.1282 24.6902 22.6588 23.4756 23.7395 21.8909C24.552 20.6993 25.0812 19.341 25.294 17.9217L24.0586 19.0028C23.643 19.3665 23.0112 19.3244 22.6475 18.9088C22.2838 18.4932 22.3258 17.8614 22.7414 17.4977L25.7414 14.8723C26.139 14.5244 26.7387 14.5458 27.1105 14.9212L29.7105 17.5466C30.0992 17.939 30.0961 18.5722 29.7037 18.9608C29.3112 19.3494 28.6781 19.3463 28.2895 18.9539L27.3073 17.9622C27.0774 19.7697 26.424 21.5041 25.3919 23.0177C24.0838 24.9358 22.2288 26.4093 20.0711 27.2416Z" fill="#2C232E"/>
</svg>
