<svg width="24" height="24" viewBox="0 0 24 24" fill="none" xmlns="http://www.w3.org/2000/svg">
<path fill-rule="evenodd" clip-rule="evenodd" d="M4.89792 4.8125C4.80896 4.8125 4.72364 4.84784 4.66074 4.91074C4.59784 4.97365 4.5625 5.05896 4.5625 5.14791V8.40625C4.5625 8.8032 4.2407 9.125 3.84375 9.125C3.4468 9.125 3.125 8.8032 3.125 8.40625V5.14791C3.125 4.67771 3.31179 4.22676 3.64428 3.89427C3.97677 3.56179 4.42772 3.375 4.89792 3.375H8.15625C8.5532 3.375 8.875 3.6968 8.875 4.09375C8.875 4.4907 8.5532 4.8125 8.15625 4.8125H4.89792ZM14.625 4.09375C14.625 3.6968 14.9468 3.375 15.3438 3.375H18.6021C19.0723 3.375 19.5232 3.56179 19.8557 3.89427C20.1882 4.22676 20.375 4.67771 20.375 5.14791H19.6562H18.9375C18.9375 5.05896 18.9022 4.97365 18.8393 4.91074C18.7764 4.84784 18.691 4.8125 18.6021 4.8125H15.3438C14.9468 4.8125 14.625 4.4907 14.625 4.09375ZM18.9375 5.14791V8.40625C18.9375 8.8032 19.2593 9.125 19.6562 9.125C20.0532 9.125 20.375 8.8032 20.375 8.40625V5.14791H19.6562H18.9375ZM6.28752 7.25621C6.28752 6.85925 6.60932 6.53746 7.00627 6.53746H9.11462C9.51157 6.53746 9.83337 6.85925 9.83337 7.25621V9.36454C9.83337 9.76149 9.51157 10.0833 9.11462 10.0833H7.00627C6.60932 10.0833 6.28752 9.76149 6.28752 9.36454V7.25621ZM7.72502 7.97496V8.64579H8.39587V7.97496H7.72502ZM11.2227 6.53746C11.6197 6.53746 11.9415 6.85925 11.9415 7.25621V9.69995H12.2769C12.6738 9.69995 12.9956 10.0217 12.9956 10.4187C12.9956 10.8157 12.6738 11.1375 12.2769 11.1375H11.2227C10.8258 11.1375 10.504 10.8157 10.504 10.4187V7.25621C10.504 6.85925 10.8258 6.53746 11.2227 6.53746ZM13.6668 7.25621C13.6668 6.85925 13.9886 6.53746 14.3855 6.53746H16.4939C16.8908 6.53746 17.2126 6.85925 17.2126 7.25621V9.36454C17.2126 9.76149 16.8908 10.0833 16.4939 10.0833H14.3855C13.9886 10.0833 13.6668 9.76149 13.6668 9.36454V7.25621ZM15.1043 7.97496V8.64579H15.7751V7.97496H15.1043ZM13.6668 11.4729C13.6668 11.076 13.9886 10.7542 14.3855 10.7542H16.4939C16.8908 10.7542 17.2126 11.076 17.2126 11.4729C17.2126 11.8699 16.8908 12.1917 16.4939 12.1917H14.3855C13.9886 12.1917 13.6668 11.8699 13.6668 11.4729ZM6.28752 12.5271C6.28752 12.1301 6.60932 11.8083 7.00627 11.8083H11.223C11.6199 11.8083 11.9417 12.1301 11.9417 12.5271V13.5812C11.9417 13.9782 11.6199 14.3 11.223 14.3C10.826 14.3 10.5042 13.9782 10.5042 13.5812V13.2458H7.00627C6.60932 13.2458 6.28752 12.924 6.28752 12.5271ZM13.3315 12.8625C13.7284 12.8625 14.0502 13.1843 14.0502 13.5812V16.025H15.7752V14.3H15.4398C15.0429 14.3 14.7211 13.9782 14.7211 13.5812C14.7211 13.1843 15.0429 12.8625 15.4398 12.8625H16.494C16.8909 12.8625 17.2127 13.1843 17.2127 13.5812V16.7437C17.2127 17.1407 16.8909 17.4625 16.494 17.4625H13.3315C12.9345 17.4625 12.6127 17.1407 12.6127 16.7437V13.5812C12.6127 13.1843 12.9345 12.8625 13.3315 12.8625ZM6.28752 14.6354C6.28752 14.2384 6.60932 13.9166 7.00627 13.9166H9.11462C9.51157 13.9166 9.83337 14.2384 9.83337 14.6354V16.7437C9.83337 17.1407 9.51157 17.4625 9.11462 17.4625H7.00627C6.60932 17.4625 6.28752 17.1407 6.28752 16.7437V14.6354ZM7.72502 15.3541V16.025H8.39587V15.3541H7.72502ZM3.84375 14.875C4.2407 14.875 4.5625 15.1968 4.5625 15.5938V18.8521C4.5625 18.941 4.59784 19.0264 4.66074 19.0893C4.72364 19.1522 4.80896 19.1875 4.89792 19.1875H8.15625C8.5532 19.1875 8.875 19.5093 8.875 19.9062C8.875 20.3032 8.5532 20.625 8.15625 20.625H4.89792C4.42772 20.625 3.97677 20.4382 3.64428 20.1057C3.31179 19.7732 3.125 19.3223 3.125 18.8521V15.5938C3.125 15.1968 3.4468 14.875 3.84375 14.875ZM19.6562 14.875C20.0532 14.875 20.375 15.1968 20.375 15.5938V18.8521C20.375 19.3223 20.1882 19.7732 19.8557 20.1057C19.5232 20.4382 19.0723 20.625 18.6021 20.625V19.1875C18.691 19.1875 18.7764 19.1522 18.8393 19.0893C18.9022 19.0264 18.9375 18.941 18.9375 18.8521V15.5938C18.9375 15.1968 19.2593 14.875 19.6562 14.875ZM18.6021 19.1875H15.3438C14.9468 19.1875 14.625 19.5093 14.625 19.9062C14.625 20.3032 14.9468 20.625 15.3438 20.625H18.6021V19.1875ZM11.2227 14.9708C11.6197 14.9708 11.9415 15.2926 11.9415 15.6895V16.7437C11.9415 17.1407 11.6197 17.4625 11.2227 17.4625C10.8258 17.4625 10.504 17.1407 10.504 16.7437V15.6895C10.504 15.2926 10.8258 14.9708 11.2227 14.9708Z" fill="#2C232E"/>
</svg>
