<svg width="41" height="34" viewBox="0 0 41 34" fill="none" xmlns="http://www.w3.org/2000/svg">
<path d="M12.1781 2.8577C12.1779 3.59028 11.5974 4.18415 10.8809 4.18415L6.98764 4.18415C4.83808 4.18452 3.09603 5.96704 3.09603 8.16515V12.1445C3.09603 12.877 2.5151 13.4722 1.79883 13.4726C1.08221 13.4726 0.5 12.8773 0.5 12.1445V8.16515C0.5 4.50148 3.40483 1.53162 6.98764 1.53125L10.8809 1.53125C11.5975 1.53125 12.1781 2.12492 12.1781 2.8577ZM12.1797 32.0479C12.1794 32.7803 11.5973 33.3743 10.8809 33.3743L6.98927 33.3743C3.4063 33.3743 0.50187 30.4041 0.501627 26.7404V22.7594C0.501679 22.0267 1.08224 21.433 1.79883 21.433C2.51529 21.4331 3.09598 22.0268 3.09603 22.7594V26.7404C3.09628 28.9385 4.83955 30.7197 6.98927 30.7197L10.8809 30.7197C11.5975 30.7197 12.1797 31.3151 12.1797 32.0479ZM10.8809 12.1445C10.8809 12.8773 10.3003 13.4726 9.58368 13.4726C8.86716 13.4725 8.28647 12.8772 8.28647 12.1445V10.818C8.28653 10.0854 8.8672 9.49173 9.58368 9.4916C10.3003 9.4916 10.8808 10.0853 10.8809 10.818V12.1445ZM21.8428 22.8992C22.4835 23.227 22.7427 24.0247 22.4222 24.68L21.2618 24.0858C22.4183 24.6772 22.4226 24.6809 22.4222 24.6817L22.4206 24.6833L22.4076 24.71L22.3832 24.7566C22.3642 24.7918 22.3397 24.8368 22.3083 24.8897C22.2452 24.9959 22.1553 25.1355 22.0365 25.2975C21.7993 25.6209 21.4402 26.0369 20.9362 26.4492C19.9118 27.2871 18.3326 28.0669 16.0713 28.0669C13.8099 28.0668 12.2308 27.2872 11.2064 26.4492C10.7024 26.0369 10.3433 25.6209 10.1061 25.2975C9.98762 25.1358 9.89898 24.9958 9.83595 24.8897C9.8045 24.8367 9.77841 24.7918 9.75946 24.7566L9.73667 24.71L9.7269 24.6933L9.72202 24.6833V24.6817C9.7261 24.6787 9.79423 24.6414 10.8809 24.0858L9.72039 24.68C9.39999 24.0246 9.66052 23.2269 10.3014 22.8992C10.9373 22.5746 11.7099 22.8344 12.0349 23.4784C12.0375 23.4832 12.0442 23.4945 12.0544 23.5117C12.0775 23.5505 12.1194 23.6181 12.183 23.7047C12.3107 23.8789 12.5205 24.126 12.8275 24.3771C13.425 24.8658 14.4403 25.4139 16.0713 25.414C17.7022 25.414 18.7176 24.8658 19.3151 24.3771C19.6221 24.126 19.8319 23.8789 19.9597 23.7047C20.0233 23.618 20.0668 23.5505 20.0899 23.5117C20.1003 23.4941 20.107 23.4829 20.1094 23.4784C20.4345 22.8342 21.2069 22.5741 21.8428 22.8992ZM17.3685 16.1255C17.3685 18.3237 15.6266 20.1063 13.4769 20.1065L12.1797 20.1065C11.4631 20.1065 10.8809 19.5112 10.8809 18.7784C10.8812 18.0459 11.4633 17.4519 12.1797 17.4519L13.4769 17.4519C14.1934 17.4518 14.7741 16.8581 14.7741 16.1255V10.818C14.7742 10.0855 15.3549 9.49183 16.0713 9.4916C16.7879 9.4916 17.3685 10.0853 17.3685 10.818V16.1255ZM23.8578 12.1445C23.8578 12.8773 23.2756 13.4726 22.559 13.4726C21.8426 13.4723 21.2618 12.8771 21.2618 12.1445V10.818C21.2618 10.0855 21.8426 9.49193 22.559 9.4916C23.2755 9.4916 23.8577 10.0853 23.8578 10.818V12.1445ZM40.3617 6.5824C40.6958 8.34886 40.4202 10.2063 39.5821 11.8433C38.8371 13.2711 37.7031 14.4588 36.3253 15.2551L36.1837 29.7861C36.1635 30.4993 35.9424 31.2005 35.5489 31.8065C35.1553 32.4127 34.6041 32.8981 33.962 33.2045C33.5393 33.3856 33.09 33.4849 32.6387 33.4975C31.8051 33.5294 31.0003 33.2587 30.3666 32.7336C29.7328 32.2083 29.3106 31.4618 29.1752 30.6265L27.9463 29.9592C27.5421 29.7325 27.2077 29.3982 26.9763 28.9905C26.7538 28.5749 26.6362 28.1051 26.6345 27.6225C26.6341 27.1383 26.7623 26.6568 27.004 26.2295C27.2436 25.8054 27.5847 25.4478 27.9935 25.1926L29.1931 24.4537L28.0066 23.7979C27.6026 23.5713 27.2678 23.2368 27.0365 22.8293C26.7807 22.401 26.6491 21.9034 26.654 21.3913C26.6591 20.8788 26.801 20.3704 27.0658 19.9234C27.3054 19.4993 27.6465 19.1418 28.0554 18.8866L29.2549 18.1476L29.3103 15.5014C27.9471 14.8015 26.8359 13.6924 26.1185 12.3159C25.3457 10.8563 25.0609 9.16121 25.3047 7.4778C25.5487 5.79413 26.3084 4.20977 27.4743 2.95756L28.0049 2.40168C29.4027 1.22119 31.1337 0.550358 32.9073 0.502714C34.681 0.455169 36.3907 1.03365 37.7478 2.14038C39.1048 3.24712 40.0276 4.81591 40.3617 6.5824ZM37.8878 10.9728C38.5237 9.76487 38.7426 8.38767 38.5079 7.07337C38.2666 5.74575 37.5815 4.56412 36.5678 3.72813C35.5385 2.91456 34.2589 2.48436 32.9301 2.50487C31.6011 2.5779 30.3138 3.09825 29.268 3.98443C28.2467 4.88255 27.5407 6.09849 27.2693 7.42953C26.9979 8.76033 27.1769 10.126 27.7754 11.299C28.3922 12.4954 29.4079 13.4157 30.6465 13.9003C30.8282 13.9631 30.9863 14.0792 31.1006 14.2349C31.2151 14.3907 31.2812 14.5807 31.2911 14.7791L31.265 18.7451C31.2673 18.9247 31.2221 19.1036 31.1332 19.2627C31.0441 19.4219 30.9153 19.5562 30.7605 19.6488L29.0596 20.7106C28.9532 20.7653 28.8663 20.8551 28.8155 20.9653C28.7516 21.072 28.7214 21.1959 28.7276 21.3181C28.711 21.4416 28.7398 21.5657 28.809 21.6643C28.8577 21.7709 28.9427 21.8551 29.0482 21.9023L30.7572 22.816C30.9102 22.8978 31.0374 23.0209 31.1234 23.1738C31.2095 23.327 31.2514 23.5045 31.2455 23.6848L31.2341 24.9047C31.2267 25.0828 31.1757 25.2581 31.0876 25.4156C30.9995 25.5731 30.8761 25.7084 30.7279 25.8084L29.0271 26.8702C28.9205 26.9249 28.8338 27.0162 28.7829 27.1265C28.7161 27.2268 28.6801 27.3455 28.6804 27.4644C28.6906 27.59 28.7233 27.712 28.7764 27.8239C28.8409 27.9179 28.9222 27.9982 29.0157 28.0619L30.6954 29.0055C30.8486 29.0873 30.9755 29.2118 31.0616 29.365C31.1475 29.5181 31.1896 29.6942 31.1836 29.8743C31.1794 30.2825 31.3345 30.6686 31.6133 30.9478C31.8967 31.2315 32.2838 31.3855 32.6892 31.3755C32.8951 31.3584 33.0976 31.3018 33.2865 31.2091C33.5642 31.0839 33.804 30.8792 33.9734 30.6199C34.1427 30.3606 34.235 30.0583 34.2387 29.7528L34.3591 14.6709C34.3636 14.4662 34.4275 14.264 34.543 14.0917C34.6585 13.9197 34.82 13.7848 35.0069 13.7039C35.7121 13.3858 36.3546 12.9284 36.8949 12.3592C37.2886 11.9469 37.623 11.4791 37.8878 10.9728ZM35.6026 6.55078C35.6012 6.91558 35.5256 7.27984 35.3796 7.61926C35.2461 7.95042 35.0497 8.25332 34.8034 8.51133C34.5571 8.76941 34.2647 8.9776 33.9441 9.12212C33.6162 9.28065 33.2622 9.36777 32.9057 9.37676C32.5578 9.39496 32.214 9.33191 31.8998 9.19369C31.5722 9.07438 31.2738 8.88657 31.0241 8.64281C30.7782 8.39521 30.5883 8.09526 30.4659 7.76239C30.3144 7.4374 30.244 7.07549 30.2624 6.70889C30.2689 6.35064 30.3407 5.99308 30.4724 5.65539C30.5993 5.32807 30.7858 5.02556 31.0209 4.76499C31.268 4.49832 31.5644 4.28487 31.8917 4.13921C32.2228 3.99123 32.576 3.90478 32.9317 3.88457C33.2817 3.87532 33.6279 3.9327 33.9522 4.05267C34.2809 4.18254 34.578 4.37944 34.8262 4.63184C35.0746 4.87499 35.2708 5.16917 35.4008 5.49728C35.5307 5.82998 35.5987 6.18723 35.6026 6.55078ZM33.6283 6.66395C33.6323 6.57314 33.6125 6.48374 33.573 6.40432C33.5259 6.33048 33.464 6.26752 33.3907 6.22125C33.3453 6.14628 33.2828 6.08437 33.2084 6.03984C33.1288 6.0043 33.0412 5.98681 32.9529 5.98991C32.8648 5.99305 32.7775 6.01555 32.6973 6.05648C32.6118 6.09005 32.534 6.14372 32.4695 6.21126C32.405 6.27877 32.3554 6.35948 32.3246 6.44759C32.2752 6.51318 32.2394 6.58907 32.2221 6.66895C32.2264 6.75845 32.2458 6.84622 32.2774 6.92858C32.3228 7.00384 32.385 7.06703 32.4597 7.11165C32.5066 7.18529 32.5689 7.24684 32.642 7.29306C32.7216 7.3286 32.8092 7.34609 32.8975 7.34299C32.9856 7.33985 33.0729 7.31736 33.1531 7.27641C33.2384 7.24246 33.3174 7.19022 33.3825 7.1233C33.4582 7.0734 33.5211 7.00542 33.5681 6.92691C33.6013 6.84235 33.6222 6.75374 33.6283 6.66395Z" fill="#2C232E"/>
</svg>
