<svg width="27" height="27" viewBox="0 0 27 27" fill="none" xmlns="http://www.w3.org/2000/svg">
<path d="M8.07932 26.5127H7.33932C5.58398 26.3152 3.9499 25.5203 2.71108 24.2611C1.47227 23.0019 0.704049 21.3551 0.53525 19.5968C0.36645 17.8384 0.807333 16.0755 1.78397 14.6037C2.76061 13.1318 4.21361 12.0405 5.89932 11.5127C7.37918 11.0625 8.95947 11.0625 10.4393 11.5127L20.4393 1.51269C20.9392 1.03124 21.5669 0.703628 22.2477 0.568884C22.9286 0.434139 23.6337 0.497941 24.2793 0.752689C24.6905 0.934698 25.0636 1.19253 25.3793 1.51269C25.9684 2.09789 26.3317 2.87251 26.4049 3.69963C26.478 4.52676 26.2565 5.35313 25.7793 6.03269L26.1593 7.39269C26.2798 7.8448 26.2798 8.32058 26.1593 8.77269C26.0274 9.22382 25.7871 9.6358 25.4593 9.97269C25.1296 10.3098 24.715 10.5516 24.2593 10.6727C23.8072 10.7932 23.3314 10.7932 22.8793 10.6727L21.5593 10.3127L21.9193 11.6327C22.0398 12.0848 22.0398 12.5606 21.9193 13.0127C21.8014 13.4974 21.5525 13.9404 21.1997 14.2931C20.847 14.6458 20.404 14.8948 19.9193 15.0127C19.4672 15.1332 18.9914 15.1332 18.5393 15.0127L17.2193 14.6527L15.3793 16.4527C15.8295 17.9325 15.8295 19.5128 15.3793 20.9927C14.9102 22.571 13.9488 23.958 12.6355 24.9511C11.3222 25.9442 9.72572 26.4913 8.07932 26.5127ZM8.07932 13.1127C7.53046 13.1126 6.98458 13.1934 6.45932 13.3527C5.20326 13.7293 4.11546 14.5275 3.37932 15.6127C2.63855 16.7118 2.29949 18.0327 2.41932 19.3527C2.56496 20.6683 3.14155 21.8989 4.05932 22.8527C5.01315 23.7705 6.2437 24.3471 7.55932 24.4927C8.86598 24.6121 10.1741 24.2803 11.2659 23.5525C12.3576 22.8247 13.167 21.7448 13.5593 20.4927C13.9552 19.2114 13.8915 17.8321 13.3793 16.5927C13.2985 16.4165 13.2705 16.2207 13.2989 16.0289C13.3273 15.8372 13.4109 15.6578 13.5393 15.5127L16.2593 12.7727C16.3803 12.6458 16.5338 12.5545 16.703 12.5087C16.8723 12.4628 17.0508 12.4642 17.2193 12.5127L19.0993 13.0127C19.2092 13.0524 19.3295 13.0524 19.4393 13.0127C19.5555 12.985 19.6602 12.9221 19.7393 12.8327C19.8349 12.7589 19.8992 12.6518 19.9193 12.5327C19.959 12.4228 19.959 12.3025 19.9193 12.1927L19.3793 10.3127C19.3309 10.1442 19.3295 9.96563 19.3753 9.79639C19.4211 9.62716 19.5125 9.47371 19.6393 9.35269L20.4793 8.51269C20.6059 8.39413 20.7596 8.30844 20.9269 8.26311C21.0943 8.21778 21.2702 8.2142 21.4393 8.25269L23.3193 8.75269C23.4292 8.79241 23.5495 8.79241 23.6593 8.75269C23.7735 8.73173 23.8783 8.67582 23.9593 8.59269C24.0382 8.49779 24.0992 8.38936 24.1393 8.27269C24.1596 8.16026 24.1596 8.04512 24.1393 7.93269L23.6393 6.05269C23.5909 5.88419 23.5895 5.70563 23.6353 5.53639C23.6811 5.36716 23.7725 5.21371 23.8993 5.09269C24.1807 4.81165 24.339 4.43038 24.3393 4.03269C24.3399 3.62893 24.1819 3.24109 23.8993 2.95269C23.7476 2.81441 23.5712 2.70586 23.3793 2.63269C23.105 2.51736 22.8027 2.48621 22.5106 2.54319C22.2186 2.60017 21.9501 2.74271 21.7393 2.95269L11.3793 13.3527C11.2367 13.4918 11.0559 13.5851 10.8599 13.6208C10.6639 13.6564 10.4617 13.6327 10.2793 13.5527C9.58286 13.2602 8.83472 13.1105 8.07932 13.1127Z" fill="#2C232E"/>
<path d="M6.89932 22.6727C6.54907 22.6782 6.20156 22.6101 5.87932 22.4727C5.55324 22.3343 5.25505 22.1378 4.99932 21.8927C4.75483 21.6441 4.55822 21.3525 4.41932 21.0327C4.28414 20.7028 4.21615 20.3492 4.21932 19.9927C4.2161 19.6426 4.28415 19.2956 4.41932 18.9727C4.55768 18.6466 4.75421 18.3484 4.99932 18.0927C5.24888 17.84 5.54867 17.6424 5.87932 17.5127C6.19591 17.3796 6.53589 17.311 6.87932 17.311C7.22276 17.311 7.56274 17.3796 7.87932 17.5127C8.21054 17.6413 8.51054 17.839 8.75932 18.0927C9.00838 18.3335 9.19981 18.6275 9.31932 18.9527C9.46083 19.2743 9.53567 19.6213 9.53932 19.9727C9.53796 20.3243 9.46302 20.6718 9.31932 20.9927C9.20088 21.329 9.00172 21.6312 8.73932 21.8727C8.49069 22.1172 8.19917 22.3138 7.87932 22.4527C7.56975 22.5881 7.23706 22.6627 6.89932 22.6727ZM6.89932 19.3127C6.81386 19.2923 6.72479 19.2923 6.63932 19.3127C6.55899 19.3473 6.48472 19.3946 6.41932 19.4527C6.35473 19.5129 6.30655 19.5887 6.27932 19.6727C6.26095 19.7584 6.26095 19.847 6.27932 19.9327C6.25893 20.0182 6.25893 20.1072 6.27932 20.1927C6.30927 20.2754 6.35704 20.3506 6.41925 20.4128C6.48146 20.475 6.55659 20.5227 6.63932 20.5527C6.72045 20.5917 6.80931 20.6119 6.89932 20.6119C6.98934 20.6119 7.0782 20.5917 7.15932 20.5527C7.23778 20.5431 7.31302 20.5157 7.37932 20.4727C7.43743 20.4073 7.48469 20.333 7.51932 20.2527C7.53972 20.1672 7.53972 20.0782 7.51932 19.9927C7.5377 19.907 7.5377 19.8184 7.51932 19.7327C7.48938 19.65 7.44161 19.5748 7.3794 19.5126C7.31719 19.4504 7.24205 19.4026 7.15932 19.3727C7.07804 19.3341 6.98932 19.3136 6.89932 19.3127Z" fill="#2C232E"/>
</svg>
