<svg width="32" height="32" viewBox="0 0 32 32" fill="none" xmlns="http://www.w3.org/2000/svg">
<path fill-rule="evenodd" clip-rule="evenodd" d="M16.0352 11.9999C16.5874 11.9999 17.0352 12.4477 17.0352 12.9999V13.2745C17.6593 13.3566 18.2431 13.642 18.6931 14.092C19.2323 14.6312 19.5352 15.3624 19.5352 16.1249C19.5352 16.8154 19.2868 17.4802 18.8396 17.9999C19.2868 18.5197 19.5352 19.1845 19.5352 19.8749C19.5352 20.6374 19.2323 21.3687 18.6931 21.9079C18.2431 22.3579 17.6593 22.6433 17.0352 22.7254V22.9999C17.0352 23.5522 16.5874 23.9999 16.0352 23.9999C15.4829 23.9999 15.0352 23.5522 15.0352 22.9999V22.7499H14.1602C13.6079 22.7499 13.1602 22.3022 13.1602 21.7499V14.2499C13.1602 13.6977 13.6079 13.2499 14.1602 13.2499H15.0352V12.9999C15.0352 12.4477 15.4829 11.9999 16.0352 11.9999ZM15.1602 15.2499V16.9999H16.6602C16.8922 16.9999 17.1148 16.9078 17.2789 16.7437C17.443 16.5796 17.5352 16.357 17.5352 16.1249C17.5352 15.8929 17.443 15.6703 17.2789 15.5062C17.1148 15.3421 16.8922 15.2499 16.6602 15.2499H15.1602ZM16.6602 18.9999H15.1602V20.7499H16.0334H16.6602C16.8922 20.7499 17.1148 20.6578 17.2789 20.4937C17.443 20.3296 17.5352 20.107 17.5352 19.8749C17.5352 19.6429 17.443 19.4203 17.2789 19.2562C17.1148 19.0921 16.8922 18.9999 16.6602 18.9999Z" fill="#2C232E"/>
<path fill-rule="evenodd" clip-rule="evenodd" d="M24 9.99994H8C6.89543 9.99994 6 10.8954 6 11.9999V23.9999C6 25.1045 6.89543 25.9999 8 25.9999H24C25.1046 25.9999 26 25.1045 26 23.9999V11.9999C26 10.8954 25.1046 9.99994 24 9.99994ZM8 7.99994C5.79086 7.99994 4 9.7908 4 11.9999V23.9999C4 26.2091 5.79086 27.9999 8 27.9999H24C26.2091 27.9999 28 26.2091 28 23.9999V11.9999C28 9.7908 26.2091 7.99994 24 7.99994H8Z" fill="#2C232E"/>
<path d="M6.01397 11.086L4 12.4286V11.3228C4 9.46112 5.2844 7.84555 7.09818 7.42582L21.3219 4.13426C23.829 3.55409 26.2237 5.45793 26.2237 8.03128V9.92827L24.2237 10.0083V8.03128C24.2237 6.74461 23.0264 5.79268 21.7728 6.08277L7.54909 9.37433C6.7201 9.56617 6.11227 10.2576 6.01397 11.086Z" fill="#2C232E"/>
</svg>
