<svg width="41" height="40" viewBox="0 0 41 40" fill="none" xmlns="http://www.w3.org/2000/svg">
<path fill-rule="evenodd" clip-rule="evenodd" d="M20.75 13C21.3023 13 21.75 13.4477 21.75 14V14.5096C22.5205 14.569 23.2478 14.9016 23.7981 15.4519C24.4076 16.0614 24.75 16.888 24.75 17.75C24.75 18.5895 24.4252 19.3955 23.8452 20C24.4252 20.6045 24.75 21.4105 24.75 22.25C24.75 23.112 24.4076 23.9386 23.7981 24.5481C23.2478 25.0984 22.5205 25.431 21.75 25.4904V26C21.75 26.5523 21.3023 27 20.75 27C20.1977 27 19.75 26.5523 19.75 26V25.5H18.5C17.9477 25.5 17.5 25.0523 17.5 24.5V15.5C17.5 14.9477 17.9477 14.5 18.5 14.5H19.75V14C19.75 13.4477 20.1977 13 20.75 13ZM19.5 16.5V19H21.5C21.8315 19 22.1495 18.8683 22.3839 18.6339C22.6183 18.3995 22.75 18.0815 22.75 17.75C22.75 17.4185 22.6183 17.1005 22.3839 16.8661C22.1495 16.6317 21.8315 16.5 21.5 16.5H19.5ZM21.5 21H19.5V23.5H20.748H21.5C21.8315 23.5 22.1495 23.3683 22.3839 23.1339C22.6183 22.8995 22.75 22.5815 22.75 22.25C22.75 21.9185 22.6183 21.6005 22.3839 21.3661C22.1495 21.1317 21.8315 21 21.5 21Z" fill="#2C232E"/>
<path fill-rule="evenodd" clip-rule="evenodd" d="M16.4289 8.75839C18.5868 7.92606 20.9445 7.77473 23.1897 8.32472C25.4349 8.87468 27.4603 10.0996 28.9987 11.8357C29.365 12.2491 29.3269 12.8811 28.9135 13.2474C28.5002 13.6137 27.8682 13.5755 27.5019 13.1622C26.2318 11.7289 24.5619 10.72 22.7139 10.2673C20.8659 9.81462 18.9255 9.93904 17.1487 10.6244C15.3718 11.3098 13.8412 12.5244 12.7605 14.1091C11.948 15.3007 11.4188 16.659 11.206 18.0783L12.4414 16.9972C12.857 16.6335 13.4888 16.6756 13.8525 17.0912C14.2162 17.5068 14.1742 18.1386 13.7586 18.5023L10.7586 21.1277C10.361 21.4756 9.76126 21.4542 9.38947 21.0788L6.78947 18.4534C6.40084 18.061 6.40392 17.4278 6.79634 17.0392C7.18876 16.6506 7.82191 16.6537 8.21053 17.0461L9.19269 18.0378C9.42256 16.2303 10.076 14.4959 11.1081 12.9823C12.4162 11.0642 14.2712 9.59068 16.4289 8.75839Z" fill="#2C232E"/>
<path fill-rule="evenodd" clip-rule="evenodd" d="M24.5711 31.2416C22.4132 32.0739 20.0555 32.2253 17.8103 31.6753C15.5651 31.1253 13.5397 29.9004 12.0013 28.1643C11.635 27.7509 11.6731 27.1189 12.0865 26.7526C12.4998 26.3863 13.1318 26.4245 13.4981 26.8378C14.7682 28.2711 16.4381 29.28 18.2861 29.7327C20.1341 30.1854 22.0745 30.061 23.8513 29.3756C25.6282 28.6902 27.1588 27.4756 28.2395 25.8909C29.052 24.6993 29.5812 23.341 29.794 21.9217L28.5586 23.0028C28.143 23.3665 27.5112 23.3244 27.1475 22.9088C26.7838 22.4932 26.8258 21.8614 27.2414 21.4977L30.2414 18.8723C30.639 18.5244 31.2387 18.5458 31.6105 18.9212L34.2105 21.5466C34.5992 21.939 34.5961 22.5722 34.2037 22.9608C33.8112 23.3494 33.1781 23.3463 32.7895 22.9539L31.8073 21.9622C31.5774 23.7697 30.924 25.5041 29.8919 27.0177C28.5838 28.9358 26.7288 30.4093 24.5711 31.2416Z" fill="#2C232E"/>
</svg>
