<svg width="33" height="33" viewBox="0 0 33 33" fill="none" xmlns="http://www.w3.org/2000/svg">
<path fill-rule="evenodd" clip-rule="evenodd" d="M16.4985 9.6455C16.8633 9.64046 17.2273 9.6552 17.5895 9.68776C18.1396 9.73719 18.5454 10.2232 18.496 10.7733C18.4465 11.3233 17.9606 11.7292 17.4105 11.6797C17.1095 11.6527 16.8104 11.6409 16.5139 11.6455H16.4832C12.9277 11.591 9.09844 13.8865 6.62708 16.3588C6.53499 16.4523 6.5 16.5549 6.5 16.6432C6.5 16.7315 6.53502 16.8341 6.62718 16.9277C7.32543 17.6266 8.15498 18.3331 9.0749 18.9795C9.52679 19.297 9.63573 19.9207 9.31823 20.3726C9.00072 20.8245 8.377 20.9334 7.9251 20.6159C6.90873 19.9018 5.98991 19.1198 5.2103 18.3392L5.2075 18.3364C4.76244 17.8872 4.5 17.2854 4.5 16.6432C4.5 16.001 4.76244 15.3992 5.2075 14.95L5.21051 14.9469C7.86165 12.294 12.1771 9.58577 16.4985 9.6455ZM23.6812 12.9186C23.9983 12.4664 24.6219 12.3569 25.0741 12.6739C26.0832 13.3814 27.0018 14.1597 27.7891 14.9466L27.7925 14.95C28.2376 15.3992 28.5 16.001 28.5 16.6432C28.5 17.2854 28.2376 17.8872 27.7925 18.3364L27.7894 18.3395C25.1963 20.934 20.8912 23.7042 16.4985 23.6436C15.9789 23.6507 15.4615 23.6181 14.9497 23.5515C14.4021 23.4802 14.0159 22.9784 14.0872 22.4307C14.1586 21.8831 14.6603 21.4969 15.208 21.5682C15.6357 21.6239 16.0614 21.65 16.4832 21.6436H16.5138C20.1328 21.6989 23.9509 19.35 26.3729 16.9276C26.465 16.8341 26.5 16.7314 26.5 16.6432C26.5 16.555 26.465 16.4524 26.373 16.3589C25.668 15.6545 24.839 14.9517 23.9259 14.3115C23.4737 13.9945 23.3641 13.3708 23.6812 12.9186Z" fill="#2C232E"/>
<path fill-rule="evenodd" clip-rule="evenodd" d="M24.2071 8.93742C24.5976 9.32795 24.5976 9.96111 24.2071 10.3516L10.2071 24.3516C9.81658 24.7422 9.18342 24.7422 8.79289 24.3516C8.40237 23.9611 8.40237 23.3279 8.79289 22.9374L22.7929 8.93742C23.1834 8.5469 23.8166 8.5469 24.2071 8.93742Z" fill="#2C232E"/>
<path fill-rule="evenodd" clip-rule="evenodd" d="M16.8837 13.5056C16.9934 14.0469 16.6437 14.5747 16.1024 14.6844C15.8487 14.7359 15.6062 14.8364 15.3889 14.9816C15.06 15.2013 14.8037 15.5136 14.6523 15.879C14.5926 16.0231 14.5503 16.1728 14.5257 16.3251C14.4375 16.8703 13.924 17.2408 13.3788 17.1526C12.8336 17.0644 12.4631 16.5509 12.5513 16.0057C12.6006 15.7011 12.6852 15.4016 12.8046 15.1136C13.1074 14.3827 13.6201 13.7581 14.2778 13.3186C14.7125 13.0282 15.1975 12.8273 15.7048 12.7244C16.2461 12.6146 16.7739 12.9643 16.8837 13.5056ZM19.6374 16.2487C20.1791 16.3564 20.5309 16.8828 20.4232 17.4245C20.3212 17.9377 20.119 18.4284 19.8254 18.8676C19.3857 19.5252 18.7609 20.0378 18.03 20.3404C17.7022 20.476 17.3597 20.5668 17.0116 20.6117C16.4638 20.6823 15.9625 20.2955 15.8919 19.7478C15.8213 19.2 16.208 18.6987 16.7558 18.6281C16.9298 18.6057 17.1011 18.5603 17.265 18.4924C17.6305 18.3411 17.9429 18.0849 18.1627 17.7561C18.3095 17.5365 18.4106 17.2911 18.4616 17.0345C18.5693 16.4928 19.0957 16.141 19.6374 16.2487Z" fill="#2C232E"/>
</svg>
