<svg width="32" height="32" viewBox="0 0 32 32" fill="none" xmlns="http://www.w3.org/2000/svg">
<path fill-rule="evenodd" clip-rule="evenodd" d="M25.8672 6.14078L19.4967 25.6738C19.4636 25.7704 19.4008 25.854 19.3172 25.9126C19.2328 25.9718 19.1317 26.0024 19.0286 25.9999C18.9255 25.9974 18.826 25.9619 18.7445 25.8987C18.6669 25.8384 18.6096 25.7559 18.5802 25.6624L16.357 16.394C16.2694 16.0285 15.9841 15.743 15.6187 15.655L6.33924 13.4215C6.24516 13.3924 6.16215 13.3351 6.10154 13.2573C6.03822 13.1759 6.00268 13.0765 6.00014 12.9734C5.99761 12.8704 6.0282 12.7693 6.08743 12.6849C6.14619 12.6013 6.23005 12.5385 6.32685 12.5057L6.32918 12.5049L25.8672 6.14078ZM27.922 6.29062C28.0218 5.98448 28.0352 5.65673 27.9606 5.34351C27.886 5.03027 27.7263 4.74373 27.4992 4.51544C27.2722 4.28716 26.9865 4.12601 26.6736 4.04975C26.3608 3.97349 26.033 3.98509 25.7263 4.08326L25.7215 4.08482L5.70332 10.6054L5.6969 10.6075C5.19287 10.7754 4.75606 11.1007 4.45072 11.5355C4.14539 11.9703 3.98767 12.4916 4.00075 13.0227C4.01384 13.5538 4.19704 14.0667 4.52342 14.4859C4.84979 14.9051 5.3021 15.2085 5.81379 15.3514C5.8254 15.3547 5.83707 15.3577 5.8488 15.3605L14.5551 17.4562L16.6412 26.1534C16.6443 26.1662 16.6476 26.1789 16.6512 26.1916C16.7952 26.7022 17.0991 27.1533 17.5182 27.4786C17.9373 27.8039 18.4496 27.9864 18.98 27.9993C19.5104 28.0121 20.031 27.8548 20.4654 27.5502C20.8998 27.2456 21.2252 26.8098 21.3939 26.3068L21.3965 26.299L27.922 6.29062Z" fill="#2C232E"/>
<path fill-rule="evenodd" clip-rule="evenodd" d="M27.4985 4.51296C27.108 4.12243 26.4748 4.12243 26.0843 4.51296L14.6771 15.9202C14.2866 16.3107 14.2866 16.9438 14.6771 17.3344C15.0676 17.7249 15.7008 17.7249 16.0913 17.3344L27.4985 5.92717C27.8891 5.53664 27.8891 4.90348 27.4985 4.51296Z" fill="#2C232E"/>
</svg>
