<svg width="32" height="32" viewBox="0 0 32 32" fill="none" xmlns="http://www.w3.org/2000/svg">
<path fill-rule="evenodd" clip-rule="evenodd" d="M13 14C13.5523 14 14 14.4477 14 15L14 29C14 29.5522 13.5523 30 13 30C12.4477 30 12 29.5522 12 29L12 15C12 14.4477 12.4477 14 13 14Z" fill="#2C232E"/>
<path fill-rule="evenodd" clip-rule="evenodd" d="M16.7071 25.2929C17.0976 25.6834 17.0976 26.3166 16.7071 26.7071L13.7071 29.7071C13.3166 30.0976 12.6834 30.0976 12.2929 29.7071C11.9024 29.3165 11.9024 28.6834 12.2929 28.2928L15.2929 25.2929C15.6834 24.9023 16.3166 24.9023 16.7071 25.2929Z" fill="#2C232E"/>
<path fill-rule="evenodd" clip-rule="evenodd" d="M9.29288 25.2929C9.6834 24.9024 10.3166 24.9023 10.7071 25.2929L13.7072 28.2928C14.0977 28.6833 14.0976 29.3165 13.7071 29.7071C13.3166 30.0976 12.6834 30.0976 12.2929 29.7071L9.29291 26.7071C8.90238 26.3166 8.90236 25.6834 9.29288 25.2929Z" fill="#2C232E"/>
<path fill-rule="evenodd" clip-rule="evenodd" d="M19 18C18.4477 18 18 17.5523 18 17L18 3C18 2.44771 18.4477 2 19 2C19.5523 2 20 2.44772 20 3L20 17C20 17.5523 19.5523 18 19 18Z" fill="#2C232E"/>
<path fill-rule="evenodd" clip-rule="evenodd" d="M15.2929 6.70708C14.9024 6.31655 14.9024 5.68339 15.2929 5.29287L18.2929 2.29289C18.6834 1.90237 19.3166 1.90237 19.7071 2.2929C20.0976 2.68342 20.0976 3.31659 19.7071 3.70711L16.7071 6.70708C16.3166 7.09761 15.6834 7.0976 15.2929 6.70708Z" fill="#2C232E"/>
<path fill-rule="evenodd" clip-rule="evenodd" d="M22.7071 6.70707C22.3166 7.0976 21.6834 7.09761 21.2929 6.7071L18.2928 3.70712C17.9023 3.3166 17.9024 2.68342 18.2929 2.29289C18.6834 1.90237 19.3166 1.90237 19.7071 2.2929L22.7071 5.29285C23.0976 5.68337 23.0976 6.31654 22.7071 6.70707Z" fill="#2C232E"/>
</svg> 