<svg width="32" height="33" viewBox="0 0 32 33" fill="none" xmlns="http://www.w3.org/2000/svg">
<path d="M9.34246 5.35758C9.34228 5.93477 8.87789 6.40266 8.3047 6.40266L5.19011 6.40266C3.47046 6.40295 2.07683 7.80737 2.07683 9.53921V12.6744C2.07683 13.2516 1.61208 13.7205 1.03907 13.7208C0.465766 13.7208 -4.24069e-07 13.2518 -4.17233e-07 12.6744V9.53921C-3.83052e-07 6.65268 2.32386 4.31279 5.19011 4.3125L8.3047 4.3125C8.878 4.3125 9.34246 4.78024 9.34246 5.35758ZM9.34377 28.3559C9.34349 28.933 8.87783 29.401 8.3047 29.401L5.19142 29.401C2.32504 29.401 0.00149553 27.0608 0.00130167 24.1743V21.0377C0.00134334 20.4604 0.465791 19.9926 1.03907 19.9926C1.61223 19.9928 2.07678 20.4605 2.07683 21.0377V24.1743C2.07702 25.9061 3.47164 27.3095 5.19142 27.3095L8.3047 27.3095C8.878 27.3095 9.34377 27.7785 9.34377 28.3559ZM8.3047 12.6744C8.3047 13.2518 7.84024 13.7208 7.26694 13.7208C6.69373 13.7207 6.22918 13.2517 6.22918 12.6744V11.6294C6.22922 11.0521 6.69376 10.5844 7.26694 10.5843C7.84021 10.5843 8.30465 11.0521 8.3047 11.6294V12.6744ZM17.0742 21.1479C17.5868 21.4061 17.7941 22.0346 17.5378 22.5509L16.6094 22.0828C17.5346 22.5487 17.5378 22.5522 17.5378 22.5522L17.5365 22.5535L17.5261 22.5745L17.5065 22.6112C17.4914 22.639 17.4718 22.6745 17.4466 22.7161C17.3962 22.7998 17.3242 22.9098 17.2292 23.0374C17.0394 23.2922 16.7522 23.62 16.349 23.9448C15.5294 24.605 14.2661 25.2193 12.4571 25.2193C10.6479 25.2193 9.38467 24.605 8.56512 23.9448C8.16192 23.62 7.87467 23.2922 7.68491 23.0374C7.59009 22.9101 7.51918 22.7997 7.46876 22.7161C7.4436 22.6744 7.42273 22.639 7.40756 22.6112L7.38934 22.5745L7.38152 22.5614L7.37762 22.5535V22.5522C7.38088 22.5499 7.43538 22.5205 8.3047 22.0828L7.37631 22.5509C7.11999 22.0345 7.32841 21.406 7.84116 21.1479C8.34981 20.8921 8.96789 21.0968 9.22788 21.6042C9.23 21.608 9.23534 21.6169 9.2435 21.6304C9.26196 21.661 9.29553 21.7142 9.34637 21.7825C9.44856 21.9197 9.61642 22.1144 9.862 22.3123C10.34 22.6973 11.1523 23.1291 12.4571 23.1292C13.7617 23.1292 14.5741 22.6973 15.0521 22.3123C15.2977 22.1144 15.4655 21.9197 15.5677 21.7825C15.6186 21.7141 15.6534 21.661 15.6719 21.6304C15.6802 21.6166 15.6856 21.6077 15.6875 21.6042C15.9476 21.0966 16.5655 20.8917 17.0742 21.1479ZM13.4948 15.811C13.4948 17.5429 12.1013 18.9474 10.3815 18.9476L9.34377 18.9476C8.77047 18.9476 8.3047 18.4785 8.3047 17.9012C8.30498 17.3241 8.77064 16.8561 9.34377 16.8561L10.3815 16.8561C10.9547 16.8559 11.4193 16.3882 11.4193 15.811V11.6294C11.4193 11.0522 11.8839 10.5845 12.4571 10.5843C13.0303 10.5843 13.4948 11.0521 13.4948 11.6294V15.811ZM18.6862 12.6744C18.6862 13.2518 18.2205 13.7208 17.6472 13.7208C17.0741 13.7206 16.6094 13.2516 16.6094 12.6744V11.6294C16.6095 11.0522 17.0741 10.5845 17.6472 10.5843C18.2204 10.5843 18.6862 11.0521 18.6862 11.6294V12.6744ZM31.8894 8.2922C32.1566 9.68395 31.9361 11.1474 31.2657 12.4371C30.6697 13.5621 29.7625 14.4979 28.6602 15.1252L28.5469 26.5739C28.5308 27.1358 28.3539 27.6883 28.0391 28.1658C27.7242 28.6433 27.2833 29.0258 26.7696 29.2672C26.4315 29.4099 26.072 29.4881 25.711 29.498C25.0441 29.5232 24.4003 29.3099 23.8933 28.8961C23.3863 28.4823 23.0485 27.8941 22.9401 27.2361L21.9571 26.7103C21.6337 26.5317 21.3662 26.2683 21.181 25.9471C21.0031 25.6197 20.909 25.2495 20.9076 24.8692C20.9073 24.4878 21.0098 24.1084 21.2032 23.7717C21.3948 23.4376 21.6678 23.1558 21.9948 22.9548L22.9545 22.3726L22.0052 21.8559C21.6821 21.6774 21.4143 21.4139 21.2292 21.0928C21.0246 20.7553 20.9193 20.3633 20.9232 19.9598C20.9273 19.556 21.0408 19.1555 21.2526 18.8033C21.4443 18.4691 21.7172 18.1875 22.0443 17.9864L23.0039 17.4042L23.0482 15.3193C21.9577 14.7678 21.0687 13.894 20.4948 12.8095C19.8766 11.6595 19.6487 10.324 19.8438 8.99766C20.0389 7.67113 20.6467 6.42285 21.5795 5.43626L22.0039 4.99829C23.1222 4.06821 24.507 3.53968 25.9258 3.50214C27.3448 3.46468 28.7125 3.92045 29.7982 4.79242C30.8839 5.6644 31.6221 6.90041 31.8894 8.2922ZM29.9102 11.7513C30.419 10.7996 30.5941 9.71452 30.4063 8.67902C30.2133 7.63302 29.6652 6.70204 28.8542 6.04337C28.0308 5.40238 27.0071 5.06343 25.9441 5.07959C24.8809 5.13713 23.851 5.5471 23.0144 6.24531C22.1974 6.95292 21.6326 7.91093 21.4154 8.95963C21.1983 10.0081 21.3415 11.0841 21.8204 12.0083C22.3138 12.9509 23.1263 13.676 24.1172 14.0578C24.2625 14.1073 24.389 14.1987 24.4805 14.3214C24.572 14.4442 24.625 14.5939 24.6329 14.7502L24.612 17.8749C24.6139 18.0164 24.5777 18.1574 24.5066 18.2827C24.4353 18.4082 24.3322 18.514 24.2084 18.587L22.8477 19.4235C22.7625 19.4666 22.6931 19.5374 22.6524 19.6242C22.6013 19.7082 22.5772 19.8059 22.5821 19.9022C22.5688 19.9995 22.5918 20.0972 22.6472 20.1749C22.6862 20.2589 22.7542 20.3253 22.8386 20.3624L24.2058 21.0823C24.3281 21.1467 24.4299 21.2437 24.4987 21.3642C24.5676 21.4849 24.6011 21.6248 24.5964 21.7668L24.5873 22.7279C24.5813 22.8683 24.5406 23.0064 24.4701 23.1305C24.3996 23.2546 24.3009 23.3611 24.1823 23.44L22.8217 24.2765C22.7364 24.3196 22.667 24.3916 22.6263 24.4785C22.5729 24.5575 22.544 24.651 22.5443 24.7447C22.5525 24.8436 22.5786 24.9398 22.6211 25.0279C22.6727 25.1019 22.7378 25.1653 22.8125 25.2154L24.1563 25.9589C24.2789 26.0233 24.3804 26.1214 24.4493 26.2421C24.518 26.3627 24.5517 26.5015 24.5469 26.6434C24.5435 26.965 24.6676 27.2692 24.8907 27.4891C25.1174 27.7127 25.427 27.834 25.7513 27.8261C25.9161 27.8127 26.0781 27.7681 26.2292 27.695C26.4514 27.5964 26.6432 27.4351 26.7787 27.2308C26.9141 27.0265 26.988 26.7884 26.9909 26.5477L27.0873 14.665C27.0909 14.5036 27.142 14.3444 27.2344 14.2086C27.3268 14.0731 27.456 13.9668 27.6055 13.9031C28.1697 13.6524 28.6837 13.292 29.1159 12.8436C29.4308 12.5188 29.6984 12.1502 29.9102 11.7513ZM28.0821 8.26728C28.081 8.5547 28.0205 8.84169 27.9037 9.10911C27.7969 9.37003 27.6397 9.60868 27.4428 9.81195C27.2457 10.0153 27.0118 10.1793 26.7553 10.2932C26.493 10.4181 26.2098 10.4867 25.9245 10.4938C25.6463 10.5081 25.3712 10.4585 25.1198 10.3496C24.8578 10.2556 24.619 10.1076 24.4193 9.91554C24.2226 9.72047 24.0707 9.48415 23.9727 9.22188C23.8515 8.96583 23.7952 8.68069 23.8099 8.39185C23.8151 8.1096 23.8725 7.82788 23.9779 7.56182C24.0794 7.30393 24.2286 7.06559 24.4167 6.86029C24.6144 6.65019 24.8515 6.48202 25.1133 6.36726C25.3783 6.25067 25.6608 6.18256 25.9454 6.16663C26.2254 6.15934 26.5023 6.20455 26.7618 6.29907C27.0247 6.40139 27.2624 6.55653 27.461 6.75539C27.6597 6.94696 27.8166 7.17874 27.9206 7.43725C28.0246 7.69938 28.0789 7.98085 28.0821 8.26728ZM26.5027 8.35645C26.5058 8.2849 26.49 8.21446 26.4584 8.15189C26.4207 8.09371 26.3712 8.0441 26.3125 8.00765C26.2763 7.94858 26.2262 7.89981 26.1667 7.86472C26.103 7.83672 26.033 7.82294 25.9623 7.82538C25.8919 7.82786 25.822 7.84559 25.7579 7.87784C25.6894 7.90428 25.6272 7.94657 25.5756 7.99978C25.524 8.05297 25.4843 8.11656 25.4597 8.18598C25.4201 8.23766 25.3915 8.29745 25.3777 8.36038C25.3811 8.4309 25.3966 8.50005 25.4219 8.56494C25.4583 8.62424 25.508 8.67402 25.5678 8.70918C25.6053 8.7672 25.6551 8.8157 25.7136 8.85211C25.7773 8.88011 25.8473 8.89389 25.918 8.89144C25.9885 8.88897 26.0583 8.87125 26.1224 8.83899C26.1908 8.81224 26.2539 8.77108 26.306 8.71836C26.3665 8.67904 26.4169 8.62548 26.4545 8.56363C26.4811 8.49701 26.4978 8.42719 26.5027 8.35645Z" fill="#2C232E"/>
</svg>
