<svg width="32" height="32" viewBox="0 0 32 32" fill="none" xmlns="http://www.w3.org/2000/svg">
<path d="M9 16C9.19778 16 9.39112 16.0586 9.55557 16.1685C9.72002 16.2784 9.84819 16.4346 9.92388 16.6173C9.99957 16.8 10.0194 17.0011 9.98079 17.1951C9.9422 17.389 9.84696 17.5672 9.70711 17.7071C9.56726 17.8469 9.38907 17.9422 9.19509 17.9808C9.00111 18.0193 8.80004 17.9995 8.61731 17.9239C8.43459 17.8482 8.27841 17.72 8.16853 17.5555C8.05865 17.3911 8 17.1978 8 17C8 16.7348 8.10536 16.4804 8.29289 16.2929C8.48043 16.1053 8.73478 16 9 16Z" fill="#2C232E"/>
<path d="M23 20C23.1978 20 23.3911 20.0586 23.5556 20.1685C23.72 20.2784 23.8482 20.4346 23.9239 20.6173C23.9996 20.8 24.0194 21.0011 23.9808 21.1951C23.9422 21.389 23.847 21.5672 23.7071 21.7071C23.5673 21.8469 23.3891 21.9422 23.1951 21.9808C23.0011 22.0193 22.8 21.9995 22.6173 21.9239C22.4346 21.8482 22.2784 21.72 22.1685 21.5555C22.0586 21.3911 22 21.1978 22 21C22 20.7348 22.1054 20.4804 22.2929 20.2929C22.4804 20.1053 22.7348 20 23 20Z" fill="#2C232E"/>
<path fill-rule="evenodd" clip-rule="evenodd" d="M26 12H6C4.89543 12 4 12.8954 4 14V24C4 25.1045 4.89543 26 6 26H26C27.1046 26 28 25.1045 28 24V14C28 12.8954 27.1046 12 26 12ZM6 9.99998C3.79086 9.99998 2 11.7908 2 14V24C2 26.2091 3.79086 28 6 28H26C28.2091 28 30 26.2091 30 24V14C30 11.7908 28.2091 9.99998 26 9.99998H6Z" fill="#2C232E"/>
<path fill-rule="evenodd" clip-rule="evenodd" d="M16 21C17.1046 21 18 20.1046 18 19C18 17.8954 17.1046 17 16 17C14.8954 17 14 17.8954 14 19C14 20.1046 14.8954 21 16 21ZM16 23C18.2091 23 20 21.2091 20 19C20 16.7909 18.2091 15 16 15C13.7909 15 12 16.7909 12 19C12 21.2091 13.7909 23 16 23Z" fill="#2C232E"/>
<path fill-rule="evenodd" clip-rule="evenodd" d="M4 8C4 7.44772 4.44772 7 5 7H27C27.5523 7 28 7.44772 28 8C28 8.55228 27.5523 9 27 9H5C4.44772 9 4 8.55228 4 8Z" fill="#2C232E"/>
<path fill-rule="evenodd" clip-rule="evenodd" d="M7 5C7 4.44772 7.44772 4 8 4H24C24.5523 4 25 4.44772 25 5C25 5.55228 24.5523 6 24 6H8C7.44772 6 7 5.55228 7 5Z" fill="#2C232E"/>
</svg>
