<svg width="33" height="33" viewBox="0 0 33 33" fill="none" xmlns="http://www.w3.org/2000/svg">
<path fill-rule="evenodd" clip-rule="evenodd" d="M16.5469 11.1403C17.2833 11.1403 17.8802 11.738 17.8802 12.4753V12.8418C18.7124 12.9514 19.4908 13.3324 20.0908 13.9332C20.8097 14.653 21.2135 15.6292 21.2135 16.6471C21.2135 17.5688 20.8824 18.4563 20.2862 19.1502C20.8824 19.8441 21.2135 20.7316 21.2135 21.6533C21.2135 22.6712 20.8097 23.6474 20.0908 24.3672C19.4908 24.968 18.7124 25.349 17.8802 25.4586V25.8251C17.8802 26.5624 17.2833 27.1601 16.5469 27.1601C15.8105 27.1601 15.2135 26.5624 15.2135 25.8251V25.4914H14.0469C13.3105 25.4914 12.7135 24.8937 12.7135 24.1564V14.144C12.7135 13.4067 13.3105 12.809 14.0469 12.809H15.2135V12.4753C15.2135 11.738 15.8105 11.1403 16.5469 11.1403ZM15.3802 15.479V17.8152H17.3802C17.6896 17.8152 17.9864 17.6922 18.2052 17.4731C18.424 17.254 18.5469 16.9569 18.5469 16.6471C18.5469 16.3373 18.424 16.0402 18.2052 15.8211C17.9864 15.6021 17.6896 15.479 17.3802 15.479H15.3802ZM17.3802 20.4852H15.3802V22.8214H16.5446H17.3802C17.6896 22.8214 17.9864 22.6983 18.2052 22.4793C18.424 22.2602 18.5469 21.9631 18.5469 21.6533C18.5469 21.3435 18.424 21.0464 18.2052 20.8273C17.9864 20.6083 17.6896 20.4852 17.3802 20.4852Z" fill="#2C232E"/>
<path fill-rule="evenodd" clip-rule="evenodd" d="M27.1667 8.47036H5.83333C4.36057 8.47036 3.16667 9.66574 3.16667 11.1403V27.1601C3.16667 28.6347 4.36057 29.83 5.83333 29.83H27.1667C28.6394 29.83 29.8333 28.6347 29.8333 27.1601V11.1403C29.8333 9.66574 28.6394 8.47036 27.1667 8.47036ZM5.83333 5.8004C2.88781 5.8004 0.5 8.19117 0.5 11.1403V27.1601C0.5 30.1092 2.88782 32.5 5.83333 32.5H27.1667C30.1122 32.5 32.5 30.1092 32.5 27.1601V11.1403C32.5 8.19117 30.1122 5.8004 27.1667 5.8004H5.83333Z" fill="#2C232E"/>
<path d="M3.1853 9.92023L0.5 11.7126V10.2364C0.5 7.75105 2.21254 5.5943 4.63091 5.03396L23.5959 0.639802C26.9387 -0.134717 30.1317 2.40687 30.1317 5.84224V8.37469L27.465 8.48149V5.84224C27.465 4.12456 25.8685 2.85376 24.1971 3.24102L5.23212 7.63518C4.12679 7.89128 3.31636 8.81437 3.1853 9.92023Z" fill="#2C232E"/>
</svg> 