<svg width="32" height="33" viewBox="0 0 32 33" fill="none" xmlns="http://www.w3.org/2000/svg">
<path fill-rule="evenodd" clip-rule="evenodd" d="M4 15.5C4 12.7385 6.23858 10.5 9 10.5H23C25.7614 10.5 28 12.7385 28 15.5H26C26 13.8431 24.6569 12.5 23 12.5H9C7.34315 12.5 6 13.8431 6 15.5V23.5C6 25.1568 7.34315 26.5 9 26.5H23C24.6569 26.5 26 25.1568 26 23.5H28C28 26.2614 25.7614 28.5 23 28.5H9C6.23858 28.5 4 26.2614 4 23.5V15.5Z" fill="#2C232E"/>
<path fill-rule="evenodd" clip-rule="evenodd" d="M28 16.5H22C20.8954 16.5 20 17.3954 20 18.5V20.5C20 21.6045 20.8954 22.5 22 22.5H28V16.5ZM22 14.5C19.7909 14.5 18 16.2908 18 18.5V20.5C18 22.7091 19.7909 24.5 22 24.5H28C29.1046 24.5 30 23.6045 30 22.5V16.5C30 15.3954 29.1046 14.5 28 14.5H22Z" fill="#2C232E"/>
<path d="M24 19.5C24 20.0522 23.5523 20.5 23 20.5C22.4477 20.5 22 20.0522 22 19.5C22 18.9477 22.4477 18.5 23 18.5C23.5523 18.5 24 18.9477 24 19.5Z" fill="#2C232E"/>
<path fill-rule="evenodd" clip-rule="evenodd" d="M18.3303 6.91458C18.0128 6.48919 17.4183 6.38593 16.976 6.67937L8.15244 12.5332C7.69223 12.8385 7.07164 12.713 6.76632 12.2528C6.461 11.7926 6.58656 11.172 7.04678 10.8666L15.8704 5.01279C17.1973 4.13247 18.9808 4.44223 19.9332 5.7184L23.8014 10.9018C24.1317 11.3445 24.0407 11.9711 23.5981 12.3014C23.1555 12.6317 22.5289 12.5406 22.1986 12.098L18.3303 6.91458Z" fill="#2C232E"/>
</svg>
