<svg width="14" height="14" viewBox="0 0 14 14" fill="none" xmlns="http://www.w3.org/2000/svg">
<path d="M2.98565 9.05116H2.40597C2.09848 9.05116 1.80359 8.92902 1.58617 8.71159C1.36874 8.49417 1.2466 8.19928 1.2466 7.89179V2.67463C1.2466 2.36714 1.36874 2.07225 1.58617 1.85483C1.80359 1.63741 2.09848 1.51526 2.40597 1.51526H7.62313C7.93062 1.51526 8.22551 1.63741 8.44293 1.85483C8.66035 2.07225 8.7825 2.36714 8.7825 2.67463V3.25431M6.46371 5.57307H11.6809C12.3212 5.57307 12.8402 6.09213 12.8402 6.73243V11.9496C12.8402 12.5899 12.3212 13.109 11.6809 13.109H6.46371C5.82341 13.109 5.30434 12.5899 5.30434 11.9496V6.73243C5.30434 6.09213 5.82341 5.57307 6.46371 5.57307Z" stroke="white" stroke-width="1.3" stroke-linecap="round" stroke-linejoin="round"/>
</svg>
