<svg width="33" height="33" viewBox="0 0 33 33" fill="none" xmlns="http://www.w3.org/2000/svg">
<path fill-rule="evenodd" clip-rule="evenodd" d="M11.847 6.50081C13.0875 5.30804 14.7619 4.64453 16.4999 4.64453C18.238 4.64453 19.9123 5.30804 21.1528 6.50081C21.5509 6.8836 21.5633 7.51664 21.1805 7.91475C20.7977 8.31286 20.1647 8.32527 19.7666 7.94248C18.9067 7.11563 17.7323 6.64453 16.4999 6.64453C15.2675 6.64453 14.0931 7.11563 13.2332 7.94248C12.3746 8.76804 11.8999 9.8792 11.8999 11.0291V13.6445C11.8999 14.1968 11.4522 14.6445 10.8999 14.6445C10.3476 14.6445 9.8999 14.1968 9.8999 13.6445V11.0291C9.8999 9.32289 10.6052 7.69485 11.847 6.50081Z" fill="#2C232E"/>
<path fill-rule="evenodd" clip-rule="evenodd" d="M16.5 19.6445C15.9477 19.6445 15.5 20.0922 15.5 20.6445C15.5 21.1968 15.9477 21.6445 16.5 21.6445C17.0523 21.6445 17.5 21.1968 17.5 20.6445C17.5 20.0922 17.0523 19.6445 16.5 19.6445ZM19.5 20.6445C19.5 22.3014 18.1569 23.6445 16.5 23.6445C14.8431 23.6445 13.5 22.3014 13.5 20.6445C13.5 18.9877 14.8431 17.6445 16.5 17.6445C18.1569 17.6445 19.5 18.9877 19.5 20.6445Z" fill="#2C232E"/>
<path fill-rule="evenodd" clip-rule="evenodd" d="M24.5 14.6445H8.5V26.6445H24.5V14.6445ZM8.5 12.6445C7.39543 12.6445 6.5 13.54 6.5 14.6445V26.6445C6.5 27.7491 7.39543 28.6445 8.5 28.6445H24.5C25.6046 28.6445 26.5 27.7491 26.5 26.6445V14.6445C26.5 13.54 25.6046 12.6445 24.5 12.6445H8.5Z" fill="#2C232E"/>
</svg>
