<svg width="20" height="20" viewBox="0 0 20 20" fill="none" xmlns="http://www.w3.org/2000/svg">
<path d="M3.87495 12.625H2.99994C2.53581 12.625 2.09069 12.4407 1.7625 12.1125C1.43431 11.7843 1.24994 11.3392 1.24994 10.875V3C1.24994 2.53587 1.43431 2.09075 1.7625 1.76256C2.09069 1.43437 2.53581 1.25 2.99994 1.25H10.875C11.3391 1.25 11.7842 1.43437 12.1124 1.76256C12.4406 2.09075 12.625 2.53587 12.625 3V3.87501M9.12488 7.37503H16.9999C17.9664 7.37503 18.7499 8.15854 18.7499 9.12504V17.0001C18.7499 17.9666 17.9664 18.7501 16.9999 18.7501H9.12488C8.15838 18.7501 7.37488 17.9666 7.37488 17.0001V9.12504C7.37488 8.15854 8.15838 7.37503 9.12488 7.37503Z" stroke="#2C232E" stroke-width="1.3" stroke-linecap="round" stroke-linejoin="round"/>
</svg>
