<svg width="28" height="23" viewBox="0 0 28 23" fill="none" xmlns="http://www.w3.org/2000/svg">
<path fill-rule="evenodd" clip-rule="evenodd" d="M0 5.5C0 2.73858 2.23858 0.5 5 0.5H23C25.7614 0.5 28 2.73858 28 5.5V6.5C28 7.05228 27.5523 7.5 27 7.5C26.4477 7.5 26 7.05228 26 6.5V5.5C26 3.84315 24.6569 2.5 23 2.5H5C3.34315 2.5 2 3.84315 2 5.5V15.5C2 17.1569 3.34315 18.5 5 18.5H16C16.5523 18.5 17 18.9477 17 19.5C17 20.0523 16.5523 20.5 16 20.5H5C2.23858 20.5 0 18.2614 0 15.5V5.5Z" fill="#2C232E"/>
<path fill-rule="evenodd" clip-rule="evenodd" d="M4.00029 11.5C4.00029 10.9477 4.44801 10.5 5.00029 10.5H15.0003C15.5526 10.5 16.0003 10.9477 16.0003 11.5C16.0003 12.0523 15.5526 12.5 15.0003 12.5H5.00029C4.44801 12.5 4.00029 12.0523 4.00029 11.5Z" fill="#2C232E"/>
<path fill-rule="evenodd" clip-rule="evenodd" d="M4.00029 7.50001C4.00029 6.94773 4.44801 6.50001 5.00029 6.50001H21.0003C21.5526 6.50001 22.0003 6.94773 22.0003 7.50001C22.0003 8.0523 21.5526 8.50001 21.0003 8.50001H5.00029C4.44801 8.50001 4.00029 8.0523 4.00029 7.50001Z" fill="#2C232E"/>
<path fill-rule="evenodd" clip-rule="evenodd" d="M22.2711 11.6264C21.7886 11.8953 21.6155 12.5043 21.8844 12.9868C22.5245 14.1353 22.8604 15.4282 22.8604 16.7428C22.8604 18.0575 22.5245 19.3502 21.8844 20.4983C21.6155 20.9807 21.7886 21.5898 22.271 21.8587C22.7534 22.1276 23.3624 21.9545 23.6313 21.4721C24.4374 20.0263 24.8604 18.3983 24.8604 16.7428C24.8604 15.0874 24.4374 13.4593 23.6314 12.0131C23.3625 11.5307 22.7535 11.3576 22.2711 11.6264Z" fill="#2C232E"/>
<path fill-rule="evenodd" clip-rule="evenodd" d="M19.6859 13.6265C19.2035 13.8953 19.0303 14.5044 19.2992 14.9868C19.6983 15.7028 19.9077 16.5089 19.9077 17.3286C19.9077 18.1482 19.6983 18.9541 19.2993 19.6699C19.0303 20.1523 19.2034 20.7614 19.6858 21.0303C20.1682 21.2992 20.7772 21.1261 21.0462 20.6437C21.6112 19.6302 21.9077 18.489 21.9077 17.3286C21.9077 16.1681 21.6112 15.0269 21.0462 14.0131C20.7773 13.5307 20.1683 13.3576 19.6859 13.6265Z" fill="#2C232E"/>
<path fill-rule="evenodd" clip-rule="evenodd" d="M24.9707 9.62641C24.4883 9.89527 24.3152 10.5043 24.5841 10.9867C25.4652 12.5677 25.9276 14.3474 25.9276 16.1571C25.9276 17.9667 25.4652 19.7463 24.5841 21.3267C24.3152 21.8091 24.4883 22.4181 24.9706 22.6871C25.453 22.956 26.0621 22.7829 26.331 22.3005C27.378 20.4223 27.9276 18.3076 27.9276 16.1571C27.9276 14.0066 27.378 11.8917 26.3311 10.0131C26.0622 9.53066 25.4532 9.35754 24.9707 9.62641Z" fill="#2C232E"/>
</svg>
