<svg width="327" height="256" viewBox="0 0 327 256" fill="none" xmlns="http://www.w3.org/2000/svg">
<g filter="url(#filter0_d_387_13073)">
<path fill-rule="evenodd" clip-rule="evenodd" d="M276.52 29.6667C276.52 29.6667 285.5 29.6667 285.5 38.7365L285.434 183.597C285.434 183.597 285.434 192.667 276.443 192.667H38.4798C38.4798 192.667 29.5 192.667 29.5 183.597L29.5771 38.7365C29.5771 38.7365 29.5771 29.6667 38.5568 29.6667H276.52Z" fill="#2C232E"/>
<path d="M142.56 186.157C143.538 185.283 144.284 184.075 144.555 182.75C144.902 181.323 144.787 179.869 144.324 178.557C142.101 171.342 137.923 164.589 133.745 158.48C129.567 152.37 125.08 146.671 120.336 141.102C117.443 137.564 114.474 134.13 111.504 130.695C119.733 137.513 127.73 144.64 135.663 151.96C138.839 154.906 141.937 157.954 145.036 161.003C146.528 162.444 148.019 163.885 149.343 165.441C150.449 166.753 151.837 168.76 153.071 170.329C155.064 172.709 157.803 173.88 160.427 172.311C162.639 171.077 164.158 167.554 162.757 164.814C154.479 148.634 143.873 134.163 132.109 120.592C122.119 109.157 111.293 98.2999 99.8501 88.2658C101.779 89.5523 103.708 90.8389 105.636 92.1254C111.345 96.0879 116.81 100.269 122.236 104.823C127.675 109.467 132.972 114.407 137.935 119.578C139.336 121.031 140.84 122.562 142.255 124.106C143.772 125.727 144.659 126.794 145.867 128.183C147.076 129.573 148.349 131.412 149.506 133.084C149.853 133.586 150.187 133.997 150.444 134.512C150.38 134.705 150.405 134.885 150.418 134.975C150.135 138.139 152.011 140.994 155.085 141.934C160.936 143.671 163.446 136.149 161.273 131.222C159.371 126.901 155.604 123.029 152.544 119.607C146.913 113.613 140.947 107.85 134.673 102.498C122.355 91.4866 109.176 81.5164 95.2243 72.5749C91.4825 70.169 87.6635 67.8661 83.7802 65.756C79.2669 63.0927 74.3546 61.4968 69.1462 61.0453C67.2043 60.9548 65.3391 62.6905 64.6828 64.5294C64.2838 65.5967 64.1549 66.6255 64.309 67.7058C64.463 68.7861 64.7972 69.8408 65.4785 70.754C68.1653 74.78 71.7141 77.7645 75.1984 80.942C78.3485 83.7078 81.563 86.2807 84.7259 89.1365C91.1419 94.8353 97.4034 100.74 103.601 106.837C106.712 109.976 109.823 113.115 112.858 116.356C114.259 117.81 115.571 119.276 116.985 120.82L117.203 121.064C109 113.783 100.476 106.824 91.8349 100.34C84.853 95.1809 77.6139 90.1506 69.8084 86.9464C66.9794 85.7883 64.0214 86.3019 62.5031 89.1823C60.9848 92.0626 61.7299 95.3551 64.0699 97.5934C74.5742 108.129 84.937 118.96 94.9782 130.112C96.1739 131.412 97.3824 132.801 98.5781 134.1C99.0152 134.589 99.4524 135.078 99.8895 135.567L101.214 137.123L101.548 137.535L101.561 137.625C102.988 139.258 104.415 140.892 105.752 142.538C102.833 140.107 99.8246 137.688 96.8288 135.36C94.1543 133.353 91.2099 130.742 88.2652 129.416C83.7389 127.306 79.2889 128.308 77.1014 132.937C75.6989 135.985 77.5368 140.499 80.4943 141.915C81.9859 142.712 83.7349 142.739 85.2141 142.16C86.4227 142.906 87.5414 143.665 88.7629 144.502C89.3673 144.875 89.9845 145.338 90.5888 145.711L90.8974 145.943L91.8232 146.637C93.0447 147.474 94.1762 148.323 95.4106 149.249C100.142 152.8 104.707 156.466 109.207 160.325C113.707 164.185 118.22 168.134 122.476 172.212C124.61 174.296 126.745 176.38 128.879 178.463C131.013 180.547 133.443 183.416 135.41 185.616C137.159 187.571 140.219 187.777 142.56 186.157Z" fill="#6E9E96"/>
<path d="M125.619 82.6926C129.934 83.9572 134.174 85.2961 138.488 86.6351L149.423 89.9825C149.646 90.0569 149.795 90.2057 149.646 90.4288C149.348 91.0239 148.977 91.619 148.53 92.1397C147.786 93.1067 146.745 94.5201 145.406 94.5201C141.91 94.6688 138.414 95.4127 135.141 96.6773C134.917 96.7517 134.397 96.9004 134.248 96.6773C134.322 97.2724 134.322 97.7931 134.174 98.3138L134.099 99.2808C133.207 101.14 132.983 100.545 131.942 102.256C130.901 103.893 123.536 105.157 121.751 105.455C121.751 105.455 111.56 98.6113 112.825 92.2885C114.089 85.9656 125.619 82.6926 125.619 82.6926Z" fill="#FF8C5A"/>
<path d="M195.242 68.51C191.596 65.6737 186.801 64.7959 182.276 63.918C167.015 61.0142 151.956 57.0975 137.234 52.1678C137.099 52.0327 136.964 51.9652 136.829 51.8301C136.086 51.6276 135.411 51.425 134.668 51.2224C132.845 50.6821 130.954 50.0744 129.063 49.6692C126.97 49.8042 124.944 50.6146 123.323 51.9652C119.271 55.6118 118.461 61.757 121.567 66.2815C123.593 69.1178 126.902 70.7385 130.076 72.1566C147.836 80.0576 167.015 84.312 186.463 84.7847C190.853 84.8522 195.985 84.3795 198.416 80.7329C200.915 76.8837 198.889 71.3462 195.242 68.51Z" fill="#0038FF"/>
<path d="M188.894 73.7775C188.759 76.4787 186.531 77.8293 184.1 77.6942C170.256 76.7488 156.683 73.7775 143.312 70.1984C141.624 69.7257 140.003 69.253 138.315 68.7803C135.951 68.105 132.98 67.7673 131.494 65.6739C130.886 64.796 130.549 63.648 130.684 62.5675C130.819 61.4871 131.292 60.4741 132.102 59.6638C132.845 58.9885 133.858 58.5158 134.871 58.3807C135.884 58.2456 136.964 58.3807 137.909 58.8534C139.53 59.5287 141.016 60.3391 142.637 61.0144C144.257 61.6896 145.81 62.2974 147.431 62.9052C148.241 63.2428 148.984 63.513 149.727 63.7831L150.808 64.1207C150.267 63.9857 150.875 64.1207 150.943 64.1883L151.685 64.3908C154.994 65.4038 158.371 66.2141 161.815 66.8894C165.597 67.6323 169.378 68.24 173.227 68.6452C175.186 68.8478 177.212 69.0504 179.17 69.1855C180.116 69.253 181.128 69.3205 182.074 69.388H182.344H182.817L184.572 69.4556C186.936 69.5231 189.029 71.0763 188.894 73.7775Z" fill="#2C232E"/>
<path d="M152.12 72.9006C143.132 72.178 133.956 77.4183 130.008 85.5255C128.363 88.9035 127.581 92.6575 127.341 96.4056C127.106 100.007 127.358 103.667 128.433 107.115C131.929 118.342 144.847 125.597 156.315 123.001C167.783 120.404 176.272 108.543 175.314 96.8286C174.356 85.1143 164.275 74.8804 152.608 73.4587" fill="#BEAAFF"/>
<path d="M152.579 72.7011C142.192 71.9197 131.835 78.3232 128.386 88.2281C127.335 91.2536 126.841 94.4671 126.73 97.663C126.612 100.959 126.923 104.302 127.94 107.456C129.408 112.021 132.487 115.963 136.335 118.789C140.206 121.632 144.888 123.383 149.688 123.688C154.488 123.994 159.311 122.766 163.423 120.275C171.889 115.146 177.217 104.93 175.678 95.0252C174.139 85.1556 166.273 76.7194 156.738 74.0053C155.534 73.6645 154.312 73.4178 153.072 73.2592C152.831 73.2298 152.514 73.2944 152.297 73.4119C152.232 73.4472 151.897 73.6293 152.15 73.6645C161.649 74.863 170.044 81.7893 173.358 90.7249C176.753 99.8837 173.857 110.217 166.919 116.926C163.453 120.275 159.017 122.672 154.188 123.201C149.594 123.706 144.883 122.654 140.794 120.539C136.723 118.436 133.186 115.24 130.877 111.263C128.004 106.305 127.435 100.401 128.016 94.7903C128.598 89.1975 130.583 83.7985 134.584 79.7508C138.103 76.1907 142.809 73.735 147.808 73.1769C149.083 73.0359 150.376 73.0124 151.656 73.1064C151.909 73.124 152.208 73.077 152.432 72.9537C152.49 72.9184 152.837 72.7187 152.579 72.7011Z" fill="#BEAAFF"/>
<path d="M172.884 94.5757C172.884 94.7166 172.931 94.8576 172.949 94.9928C172.949 95.0221 172.949 95.1338 172.949 95.216C172.949 95.2982 172.949 95.4099 172.949 95.4392C172.949 95.6449 172.978 95.8564 172.984 96.0678C173.016 96.6314 173.016 97.1963 172.984 97.7598C172.984 98.0418 172.96 98.3238 172.913 98.6058C172.913 98.7467 172.872 98.8877 172.86 99.0229C172.859 99.0483 172.859 99.0738 172.86 99.0992L172.825 99.2814C172.604 100.468 172.264 101.629 171.809 102.747C171.756 102.883 171.703 103.012 171.644 103.141C171.646 103.153 171.646 103.165 171.644 103.176C171.515 103.429 171.398 103.693 171.263 103.94C170.965 104.507 170.638 105.058 170.281 105.591C170.123 105.826 169.964 106.061 169.8 106.29L169.541 106.631L169.388 106.825L169.242 107.001L168.895 107.406C168.684 107.641 168.466 107.876 168.243 108.105C167.843 108.517 167.432 108.91 167.003 109.28C166.762 109.492 166.516 109.697 166.269 109.903L165.934 110.167L165.634 110.396L165.464 110.514L165.112 110.761L164.395 111.231C163.849 111.571 163.29 111.895 162.721 112.194C162.151 112.494 161.669 112.723 161.134 112.958L160.623 113.175L159.948 113.422C158.879 113.791 157.788 114.093 156.681 114.327C156.129 114.438 155.577 114.538 155.013 114.615C154.866 114.615 154.126 114.714 154.643 114.667C154.343 114.697 154.055 114.726 153.744 114.744C152.618 114.826 151.488 114.838 150.36 114.779C149.796 114.748 149.232 114.701 148.668 114.638L147.922 114.538H147.875L147.387 114.45C146.279 114.244 145.184 113.969 144.109 113.628C143.575 113.457 143.04 113.269 142.517 113.04L142.012 112.834C141.753 112.723 141.495 112.599 141.237 112.476C140.22 111.989 139.239 111.431 138.299 110.808C137.888 110.532 137.483 110.22 137.124 109.944L136.684 109.586C136.419 109.362 136.167 109.139 135.914 108.904C135.07 108.119 134.284 107.273 133.564 106.372C133.482 106.266 133.394 106.161 133.311 106.049L133.223 105.926C133.1 105.749 132.971 105.573 132.853 105.397C132.507 104.892 132.178 104.375 131.872 103.852C131.567 103.329 131.349 102.9 131.114 102.418C130.997 102.172 130.879 101.931 130.774 101.684L130.615 101.308L130.58 101.232C130.58 101.232 130.58 101.167 130.539 101.114C130.148 100.046 129.843 98.9475 129.628 97.8303C129.575 97.5659 129.534 97.3016 129.493 97.0372C129.493 96.9256 129.493 96.8081 129.452 96.6964C129.452 96.6964 129.452 96.6553 129.452 96.6259C129.405 96.0385 129.369 95.451 129.375 94.8165C129.381 94.182 129.405 93.7414 129.458 93.2068C129.458 92.9542 129.51 92.7016 129.552 92.449C129.552 92.3961 129.552 92.2962 129.581 92.2727C129.622 92.0612 129.657 91.8498 129.704 91.6383C129.968 90.47 130.336 89.3277 130.803 88.225C130.803 88.2955 131.032 87.7374 131.056 87.6845C131.179 87.426 131.314 87.1734 131.449 86.9208C131.755 86.3333 132.089 85.8046 132.448 85.2641C132.753 84.8118 133.071 84.3711 133.405 83.9423L133.541 83.7837L133.817 83.4606C134.052 83.1962 134.287 82.9318 134.533 82.6733C135.371 81.8057 136.274 81.0043 137.236 80.2764L137.353 80.1942L137.7 79.9474L138.411 79.4774C138.951 79.1308 139.509 78.8077 140.073 78.5081C140.637 78.2085 141.09 77.997 141.612 77.7679C142.112 77.5428 142.624 77.3467 143.146 77.1804C145.317 76.4457 147.598 76.0861 149.89 76.1171C152.292 76.1532 154.673 76.5778 156.94 77.3743C156.934 77.7896 157.067 78.195 157.317 78.5267C157.567 78.8585 157.92 79.0979 158.32 79.2072C158.873 79.3173 159.417 79.4665 159.948 79.6537C160.077 79.6948 160.2 79.7477 160.324 79.7947L160.6 79.9063L160.894 80.0414C161.105 80.1295 161.311 80.2118 161.528 80.2882L161.634 80.3293L161.904 80.4527C162.174 80.5819 162.444 80.7229 162.709 80.8698C163.102 81.0871 163.49 81.3221 163.884 81.5747C164.119 81.798 164.348 82.0271 164.571 82.2562C164.791 82.488 165.076 82.6477 165.388 82.7145C165.787 83.0493 166.169 83.3959 166.563 83.7602C167.467 84.6309 168.318 85.5549 169.112 86.5272C169.212 86.6447 169.312 86.7681 169.406 86.8914L169.67 87.2322L169.829 87.4437L170.099 87.8255C170.475 88.3719 170.834 88.93 171.163 89.4998C171.492 90.0697 171.791 90.6748 172.062 91.2623C172.12 91.4091 172.185 91.5501 172.244 91.6911V91.7381C172.349 92.073 172.473 92.3961 172.573 92.731C172.754 93.3245 172.897 93.9288 173.001 94.5404L172.884 94.5757ZM175.034 87.0265C173.567 84.5826 171.77 82.3527 169.694 80.3998C167.725 78.4626 165.396 76.9298 162.838 75.888C162.125 75.6226 161.377 75.4642 160.617 75.418C158.463 74.2695 156.145 73.4591 153.744 73.0152C148.405 72.0746 142.904 72.8995 138.076 75.3651C133.157 77.7831 129.206 81.8021 126.873 86.7622C125.733 89.1946 125.084 91.8282 124.964 94.5118C124.844 97.1955 125.255 99.8764 126.174 102.401C128.058 107.471 131.507 111.81 136.02 114.791C140.352 117.597 145.361 119.18 150.519 119.373C161.293 119.849 172.508 113.957 176.397 103.635C177.406 100.939 177.797 98.0521 177.541 95.1856C177.285 92.3192 176.388 89.547 174.917 87.0735" fill="#2C232E"/>
<path d="M161.546 93.1478C161.308 93.3022 161.058 93.4378 160.799 93.5531C159.624 93.9996 158.297 93.8762 157.092 93.7881C155.747 93.6882 154.408 93.5238 153.074 93.3358C150.66 92.9877 148.269 92.4973 145.913 91.8671C146.306 90.4042 146.641 88.9297 146.906 87.4257C146.968 87.1022 146.956 86.7687 146.87 86.4505C150.855 87.234 154.69 88.6459 158.232 90.6334C159.27 91.1707 160.253 91.8061 161.17 92.5309C161.331 92.6694 161.477 92.825 161.604 92.995L161.645 93.0538C161.593 93.0538 161.499 93.1771 161.546 93.1478ZM160.159 102.624C160.13 102.624 160.294 102.853 160.306 102.882C160.318 102.912 160.359 102.953 160.365 102.947C160.371 102.941 160.365 102.988 160.365 103.012C160.318 102.918 160.365 102.929 160.365 103.012C160.199 103.129 160.024 103.233 159.842 103.323C159.654 103.428 159.457 103.516 159.254 103.587C158.62 103.801 157.956 103.91 157.286 103.91C154.461 103.957 151.558 103.07 148.833 102.295C146.828 101.751 144.876 101.032 142.999 100.145C143.55 99.1096 143.99 98.0185 144.309 96.89C144.497 96.3613 144.679 95.8325 144.855 95.3038C147.12 95.9689 149.347 96.7533 151.529 97.6537C154.144 98.662 156.633 99.9732 158.943 101.56C159.402 101.851 159.812 102.212 160.159 102.63V102.624ZM162.039 89.4114C160.917 88.6888 159.754 88.0191 158.561 87.4081C159.086 86.4308 159.464 85.3817 159.683 84.2945C159.772 83.8596 159.694 83.4072 159.464 83.0276C159.234 82.648 158.869 82.3691 158.443 82.2466C158.016 82.1242 157.559 82.1673 157.163 82.3672C156.766 82.5671 156.46 82.9092 156.305 83.3251C156.123 84.0125 155.888 84.6763 155.665 85.346C155.6 85.5458 155.518 85.7455 155.442 85.9335C155.13 85.8043 154.825 85.675 154.513 85.5575L153.597 85.2051C153.685 84.9113 153.756 84.6176 153.814 84.3297C153.997 83.5057 154.095 82.6652 154.108 81.8212C154.108 79.7768 150.877 79.7121 150.9 81.7507C150.923 82.3589 150.878 82.9678 150.765 83.566C150.718 83.7945 150.657 84.0201 150.583 84.2416C148.835 83.7615 147.057 83.3964 145.261 83.1489C143.915 82.955 143.345 84.7938 144.05 85.6574C143.803 85.8599 143.629 86.1388 143.557 86.4505C143.104 88.5525 142.516 90.6228 141.795 92.6484C141.466 93.5766 141.084 94.5166 140.702 95.3449C140.249 96.3202 139.615 97.2542 139.233 98.2823C138.768 98.2279 138.298 98.3234 137.891 98.5548C137.484 98.7862 137.162 99.1415 136.971 99.5689C136.755 100.054 136.723 100.601 136.882 101.107C137.041 101.614 137.38 102.045 137.835 102.318C139.255 103.103 140.727 103.79 142.241 104.374C142.059 105.197 141.883 106.019 141.701 106.836C141.436 108.064 141.013 109.433 141.924 110.473C142.153 110.697 142.448 110.841 142.765 110.884C143.083 110.928 143.405 110.868 143.686 110.713C144.773 110.179 144.938 108.751 145.143 107.688L145.566 105.514C146.154 105.696 146.77 105.867 147.376 106.025C147.981 106.184 148.727 106.36 149.402 106.519C149.384 106.596 149.373 106.675 149.367 106.754C149.247 107.841 149.247 108.939 149.367 110.026C149.602 111.348 151.558 111.254 151.923 110.067C152.163 109.106 152.288 108.12 152.293 107.13C153.969 107.511 155.686 107.676 157.404 107.623C159.326 107.584 161.183 106.918 162.691 105.726C163.391 105.13 163.836 104.29 163.936 103.377C164.037 102.464 163.785 101.548 163.232 100.814C162.233 99.4279 160.711 98.5114 159.266 97.6244C158.931 97.4187 158.591 97.219 158.25 97.0369C159.488 97.1068 160.727 96.9331 161.898 96.5258C163.408 95.9383 164.871 94.7633 164.777 93.0009C164.689 91.3501 163.337 90.2691 162.051 89.4349" fill="#2C232E"/>
<path d="M152.919 101.066C152.919 100.248 152.473 99.4297 151.729 98.9833C149.423 97.7188 144.588 100.248 144.365 100.397C138.562 104.19 130.678 107.91 120.859 111.406C120.635 111.331 120.338 111.331 120.115 111.48C118.032 112.596 115.875 112.596 113.569 112.299C113.42 112.001 113.345 111.703 113.271 111.406C113.271 111.108 113.494 110.811 113.643 110.513C113.866 110.067 114.015 109.621 114.238 109.174C114.61 108.282 114.908 107.389 115.131 106.496H115.205L121.677 105.455L124.28 96.231L125.545 82.7671C124.28 82.4696 122.941 82.4696 121.677 82.7671C119.445 83.139 117.214 83.4366 115.056 83.8829C110.668 84.7755 106.279 86.1889 102.634 88.8668C101.741 89.5363 100.923 90.3545 100.328 91.2472C99.584 92.363 98.9889 93.4787 98.3938 94.6689C97.4268 96.8261 96.6829 98.9833 96.0878 101.289C94.972 105.827 94.3026 110.439 93.1868 114.976C92.6661 117.282 91.9222 119.514 91.0296 121.746C90.5833 122.713 90.0625 123.68 89.5418 124.647C89.2443 125.093 88.9468 125.614 88.7236 126.134C88.5004 126.729 88.2773 127.25 87.9797 127.845C87.9053 128.068 87.7566 128.217 87.6822 128.44C86.6408 129.705 85.525 130.895 84.3348 132.011C82.1032 134.094 80.0204 136.325 78.2351 138.78C78.1607 138.854 78.1607 139.003 78.2351 139.078C78.6814 139.524 79.2021 139.97 79.7228 140.342C79.946 140.863 80.2435 141.309 80.6155 141.681C80.9874 142.053 81.3593 142.351 81.7313 142.797C82.1032 143.169 82.4751 143.764 82.8471 144.21C83.6653 145.103 84.558 145.921 85.5994 146.591C87.6822 148.004 89.9882 149.12 92.4429 150.012C94.6001 150.831 96.6829 151.723 98.9889 151.723C99.2865 151.872 99.584 152.021 99.9559 152.17C100.402 152.318 100.849 152.17 101.072 151.872L103.675 148.673L104.122 148.227C104.196 148.153 104.345 148.004 104.419 147.855C104.494 147.781 104.494 147.781 104.568 147.706C105.535 146.888 106.576 146.144 107.618 145.4C108.362 144.805 109.105 144.21 109.849 143.615C112.453 143.169 114.982 142.127 117.139 140.565C120.933 137.962 123.536 134.168 125.322 130.077C127.181 128.143 129.041 126.06 130.752 123.977C130.826 123.903 130.826 123.828 130.901 123.754L131.049 123.605C131.347 123.308 131.57 123.01 131.868 122.713H131.942C135.141 117.952 143.844 113.786 143.918 113.712C143.993 113.637 153.663 108.951 152.919 101.066Z" fill="#FF8C5A"/>
<path d="M106.056 144.731C99.584 140.863 93.4843 136.4 87.7565 131.49C87.0871 130.821 86.1944 130.3 85.3018 130.003C84.5579 129.779 83.8141 129.854 83.0702 130.151C82.4007 130.151 81.7313 130.449 81.3593 130.97C76.301 133.871 71.3172 136.995 66.482 140.268C63.9529 141.979 61.4238 143.69 58.8946 145.401C56.4399 147.111 53.9851 148.822 51.5304 150.459C48.7781 152.318 46.1746 154.327 43.7198 156.558C43.2735 157.005 43.0503 157.674 43.1991 158.344C43.1991 158.864 43.4223 159.46 43.7942 159.832C47.5135 163.848 52.9437 166.006 57.7788 168.312C63.1347 170.841 68.5649 173.295 73.9951 175.601C76.8217 176.792 79.6484 177.982 82.4751 179.098C85.0786 180.139 88.5004 182.222 90.9552 179.99C91.8478 179.023 92.5917 177.907 93.1868 176.643C93.9306 175.378 94.6001 174.114 95.2696 172.849C96.6085 170.32 97.9475 167.716 99.2121 165.113C102.113 159.236 104.642 153.137 106.948 146.963C107.171 146.07 106.799 145.177 106.056 144.731Z" fill="#BEAAFF"/>
<path d="M119.296 96.008C119.296 95.7848 119.222 95.5617 119.148 95.4129C119.073 95.2641 118.999 95.1153 118.85 94.9666C118.701 94.8178 118.552 94.7434 118.329 94.7434C118.106 94.7434 117.957 94.8178 117.809 94.9666C117.66 95.1153 117.585 95.2641 117.511 95.4129L117.065 96.5287C116.693 97.4957 116.246 98.5371 115.875 99.5785C115.354 100.992 114.907 102.405 114.536 103.893C113.717 106.943 113.122 110.067 112.825 113.191C112.75 113.638 112.899 114.158 113.345 114.456C113.494 114.53 113.643 114.605 113.792 114.605C113.866 114.605 114.015 114.605 114.089 114.53C114.387 114.381 114.61 114.009 114.61 113.638C114.907 110.588 115.354 107.612 116.098 104.637C116.693 102.182 117.511 99.8761 118.552 97.5701C118.701 97.4957 118.85 97.4213 118.924 97.3469C119.073 97.1238 119.222 96.9006 119.222 96.6775C119.371 96.4543 119.371 96.2311 119.296 96.008Z" fill="#2C232E"/>
<path d="M154.481 99.7272L152.473 97.2724C152.324 97.1237 152.101 96.9749 151.952 96.9005C151.654 96.6773 151.357 96.5286 150.91 96.5286C150.39 96.5286 149.943 96.7517 149.646 97.0493C149.423 97.0493 149.125 97.1237 148.902 97.2724H148.828C147.34 98.2395 146.075 99.504 145.108 100.992C144.141 102.405 143.546 104.488 144.513 106.05C145.703 107.984 148.233 108.133 150.092 107.017C150.91 106.496 151.654 105.976 152.324 105.306C152.993 104.711 153.588 104.19 154.183 103.595C154.853 103.149 155.225 102.405 155.299 101.661C155.448 100.992 155.076 100.248 154.481 99.7272Z" fill="#0038FF"/>
<path fill-rule="evenodd" clip-rule="evenodd" d="M87.749 84.0518C90.07 84.0518 91.962 85.9548 91.962 88.4518V105.194C91.962 107.383 90.081 109.286 87.749 109.286H63.087C60.766 109.286 58.874 107.383 58.874 105.04V88.2978C58.874 85.9548 60.755 84.0518 63.087 84.0518H87.749Z" fill="#D7D8D7"/>
<path fill-rule="evenodd" clip-rule="evenodd" d="M87.892 84.0517V84.4257C90.015 84.4257 91.742 86.1527 91.742 88.2977V105.04C91.742 107.174 90.015 108.901 87.892 108.912H63.109C60.975 108.912 59.259 107.185 59.259 105.04V88.2977C59.259 86.1637 60.986 84.4367 63.109 84.4257H87.892V83.6667H63.109C60.568 83.6667 58.5 85.7347 58.5 88.2977V105.04C58.5 107.592 60.568 109.671 63.109 109.671H87.892C90.433 109.671 92.501 107.603 92.501 105.04V88.2977C92.501 85.7457 90.433 83.6777 87.892 83.6667V84.0517Z" fill="#1A1919"/>
<path fill-rule="evenodd" clip-rule="evenodd" d="M58.874 97.0428H58.94L58.962 97.0648V99.9908C58.962 100.244 59.16 100.442 59.413 100.442H68.444C68.675 100.442 68.895 100.31 68.994 100.09C69.511 98.9788 69.764 97.7908 69.764 96.5918C69.764 95.4588 69.533 94.3148 69.06 93.2478C68.961 93.0278 68.752 92.8848 68.51 92.8848H59.402C59.149 92.8848 58.951 93.0828 58.951 93.3358V96.2618L58.94 96.2838H58.874L58.72 96.4378L58.874 96.5918H58.995L59.105 96.5478L59.215 96.4378L59.259 96.3278V93.3468L59.413 93.1928H68.51C68.631 93.1928 68.741 93.2588 68.785 93.3688C69.236 94.3918 69.467 95.4918 69.467 96.5918C69.467 97.7468 69.214 98.8908 68.719 99.9578C68.664 100.068 68.565 100.134 68.444 100.134H59.402L59.248 99.9798V96.9878L59.204 96.8778L59.094 96.7678L58.984 96.7238H58.874L58.72 96.8778L58.874 97.0428Z" fill="#131514"/>
<path fill-rule="evenodd" clip-rule="evenodd" d="M58.874 101.344H58.94L58.962 101.366V105.029C58.962 107.328 60.821 109.198 63.12 109.198H67.85C68.048 109.198 68.235 109.099 68.356 108.934C69.302 107.537 69.775 105.92 69.775 104.292C69.775 103.159 69.544 102.015 69.071 100.948C68.972 100.728 68.763 100.585 68.521 100.585H58.874L58.72 100.739L58.874 100.893H68.499C68.62 100.893 68.73 100.97 68.774 101.069C69.225 102.103 69.456 103.192 69.456 104.292C69.456 105.865 68.994 107.427 68.081 108.769C68.026 108.846 67.927 108.901 67.828 108.901H63.098C60.975 108.901 59.248 107.174 59.248 105.029V101.3L59.204 101.19L59.094 101.08L58.984 101.036H58.874L58.72 101.19L58.874 101.344Z" fill="#131514"/>
<path fill-rule="evenodd" clip-rule="evenodd" d="M58.874 92.7307H68.51C68.752 92.7307 68.961 92.5877 69.06 92.3677C69.533 91.3007 69.764 90.1677 69.764 89.0347C69.764 87.3957 69.28 85.7787 68.334 84.3817C68.224 84.2167 68.026 84.1177 67.828 84.1177H63.109C60.81 84.1177 58.951 85.9877 58.951 88.2867V91.9497L58.94 91.9827H58.874L58.731 92.1257L58.885 92.2797H59.006L59.116 92.2357L59.226 92.1257L59.27 92.0157V88.2977C59.27 86.1637 60.997 84.4367 63.12 84.4257H67.839C67.938 84.4257 68.037 84.4807 68.092 84.5577C69.005 85.8997 69.467 87.4617 69.467 89.0347C69.467 90.1237 69.247 91.2237 68.796 92.2467C68.73 92.3677 68.62 92.4337 68.51 92.4337H58.874L58.731 92.5877L58.874 92.7307Z" fill="#131514"/>
<path fill-rule="evenodd" clip-rule="evenodd" d="M75.121 84.0517V84.1067L75.11 84.1177H69.17C68.917 84.1177 68.719 84.3267 68.719 84.5687V84.6127L68.752 84.7667L68.763 84.7997C69.203 85.5477 69.511 86.3617 69.698 87.2087L69.764 87.2967L69.885 87.3737L69.995 87.3957C71.821 87.1427 73.658 87.0107 75.495 87.0107C77.519 87.0107 79.543 87.1647 81.556 87.4727L81.655 87.4507L81.765 87.3847L81.831 87.3077C82.227 86.3947 82.788 85.5697 83.481 84.8547C83.569 84.7667 83.613 84.6567 83.613 84.5357C83.613 84.4147 83.569 84.2937 83.47 84.2057L83.415 84.2167L83.206 84.1287L83.151 84.1177H75.891L75.88 84.1067V84.0517L75.726 83.8977L75.572 84.0517V84.1727L75.616 84.2827L75.715 84.3927L75.825 84.4367H83.118L83.294 84.5137L83.349 84.3707L83.239 84.4807L83.283 84.5907L83.239 84.7007C82.524 85.4377 81.941 86.2957 81.534 87.2417L81.677 87.3077L81.611 87.1757L81.501 87.2417L81.578 87.3737L81.6 87.1977C79.576 86.8897 77.541 86.7247 75.495 86.7247C73.647 86.7247 71.788 86.8567 69.951 87.1097L69.973 87.2637L70.061 87.1427L69.94 87.0547L69.863 87.1867L70.006 87.1537C69.808 86.2737 69.489 85.4267 69.038 84.6567L68.906 84.7337L69.049 84.6897L69.005 84.5357L68.862 84.5797H69.016L69.17 84.4257H75.176L75.286 84.3817L75.396 84.2717L75.44 84.1617V84.0517L75.286 83.8977L75.121 84.0517Z" fill="#131514"/>
<path fill-rule="evenodd" clip-rule="evenodd" d="M75.88 109.275V109.22L75.902 109.198H81.842C82.095 109.198 82.293 108.989 82.293 108.747V108.703L82.249 108.549L82.238 108.516C81.809 107.768 81.49 106.954 81.303 106.107L81.237 106.019L81.116 105.942L81.006 105.92C79.18 106.173 77.343 106.305 75.506 106.305C73.669 106.305 71.832 106.173 70.006 105.92L69.896 105.942L69.775 106.019L69.709 106.107C69.522 106.954 69.203 107.768 68.774 108.516L68.719 108.747C68.719 108.901 68.796 109.055 68.95 109.143L68.983 109.154L69.137 109.198H69.17H75.11L75.132 109.22V109.275L75.286 109.429L75.44 109.275V109.154L75.396 109.044L75.297 108.934L75.187 108.89H69.192L69.06 108.868L69.027 109.011L69.104 108.879L69.016 108.747L69.038 108.67C69.489 107.889 69.819 107.053 70.006 106.173L69.863 106.14L69.951 106.261L70.072 106.184L69.984 106.063L69.962 106.217C71.799 106.47 73.658 106.602 75.506 106.602C77.354 106.602 79.213 106.47 81.05 106.217L81.028 106.063L80.94 106.184L81.061 106.261L81.149 106.14L81.006 106.173C81.204 107.053 81.523 107.889 81.974 108.67L82.106 108.593L81.963 108.637L82.007 108.791L82.15 108.747H81.996L81.842 108.901H75.847L75.737 108.945L75.627 109.055L75.583 109.165V109.286L75.737 109.44L75.88 109.275Z" fill="#131514"/>
<path fill-rule="evenodd" clip-rule="evenodd" d="M92.127 100.585H82.502C82.26 100.585 82.051 100.728 81.952 100.948C81.479 102.015 81.248 103.159 81.248 104.292C81.248 105.92 81.732 107.548 82.667 108.934C82.777 109.099 82.964 109.198 83.162 109.198H87.892C90.191 109.198 92.05 107.328 92.05 105.029V101.366L92.072 101.344H92.127L92.281 101.19L92.127 101.036H92.006L91.896 101.08L91.786 101.19L91.742 101.3V105.029C91.742 107.163 90.015 108.89 87.892 108.901H83.162C83.063 108.901 82.964 108.846 82.909 108.769C81.996 107.427 81.534 105.865 81.534 104.292C81.534 103.203 81.754 102.103 82.216 101.069C82.26 100.959 82.37 100.893 82.491 100.893H92.116L92.27 100.739L92.127 100.585Z" fill="#131514"/>
<path fill-rule="evenodd" clip-rule="evenodd" d="M92.127 96.2838H92.072L92.05 96.2618V93.3468C92.05 93.0938 91.852 92.8958 91.599 92.8958H82.502C82.26 92.8958 82.051 93.0388 81.952 93.2588C81.479 94.3258 81.248 95.4588 81.248 96.6028C81.248 97.8018 81.501 98.9898 82.018 100.101C82.117 100.31 82.326 100.453 82.568 100.453H91.599C91.852 100.453 92.05 100.244 92.05 100.002V97.0758L92.072 97.0538H92.127L92.281 96.8998L92.127 96.7458H92.006L91.896 96.7898L91.786 96.8998L91.742 97.0098V100.002L91.588 100.156H82.557C82.436 100.156 82.337 100.09 82.282 99.9798C81.787 98.9128 81.534 97.7578 81.534 96.6138C81.534 95.5138 81.754 94.4248 82.216 93.3908C82.26 93.2808 82.37 93.2038 82.491 93.2148H91.588L91.742 93.3688V96.3608L91.786 96.4708L91.896 96.5808L92.006 96.6248H92.127L92.281 96.4708L92.127 96.2838Z" fill="#131514"/>
<path fill-rule="evenodd" clip-rule="evenodd" d="M92.127 91.9827H92.072L92.05 91.9607V88.2977C92.05 85.9987 90.191 84.1287 87.892 84.1287H84.79C84.658 84.1287 84.526 84.1727 84.416 84.2607C82.909 85.4487 81.864 87.1207 81.457 89.0017L81.6 89.0237L81.501 88.9027L81.391 88.9907H81.292H81.27V89.1337L81.402 89.0567L81.27 88.8697L81.138 88.9467L81.281 88.9797C81.347 88.6827 81.424 88.3857 81.523 88.0997L81.512 87.9787L81.446 87.8467L81.347 87.7697H81.325H81.314C79.378 87.4837 77.431 87.3407 75.484 87.3407C73.669 87.3407 71.854 87.4617 70.05 87.7147L69.951 87.7697L69.863 87.8907L69.83 88.0007C69.874 88.3417 69.896 88.6937 69.896 89.0347C69.896 89.9917 69.731 90.9377 69.412 91.8507C69.302 92.1587 69.247 92.4887 69.247 92.8187C69.247 93.1487 69.302 93.4677 69.412 93.7867C69.731 94.6997 69.896 95.6457 69.896 96.5917C69.896 97.5597 69.731 98.5387 69.39 99.4627C69.28 99.7817 69.214 100.112 69.214 100.442C69.214 100.772 69.269 101.113 69.39 101.421C69.72 102.345 69.896 103.313 69.896 104.292C69.896 104.633 69.874 104.985 69.83 105.326L69.863 105.436L69.951 105.557L70.05 105.612C71.854 105.865 73.669 105.986 75.484 105.986C77.299 105.986 79.114 105.865 80.918 105.612L81.017 105.557L81.105 105.436L81.138 105.326C81.094 104.985 81.072 104.633 81.072 104.292C81.072 103.313 81.237 102.345 81.578 101.421C81.688 101.102 81.754 100.772 81.754 100.442C81.754 100.112 81.699 99.7707 81.578 99.4627C81.237 98.5387 81.072 97.5597 81.072 96.5917C81.072 95.4257 81.314 94.2707 81.787 93.1927C81.908 92.9177 82.183 92.7417 82.48 92.7417H92.105L92.259 92.5877L92.105 92.4337H82.48C82.062 92.4337 81.677 92.6757 81.512 93.0607C81.017 94.1827 80.775 95.3817 80.775 96.5807C80.775 97.5817 80.951 98.5937 81.292 99.5507C81.391 99.8367 81.446 100.134 81.446 100.431C81.446 100.728 81.391 101.025 81.292 101.311C80.951 102.268 80.775 103.269 80.775 104.281C80.775 104.633 80.797 104.996 80.841 105.348L80.995 105.326L80.874 105.238L80.786 105.359L80.907 105.447L80.885 105.293C79.092 105.546 77.299 105.667 75.495 105.667C73.691 105.667 71.887 105.546 70.105 105.293L70.083 105.447L70.204 105.359L70.116 105.238L69.995 105.326L70.149 105.348C70.193 104.996 70.215 104.633 70.215 104.281C70.215 103.269 70.039 102.268 69.698 101.311C69.599 101.025 69.544 100.728 69.544 100.431C69.544 100.134 69.599 99.8367 69.698 99.5507C70.05 98.5937 70.215 97.5817 70.215 96.5807C70.215 95.6017 70.05 94.6117 69.72 93.6657C69.621 93.3907 69.577 93.0937 69.577 92.8077C69.577 92.5107 69.621 92.2247 69.72 91.9497C70.05 91.0147 70.215 90.0247 70.215 89.0347C70.215 88.6717 70.193 88.3197 70.149 87.9567L69.995 87.9787L70.116 88.0667L70.204 87.9457L70.083 87.8577L70.105 88.0117C71.898 87.7587 73.691 87.6377 75.495 87.6377C77.431 87.6377 79.367 87.7807 81.281 88.0667L81.303 87.9127L81.27 88.0667H81.292L81.325 87.9237L81.193 87.9897L81.259 88.1217L81.391 88.0557L81.248 88.0117C81.149 88.3087 81.061 88.6167 80.995 88.9247L81.017 89.0347L81.138 89.2107L81.248 89.2767H81.281H81.292H81.446L81.545 89.2437L81.688 89.1227L81.743 89.0347C82.139 87.2307 83.14 85.6137 84.592 84.4697L84.779 84.4037H87.881C90.015 84.4037 91.731 86.1417 91.731 88.2757V92.0267L91.775 92.1367L91.885 92.2467L91.995 92.2907H92.116L92.27 92.1367L92.127 91.9827Z" fill="#131514"/>
<path d="M251.016 149.056C252.842 149.056 254.316 149.453 255.46 149.871L254.625 153.764C252.502 152.785 250.62 152.851 249.938 152.939C248.563 153.115 247.936 153.819 247.925 154.479C247.881 156.646 254.613 156.91 254.591 161.761C254.58 165.578 251.313 168.042 246.319 168.064C244.185 168.042 242.139 167.592 241.028 167.086L241.886 163.059C242.986 163.565 244.383 164.259 246.77 164.215C248.145 164.204 249.607 163.653 249.619 162.422C249.63 161.608 249.003 161.036 247.155 160.134C245.351 159.254 242.953 157.768 242.986 155.129C243.008 151.554 246.319 149.056 251.016 149.056ZM220.766 149.376C221.8 149.376 222.724 150.058 222.955 151.246L224.958 161.883L229.907 149.376C229.907 149.376 234.867 149.376 234.901 149.376L227.201 167.757H222.174L218.379 153.094C218.148 152.192 217.95 151.861 217.246 151.476C216.102 150.86 214.221 150.278 212.56 149.915L212.67 149.376H220.766ZM237.772 167.757H233.02L236.947 149.376H241.699L237.772 167.757ZM271.399 167.757H267L266.427 165.017H260.333L259.343 167.757H254.349L261.477 150.728C261.818 149.903 262.589 149.376 263.501 149.376H267.56L271.399 167.757ZM261.697 161.245H265.646L264.205 154.337L261.697 161.245Z" fill="white"/>
<path d="M251.577 172.31C252.743 172.31 253.579 172.586 254.129 173.092C254.701 173.609 255.031 174.334 255.031 175.357C255.031 176.38 254.701 177.227 254.129 177.81C253.535 178.404 252.556 178.713 251.335 178.713C250.741 178.713 250.268 178.679 249.861 178.635V172.453H249.85C250.345 172.365 250.939 172.31 251.577 172.31ZM251.622 172.96C251.204 172.96 250.885 172.993 250.665 173.048V178.03C250.873 178.063 251.17 178.063 251.489 178.063C253.238 178.063 254.173 177.095 254.173 175.39C254.184 173.906 253.337 172.96 251.622 172.96Z" fill="white"/>
<path d="M258.122 174.059C259.607 174.059 259.992 175.346 259.992 176.182C259.992 176.347 259.981 176.468 259.959 176.567L256.78 176.556C256.802 177.667 257.495 178.13 258.331 178.13C258.925 178.13 259.288 178.03 259.585 177.898L259.739 178.492C259.453 178.624 258.947 178.778 258.221 178.778C256.824 178.778 255.999 177.854 255.999 176.49C255.999 175.126 256.802 174.059 258.122 174.059ZM258.045 174.632C257.209 174.632 256.846 175.391 256.78 175.963H259.19C259.201 175.446 258.969 174.632 258.045 174.632Z" fill="white"/>
<path d="M262.049 174.862H262.071C262.357 174.356 262.885 174.037 263.611 174.037C264.744 174.037 265.525 174.972 265.525 176.336C265.525 177.953 264.502 178.757 263.49 178.757C262.841 178.757 262.313 178.503 261.961 177.909H261.939L261.895 178.646H261.191C261.213 178.338 261.224 177.876 261.224 177.48L261.235 172.024H262.049V174.862ZM263.336 174.697C262.786 174.697 262.258 175.093 262.093 175.709C262.06 175.808 262.049 175.93 262.049 176.051V176.854C262.049 176.952 262.06 177.062 262.082 177.15C262.236 177.722 262.72 178.118 263.314 178.118C264.183 178.118 264.689 177.415 264.689 176.381C264.689 175.479 264.227 174.697 263.336 174.697Z" fill="white"/>
<path d="M267.615 178.669H266.79V174.147H267.615V178.669ZM267.197 172.354C267.505 172.354 267.703 172.574 267.703 172.871C267.703 173.146 267.505 173.378 267.175 173.378C266.878 173.378 266.68 173.157 266.68 172.871C266.68 172.596 266.889 172.355 267.197 172.354Z" fill="white"/>
<path d="M270.2 173.058V174.147H271.377V174.774H270.2V177.216C270.2 177.777 270.354 178.096 270.816 178.096C271.036 178.096 271.168 178.074 271.289 178.041L271.322 178.668C271.168 178.723 270.915 178.778 270.596 178.778C270.211 178.778 269.903 178.646 269.705 178.437C269.485 178.184 269.386 177.777 269.386 177.249V174.785H268.682V174.158H269.386V173.311L270.2 173.058Z" fill="white"/>
</g>
<path d="M249.073 62.1644H246.441V64.9535H249.073C250.064 64.9535 250.716 64.4843 250.716 63.572C250.716 62.6596 250.064 62.1644 249.073 62.1644ZM262.732 54.1881C262.732 56.2473 261.168 57.3421 259.396 57.3421C257.623 57.3421 256.059 56.2473 256.059 54.1881V49.1573H257.258V54.162C257.258 55.4914 258.171 56.2473 259.396 56.2473C260.621 56.2473 261.533 55.4914 261.533 54.162V49.1573H262.732V54.1881ZM251.993 57.1596H250.742L246.441 50.7473V57.1596H245.242V49.1312H246.858L250.82 55.1265V49.1312H252.019V57.1596H251.993ZM245.216 61.0957H249.282C250.924 61.0957 251.941 62.1383 251.941 63.598C251.941 64.8492 251.133 65.7355 249.829 65.9701L251.915 69.1241H250.507L248.526 66.0483H246.415V69.1241H245.19V61.0957H245.216ZM256.424 61.0957H262.472V62.3208H260.073V67.9511H262.472V69.1762H256.424V67.9511H258.822V62.3208H256.424V61.0957ZM270.5 67.3776V50.9558C270.5 46.3682 266.799 42.6667 262.211 42.6667H245.789C241.201 42.6667 237.5 46.3682 237.5 50.9558V67.3776C237.5 71.9653 241.201 75.6667 245.789 75.6667H262.211C266.773 75.6667 270.5 71.9653 270.5 67.3776Z" fill="#F0F0F0"/>
<defs>
<filter id="filter0_d_387_13073" x="0.5" y="0.666748" width="326" height="254.5" filterUnits="userSpaceOnUse" color-interpolation-filters="sRGB">
<feFlood flood-opacity="0" result="BackgroundImageFix"/>
<feColorMatrix in="SourceAlpha" type="matrix" values="0 0 0 0 0 0 0 0 0 0 0 0 0 0 0 0 0 0 127 0" result="hardAlpha"/>
<feOffset dx="6" dy="6"/>
<feGaussianBlur stdDeviation="17.5"/>
<feColorMatrix type="matrix" values="0 0 0 0 0 0 0 0 0 0 0 0 0 0 0 0 0 0 0.25 0"/>
<feBlend mode="normal" in2="BackgroundImageFix" result="effect1_dropShadow_387_13073"/>
<feBlend mode="normal" in="SourceGraphic" in2="effect1_dropShadow_387_13073" result="shape"/>
</filter>
</defs>
</svg>
