<svg width="22" height="22" viewBox="0 0 22 22" fill="none" xmlns="http://www.w3.org/2000/svg">
<path fill-rule="evenodd" clip-rule="evenodd" d="M7.51238 11.0793C7.57634 11.1405 7.64374 11.2049 7.71378 11.2719C8.25482 11.7895 8.95294 12.4574 9.43314 12.8894L14.1077 13.0387C14.489 13.0415 14.8517 13.1936 15.123 13.4588C15.1794 13.514 15.231 13.5732 15.2776 13.6358C15.6935 13.5526 16.2426 13.4375 16.7964 13.3214C17.4625 13.1818 18.1355 13.0407 18.5914 12.952C18.7792 12.9074 18.9738 12.8999 19.1647 12.9301C19.3624 12.9614 19.5512 13.0323 19.7205 13.138C19.8898 13.2436 20.036 13.3818 20.1514 13.5437C20.2668 13.7055 20.3494 13.8882 20.3953 14.0811C20.4412 14.274 20.4497 14.4741 20.4205 14.6701C20.3912 14.8662 20.3246 15.0552 20.2238 15.2263C20.1229 15.3975 19.9895 15.5478 19.8304 15.6679C19.6871 15.7761 19.5256 15.8578 19.3533 15.9088C16.9848 16.9259 14.568 17.8197 12.1121 18.5867C11.1533 18.9485 10.1035 18.9705 9.13058 18.6485C9.11347 18.6429 9.09659 18.6365 9.08 18.6295C7.42949 17.9277 5.82812 17.1099 4.28725 16.1817H3.10363C2.91233 16.1817 2.4868 16.1638 2.22723 15.799C2.10236 15.6235 2.06936 15.4368 2.06354 15.2994C2.05786 15.1651 2.07638 15.0351 2.09657 14.9287L2.09972 14.912L2.87393 11.3358C2.87647 11.3241 2.87932 11.3124 2.8825 11.3008C2.9594 11.0208 3.10649 10.7169 3.42962 10.5261C3.71212 10.3592 4.03043 10.3438 4.26462 10.3438H5.71281M14.2609 14.505C14.2533 14.4616 14.2328 14.424 14.2054 14.3972C14.173 14.3656 14.1338 14.3512 14.0969 14.3512L14.0751 14.3509L9.29935 14.1983C9.28141 14.1978 9.2635 14.1965 9.24567 14.1944C9.03691 14.1705 8.83939 14.0913 8.67226 13.9664C8.65716 13.9552 8.64255 13.9432 8.62848 13.9307C8.12895 13.4856 7.36948 12.759 6.80602 12.2199C6.73475 12.1517 6.66661 12.0865 6.60253 12.0253L6.59602 12.0191C6.35584 11.7831 6.0402 11.6552 5.71596 11.6563L5.71381 11.6563H4.26462C4.21517 11.6563 4.17666 11.6576 4.14673 11.6596L3.45209 14.8692H4.47047C4.59086 14.8692 4.70893 14.9024 4.81176 14.965C6.33904 15.8949 7.9283 16.7121 9.56758 17.4105C10.2527 17.6311 10.9893 17.6112 11.6629 17.3533C11.6758 17.3484 11.6889 17.3439 11.7021 17.3397C14.1354 16.5805 16.5298 15.6946 18.8759 14.6854C18.9079 14.6716 18.941 14.6604 18.9748 14.6519C18.9971 14.6462 19.0191 14.6359 19.0395 14.6205C19.0599 14.6051 19.0784 14.5848 19.093 14.56C19.1076 14.5352 19.1178 14.5068 19.1224 14.4763C19.1269 14.4459 19.1255 14.4148 19.1185 14.3851C19.1114 14.3554 19.099 14.3284 19.0826 14.3055C19.0663 14.2827 19.0467 14.2645 19.0256 14.2514C19.0045 14.2382 18.9821 14.2301 18.9597 14.2265C18.9373 14.223 18.9145 14.224 18.8922 14.2296C18.8805 14.2326 18.8686 14.2352 18.8568 14.2375C18.4528 14.3159 17.8045 14.4515 17.1422 14.5901C16.5533 14.7133 15.9535 14.8388 15.5048 14.9284C15.4884 14.9789 15.4692 15.0287 15.4473 15.0774C15.3681 15.2534 15.2544 15.4124 15.1122 15.5442C14.9699 15.6759 14.8021 15.7777 14.6183 15.8421C14.4546 15.8996 14.282 15.9261 14.1088 15.9206L9.76661 16.3147L9.64798 15.0075L14.0367 14.6092C14.0734 14.6059 14.1104 14.6056 14.1471 14.6085C14.1592 14.6095 14.1716 14.6079 14.1838 14.6036C14.1961 14.5993 14.2086 14.5921 14.2203 14.5813C14.232 14.5704 14.2426 14.5562 14.2504 14.5388C14.2551 14.5282 14.2587 14.5169 14.2609 14.505Z" fill="#2C232E"/>
<path fill-rule="evenodd" clip-rule="evenodd" d="M18.0543 4.66754C16.4849 2.67411 13.5967 2.33034 11.6033 3.89971C9.60987 5.46908 9.26611 8.35729 10.8355 10.3507C11.0597 10.6355 11.0106 11.0481 10.7258 11.2723C10.441 11.4965 10.0284 11.4474 9.80421 11.1626C7.78645 8.59963 8.22844 4.88621 10.7914 2.86845C13.3544 0.85069 17.0678 1.29268 19.0856 3.85565C21.1033 6.41863 20.6613 10.132 18.0984 12.1498C17.8136 12.374 17.401 12.3249 17.1768 12.0401C16.9526 11.7553 17.0017 11.3427 17.2865 11.1185C19.2799 9.54918 19.6237 6.66096 18.0543 4.66754Z" fill="#2C232E"/>
<path fill-rule="evenodd" clip-rule="evenodd" d="M14.4492 3.78125C14.8116 3.78125 15.1055 4.07507 15.1055 4.4375V4.61768C15.515 4.67155 15.8982 4.85886 16.1935 5.15417C16.5473 5.508 16.7461 5.9879 16.7461 6.48829C16.7461 6.94137 16.5831 7.37765 16.2896 7.71875C16.5831 8.05986 16.7461 8.49614 16.7461 8.94922C16.7461 9.44961 16.5473 9.92951 16.1935 10.2833C15.8982 10.5786 15.515 10.766 15.1055 10.8198V11C15.1055 11.3624 14.8116 11.6563 14.4492 11.6563C14.0868 11.6563 13.793 11.3624 13.793 11V10.8359H13.2187C12.8563 10.8359 12.5625 10.5421 12.5625 10.1797V5.25782C12.5625 4.89538 12.8563 4.60157 13.2187 4.60157H13.793V4.4375C13.793 4.07507 14.0868 3.78125 14.4492 3.78125ZM13.875 5.91407V7.0625H14.8594C15.0117 7.0625 15.1577 7.00201 15.2654 6.89432C15.3731 6.78663 15.4336 6.64058 15.4336 6.48829C15.4336 6.33599 15.3731 6.18994 15.2654 6.08225C15.1577 5.97456 15.0117 5.91407 14.8594 5.91407H13.875ZM14.8594 8.375H13.875V9.52344H14.4481C14.4477 9.52344 14.4485 9.52344 14.4481 9.52344C14.4485 9.52344 14.45 9.52344 14.4503 9.52344H14.8594C15.0117 9.52344 15.1577 9.46294 15.2654 9.35526C15.3731 9.24757 15.4336 9.10152 15.4336 8.94922C15.4336 8.79693 15.3731 8.65088 15.2654 8.54319C15.1577 8.4355 15.0117 8.375 14.8594 8.375Z" fill="#2C232E"/>
</svg>
