<svg width="28" height="23" viewBox="0 0 28 23" fill="none" xmlns="http://www.w3.org/2000/svg">
<path d="M22 0C23.6569 0 25 1.34315 25 3V4L25.1543 4.00391C26.7394 4.08421 28 5.39489 28 7V11C28 12.6046 26.7404 13.9155 25.1553 13.9961L25 14V16C25 17.6569 23.6569 19 22 19H13.3516L8.625 22.7812C8.32489 23.0211 7.91367 23.0678 7.56738 22.9014C7.22097 22.7349 7.00102 22.3844 7.00098 22L7 19H6C4.34315 19 3 17.6569 3 16V14C1.34315 14 0 12.6569 0 11V7C0 5.39536 1.25956 4.08446 2.84473 4.00391L3 4V3C3 1.34315 4.34315 0 6 0H22ZM6 2C5.44772 2 5 2.44772 5 3V16C5 16.5523 5.44772 17 6 17H8C8.03461 17 8.06884 17.0015 8.10254 17.0049C8.60668 17.0561 8.99994 17.4823 9 18V19.9189L12.0127 17.5078C12.1845 17.2046 12.5104 17 12.8838 17H22C22.5523 17 23 16.5523 23 16V3C23 2.44772 22.5523 2 22 2H6ZM17 11C17.5523 11 18 11.4477 18 12C18 12.9907 17.3975 13.765 16.6758 14.2461C15.9471 14.7318 14.9983 15 14 15C13.0017 15 12.0529 14.7318 11.3242 14.2461C10.6025 13.765 10 12.9907 10 12C10 11.4477 10.4477 11 11 11C11.5523 11 12 11.4477 12 12C12 12.1139 12.0695 12.3393 12.4336 12.582C12.7907 12.8201 13.3415 13 14 13C14.6585 13 15.2093 12.8201 15.5664 12.582C15.9305 12.3393 16 12.1139 16 12C16 11.4477 16.4477 11 17 11ZM2.89746 6.00488C2.39341 6.05599 2 6.48188 2 7V11C2 11.5523 2.44772 12 3 12V6L2.89746 6.00488ZM25 12L25.1025 11.9951C25.6066 11.944 26 11.5181 26 11V7C26 6.44772 25.5523 6 25 6V12ZM10.2002 4C11.857 4 13.2002 5.34315 13.2002 7C13.2002 8.65685 11.857 10 10.2002 10C8.54334 10 7.2002 8.65685 7.2002 7C7.2002 5.34315 8.54334 4 10.2002 4ZM18.2002 4C19.857 4 21.2002 5.34315 21.2002 7C21.2002 8.65685 19.857 10 18.2002 10C16.5433 10 15.2002 8.65685 15.2002 7C15.2002 5.34315 16.5433 4 18.2002 4ZM10.2002 6C9.64791 6 9.2002 6.44772 9.2002 7C9.2002 7.55228 9.64791 8 10.2002 8C10.7525 8 11.2002 7.55228 11.2002 7C11.2002 6.44772 10.7525 6 10.2002 6ZM18.2002 6C17.6479 6 17.2002 6.44772 17.2002 7C17.2002 7.55228 17.6479 8 18.2002 8C18.7525 8 19.2002 7.55228 19.2002 7C19.2002 6.44772 18.7525 6 18.2002 6Z" fill="#2C232E"/>
</svg>
