<svg width="252" height="42" viewBox="0 0 252 42" fill="none" xmlns="http://www.w3.org/2000/svg">
<rect width="252" height="42" rx="4" fill="black"/>
<g clip-path="url(#clip0_125_3426)">
<path d="M113.002 12.8363C112.374 13.5794 111.369 14.1656 110.365 14.0818C110.239 13.0771 110.731 12.0095 111.307 11.3501C111.935 10.5861 113.034 10.0419 113.923 10C114.028 11.0466 113.62 12.0723 113.002 12.8363ZM113.913 14.2807C112.458 14.197 111.212 15.1075 110.522 15.1075C109.82 15.1075 108.763 14.3225 107.612 14.3435C106.115 14.3644 104.723 15.2122 103.959 16.5623C102.389 19.2626 103.551 23.2607 105.069 25.4586C105.812 26.5471 106.701 27.7402 107.874 27.6984C108.983 27.6565 109.423 26.9762 110.762 26.9762C112.113 26.9762 112.5 27.6984 113.672 27.6774C114.886 27.6565 115.65 26.589 116.393 25.5005C117.241 24.2655 117.586 23.0618 117.607 22.999C117.586 22.9781 115.263 22.0885 115.242 19.4091C115.221 17.1694 117.074 16.1018 117.157 16.039C116.111 14.49 114.478 14.3225 113.913 14.2807ZM122.317 11.2455V27.5623H124.85V21.9838H128.356C131.559 21.9838 133.809 19.7859 133.809 16.6042C133.809 13.4225 131.601 11.2455 128.44 11.2455H122.317ZM124.85 13.3806H127.77C129.968 13.3806 131.224 14.5528 131.224 16.6147C131.224 18.6765 129.968 19.8592 127.76 19.8592H124.85V13.3806ZM138.435 27.6879C140.026 27.6879 141.502 26.882 142.172 25.6051H142.224V27.5623H144.568V19.4405C144.568 17.0856 142.684 15.568 139.785 15.568C137.095 15.568 135.107 17.1066 135.034 19.2207H137.315C137.504 18.216 138.435 17.5566 139.712 17.5566C141.261 17.5566 142.13 18.2788 142.13 19.608V20.5081L138.969 20.6965C136.028 20.8744 134.437 22.078 134.437 24.1713C134.437 26.2854 136.08 27.6879 138.435 27.6879ZM139.115 25.7517C137.765 25.7517 136.907 25.1028 136.907 24.1085C136.907 23.0828 137.734 22.4862 139.314 22.392L142.13 22.2141V23.1351C142.13 24.6632 140.832 25.7517 139.115 25.7517ZM147.698 32C150.168 32 151.329 31.058 152.345 28.2008L156.793 15.725H154.218L151.235 25.3644H151.183L148.2 15.725H145.552L149.843 27.6042L149.613 28.3264C149.226 29.5509 148.598 30.0219 147.478 30.0219C147.279 30.0219 146.892 30.0009 146.735 29.98V31.9372C146.881 31.9791 147.509 32 147.698 32Z" fill="white"/>
</g>
<defs>
<clipPath id="clip0_125_3426">
<rect width="53.5871" height="22" fill="white" transform="translate(103.206 10)"/>
</clipPath>
</defs>
</svg>
