<svg width="33" height="33" viewBox="0 0 33 33" fill="none" xmlns="http://www.w3.org/2000/svg">
<path fill-rule="evenodd" clip-rule="evenodd" d="M16.5352 12.4999C17.0874 12.4999 17.5352 12.9477 17.5352 13.4999V13.7745C18.1593 13.8566 18.7431 14.142 19.1931 14.592C19.7323 15.1312 20.0352 15.8624 20.0352 16.6249C20.0352 17.3154 19.7868 17.9802 19.3396 18.4999C19.7868 19.0197 20.0352 19.6845 20.0352 20.3749C20.0352 21.1374 19.7323 21.8687 19.1931 22.4079C18.7431 22.8579 18.1593 23.1433 17.5352 23.2254V23.4999C17.5352 24.0522 17.0874 24.4999 16.5352 24.4999C15.9829 24.4999 15.5352 24.0522 15.5352 23.4999V23.2499H14.6602C14.1079 23.2499 13.6602 22.8022 13.6602 22.2499V14.7499C13.6602 14.1977 14.1079 13.7499 14.6602 13.7499H15.5352V13.4999C15.5352 12.9477 15.9829 12.4999 16.5352 12.4999ZM15.6602 15.7499V17.4999H17.1602C17.3922 17.4999 17.6148 17.4078 17.7789 17.2437C17.943 17.0796 18.0352 16.857 18.0352 16.6249C18.0352 16.3929 17.943 16.1703 17.7789 16.0062C17.6148 15.8421 17.3922 15.7499 17.1602 15.7499H15.6602ZM17.1602 19.4999H15.6602V21.2499H16.5334H17.1602C17.3922 21.2499 17.6148 21.1578 17.7789 20.9937C17.943 20.8296 18.0352 20.607 18.0352 20.3749C18.0352 20.1429 17.943 19.9203 17.7789 19.7562C17.6148 19.5921 17.3922 19.4999 17.1602 19.4999Z" fill="#2C232E"/>
<path fill-rule="evenodd" clip-rule="evenodd" d="M24.5 10.4999H8.5C7.39543 10.4999 6.5 11.3954 6.5 12.4999V24.4999C6.5 25.6045 7.39543 26.4999 8.5 26.4999H24.5C25.6046 26.4999 26.5 25.6045 26.5 24.4999V12.4999C26.5 11.3954 25.6046 10.4999 24.5 10.4999ZM8.5 8.49994C6.29086 8.49994 4.5 10.2908 4.5 12.4999V24.4999C4.5 26.7091 6.29086 28.4999 8.5 28.4999H24.5C26.7091 28.4999 28.5 26.7091 28.5 24.4999V12.4999C28.5 10.2908 26.7091 8.49994 24.5 8.49994H8.5Z" fill="#2C232E"/>
<path d="M6.51397 11.586L4.5 12.9286V11.8228C4.5 9.96112 5.7844 8.34555 7.59818 7.92582L21.8219 4.63426C24.329 4.05409 26.7237 5.95793 26.7237 8.53128V10.4283L24.7237 10.5083V8.53128C24.7237 7.24461 23.5264 6.29268 22.2728 6.58277L8.04909 9.87433C7.2201 10.0662 6.61227 10.7576 6.51397 11.586Z" fill="#2C232E"/>
</svg>
