<svg width="32" height="32" viewBox="0 0 32 32" fill="none" xmlns="http://www.w3.org/2000/svg">
<path fill-rule="evenodd" clip-rule="evenodd" d="M16 28C22.6274 28 28 22.6274 28 16C28 9.37258 22.6274 4 16 4C9.37258 4 4 9.37258 4 16C4 22.6274 9.37258 28 16 28ZM16 30C23.732 30 30 23.732 30 16C30 8.26801 23.732 2 16 2C8.26801 2 2 8.26801 2 16C2 23.732 8.26801 30 16 30Z" fill="#2C232E"/>
<path fill-rule="evenodd" clip-rule="evenodd" d="M16 7C16.5523 7 17 7.44772 17 8V9C18.0609 9 19.0783 9.42143 19.8284 10.1716C20.5786 10.9217 21 11.9391 21 13C21 14.0609 20.5786 15.0783 19.8284 15.8284C19.7692 15.8877 19.7082 15.9449 19.6458 16C19.7082 16.0551 19.7692 16.1123 19.8284 16.1716C20.5786 16.9217 21 17.9391 21 19C21 20.0609 20.5786 21.0783 19.8284 21.8284C19.0783 22.5786 18.0609 23 17 23V24C17 24.5523 16.5523 25 16 25C15.4477 25 15 24.5523 15 24V23H13C12.4477 23 12 22.5523 12 22V10C12 9.44772 12.4477 9 13 9H15V8C15 7.44772 15.4477 7 16 7ZM14 11V15H17C17.5304 15 18.0391 14.7893 18.4142 14.4142C18.7893 14.0391 19 13.5304 19 13C19 12.4696 18.7893 11.9609 18.4142 11.5858C18.0391 11.2107 17.5304 11 17 11H14ZM17 17H14V21H15.998H17C17.5304 21 18.0391 20.7893 18.4142 20.4142C18.7893 20.0391 19 19.5304 19 19C19 18.4696 18.7893 17.9609 18.4142 17.5858C18.0391 17.2107 17.5304 17 17 17Z" fill="#2C232E"/>
</svg>
