<svg width="257" height="163" viewBox="0 0 257 163" fill="none" xmlns="http://www.w3.org/2000/svg">
<path fill-rule="evenodd" clip-rule="evenodd" d="M247.52 0C247.52 0 256.5 0 256.5 9.06972L256.434 153.93C256.434 153.93 256.434 163 247.443 163H9.47975C9.47975 163 0.5 163 0.5 153.93L0.577043 9.06972C0.577043 9.06972 0.577042 0 9.55679 0H247.52Z" fill="#2C232E"/>
<path d="M113.56 156.491C114.538 155.617 115.284 154.408 115.555 153.083C115.902 151.656 115.787 150.203 115.324 148.891C113.101 141.675 108.923 134.923 104.745 128.813C100.567 122.703 96.0802 117.005 91.3361 111.435C88.4434 107.898 85.4735 104.463 82.5036 101.029C90.7326 107.847 98.73 114.973 106.663 122.293C109.839 125.239 112.937 128.288 116.036 131.336C117.527 132.777 119.019 134.218 120.343 135.774C121.449 137.086 122.837 139.093 124.071 140.662C126.064 143.042 128.803 144.213 131.427 142.645C133.639 141.411 135.158 137.887 133.757 135.148C125.479 118.967 114.872 104.496 103.109 90.9256C93.1189 79.4901 82.2932 68.6332 70.85 58.5991C72.7787 59.8856 74.7074 61.1722 76.6362 62.4587C82.3452 66.4212 87.8098 70.6022 93.2358 75.1562C98.6746 79.8002 103.972 84.7399 108.935 89.9111C110.336 91.3647 111.84 92.8954 113.255 94.4391C114.772 96.0599 115.659 97.1275 116.867 98.5167C118.076 99.906 119.349 101.745 120.506 103.417C120.853 103.919 121.187 104.331 121.444 104.845C121.38 105.038 121.405 105.218 121.418 105.308C121.135 108.472 123.011 111.327 126.085 112.267C131.936 114.005 134.446 106.482 132.273 101.556C130.371 97.2341 126.604 93.3622 123.544 89.9405C117.913 83.9461 111.947 78.1831 105.672 72.8316C93.3549 61.8199 80.1755 51.8497 66.2242 42.9082C62.4824 40.5023 58.6634 38.1994 54.7801 36.0893C50.2668 33.426 45.3545 31.83 40.1461 31.3786C38.2042 31.2881 36.339 33.0238 35.6827 34.8627C35.2837 35.93 35.1549 36.9588 35.3089 38.0391C35.463 39.1194 35.7971 40.1741 36.4784 41.0873C39.1652 45.1133 42.714 48.0978 46.1983 51.2752C49.3485 54.041 52.5629 56.6139 55.7259 59.4698C62.1418 65.1686 68.4033 71.0731 74.6005 77.1705C77.7119 80.3093 80.8234 83.448 83.8576 86.6896C85.259 88.1432 86.5704 89.6096 87.9847 91.1532L88.2032 91.3976C80.0001 84.1165 71.4754 77.1569 62.8348 70.673C55.8529 65.5142 48.6138 60.4839 40.8083 57.2797C37.9793 56.1215 35.0213 56.6352 33.503 59.5156C31.9847 62.3959 32.7298 65.6884 35.0698 67.9267C45.5741 78.4621 55.9369 89.2932 65.9781 100.446C67.1738 101.745 68.3823 103.134 69.578 104.433C70.0151 104.922 70.4523 105.411 70.8894 105.9L72.2136 107.456L72.5479 107.868L72.5607 107.958C73.9878 109.592 75.4149 111.225 76.752 112.872C73.8333 110.44 70.8246 108.022 67.8287 105.693C65.1542 103.686 62.2098 101.075 59.2651 99.7496C54.7388 97.6393 50.2888 98.6413 48.1014 103.271C46.6988 106.318 48.5367 110.833 51.4942 112.248C52.9858 113.046 54.7349 113.072 56.214 112.493C57.4227 113.24 58.5413 113.999 59.7628 114.835C60.3672 115.208 60.9844 115.671 61.5887 116.044L62.8231 116.971C64.0446 117.807 65.1761 118.656 66.4105 119.582C71.1422 123.133 75.7068 126.799 80.2069 130.659C84.7071 134.518 89.2201 138.467 93.4759 142.545C95.6102 144.629 97.7445 146.713 99.8788 148.797C102.013 150.881 104.443 153.749 106.41 155.949C108.159 157.904 111.219 158.111 113.56 156.491Z" fill="#6E9E96"/>
<path d="M96.6192 53.0259C100.934 54.2904 105.174 55.6294 109.488 56.9683L120.423 60.3157C120.646 60.3901 120.795 60.5389 120.646 60.762C120.348 61.3571 119.976 61.9522 119.53 62.4729C118.786 63.44 117.745 64.8533 116.406 64.8533C112.91 65.0021 109.414 65.7459 106.141 67.0105C105.917 67.0849 105.397 67.2337 105.248 67.0105C105.322 67.6056 105.322 68.1263 105.174 68.647L105.099 69.614C104.207 71.4737 103.983 70.8786 102.942 72.5895C101.901 74.226 94.5363 75.4905 92.7511 75.7881C92.7511 75.7881 82.5601 68.9446 83.8247 62.6217C85.0893 56.2989 96.6192 53.0259 96.6192 53.0259Z" fill="#FF8C5A"/>
<path d="M166.242 38.8433C162.595 36.007 157.801 35.1291 153.276 34.2513C138.015 31.3475 122.956 27.4307 108.234 22.5011C108.099 22.366 107.964 22.2985 107.829 22.1634C107.086 21.9608 106.411 21.7582 105.668 21.5557C103.845 21.0154 101.954 20.4076 100.063 20.0025C97.9695 20.1375 95.9436 20.9479 94.3229 22.2985C90.2711 25.9451 89.4608 32.0903 92.5671 36.6148C94.593 39.451 97.902 41.0718 101.076 42.4899C118.836 50.3909 138.015 54.6452 157.463 55.1179C161.853 55.1855 166.985 54.7128 169.416 51.0662C171.915 47.217 169.889 41.6795 166.242 38.8433Z" fill="#0038FF"/>
<path d="M159.894 44.1107C159.759 46.8119 157.531 48.1625 155.1 48.0274C141.256 47.082 127.683 44.1107 114.312 40.5316C112.624 40.0589 111.003 39.5862 109.315 39.1135C106.951 38.4382 103.98 38.1006 102.494 36.0071C101.886 35.1293 101.549 33.9812 101.684 32.9008C101.819 31.8203 102.291 30.8073 103.102 29.997C103.845 29.3217 104.858 28.849 105.871 28.7139C106.883 28.5789 107.964 28.7139 108.909 29.1866C110.53 29.8619 112.016 30.6723 113.636 31.3476C115.257 32.0229 116.81 32.6307 118.431 33.2384C119.241 33.5761 119.984 33.8462 120.727 34.1163L121.808 34.454C121.267 34.3189 121.875 34.454 121.943 34.5215L122.685 34.7241C125.994 35.737 129.371 36.5474 132.815 37.2227C136.597 37.9655 140.378 38.5733 144.227 38.9784C146.186 39.181 148.212 39.3836 150.17 39.5187C151.115 39.5862 152.128 39.6537 153.074 39.7213H153.817L155.572 39.7888C157.936 39.8563 160.029 41.4095 159.894 44.1107Z" fill="#2C232E"/>
<path d="M123.12 43.234C114.132 42.5114 104.956 47.7517 101.008 55.8589C99.3627 59.2369 98.5814 62.9909 98.3405 66.739C98.1055 70.3403 98.3581 74.0003 99.4332 77.4488C102.929 88.6755 115.847 95.9308 127.315 93.3342C138.783 90.7375 147.272 78.8763 146.314 67.162C145.356 55.4477 135.275 45.2138 123.608 43.7921" fill="#BEAAFF"/>
<path d="M123.579 43.0344C113.192 42.253 102.835 48.6566 99.3862 58.5615C98.3346 61.587 97.8411 64.8005 97.7295 67.9964C97.612 71.2921 97.9233 74.6349 98.9397 77.7896C100.408 82.3543 103.487 86.2963 107.335 89.1221C111.206 91.9655 115.888 93.7162 120.688 94.0217C125.488 94.3271 130.311 93.0993 134.423 90.6084C142.889 85.4797 148.217 75.2635 146.678 65.3586C145.139 55.4889 137.273 47.0528 127.738 44.3386C126.534 43.9979 125.312 43.7511 124.072 43.5925C123.831 43.5631 123.514 43.6278 123.297 43.7452C123.232 43.7805 122.897 43.9626 123.15 43.9979C132.649 45.1963 141.044 52.1227 144.358 61.0582C147.753 70.217 144.857 80.5508 137.919 87.2598C134.453 90.6084 130.017 93.0053 125.188 93.5341C120.594 94.0393 115.883 92.9877 111.794 90.8728C107.722 88.7696 104.186 85.5737 101.877 81.5965C99.0043 76.6382 98.4344 70.734 99.016 65.1236C99.5976 59.5308 101.583 54.1319 105.584 50.0841C109.103 46.524 113.809 44.0684 118.808 43.5103C120.083 43.3693 121.375 43.3458 122.656 43.4398C122.909 43.4574 123.208 43.4104 123.432 43.287C123.49 43.2518 123.837 43.052 123.579 43.0344Z" fill="#BEAAFF"/>
<path d="M143.884 64.909C143.884 65.05 143.931 65.191 143.948 65.3261C143.948 65.3555 143.948 65.4671 143.948 65.5494C143.948 65.6316 143.948 65.7433 143.948 65.7726C143.948 65.9782 143.978 66.1897 143.984 66.4012C144.016 66.9647 144.016 67.5296 143.984 68.0932C143.984 68.3752 143.96 68.6571 143.913 68.9391C143.913 69.0801 143.872 69.2211 143.86 69.3562C143.859 69.3817 143.859 69.4072 143.86 69.4326L143.825 69.6147C143.604 70.8014 143.264 71.9627 142.809 73.0809C142.756 73.216 142.703 73.3452 142.644 73.4745C142.646 73.4862 142.646 73.498 142.644 73.5097C142.515 73.7623 142.398 74.0267 142.262 74.2734C141.965 74.8408 141.638 75.3919 141.281 75.9243C141.123 76.1592 140.964 76.3942 140.8 76.6234L140.541 76.9641L140.388 77.158L140.242 77.3342L139.895 77.7396C139.683 77.9746 139.466 78.2095 139.243 78.4387C138.843 78.8499 138.432 79.2435 138.003 79.6136C137.762 79.8251 137.516 80.0307 137.269 80.2363L136.934 80.5007L136.634 80.7298L136.464 80.8473L136.112 81.0941L135.395 81.564C134.848 81.9048 134.29 82.2279 133.72 82.5275C133.151 82.8271 132.669 83.0562 132.134 83.2912L131.623 83.5086L130.948 83.7553C129.879 84.1247 128.788 84.4268 127.681 84.6601C127.129 84.7717 126.577 84.8716 126.013 84.9479C125.866 84.9479 125.126 85.0478 125.643 85.0008C125.343 85.0302 125.055 85.0595 124.744 85.0772C123.618 85.1594 122.488 85.1712 121.36 85.1124C120.796 85.0811 120.232 85.0341 119.668 84.9714L118.922 84.8716H118.875L118.387 84.7834C117.279 84.5773 116.184 84.3026 115.109 83.961C114.575 83.7906 114.04 83.6026 113.517 83.3735L113.012 83.1679C112.753 83.0562 112.495 82.9329 112.236 82.8095C111.22 82.3219 110.238 81.7644 109.299 81.1411C108.888 80.8649 108.482 80.5536 108.124 80.2775L107.683 79.9191C107.419 79.6959 107.166 79.4726 106.914 79.2376C106.07 78.4522 105.284 77.6059 104.564 76.7056C104.482 76.5999 104.394 76.4941 104.311 76.3825L104.223 76.2591C104.1 76.0829 103.971 75.9066 103.853 75.7304C103.506 75.2252 103.177 74.7082 102.872 74.1853C102.567 73.6625 102.349 73.2336 102.114 72.7519C101.997 72.5051 101.879 72.2643 101.773 72.0175L101.615 71.6415L101.58 71.5652C101.58 71.5652 101.58 71.5005 101.538 71.4477C101.147 70.3791 100.843 69.2809 100.628 68.1637C100.575 67.8993 100.534 67.6349 100.493 67.3706C100.493 67.2589 100.493 67.1415 100.452 67.0298C100.452 67.0298 100.452 66.9887 100.452 66.9593C100.405 66.3718 100.369 65.7844 100.375 65.1499C100.381 64.5154 100.405 64.0748 100.457 63.5402C100.457 63.2876 100.51 63.035 100.551 62.7824C100.551 62.7295 100.551 62.6296 100.581 62.6061C100.622 62.3946 100.657 62.1831 100.704 61.9716C100.968 60.8034 101.336 59.6611 101.803 58.5584C101.803 58.6289 102.032 58.0708 102.055 58.0179C102.179 57.7594 102.314 57.5068 102.449 57.2542C102.755 56.6667 103.089 56.138 103.448 55.5975C103.753 55.1451 104.07 54.7045 104.405 54.2757L104.54 54.1171L104.817 53.7939C105.052 53.5296 105.287 53.2652 105.533 53.0067C106.371 52.139 107.274 51.3377 108.236 50.6098L108.353 50.5276L108.7 50.2808L109.411 49.8108C109.951 49.4642 110.509 49.1411 111.073 48.8415C111.637 48.5419 112.09 48.3304 112.612 48.1013C113.112 47.8762 113.624 47.68 114.146 47.5138C116.317 46.7791 118.598 46.4195 120.89 46.4505C123.292 46.4866 125.673 46.9112 127.94 47.7077C127.934 48.123 128.067 48.5284 128.317 48.8601C128.567 49.1919 128.92 49.4313 129.32 49.5406C129.873 49.6507 130.416 49.7999 130.948 49.9871C131.077 50.0282 131.2 50.0811 131.324 50.1281L131.6 50.2397L131.893 50.3748C132.105 50.4629 132.311 50.5452 132.528 50.6216L132.634 50.6627L132.904 50.786C133.174 50.9153 133.444 51.0563 133.709 51.2032C134.102 51.4205 134.49 51.6555 134.884 51.9081C135.119 52.1314 135.348 52.3605 135.571 52.5896C135.791 52.8213 136.075 52.9811 136.388 53.0478C136.787 53.3827 137.169 53.7293 137.563 54.0935C138.467 54.9643 139.318 55.8883 140.112 56.8606C140.212 56.9781 140.312 57.1014 140.406 57.2248L140.67 57.5656L140.829 57.777L141.099 58.1589C141.475 58.7053 141.834 59.2634 142.163 59.8332C142.492 60.4031 142.791 61.0082 143.061 61.5957C143.12 61.7425 143.185 61.8835 143.244 62.0245V62.0715C143.349 62.4064 143.473 62.7295 143.573 63.0644C143.753 63.6579 143.897 64.2622 144.001 64.8738L143.884 64.909ZM146.034 57.3599C144.567 54.916 142.77 52.686 140.694 50.7332C138.725 48.796 136.396 47.2632 133.838 46.2213C133.125 45.9559 132.377 45.7976 131.617 45.7514C129.463 44.6029 127.145 43.7924 124.744 43.3486C119.405 42.408 113.904 43.2329 109.076 45.6985C104.156 48.1164 100.206 52.1355 97.8725 57.0956C96.7325 59.528 96.0839 62.1616 95.964 64.8452C95.844 67.5289 96.255 70.2098 97.1734 72.7342C99.0582 77.804 102.506 82.1431 107.02 85.1242C111.351 87.9302 116.361 89.5134 121.519 89.7065C132.293 90.1824 143.508 84.2899 147.397 73.9679C148.406 71.2728 148.797 68.3854 148.541 65.519C148.284 62.6526 147.388 59.8804 145.917 57.4069" fill="#2C232E"/>
<path d="M132.545 63.4811C132.308 63.6356 132.058 63.7712 131.799 63.8865C130.624 64.333 129.297 64.2096 128.092 64.1215C126.747 64.0216 125.408 63.8571 124.074 63.6691C121.66 63.3211 119.269 62.8307 116.913 62.2004C117.306 60.7376 117.641 59.263 117.906 57.7591C117.968 57.4356 117.956 57.1021 117.87 56.7839C121.855 57.5674 125.69 58.9793 129.232 60.9667C130.27 61.5041 131.253 62.1395 132.169 62.8643C132.331 63.0028 132.477 63.1584 132.604 63.3284L132.645 63.3871C132.592 63.3871 132.498 63.5105 132.545 63.4811ZM131.159 72.9572C131.13 72.9572 131.294 73.1863 131.306 73.2157C131.318 73.245 131.359 73.2862 131.365 73.2803C131.371 73.2744 131.365 73.3214 131.365 73.3449C131.318 73.2509 131.365 73.2627 131.365 73.3449C131.199 73.462 131.024 73.5661 130.842 73.6563C130.654 73.761 130.457 73.8494 130.254 73.9206C129.62 74.1345 128.955 74.2436 128.286 74.2438C125.46 74.2907 122.558 73.4037 119.832 72.6282C117.828 72.0847 115.876 71.3652 113.999 70.478C114.55 69.4429 114.989 68.3519 115.309 67.2234C115.497 66.6947 115.679 66.1659 115.855 65.6372C118.12 66.3023 120.347 67.0867 122.529 67.9871C125.144 68.9953 127.633 70.3065 129.943 71.8938C130.402 72.1845 130.812 72.5453 131.159 72.963V72.9572ZM133.039 59.7448C131.917 59.0222 130.754 58.3525 129.561 57.7415C130.086 56.7642 130.464 55.7151 130.683 54.6278C130.772 54.193 130.694 53.7406 130.464 53.361C130.234 52.9813 129.869 52.7024 129.443 52.58C129.016 52.4576 128.559 52.5007 128.163 52.7006C127.766 52.9005 127.46 53.2426 127.305 53.6585C127.123 54.3459 126.888 55.0097 126.665 55.6794C126.6 55.8792 126.518 56.0789 126.442 56.2669C126.13 56.1377 125.825 56.0084 125.513 55.8909L124.597 55.5384C124.685 55.2447 124.756 54.951 124.814 54.6631C124.997 53.839 125.095 52.9985 125.108 52.1546C125.108 50.1101 121.877 50.0455 121.9 52.0841C121.923 52.6923 121.878 53.3012 121.765 53.8994C121.718 54.1279 121.657 54.3534 121.583 54.575C119.835 54.0948 118.057 53.7298 116.261 53.4823C114.915 53.2884 114.345 55.1272 115.05 55.9908C114.803 56.1932 114.629 56.4722 114.557 56.7839C114.104 58.8859 113.516 60.9562 112.794 62.9818C112.465 63.91 112.084 64.85 111.702 65.6783C111.249 66.6535 110.615 67.5876 110.233 68.6157C109.768 68.5613 109.298 68.6567 108.891 68.8882C108.484 69.1196 108.162 69.4749 107.971 69.9023C107.755 70.387 107.723 70.9342 107.882 71.4407C108.041 71.9472 108.38 72.3779 108.835 72.6517C110.255 73.4361 111.727 74.1231 113.241 74.7079C113.059 75.5303 112.883 76.3528 112.7 77.1694C112.436 78.3972 112.013 79.766 112.924 80.8059C113.153 81.0299 113.448 81.1743 113.765 81.2176C114.082 81.261 114.405 81.2011 114.686 81.0468C115.773 80.5121 115.937 79.0846 116.143 78.0212L116.566 75.8476C117.154 76.0297 117.77 76.2 118.375 76.3587C118.981 76.5173 119.727 76.6935 120.402 76.8522C120.384 76.9294 120.373 77.008 120.367 77.0871C120.247 78.1746 120.247 79.272 120.367 80.3594C120.602 81.6812 122.558 81.5872 122.923 80.4005C123.163 79.4398 123.288 78.4536 123.293 77.4631C124.969 77.844 126.686 78.0099 128.404 77.9566C130.326 77.9178 132.183 77.2514 133.691 76.0591C134.39 75.4637 134.836 74.6237 134.936 73.7107C135.037 72.7977 134.785 71.8809 134.232 71.1477C133.233 69.7613 131.711 68.8448 130.266 67.9577C129.931 67.7521 129.59 67.5524 129.25 67.3703C130.488 67.4402 131.727 67.2665 132.898 66.8591C134.408 66.2717 135.871 65.0967 135.777 63.3343C135.688 61.6835 134.337 60.6025 133.051 59.7683" fill="#2C232E"/>
<path d="M123.919 71.3995C123.919 70.5813 123.473 69.763 122.729 69.3167C120.423 68.0521 115.588 70.5813 115.365 70.73C109.562 74.5238 101.677 78.2431 91.8585 81.7392C91.6353 81.6648 91.3377 81.6648 91.1146 81.8136C89.0318 82.9294 86.8746 82.9294 84.5686 82.6319C84.4198 82.3343 84.3454 82.0368 84.271 81.7392C84.271 81.4417 84.4942 81.1441 84.643 80.8466C84.8661 80.4003 85.0149 79.954 85.2381 79.5076C85.61 78.615 85.9075 77.7224 86.1307 76.8297H86.2051L92.6767 75.7883L95.2802 66.5644L96.5448 53.1005C95.2802 52.8029 93.9413 52.8029 92.6767 53.1005C90.4451 53.4724 88.2135 53.77 86.0563 54.2163C81.6675 55.1089 77.2787 56.5222 73.6338 59.2002C72.7411 59.8696 71.9229 60.6879 71.3278 61.5805C70.5839 62.6963 69.9889 63.8121 69.3938 65.0023C68.4267 67.1595 67.6829 69.3167 67.0878 71.6227C65.972 76.1603 65.3025 80.7722 64.1867 85.3098C63.666 87.6158 62.9221 89.8473 62.0295 92.0789C61.5832 93.046 61.0625 94.013 60.5418 94.98C60.2442 95.4263 59.9467 95.947 59.7235 96.4677C59.5004 97.0628 59.2772 97.5835 58.9797 98.1786C58.9053 98.4018 58.7565 98.5506 58.6821 98.7737C57.6407 100.038 56.5249 101.228 55.3347 102.344C53.1031 104.427 51.0203 106.659 49.235 109.113C49.1607 109.188 49.1607 109.337 49.235 109.411C49.6814 109.857 50.2021 110.304 50.7228 110.676C50.9459 111.196 51.2435 111.643 51.6154 112.014C51.9873 112.386 52.3593 112.684 52.7312 113.13C53.1031 113.502 53.4751 114.097 53.847 114.544C54.6653 115.436 55.5579 116.255 56.5993 116.924C58.6821 118.337 60.9881 119.453 63.4428 120.346C65.6001 121.164 67.6829 122.057 69.9889 122.057C70.2864 122.205 70.5839 122.354 70.9559 122.503C71.4022 122.652 71.8485 122.503 72.0717 122.205L74.6752 119.007L75.1215 118.561C75.1959 118.486 75.3447 118.337 75.4191 118.189C75.4934 118.114 75.4934 118.114 75.5678 118.04C76.5349 117.222 77.5763 116.478 78.6177 115.734C79.3615 115.139 80.1054 114.544 80.8493 113.949C83.4528 113.502 85.9819 112.461 88.1391 110.899C91.9328 108.295 94.5364 104.501 96.3216 100.41C98.1813 98.4762 100.041 96.3934 101.752 94.3105C101.826 94.2361 101.826 94.1618 101.901 94.0874L102.049 93.9386C102.347 93.6411 102.57 93.3435 102.868 93.046H102.942C106.141 88.2852 114.844 84.1196 114.918 84.0452C114.993 83.9708 124.663 79.2845 123.919 71.3995Z" fill="#FF8C5A"/>
<path d="M77.0555 115.064C70.5839 111.196 64.4842 106.733 58.7565 101.823C58.087 101.154 57.1944 100.633 56.3017 100.336C55.5579 100.113 54.814 100.187 54.0701 100.485C53.4007 100.485 52.7312 100.782 52.3593 101.303C47.301 104.204 42.3171 107.328 37.482 110.601C34.9528 112.312 32.4237 114.023 29.8946 115.734C27.4398 117.445 24.9851 119.156 22.5303 120.792C19.778 122.652 17.1745 124.66 14.7197 126.892C14.2734 127.338 14.0503 128.008 14.199 128.677C14.199 129.198 14.4222 129.793 14.7941 130.165C18.5135 134.182 23.9437 136.339 28.7788 138.645C34.1346 141.174 39.5648 143.629 44.995 145.935C47.8217 147.125 50.6484 148.315 53.4751 149.431C56.0786 150.472 59.5004 152.555 61.9551 150.323C62.8477 149.356 63.5916 148.241 64.1867 146.976C64.9306 145.711 65.6 144.447 66.2695 143.182C67.6085 140.653 68.9474 138.05 70.212 135.446C73.1131 129.57 75.6422 123.47 77.9482 117.296C78.1713 116.403 77.7994 115.511 77.0555 115.064Z" fill="#BEAAFF"/>
<path d="M90.2963 66.3412C90.2963 66.118 90.2219 65.8949 90.1475 65.7461C90.0731 65.5973 89.9987 65.4485 89.85 65.2998C89.7012 65.151 89.5524 65.0766 89.3293 65.0766C89.1061 65.0766 88.9573 65.151 88.8085 65.2998C88.6598 65.4485 88.5854 65.5973 88.511 65.7461L88.0647 66.8619C87.6928 67.8289 87.2464 68.8703 86.8745 69.9117C86.3538 71.3251 85.9075 72.7384 85.5355 74.2261C84.7173 77.276 84.1222 80.4002 83.8247 83.5244C83.7503 83.9708 83.899 84.4915 84.3454 84.789C84.4941 84.8634 84.6429 84.9378 84.7917 84.9378C84.8661 84.9378 85.0148 84.9378 85.0892 84.8634C85.3868 84.7146 85.6099 84.3427 85.6099 83.9708C85.9075 80.9209 86.3538 77.9455 87.0977 74.97C87.6928 72.5152 88.511 70.2093 89.5524 67.9033C89.7012 67.8289 89.85 67.7545 89.9243 67.6801C90.0731 67.457 90.2219 67.2338 90.2219 67.0107C90.3707 66.7875 90.3707 66.5643 90.2963 66.3412Z" fill="#2C232E"/>
<path d="M125.481 70.0604L123.473 67.6057C123.324 67.4569 123.101 67.3081 122.952 67.2337C122.654 67.0106 122.357 66.8618 121.91 66.8618C121.39 66.8618 120.943 67.085 120.646 67.3825C120.423 67.3825 120.125 67.4569 119.902 67.6057H119.828C118.34 68.5727 117.075 69.8373 116.108 71.325C115.141 72.7383 114.546 74.8211 115.513 76.3833C116.703 78.3173 119.233 78.4661 121.092 77.3503C121.91 76.8296 122.654 76.3089 123.324 75.6394C123.993 75.0443 124.588 74.5236 125.183 73.9285C125.853 73.4822 126.225 72.7383 126.299 71.9945C126.448 71.325 126.076 70.5811 125.481 70.0604Z" fill="#0038FF"/>
<path fill-rule="evenodd" clip-rule="evenodd" d="M58.749 54.385C61.07 54.385 62.962 56.288 62.962 58.785V75.527C62.962 77.716 61.081 79.619 58.749 79.619H34.087C31.766 79.619 29.874 77.716 29.874 75.373V58.631C29.874 56.288 31.755 54.385 34.087 54.385H58.749Z" fill="#D7D8D7"/>
<path fill-rule="evenodd" clip-rule="evenodd" d="M58.892 54.759C61.015 54.759 62.742 56.486 62.742 58.631V75.373C62.742 77.507 61.015 79.234 58.892 79.245H34.109C31.975 79.245 30.259 77.518 30.259 75.373V58.631C30.259 56.497 31.986 54.77 34.109 54.759H58.892V54H34.109C31.568 54 29.5 56.068 29.5 58.631V75.373C29.5 77.925 31.568 80.004 34.109 80.004H58.892C61.433 80.004 63.501 77.936 63.501 75.373V58.631C63.501 56.079 61.433 54.011 58.892 54V54.759Z" fill="#1A1919"/>
<path fill-rule="evenodd" clip-rule="evenodd" d="M29.874 67.376H29.94L29.962 67.398V70.324C29.962 70.577 30.16 70.775 30.413 70.775H39.444C39.675 70.775 39.895 70.643 39.994 70.423C40.511 69.312 40.764 68.124 40.764 66.925C40.764 65.792 40.533 64.648 40.06 63.581C39.961 63.361 39.752 63.218 39.51 63.218H30.402C30.149 63.218 29.951 63.416 29.951 63.669V66.595L29.94 66.617H29.874L29.72 66.771L29.874 66.925H29.995L30.105 66.881L30.215 66.771L30.259 66.661V63.68L30.413 63.526H39.51C39.631 63.526 39.741 63.592 39.785 63.702C40.236 64.725 40.467 65.825 40.467 66.925C40.467 68.08 40.214 69.224 39.719 70.291C39.664 70.401 39.565 70.467 39.444 70.467H30.402L30.248 70.313V67.321L30.204 67.211L30.094 67.101L29.984 67.057H29.874L29.72 67.211L29.874 67.376Z" fill="#131514"/>
<path fill-rule="evenodd" clip-rule="evenodd" d="M29.874 71.677H29.94L29.962 71.699V75.362C29.962 77.661 31.821 79.531 34.12 79.531H38.85C39.048 79.531 39.235 79.432 39.356 79.267C40.302 77.87 40.775 76.253 40.775 74.625C40.775 73.492 40.544 72.348 40.071 71.281C39.972 71.061 39.763 70.918 39.521 70.918H29.874L29.72 71.072L29.874 71.226H39.499C39.62 71.226 39.73 71.303 39.774 71.402C40.225 72.436 40.456 73.525 40.456 74.625C40.456 76.198 39.994 77.76 39.081 79.102C39.026 79.179 38.927 79.234 38.828 79.234H34.098C31.975 79.234 30.248 77.507 30.248 75.362V71.633L30.204 71.523L30.094 71.413L29.984 71.369H29.874L29.72 71.523L29.874 71.677Z" fill="#131514"/>
<path fill-rule="evenodd" clip-rule="evenodd" d="M29.874 63.064H39.51C39.752 63.064 39.961 62.921 40.06 62.701C40.533 61.634 40.764 60.501 40.764 59.368C40.764 57.729 40.28 56.112 39.334 54.715C39.224 54.55 39.026 54.451 38.828 54.451H34.109C31.81 54.451 29.951 56.321 29.951 58.62V62.283L29.94 62.316H29.874L29.731 62.459L29.885 62.613H30.006L30.116 62.569L30.226 62.459L30.27 62.349V58.631C30.27 56.497 31.997 54.77 34.12 54.759H38.839C38.938 54.759 39.037 54.814 39.092 54.891C40.005 56.233 40.467 57.795 40.467 59.368C40.467 60.457 40.247 61.557 39.796 62.58C39.73 62.701 39.62 62.767 39.51 62.767H29.874L29.731 62.921L29.874 63.064Z" fill="#131514"/>
<path fill-rule="evenodd" clip-rule="evenodd" d="M46.121 54.385V54.44L46.11 54.451H40.17C39.917 54.451 39.719 54.66 39.719 54.902V54.946L39.752 55.1L39.763 55.133C40.203 55.881 40.511 56.695 40.698 57.542L40.764 57.63L40.885 57.707L40.995 57.729C42.821 57.476 44.658 57.344 46.495 57.344C48.519 57.344 50.543 57.498 52.556 57.806L52.655 57.784L52.765 57.718L52.831 57.641C53.227 56.728 53.788 55.903 54.481 55.188C54.569 55.1 54.613 54.99 54.613 54.869C54.613 54.748 54.569 54.627 54.47 54.539L54.415 54.55L54.206 54.462L54.151 54.451H46.891L46.88 54.44V54.385L46.726 54.231L46.572 54.385V54.506L46.616 54.616L46.715 54.726L46.825 54.77H54.118L54.294 54.847L54.349 54.704L54.239 54.814L54.283 54.924L54.239 55.034C53.524 55.771 52.941 56.629 52.534 57.575L52.677 57.641L52.611 57.509L52.501 57.575L52.578 57.707L52.6 57.531C50.576 57.223 48.541 57.058 46.495 57.058C44.647 57.058 42.788 57.19 40.951 57.443L40.973 57.597L41.061 57.476L40.94 57.388L40.863 57.52L41.006 57.487C40.808 56.607 40.489 55.76 40.038 54.99L39.906 55.067L40.049 55.023L40.005 54.869L39.862 54.913H40.016L40.17 54.759H46.176L46.286 54.715L46.396 54.605L46.44 54.495V54.385L46.286 54.231L46.121 54.385Z" fill="#131514"/>
<path fill-rule="evenodd" clip-rule="evenodd" d="M46.88 79.608V79.553L46.902 79.531H52.842C53.095 79.531 53.293 79.322 53.293 79.08V79.036L53.249 78.882L53.238 78.849C52.809 78.101 52.49 77.287 52.303 76.44L52.237 76.352L52.116 76.275L52.006 76.253C50.18 76.506 48.343 76.638 46.506 76.638C44.669 76.638 42.832 76.506 41.006 76.253L40.896 76.275L40.775 76.352L40.709 76.44C40.522 77.287 40.203 78.101 39.774 78.849L39.719 79.08C39.719 79.234 39.796 79.388 39.95 79.476L39.983 79.487L40.137 79.531H46.11L46.132 79.553V79.608L46.286 79.762L46.44 79.608V79.487L46.396 79.377L46.297 79.267L46.187 79.223H40.192L40.06 79.201L40.027 79.344L40.104 79.212L40.016 79.08L40.038 79.003C40.489 78.222 40.819 77.386 41.006 76.506L40.863 76.473L40.951 76.594L41.072 76.517L40.984 76.396L40.962 76.55C42.799 76.803 44.658 76.935 46.506 76.935C48.354 76.935 50.213 76.803 52.05 76.55L52.028 76.396L51.94 76.517L52.061 76.594L52.149 76.473L52.006 76.506C52.204 77.386 52.523 78.222 52.974 79.003L53.106 78.926L52.963 78.97L53.007 79.124L53.15 79.08H52.996L52.842 79.234H46.847L46.737 79.278L46.627 79.388L46.583 79.498V79.619L46.737 79.773L46.88 79.608Z" fill="#131514"/>
<path fill-rule="evenodd" clip-rule="evenodd" d="M63.127 70.918H53.502C53.26 70.918 53.051 71.061 52.952 71.281C52.479 72.348 52.248 73.492 52.248 74.625C52.248 76.253 52.732 77.881 53.667 79.267C53.777 79.432 53.964 79.531 54.162 79.531H58.892C61.191 79.531 63.05 77.661 63.05 75.362V71.699L63.072 71.677H63.127L63.281 71.523L63.127 71.369H63.006L62.896 71.413L62.786 71.523L62.742 71.633V75.362C62.742 77.496 61.015 79.223 58.892 79.234H54.162C54.063 79.234 53.964 79.179 53.909 79.102C52.996 77.76 52.534 76.198 52.534 74.625C52.534 73.536 52.754 72.436 53.216 71.402C53.26 71.292 53.37 71.226 53.491 71.226H63.116L63.27 71.072L63.127 70.918Z" fill="#131514"/>
<path fill-rule="evenodd" clip-rule="evenodd" d="M63.127 66.617H63.072L63.05 66.595V63.68C63.05 63.427 62.852 63.229 62.599 63.229H53.502C53.26 63.229 53.051 63.372 52.952 63.592C52.479 64.659 52.248 65.792 52.248 66.936C52.248 68.135 52.501 69.323 53.018 70.434C53.117 70.643 53.326 70.786 53.568 70.786H62.599C62.852 70.786 63.05 70.577 63.05 70.335V67.409L63.072 67.387H63.127L63.281 67.233L63.127 67.079H63.006L62.896 67.123L62.786 67.233L62.742 67.343V70.335L62.588 70.489H53.557C53.436 70.489 53.337 70.423 53.282 70.313C52.787 69.246 52.534 68.091 52.534 66.947C52.534 65.847 52.754 64.758 53.216 63.724C53.26 63.614 53.37 63.537 53.491 63.548H62.588L62.742 63.702V66.694L62.786 66.804L62.896 66.914L63.006 66.958H63.127L63.281 66.804L63.127 66.617Z" fill="#131514"/>
<path fill-rule="evenodd" clip-rule="evenodd" d="M63.127 62.316H63.072L63.05 62.294V58.631C63.05 56.332 61.191 54.462 58.892 54.462H55.79C55.658 54.462 55.526 54.506 55.416 54.594C53.909 55.782 52.864 57.454 52.457 59.335L52.6 59.357L52.501 59.236L52.391 59.324H52.27V59.467L52.402 59.39L52.27 59.203L52.138 59.28L52.281 59.313C52.347 59.016 52.424 58.719 52.523 58.433L52.512 58.312L52.446 58.18L52.347 58.103H52.314C50.378 57.817 48.431 57.674 46.484 57.674C44.669 57.674 42.854 57.795 41.05 58.048L40.951 58.103L40.863 58.224L40.83 58.334C40.874 58.675 40.896 59.027 40.896 59.368C40.896 60.325 40.731 61.271 40.412 62.184C40.302 62.492 40.247 62.822 40.247 63.152C40.247 63.482 40.302 63.801 40.412 64.12C40.731 65.033 40.896 65.979 40.896 66.925C40.896 67.893 40.731 68.872 40.39 69.796C40.28 70.115 40.214 70.445 40.214 70.775C40.214 71.105 40.269 71.446 40.39 71.754C40.72 72.678 40.896 73.646 40.896 74.625C40.896 74.966 40.874 75.318 40.83 75.659L40.863 75.769L40.951 75.89L41.05 75.945C42.854 76.198 44.669 76.319 46.484 76.319C48.299 76.319 50.114 76.198 51.918 75.945L52.017 75.89L52.105 75.769L52.138 75.659C52.094 75.318 52.072 74.966 52.072 74.625C52.072 73.646 52.237 72.678 52.578 71.754C52.688 71.435 52.754 71.105 52.754 70.775C52.754 70.445 52.699 70.104 52.578 69.796C52.237 68.872 52.072 67.893 52.072 66.925C52.072 65.759 52.314 64.604 52.787 63.526C52.908 63.251 53.183 63.075 53.48 63.075H63.105L63.259 62.921L63.105 62.767H53.48C53.062 62.767 52.677 63.009 52.512 63.394C52.017 64.516 51.775 65.715 51.775 66.914C51.775 67.915 51.951 68.927 52.292 69.884C52.391 70.17 52.446 70.467 52.446 70.764C52.446 71.061 52.391 71.358 52.292 71.644C51.951 72.601 51.775 73.602 51.775 74.614C51.775 74.966 51.797 75.329 51.841 75.681L51.995 75.659L51.874 75.571L51.786 75.692L51.907 75.78L51.885 75.626C50.092 75.879 48.299 76 46.495 76C44.691 76 42.887 75.879 41.105 75.626L41.083 75.78L41.204 75.692L41.116 75.571L40.995 75.659L41.149 75.681C41.193 75.329 41.215 74.966 41.215 74.614C41.215 73.602 41.039 72.601 40.698 71.644C40.599 71.358 40.544 71.061 40.544 70.764C40.544 70.467 40.599 70.17 40.698 69.884C41.05 68.927 41.215 67.915 41.215 66.914C41.215 65.935 41.05 64.945 40.72 63.999C40.621 63.724 40.577 63.427 40.577 63.141C40.577 62.844 40.621 62.558 40.72 62.283C41.05 61.348 41.215 60.358 41.215 59.368C41.215 59.005 41.193 58.653 41.149 58.29L40.995 58.312L41.116 58.4L41.204 58.279L41.083 58.191L41.105 58.345C42.898 58.092 44.691 57.971 46.495 57.971C48.431 57.971 50.367 58.114 52.281 58.4L52.303 58.246L52.27 58.4H52.292L52.325 58.257L52.193 58.323L52.259 58.455L52.391 58.389L52.248 58.345C52.149 58.642 52.061 58.95 51.995 59.258L52.017 59.368L52.138 59.544L52.248 59.61H52.446L52.545 59.577L52.688 59.456L52.743 59.368C53.139 57.564 54.14 55.947 55.592 54.803L55.779 54.737H58.881C61.015 54.737 62.731 56.475 62.731 58.609V62.36L62.775 62.47L62.885 62.58L62.995 62.624H63.116L63.27 62.47L63.127 62.316Z" fill="#131514"/>
<path d="M222.016 119.39C223.842 119.39 225.317 119.786 226.46 120.204L225.625 124.098C223.502 123.119 221.62 123.184 220.938 123.272C219.563 123.448 218.936 124.153 218.925 124.812C218.881 126.98 225.613 127.244 225.591 132.095C225.58 135.912 222.313 138.375 217.319 138.397C215.185 138.375 213.139 137.925 212.028 137.419L212.886 133.393C213.986 133.899 215.383 134.592 217.77 134.548C219.145 134.537 220.608 133.987 220.619 132.755C220.63 131.941 220.003 131.369 218.155 130.467C216.351 129.587 213.953 128.102 213.986 125.462C214.008 121.887 217.319 119.39 222.016 119.39ZM191.766 119.709C192.8 119.709 193.724 120.391 193.955 121.579L195.958 132.216L200.907 119.709C200.907 119.709 205.867 119.709 205.901 119.709L198.201 138.09H193.174L189.379 123.427C189.148 122.525 188.95 122.195 188.246 121.81C187.102 121.194 185.221 120.611 183.56 120.248L183.67 119.709H191.766ZM208.772 138.09H204.02L207.947 119.709H212.699L208.772 138.09ZM242.399 138.09H238L237.427 135.351H231.334L230.343 138.09H225.349L232.477 121.062C232.818 120.237 233.589 119.709 234.502 119.709H238.56L242.399 138.09ZM232.697 131.578H236.646L235.205 124.67L232.697 131.578Z" fill="white"/>
<path d="M222.577 142.644C223.743 142.644 224.579 142.919 225.129 143.425C225.701 143.942 226.031 144.668 226.031 145.691C226.031 146.713 225.701 147.561 225.129 148.144C224.535 148.738 223.556 149.046 222.335 149.046C221.741 149.046 221.268 149.013 220.861 148.969V142.786H220.85C221.345 142.698 221.939 142.644 222.577 142.644ZM222.622 143.293C222.204 143.293 221.885 143.326 221.665 143.381V148.363C221.873 148.396 222.17 148.397 222.489 148.397C224.238 148.397 225.173 147.429 225.173 145.724C225.184 144.239 224.337 143.293 222.622 143.293Z" fill="white"/>
<path d="M229.122 144.393C230.607 144.393 230.992 145.68 230.992 146.516C230.992 146.681 230.981 146.802 230.959 146.9L227.78 146.89C227.802 148.001 228.495 148.463 229.331 148.463C229.925 148.463 230.288 148.364 230.585 148.232L230.739 148.825C230.453 148.957 229.947 149.111 229.221 149.111C227.824 149.111 226.999 148.187 226.999 146.823C226.999 145.459 227.802 144.393 229.122 144.393ZM229.045 144.965C228.209 144.965 227.846 145.724 227.78 146.296H230.19C230.201 145.779 229.969 144.965 229.045 144.965Z" fill="white"/>
<path d="M233.049 145.196H233.071C233.357 144.69 233.885 144.37 234.611 144.37C235.744 144.37 236.525 145.305 236.525 146.669C236.525 148.286 235.502 149.09 234.49 149.09C233.841 149.09 233.313 148.836 232.961 148.242H232.939L232.895 148.98H232.191C232.213 148.672 232.224 148.21 232.224 147.814L232.235 142.358H233.049V145.196ZM234.336 145.031C233.786 145.031 233.259 145.427 233.093 146.042C233.06 146.141 233.049 146.263 233.049 146.384V147.187C233.05 147.286 233.06 147.396 233.082 147.484C233.236 148.056 233.72 148.451 234.314 148.451C235.183 148.451 235.689 147.748 235.689 146.714C235.689 145.812 235.227 145.031 234.336 145.031Z" fill="white"/>
<path d="M238.615 149.002H237.79V144.481H238.615V149.002ZM238.197 142.688C238.505 142.688 238.703 142.907 238.704 143.204C238.704 143.479 238.505 143.711 238.175 143.711C237.878 143.711 237.68 143.49 237.68 143.204C237.68 142.93 237.889 142.688 238.197 142.688Z" fill="white"/>
<path d="M241.2 143.392V144.481H242.377V145.108H241.2V147.55C241.2 148.111 241.354 148.43 241.816 148.43C242.036 148.43 242.168 148.408 242.289 148.375L242.322 149.002C242.168 149.057 241.915 149.112 241.596 149.112C241.211 149.112 240.903 148.98 240.705 148.771C240.485 148.518 240.386 148.111 240.386 147.583V145.119H239.682V144.492H240.386V143.645L241.2 143.392Z" fill="white"/>
<path d="M220.073 32.4976H217.441V35.2867H220.073C221.064 35.2867 221.716 34.8175 221.716 33.9052C221.716 32.9929 221.064 32.4976 220.073 32.4976ZM233.732 24.5213C233.732 26.5806 232.168 27.6754 230.396 27.6754C228.623 27.6754 227.059 26.5806 227.059 24.5213V19.4905H228.258V24.4953C228.258 25.8246 229.171 26.5806 230.396 26.5806C231.621 26.5806 232.533 25.8246 232.533 24.4953V19.4905H233.732V24.5213ZM221.742 27.4929L217.441 21.0806V27.4929H216.242V19.4645H217.858L221.82 25.4597V19.4645H223.019V27.4929H221.742ZM220.282 31.4289C221.924 31.4289 222.941 32.4716 222.941 33.9313C222.941 35.1825 222.133 36.0687 220.829 36.3033L222.915 39.4573H221.507L219.526 36.3815H217.415V39.4573H216.19V31.4289H220.282ZM227.424 31.4289H233.472V32.654H231.073V38.2844H233.472V39.5095H227.424V38.2844H229.822V32.654H227.424V31.4289ZM241.5 37.7109V21.2891C241.5 16.7014 237.799 13 233.211 13H216.789C212.201 13 208.5 16.7014 208.5 21.2891V37.7109C208.5 42.2986 212.201 46 216.789 46H233.211C237.773 46 241.5 42.2986 241.5 37.7109Z" fill="#F0F0F0"/>
</svg>
