<svg width="33" height="33" viewBox="0 0 33 33" fill="none" xmlns="http://www.w3.org/2000/svg">
<path fill-rule="evenodd" clip-rule="evenodd" d="M2.5 11.5C2.5 8.73858 4.73858 6.5 7.5 6.5H25.5C28.2614 6.5 30.5 8.73858 30.5 11.5V12.5C30.5 13.0523 30.0523 13.5 29.5 13.5C28.9477 13.5 28.5 13.0523 28.5 12.5V11.5C28.5 9.84315 27.1569 8.5 25.5 8.5H7.5C5.84315 8.5 4.5 9.84315 4.5 11.5V21.5C4.5 23.1569 5.84315 24.5 7.5 24.5H18.5C19.0523 24.5 19.5 24.9477 19.5 25.5C19.5 26.0523 19.0523 26.5 18.5 26.5H7.5C4.73858 26.5 2.5 24.2614 2.5 21.5V11.5Z" fill="#2C232E"/>
<path fill-rule="evenodd" clip-rule="evenodd" d="M6.50029 17.5C6.50029 16.9477 6.94801 16.5 7.50029 16.5H17.5003C18.0526 16.5 18.5003 16.9477 18.5003 17.5C18.5003 18.0523 18.0526 18.5 17.5003 18.5H7.50029C6.94801 18.5 6.50029 18.0523 6.50029 17.5Z" fill="#2C232E"/>
<path fill-rule="evenodd" clip-rule="evenodd" d="M6.50029 13.5C6.50029 12.9477 6.94801 12.5 7.50029 12.5H23.5003C24.0526 12.5 24.5003 12.9477 24.5003 13.5C24.5003 14.0523 24.0526 14.5 23.5003 14.5H7.50029C6.94801 14.5 6.50029 14.0523 6.50029 13.5Z" fill="#2C232E"/>
<path fill-rule="evenodd" clip-rule="evenodd" d="M24.7711 17.6264C24.2886 17.8953 24.1155 18.5043 24.3844 18.9868C25.0245 20.1353 25.3604 21.4282 25.3604 22.7428C25.3604 24.0575 25.0245 25.3502 24.3844 26.4983C24.1155 26.9807 24.2886 27.5898 24.771 27.8587C25.2534 28.1276 25.8624 27.9545 26.1313 27.4721C26.9374 26.0263 27.3604 24.3983 27.3604 22.7428C27.3604 21.0874 26.9374 19.4593 26.1314 18.0131C25.8625 17.5307 25.2535 17.3576 24.7711 17.6264Z" fill="#2C232E"/>
<path fill-rule="evenodd" clip-rule="evenodd" d="M22.1859 19.6265C21.7035 19.8953 21.5303 20.5044 21.7992 20.9868C22.1983 21.7028 22.4077 22.5089 22.4077 23.3286C22.4077 24.1482 22.1983 24.9541 21.7993 25.6699C21.5303 26.1523 21.7034 26.7614 22.1858 27.0303C22.6682 27.2992 23.2772 27.1261 23.5462 26.6437C24.1112 25.6302 24.4077 24.489 24.4077 23.3286C24.4077 22.1681 24.1112 21.0269 23.5462 20.0131C23.2773 19.5307 22.6683 19.3576 22.1859 19.6265Z" fill="#2C232E"/>
<path fill-rule="evenodd" clip-rule="evenodd" d="M27.4707 15.6264C26.9883 15.8953 26.8152 16.5043 27.0841 16.9867C27.9652 18.5677 28.4276 20.3474 28.4276 22.1571C28.4276 23.9667 27.9652 25.7462 27.0841 27.3267C26.8152 27.8091 26.9883 28.4181 27.4706 28.6871C27.953 28.956 28.5621 28.7829 28.831 28.3005C29.878 26.4223 30.4276 24.3076 30.4276 22.1571C30.4276 20.0066 29.878 17.8917 28.8311 16.0131C28.5622 15.5307 27.9532 15.3575 27.4707 15.6264Z" fill="#2C232E"/>
</svg>
