<svg width="32" height="32" viewBox="0 0 32 32" fill="none" xmlns="http://www.w3.org/2000/svg">
<path fill-rule="evenodd" clip-rule="evenodd" d="M4 7C4 5.34315 5.34315 4 7 4H17C18.6569 4 20 5.34315 20 7V9C20 9.55228 19.5523 10 19 10C18.4477 10 18 9.55228 18 9V7C18 6.44772 17.5523 6 17 6H7C6.44772 6 6 6.44772 6 7V17C6 17.5523 6.44772 18 7 18H9C9.55228 18 10 18.4477 10 19C10 19.5523 9.55228 20 9 20H7C5.34315 20 4 18.6569 4 17V7ZM12 15C12 13.3431 13.3431 12 15 12H25C26.6569 12 28 13.3431 28 15V25C28 26.6569 26.6569 28 25 28H15C13.3431 28 12 26.6569 12 25V15ZM15 14C14.4477 14 14 14.4477 14 15V25C14 25.5523 14.4477 26 15 26H25C25.5523 26 26 25.5523 26 25V15C26 14.4477 25.5523 14 25 14H15Z" fill="#2C232E"/>
</svg>
