<svg width="32" height="32" viewBox="0 0 32 32" fill="none" xmlns="http://www.w3.org/2000/svg">
<path fill-rule="evenodd" clip-rule="evenodd" d="M4.29289 4.29289C4.68342 3.90237 5.31658 3.90237 5.70711 4.29289L27.7071 26.2929C28.0976 26.6834 28.0976 27.3166 27.7071 27.7071C27.3166 28.0976 26.6834 28.0976 26.2929 27.7071L4.29289 5.70711C3.90237 5.31658 3.90237 4.68342 4.29289 4.29289Z" fill="#2C232E"/>
<path fill-rule="evenodd" clip-rule="evenodd" d="M27.7073 4.29289C28.0978 4.68342 28.0978 5.31658 27.7073 5.70711L5.70729 27.7071C5.31677 28.0976 4.6836 28.0976 4.29308 27.7071C3.90255 27.3166 3.90255 26.6834 4.29308 26.2929L26.2931 4.29289C26.6836 3.90237 27.3167 3.90237 27.7073 4.29289Z" fill="#2C232E"/>
</svg>
