<svg width="32" height="32" viewBox="0 0 32 32" fill="none" xmlns="http://www.w3.org/2000/svg">
<path d="M21.657 23.5424C22.1777 24.0631 23.0219 24.0631 23.5426 23.5424C24.0633 23.0217 24.0633 22.1775 23.5426 21.6568L17.8858 16L23.5426 10.3431C24.0633 9.82243 24.0633 8.97821 23.5426 8.45751C23.0219 7.93681 22.1777 7.93681 21.657 8.45751L16.0001 14.1143L10.3433 8.45748C9.82258 7.93678 8.97836 7.93678 8.45766 8.45748C7.93697 8.97818 7.93696 9.8224 8.45766 10.3431L14.1145 16L8.45766 21.6568C7.93696 22.1775 7.93696 23.0218 8.45766 23.5425C8.97836 24.0632 9.82258 24.0632 10.3433 23.5425L16.0001 17.8856L21.657 23.5424Z" fill="#2C232E"/>
</svg>
