<svg width="32" height="32" viewBox="0 0 32 32" fill="none" xmlns="http://www.w3.org/2000/svg">
<path fill-rule="evenodd" clip-rule="evenodd" d="M9.70711 11.2929C10.0976 11.6834 10.0976 12.3166 9.70711 12.7071L7.41421 15L27 15C27.5523 15 28 15.4477 28 16C28 16.5523 27.5523 17 27 17L7.41421 17L9.70711 19.2929C10.0976 19.6834 10.0976 20.3166 9.70711 20.7071C9.31658 21.0976 8.68342 21.0976 8.29289 20.7071L4.29289 16.7071C4.10536 16.5196 4 16.2652 4 16C4 15.7348 4.10536 15.4804 4.29289 15.2929L8.29289 11.2929C8.68342 10.9024 9.31658 10.9024 9.70711 11.2929Z" fill="#2C232E"/>
</svg>
