<svg width="32" height="32" viewBox="0 0 32 32" fill="none" xmlns="http://www.w3.org/2000/svg">
<path fill-rule="evenodd" clip-rule="evenodd" d="M15.9985 9.00097C20.32 8.94125 24.6353 11.6495 27.2891 14.302L27.2925 14.3055C27.7376 14.7547 28 15.3565 28 15.9987C28 16.6409 27.7376 17.2427 27.2925 17.6919L27.2894 17.695C24.6963 20.2895 20.3912 23.0597 15.9985 22.999C11.6058 23.0597 7.30165 20.2894 4.7103 17.6947L4.7075 17.6919C4.26244 17.2427 4 16.6409 4 15.9987C4 15.3565 4.26244 14.7547 4.7075 14.3055L4.71051 14.3024C7.36165 11.6495 11.6771 8.94125 15.9985 9.00097ZM6.12708 15.7143C6.03499 15.8078 6 15.9104 6 15.9987C6 16.0869 6.03501 16.1896 6.12715 16.2831C8.54699 18.7054 12.3642 21.0544 15.9832 20.999H16.0138C19.6328 21.0544 23.4509 18.7055 25.8729 16.2831C25.965 16.1895 26 16.0869 26 15.9987C26 15.9105 25.965 15.8079 25.873 15.7144C23.3984 13.2418 19.5692 10.9464 16.0139 11.001H15.9832C12.4277 10.9464 8.59844 13.242 6.12708 15.7143Z" fill="#2C232E"/>
<path fill-rule="evenodd" clip-rule="evenodd" d="M16.7657 14.1521C16.5231 14.0516 16.2629 13.9999 16.0003 14C15.6047 14 15.2178 14.1173 14.8889 14.337C14.56 14.5568 14.3037 14.8691 14.1523 15.2345C14.0009 15.5999 13.9613 16.002 14.0384 16.39C14.1155 16.7779 14.3059 17.1343 14.5856 17.414C14.8653 17.6938 15.2216 17.8843 15.6095 17.9615C15.9974 18.0387 16.3995 17.9992 16.765 17.8479C17.1305 17.6966 17.4429 17.4404 17.6627 17.1115C17.8825 16.7827 17.9999 16.3961 18 16.0005C18.0001 15.7379 17.9485 15.4775 17.8481 15.2348C17.7476 14.992 17.6004 14.7715 17.4146 14.5857C17.2289 14.4 17.0084 14.2526 16.7657 14.1521ZM16 12C16.5254 11.9999 17.0456 12.1033 17.531 12.3043C18.0164 12.5054 18.4575 12.8001 18.829 13.1717C19.2005 13.5433 19.4952 13.9845 19.6961 14.47C19.897 14.9554 20.0002 15.4757 20 16.0011M16 12C15.209 12.0001 14.4355 12.2346 13.7778 12.6741C13.1201 13.1135 12.6074 13.7382 12.3046 14.469C12.0018 15.1999 11.9225 16.0041 12.0768 16.78C12.231 17.5559 12.6119 18.2686 13.1712 18.8281C13.7305 19.3875 14.4431 19.7686 15.219 19.923C15.9948 20.0775 16.7991 19.9984 17.53 19.6958C18.2609 19.3932 18.8857 18.8807 19.3254 18.2231C19.765 17.5655 19.9997 16.7921 20 16.0011" fill="#2C232E"/>
</svg>
