<svg width="32" height="33" viewBox="0 0 32 33" fill="none" xmlns="http://www.w3.org/2000/svg">
<path fill-rule="evenodd" clip-rule="evenodd" d="M19.0724 23.8602C19.5211 23.4802 20.1142 23.3169 20.6942 23.4137L21.9146 23.6173C21.9144 23.6172 21.9147 23.6173 21.9146 23.6173C22.149 23.6562 22.3895 23.6438 22.6186 23.5807C22.8479 23.5175 23.0606 23.4051 23.242 23.2514C23.4234 23.0977 23.5692 22.9062 23.6691 22.6905C23.769 22.4747 23.8208 22.2398 23.8207 22.002V19.0215C23.8207 18.1039 24.4451 17.3041 25.3352 17.0813L26.219 16.8601L24.1565 13.7658C23.9376 13.4373 23.8207 13.0513 23.8207 12.6565V11.7473C23.8207 7.87581 19.7436 4.16497 14.1042 4.6931L14.0986 4.69362C12.2151 4.86469 10.435 5.63103 9.01628 6.88161C7.59752 8.13219 6.61382 9.80203 6.20771 11.6492C5.8016 13.4963 5.99418 15.4247 6.75755 17.1551C7.52092 18.8854 8.81541 20.3277 10.4535 21.2731C11.0724 21.6303 11.4538 22.2906 11.4538 23.0053V30.6445H9.45378V23.0053C7.4478 21.8477 5.86254 20.0813 4.92771 17.9623C3.99287 15.8433 3.75703 13.4817 4.25436 11.2197C4.75169 8.95767 5.95636 6.91275 7.69378 5.38127C9.43121 3.84979 11.6112 2.91131 13.9177 2.70181C20.3905 2.09563 25.8207 6.38134 25.8207 11.7473V12.6565L28.026 15.9651C28.1876 16.2075 28.2886 16.4853 28.3204 16.7749C28.3522 17.0645 28.314 17.3575 28.209 17.6293C28.1039 17.9011 27.9351 18.1436 27.7168 18.3365C27.4984 18.5294 27.2369 18.667 26.9543 18.7378L25.8207 19.0215V22.0015C25.8209 22.5297 25.7059 23.0517 25.4839 23.5311C25.2618 24.0104 24.938 24.4357 24.535 24.7772C24.132 25.1187 23.6594 25.3684 23.1501 25.5088C22.893 25.5796 22.6298 25.6218 22.3651 25.635C22.1053 25.648 21.844 25.6331 21.5859 25.5901L20.3651 25.3864V30.6445H18.3651V25.3864C18.3651 24.7984 18.6238 24.2402 19.0724 23.8602Z" fill="#2C232E"/>
</svg>
