<svg width="32" height="33" viewBox="0 0 32 33" fill="none" xmlns="http://www.w3.org/2000/svg">
<path fill-rule="evenodd" clip-rule="evenodd" d="M15 23.5V5.5C15 4.94772 15.4477 4.5 16 4.5C16.5523 4.5 17 4.94772 17 5.5V23.5C17 24.0523 16.5523 24.5 16 24.5C15.4477 24.5 15 24.0523 15 23.5Z" fill="#2C232E"/>
<path fill-rule="evenodd" clip-rule="evenodd" d="M20.7071 18.7929C21.0976 19.1834 21.0976 19.8166 20.7071 20.2071L16.7071 24.2071C16.3166 24.5976 15.6834 24.5976 15.2929 24.2071L11.2929 20.2071C10.9024 19.8166 10.9024 19.1834 11.2929 18.7929C11.6834 18.4024 12.3166 18.4024 12.7071 18.7929L16 22.0858L19.2929 18.7929C19.6834 18.4024 20.3166 18.4024 20.7071 18.7929Z" fill="#2C232E"/>
<path fill-rule="evenodd" clip-rule="evenodd" d="M9 12.5C7.34315 12.5 6 13.8431 6 15.5V23.5C6 25.1569 7.34315 26.5 9 26.5H23C24.6569 26.5 26 25.1569 26 23.5V15.5C26 13.8431 24.6569 12.5 23 12.5H20C19.4477 12.5 19 12.0523 19 11.5C19 10.9477 19.4477 10.5 20 10.5H23C25.7614 10.5 28 12.7386 28 15.5V23.5C28 26.2614 25.7614 28.5 23 28.5H9C6.23858 28.5 4 26.2614 4 23.5V15.5C4 12.7386 6.23858 10.5 9 10.5H12C12.5523 10.5 13 10.9477 13 11.5C13 12.0523 12.5523 12.5 12 12.5H9Z" fill="#2C232E"/>
</svg>
