<svg width="25" height="14" viewBox="0 0 25 14" fill="none" xmlns="http://www.w3.org/2000/svg">
<path fill-rule="evenodd" clip-rule="evenodd" d="M0.803372 13.2174C1.1996 13.6022 1.8327 13.5929 2.21743 13.1966L12.5 2.60697L22.7826 13.1966C23.1673 13.5929 23.8004 13.6022 24.1966 13.2174C24.5929 12.8327 24.6022 12.1996 24.2174 11.8034L13.7357 1.00855C13.727 0.999691 13.7183 0.990987 13.7093 0.982448C13.5465 0.826725 13.3556 0.705495 13.1486 0.623555C12.9417 0.54164 12.7215 0.500001 12.5 0.500001C12.2785 0.500001 12.0583 0.54164 11.8514 0.623555C11.6444 0.705493 11.4535 0.826723 11.2907 0.982448C11.2817 0.990987 11.273 0.99969 11.2643 1.00855L0.782567 11.8034C0.397831 12.1996 0.407145 12.8327 0.803372 13.2174Z" fill="#2C232E"/>
</svg>
