<svg width="41" height="41" viewBox="0 0 41 41" fill="none" xmlns="http://www.w3.org/2000/svg">
<path fill-rule="evenodd" clip-rule="evenodd" d="M6.5 15.3333C6.5 12.5718 8.73858 10.3333 11.5 10.3333H29.5C32.2614 10.3333 34.5 12.5718 34.5 15.3333V16.3333C34.5 16.8855 34.0523 17.3333 33.5 17.3333C32.9477 17.3333 32.5 16.8855 32.5 16.3333V15.3333C32.5 13.6764 31.1569 12.3333 29.5 12.3333H11.5C9.84315 12.3333 8.5 13.6764 8.5 15.3333V25.3333C8.5 26.9901 9.84315 28.3333 11.5 28.3333H22.5C23.0523 28.3333 23.5 28.781 23.5 29.3333C23.5 29.8855 23.0523 30.3333 22.5 30.3333H11.5C8.73858 30.3333 6.5 28.0947 6.5 25.3333V15.3333Z" fill="#2C232E"/>
<path fill-rule="evenodd" clip-rule="evenodd" d="M10.5003 21.3333C10.5003 20.781 10.948 20.3333 11.5003 20.3333H21.5003C22.0526 20.3333 22.5003 20.781 22.5003 21.3333C22.5003 21.8855 22.0526 22.3333 21.5003 22.3333H11.5003C10.948 22.3333 10.5003 21.8855 10.5003 21.3333Z" fill="#2C232E"/>
<path fill-rule="evenodd" clip-rule="evenodd" d="M10.5003 17.3333C10.5003 16.781 10.948 16.3333 11.5003 16.3333H27.5003C28.0526 16.3333 28.5003 16.781 28.5003 17.3333C28.5003 17.8855 28.0526 18.3333 27.5003 18.3333H11.5003C10.948 18.3333 10.5003 17.8855 10.5003 17.3333Z" fill="#2C232E"/>
<path fill-rule="evenodd" clip-rule="evenodd" d="M28.7711 21.4597C28.2886 21.7286 28.1155 22.3376 28.3844 22.82C29.0245 23.9685 29.3604 25.2614 29.3604 26.5761C29.3604 27.8907 29.0245 29.1834 28.3844 30.3316C28.1155 30.814 28.2886 31.423 28.771 31.6919C29.2534 31.9608 29.8624 31.7878 30.1313 31.3054C30.9374 29.8595 31.3604 28.2316 31.3604 26.5761C31.3604 24.9206 30.9374 23.2925 30.1314 21.8464C29.8625 21.3639 29.2535 21.1908 28.7711 21.4597Z" fill="#2C232E"/>
<path fill-rule="evenodd" clip-rule="evenodd" d="M26.1859 23.4597C25.7035 23.7286 25.5303 24.3376 25.7992 24.82C26.1983 25.5361 26.4077 26.3422 26.4077 27.1618C26.4077 27.9814 26.1983 28.7874 25.7993 29.5032C25.5303 29.9855 25.7034 30.5946 26.1858 30.8635C26.6682 31.1324 27.2772 30.9594 27.5462 30.477C28.1112 29.4634 28.4077 28.3223 28.4077 27.1618C28.4077 26.0013 28.1112 24.8601 27.5462 23.8464C27.2773 23.364 26.6683 23.1909 26.1859 23.4597Z" fill="#2C232E"/>
<path fill-rule="evenodd" clip-rule="evenodd" d="M31.4707 19.4597C30.9883 19.7285 30.8152 20.3376 31.0841 20.82C31.9652 22.4009 32.4276 24.1807 32.4276 25.9903C32.4276 27.8 31.9652 29.5795 31.0841 31.16C30.8152 31.6423 30.9883 32.2514 31.4706 32.5203C31.953 32.7892 32.5621 32.6162 32.831 32.1338C33.878 30.2556 34.4276 28.1408 34.4276 25.9903C34.4276 23.8398 33.878 21.7249 32.8311 19.8463C32.5622 19.3639 31.9532 19.1908 31.4707 19.4597Z" fill="#2C232E"/>
</svg>
