<svg width="32" height="32" viewBox="0 0 32 32" fill="none" xmlns="http://www.w3.org/2000/svg">
<path fill-rule="evenodd" clip-rule="evenodd" d="M16 28C22.6274 28 28 22.6274 28 16C28 9.37258 22.6274 4 16 4C9.37258 4 4 9.37258 4 16C4 22.6274 9.37258 28 16 28ZM16 30C23.732 30 30 23.732 30 16C30 8.26801 23.732 2 16 2C8.26801 2 2 8.26801 2 16C2 23.732 8.26801 30 16 30Z" fill="#2C232E"/>
<path fill-rule="evenodd" clip-rule="evenodd" d="M23.6718 10.2593C24.0809 10.6303 24.1117 11.2627 23.7407 11.6718L14.5928 21.7577C14.3666 22.0101 14.0849 22.2004 13.7795 22.3246C13.4727 22.4494 13.1421 22.5076 12.8133 22.4992C12.4846 22.4909 12.157 22.4159 11.8567 22.2744C11.5606 22.135 11.2916 21.9309 11.0813 21.6673L8.22966 18.2222C7.87751 17.7967 7.93692 17.1664 8.36236 16.8142C8.78781 16.4621 9.41818 16.5215 9.77034 16.9469L12.6446 20.4194C12.6499 20.4261 12.6683 20.4459 12.7089 20.4651C12.7497 20.4843 12.8033 20.4983 12.8642 20.4999C12.9251 20.5014 12.9813 20.4902 13.0261 20.4719C13.071 20.4537 13.0947 20.4327 13.1037 20.4226L13.1091 20.4166L22.2593 10.3282C22.6303 9.91909 23.2627 9.88825 23.6718 10.2593Z" fill="#2C232E"/>
</svg>
