<svg width="327" height="255" viewBox="0 0 327 255" fill="none" xmlns="http://www.w3.org/2000/svg">
<g filter="url(#filter0_d_387_13073)">
<path fill-rule="evenodd" clip-rule="evenodd" d="M276.52 29C276.52 29 285.5 29 285.5 38.0697L285.434 182.93C285.434 182.93 285.434 192 276.443 192H38.4798C38.4798 192 29.5 192 29.5 182.93L29.5771 38.0697C29.5771 38.0697 29.5771 29 38.5568 29H276.52" fill="#2C232E"/>
<path d="M142.56 185.491C143.538 184.616 144.284 183.408 144.555 182.083C144.902 180.656 144.787 179.203 144.324 177.891C142.101 170.675 137.923 163.923 133.745 157.813C129.567 151.703 125.08 146.005 120.336 140.435C117.443 136.898 114.474 133.463 111.504 130.029C119.733 136.847 127.73 143.973 135.663 151.293C138.839 154.239 141.937 157.288 145.036 160.336C146.527 161.777 148.019 163.218 149.343 164.774C150.449 166.086 151.837 168.093 153.071 169.662C155.064 172.042 157.803 173.213 160.427 171.645C162.639 170.411 164.158 166.887 162.757 164.148C154.479 147.967 143.873 133.496 132.109 119.926C122.119 108.49 111.293 97.6331 99.85 87.5991C101.779 88.8856 103.707 90.1721 105.636 91.4587C111.345 95.4211 116.81 99.6022 122.236 104.156C127.675 108.8 132.972 113.74 137.935 118.911C139.336 120.365 140.84 121.895 142.255 123.439C143.772 125.06 144.659 126.127 145.867 127.517C147.076 128.906 148.349 130.745 149.506 132.417C149.853 132.919 150.187 133.331 150.444 133.845C150.38 134.038 150.405 134.218 150.418 134.308C150.135 137.472 152.011 140.327 155.085 141.267C160.936 143.004 163.446 135.482 161.273 130.556C159.371 126.234 155.604 122.362 152.544 118.94C146.913 112.946 140.947 107.183 134.672 101.832C122.355 90.8199 109.176 80.8497 95.2242 71.9082C91.4824 69.5023 87.6635 67.1993 83.7801 65.0892C79.2668 62.426 74.3545 60.83 69.1462 60.3786C67.2042 60.2881 65.339 62.0237 64.6827 63.8626C64.2838 64.9299 64.1549 65.9587 64.3089 67.0391C64.463 68.1194 64.7971 69.174 65.4785 70.0873C68.1653 74.1133 71.714 77.0978 75.1984 80.2752C78.3485 83.041 81.5629 85.6139 84.7259 88.4697C91.1418 94.1685 97.4033 100.073 103.601 106.171C106.712 109.309 109.823 112.448 112.858 115.69C114.259 117.143 115.57 118.61 116.985 120.153L117.203 120.398C109 113.117 100.475 106.157 91.8349 99.673C84.853 94.5142 77.6138 89.4839 69.8083 86.2797C66.9793 85.1215 64.0213 85.6352 62.503 88.5155C60.9848 91.3959 61.7298 94.6883 64.0699 96.9267C74.5742 107.462 84.9369 118.293 94.9781 129.446C96.1738 130.745 97.3823 132.134 98.578 133.433C99.0152 133.922 99.4523 134.411 99.8894 134.9L101.214 136.456L101.548 136.868L101.561 136.958C102.988 138.592 104.415 140.225 105.752 141.872C102.833 139.44 99.8246 137.022 96.8287 134.693C94.1542 132.686 91.2098 130.075 88.2651 128.75C83.7388 126.639 79.2888 127.641 77.1014 132.27C75.6988 135.318 77.5367 139.833 80.4943 141.248C81.9859 142.046 83.7349 142.072 85.214 141.493C86.4227 142.24 87.5413 142.999 88.7629 143.835C89.3672 144.208 89.9844 144.671 90.5887 145.044L90.8973 145.276L91.8231 145.971C93.0447 146.807 94.1761 147.656 95.4105 148.582C100.142 152.133 104.707 155.799 109.207 159.658C113.707 163.518 118.22 167.467 122.476 171.545C124.61 173.629 126.745 175.713 128.879 177.797C131.013 179.881 133.443 182.749 135.41 184.949C137.159 186.904 140.219 187.111 142.56 185.491Z" fill="#6E9E96"/>
<path d="M125.619 82.0259C129.934 83.2904 134.174 84.6294 138.488 85.9684L149.423 89.3157C149.646 89.3901 149.795 89.5389 149.646 89.7621C149.348 90.3572 148.977 90.9522 148.53 91.4729C147.786 92.44 146.745 93.8533 145.406 93.8533C141.91 94.0021 138.414 94.7459 135.141 96.0105C134.917 96.0849 134.397 96.2337 134.248 96.0105C134.322 96.6056 134.322 97.1263 134.174 97.647L134.099 98.614C133.207 100.474 132.983 99.8786 131.942 101.589C130.901 103.226 123.536 104.491 121.751 104.788C121.751 104.788 111.56 97.9446 112.825 91.6217C114.089 85.2989 125.619 82.0259 125.619 82.0259Z" fill="#FF8C5A"/>
<path d="M195.242 67.8432C191.596 65.007 186.801 64.1291 182.276 63.2512C167.015 60.3474 151.956 56.4307 137.234 51.501C137.099 51.366 136.964 51.2985 136.829 51.1634C136.086 50.9608 135.411 50.7582 134.668 50.5556C132.845 50.0154 130.954 49.4076 129.063 49.0024C126.97 49.1375 124.944 49.9479 123.323 51.2985C119.271 54.9451 118.461 61.0903 121.567 65.6148C123.593 68.451 126.902 70.0717 130.076 71.4898C147.836 79.3908 167.015 83.6452 186.463 84.1179C190.853 84.1854 195.985 83.7127 198.416 80.0661C200.915 76.2169 198.889 70.6795 195.242 67.8432Z" fill="#0038FF"/>
<path d="M188.894 73.1107C188.759 75.8119 186.531 77.1625 184.1 77.0275C170.256 76.082 156.683 73.1107 143.312 69.5317C141.624 69.0589 140.003 68.5862 138.315 68.1135C135.951 67.4382 132.98 67.1006 131.494 65.0072C130.886 64.1293 130.549 62.9813 130.684 61.9008C130.819 60.8203 131.292 59.8074 132.102 58.997C132.845 58.3217 133.858 57.849 134.871 57.7139C135.884 57.5789 136.964 57.7139 137.909 58.1867C139.53 58.862 141.016 59.6723 142.637 60.3476C144.257 61.0229 145.81 61.6307 147.431 62.2384C148.241 62.5761 148.984 62.8462 149.727 63.1163L150.808 63.454C150.267 63.3189 150.875 63.454 150.943 63.5215L151.685 63.7241C154.994 64.737 158.371 65.5474 161.815 66.2227C165.597 66.9655 169.378 67.5733 173.227 67.9785C175.186 68.1811 177.212 68.3836 179.17 68.5187C180.116 68.5862 181.128 68.6538 182.074 68.7213H182.344H182.817L184.572 68.7888C186.936 68.8564 189.029 70.4095 188.894 73.1107Z" fill="#2C232E"/>
<path d="M152.12 72.2339C143.132 71.5113 133.956 76.7516 130.008 84.8588C128.363 88.2368 127.581 91.9908 127.341 95.7389C127.106 99.3401 127.358 103 128.433 106.449C131.929 117.675 144.847 124.931 156.315 122.334C167.783 119.737 176.272 107.876 175.314 96.1619C174.356 84.4475 164.275 74.2137 152.608 72.792" fill="#BEAAFF"/>
<path d="M152.579 72.0343C142.192 71.253 131.835 77.6565 128.386 87.5614C127.335 90.5869 126.841 93.8004 126.729 96.9963C126.612 100.292 126.923 103.635 127.94 106.79C129.408 111.354 132.487 115.296 136.335 118.122C140.206 120.965 144.888 122.716 149.688 123.022C154.488 123.327 159.311 122.099 163.423 119.608C171.889 114.48 177.217 104.263 175.678 94.3585C174.139 84.4889 166.273 76.0527 156.738 73.3385C155.534 72.9978 154.312 72.751 153.072 72.5924C152.831 72.563 152.514 72.6277 152.297 72.7452C152.232 72.7804 151.897 72.9625 152.15 72.9978C161.649 74.1962 170.044 81.1226 173.358 90.0581C176.753 99.2169 173.857 109.551 166.919 116.26C163.453 119.608 159.017 122.005 154.188 122.534C149.594 123.039 144.883 121.988 140.794 119.873C136.722 117.77 133.186 114.574 130.877 110.596C128.004 105.638 127.434 99.7339 128.016 94.1235C128.598 88.5307 130.583 83.1318 134.584 79.084C138.103 75.5239 142.809 73.0683 147.808 72.5102C149.083 72.3692 150.375 72.3457 151.656 72.4397C151.909 72.4573 152.208 72.4103 152.432 72.2869C152.49 72.2517 152.837 72.0519 152.579 72.0343Z" fill="#BEAAFF"/>
<path d="M172.884 93.9089C172.884 94.0499 172.931 94.1909 172.949 94.326C172.949 94.3554 172.949 94.467 172.949 94.5493C172.949 94.6315 172.949 94.7431 172.949 94.7725C172.949 94.9781 172.978 95.1896 172.984 95.4011C173.016 95.9646 173.016 96.5295 172.984 97.093C172.984 97.375 172.96 97.657 172.913 97.939C172.913 98.08 172.872 98.221 172.86 98.3561C172.859 98.3815 172.859 98.4071 172.86 98.4325L172.825 98.6146C172.604 99.8013 172.264 100.963 171.809 102.081C171.756 102.216 171.703 102.345 171.644 102.474C171.646 102.486 171.646 102.498 171.644 102.51C171.515 102.762 171.398 103.027 171.262 103.273C170.965 103.841 170.638 104.392 170.281 104.924C170.123 105.159 169.964 105.394 169.8 105.623L169.541 105.964L169.388 106.158L169.242 106.334L168.895 106.739C168.683 106.974 168.466 107.209 168.243 107.439C167.843 107.85 167.432 108.243 167.003 108.613C166.762 108.825 166.516 109.031 166.269 109.236L165.934 109.501L165.634 109.73L165.464 109.847L165.112 110.094L164.395 110.564C163.848 110.905 163.29 111.228 162.721 111.527C162.151 111.827 161.669 112.056 161.134 112.291L160.623 112.508L159.948 112.755C158.879 113.125 157.788 113.427 156.681 113.66C156.129 113.772 155.577 113.871 155.013 113.948C154.866 113.948 154.126 114.048 154.643 114.001C154.343 114.03 154.055 114.059 153.744 114.077C152.618 114.159 151.488 114.171 150.36 114.112C149.796 114.081 149.232 114.034 148.668 113.971L147.922 113.871H147.875L147.387 113.783C146.279 113.577 145.184 113.302 144.109 112.961C143.575 112.79 143.04 112.602 142.517 112.373L142.012 112.168C141.753 112.056 141.495 111.933 141.236 111.809C140.22 111.322 139.238 110.764 138.299 110.141C137.888 109.865 137.482 109.553 137.124 109.277L136.683 108.919C136.419 108.696 136.166 108.472 135.914 108.238C135.07 107.452 134.284 106.606 133.564 105.705C133.482 105.6 133.394 105.494 133.311 105.382L133.223 105.259C133.1 105.083 132.971 104.907 132.853 104.73C132.506 104.225 132.178 103.708 131.872 103.185C131.567 102.662 131.349 102.233 131.114 101.752C130.997 101.505 130.879 101.264 130.773 101.017L130.615 100.641L130.58 100.565C130.58 100.565 130.58 100.5 130.538 100.448C130.148 99.379 129.843 98.2808 129.628 97.1635C129.575 96.8992 129.534 96.6348 129.493 96.3704C129.493 96.2588 129.493 96.1413 129.452 96.0297C129.452 96.0297 129.452 95.9886 129.452 95.9592C129.405 95.3717 129.369 94.7842 129.375 94.1498C129.381 93.5153 129.405 93.0747 129.457 92.5401C129.457 92.2875 129.51 92.0348 129.551 91.7822C129.551 91.7294 129.551 91.6295 129.581 91.606C129.622 91.3945 129.657 91.183 129.704 90.9715C129.968 89.8033 130.336 88.661 130.803 87.5583C130.803 87.6288 131.032 87.0707 131.055 87.0178C131.179 86.7593 131.314 86.5067 131.449 86.2541C131.755 85.6666 132.089 85.1378 132.448 84.5974C132.753 84.145 133.07 83.7044 133.405 83.2755L133.54 83.1169L133.817 82.7938C134.052 82.5294 134.287 82.2651 134.533 82.0066C135.371 81.1389 136.274 80.3375 137.236 79.6097L137.353 79.5274L137.7 79.2807L138.411 78.8107C138.951 78.4641 139.509 78.141 140.073 77.8414C140.637 77.5417 141.09 77.3303 141.612 77.1011C142.112 76.8761 142.624 76.6799 143.146 76.5137C145.317 75.7789 147.598 75.4194 149.89 75.4503C152.292 75.4865 154.673 75.911 156.94 76.7075C156.934 77.1228 157.067 77.5282 157.317 77.86C157.567 78.1918 157.92 78.4311 158.32 78.5405C158.873 78.6506 159.416 78.7998 159.948 78.9869C160.077 79.0281 160.2 79.0809 160.324 79.1279L160.6 79.2396L160.893 79.3747C161.105 79.4628 161.311 79.5451 161.528 79.6214L161.634 79.6625L161.904 79.7859C162.174 79.9152 162.444 80.0562 162.709 80.203C163.102 80.4204 163.49 80.6554 163.884 80.908C164.119 81.1312 164.348 81.3604 164.571 81.5895C164.791 81.8212 165.075 81.981 165.388 82.0477C165.787 82.3826 166.169 82.7292 166.563 83.0934C167.467 83.9642 168.318 84.8882 169.112 85.8604C169.212 85.9779 169.312 86.1013 169.406 86.2247L169.67 86.5654L169.829 86.7769L170.099 87.1588C170.475 87.7051 170.834 88.2632 171.163 88.8331C171.492 89.4029 171.791 90.008 172.061 90.5955C172.12 90.7424 172.185 90.8834 172.244 91.0244V91.0714C172.349 91.4062 172.473 91.7294 172.573 92.0642C172.753 92.6577 172.897 93.2621 173.001 93.8737L172.884 93.9089ZM175.034 86.3598C173.567 83.9158 171.77 81.6859 169.694 79.733C167.725 77.7958 165.396 76.263 162.838 75.2212C162.125 74.9558 161.377 74.7974 160.617 74.7512C158.463 73.6027 156.145 72.7923 153.744 72.3484C148.405 71.4078 142.904 72.2328 138.076 74.6984C133.156 77.1163 129.206 81.1354 126.873 86.0954C125.733 88.5279 125.084 91.1614 124.964 93.8451C124.844 96.5287 125.255 99.2097 126.173 101.734C128.058 106.804 131.506 111.143 136.02 114.124C140.351 116.93 145.361 118.513 150.519 118.706C161.293 119.182 172.508 113.29 176.397 102.968C177.406 100.273 177.797 97.3853 177.541 94.5189C177.284 91.6525 176.388 88.8802 174.917 86.4068" fill="#2C232E"/>
<path d="M161.545 92.481C161.308 92.6355 161.058 92.771 160.799 92.8864C159.624 93.3329 158.297 93.2095 157.092 93.1214C155.747 93.0215 154.408 92.857 153.074 92.669C150.66 92.321 148.269 91.8305 145.913 91.2003C146.306 89.7375 146.641 88.2629 146.906 86.759C146.968 86.4354 146.956 86.102 146.87 85.7838C150.855 86.5673 154.69 87.9792 158.232 89.9666C159.27 90.504 160.253 91.1394 161.169 91.8642C161.331 92.0027 161.477 92.1583 161.604 92.3283L161.645 92.387C161.592 92.387 161.498 92.5104 161.545 92.481V92.481ZM160.159 101.957C160.13 101.957 160.294 102.186 160.306 102.216C160.318 102.245 160.359 102.286 160.365 102.28C160.371 102.274 160.365 102.321 160.365 102.345C160.365 102.263 160.318 102.251 160.365 102.345C160.199 102.462 160.024 102.566 159.842 102.656C159.654 102.761 159.457 102.849 159.254 102.921C158.62 103.134 157.955 103.243 157.286 103.244C154.46 103.291 151.558 102.404 148.832 101.628C146.828 101.085 144.876 100.365 142.999 99.4779C143.55 98.4428 143.989 97.3517 144.309 96.2233C144.497 95.6945 144.679 95.1658 144.855 94.6371C147.12 95.3021 149.347 96.0865 151.529 96.987C154.144 97.9952 156.633 99.3064 158.943 100.894C159.402 101.184 159.812 101.545 160.159 101.963V101.957ZM162.039 88.7447C160.917 88.0221 159.754 87.3523 158.561 86.7414C159.086 85.764 159.464 84.715 159.683 83.6277C159.772 83.1929 159.694 82.7405 159.464 82.3608C159.234 81.9812 158.869 81.7023 158.443 81.5799C158.016 81.4575 157.559 81.5005 157.163 81.7005C156.766 81.9004 156.46 82.2425 156.305 82.6584C156.123 83.3457 155.888 84.0096 155.665 84.6793C155.6 84.879 155.518 85.0788 155.442 85.2668C155.13 85.1375 154.825 85.0083 154.513 84.8908L153.597 84.5383C153.685 84.2446 153.756 83.9508 153.814 83.663C153.997 82.8389 154.095 81.9984 154.108 81.1544C154.108 79.11 150.877 79.0454 150.9 81.0839C150.923 81.6922 150.878 82.3011 150.765 82.8992C150.718 83.1277 150.657 83.3533 150.583 83.5748C148.835 83.0947 147.057 82.7297 145.261 82.4821C143.915 82.2883 143.345 84.1271 144.05 84.9907C143.803 85.1931 143.629 85.4721 143.557 85.7838C143.104 87.8857 142.516 89.9561 141.794 91.9817C141.465 92.9099 141.084 93.8498 140.702 94.6782C140.249 95.6534 139.615 96.5875 139.233 97.6156C138.768 97.5612 138.298 97.6566 137.891 97.888C137.484 98.1195 137.162 98.4748 136.971 98.9022C136.755 99.3868 136.723 99.934 136.882 100.441C137.041 100.947 137.38 101.378 137.835 101.652C139.255 102.436 140.727 103.123 142.241 103.708C142.059 104.53 141.883 105.353 141.7 106.169C141.436 107.397 141.013 108.766 141.924 109.806C142.153 110.03 142.448 110.174 142.765 110.218C143.082 110.261 143.405 110.201 143.686 110.047C144.773 109.512 144.937 108.084 145.143 107.021L145.566 104.847C146.154 105.03 146.77 105.2 147.376 105.359C147.981 105.517 148.727 105.693 149.402 105.852C149.384 105.929 149.373 106.008 149.367 106.087C149.247 107.174 149.247 108.272 149.367 109.359C149.602 110.681 151.558 110.587 151.923 109.4C152.163 108.44 152.288 107.453 152.293 106.463C153.969 106.844 155.686 107.01 157.404 106.956C159.326 106.918 161.183 106.251 162.691 105.059C163.39 104.464 163.836 103.624 163.936 102.711C164.037 101.798 163.785 100.881 163.232 100.148C162.233 98.7612 160.711 97.8447 159.266 96.9576C158.931 96.752 158.59 96.5522 158.25 96.3701C159.488 96.4401 160.727 96.2664 161.898 95.859C163.408 95.2715 164.871 94.0966 164.777 92.3341C164.688 90.6833 163.337 89.6024 162.051 88.7682" fill="#2C232E"/>
<path d="M152.919 100.399C152.919 99.5812 152.473 98.7629 151.729 98.3166C149.423 97.052 144.588 99.5812 144.365 99.7299C138.562 103.524 130.677 107.243 120.858 110.739C120.635 110.665 120.338 110.665 120.115 110.814C118.032 111.929 115.875 111.929 113.569 111.632C113.42 111.334 113.345 111.037 113.271 110.739C113.271 110.442 113.494 110.144 113.643 109.846C113.866 109.4 114.015 108.954 114.238 108.508C114.61 107.615 114.908 106.722 115.131 105.83H115.205L121.677 104.788L124.28 95.5643L125.545 82.1004C124.28 81.8028 122.941 81.8028 121.677 82.1004C119.445 82.4723 117.214 82.7698 115.056 83.2162C110.668 84.1088 106.279 85.5221 102.634 88.2C101.741 88.8695 100.923 89.6878 100.328 90.5804C99.584 91.6962 98.9889 92.812 98.3938 94.0022C97.4268 96.1594 96.6829 98.3166 96.0878 100.623C94.972 105.16 94.3025 109.772 93.1867 114.31C92.666 116.616 91.9222 118.847 91.0295 121.079C90.5832 122.046 90.0625 123.013 89.5418 123.98C89.2443 124.426 88.9467 124.947 88.7236 125.468C88.5004 126.063 88.2772 126.583 87.9797 127.179C87.9053 127.402 87.7565 127.55 87.6822 127.774C86.6407 129.038 85.5249 130.228 84.3348 131.344C82.1032 133.427 80.0204 135.659 78.2351 138.113C78.1607 138.188 78.1607 138.336 78.2351 138.411C78.6814 138.857 79.2021 139.303 79.7228 139.675C79.946 140.196 80.2435 140.642 80.6154 141.014C80.9874 141.386 81.3593 141.684 81.7312 142.13C82.1032 142.502 82.4751 143.097 82.847 143.544C83.6653 144.436 84.5579 145.254 85.5993 145.924C87.6822 147.337 89.9881 148.453 92.4429 149.346C94.6001 150.164 96.6829 151.057 98.9889 151.057C99.2864 151.205 99.584 151.354 99.9559 151.503C100.402 151.652 100.849 151.503 101.072 151.205L103.675 148.007L104.122 147.56C104.196 147.486 104.345 147.337 104.419 147.188C104.493 147.114 104.493 147.114 104.568 147.04C105.535 146.221 106.576 145.478 107.618 144.734C108.362 144.139 109.105 143.544 109.849 142.948C112.453 142.502 114.982 141.461 117.139 139.899C120.933 137.295 123.536 133.501 125.322 129.41C127.181 127.476 129.041 125.393 130.752 123.31C130.826 123.236 130.826 123.162 130.901 123.087L131.049 122.938C131.347 122.641 131.57 122.343 131.868 122.046H131.942C135.141 117.285 143.844 113.119 143.918 113.045C143.993 112.971 153.663 108.284 152.919 100.399Z" fill="#FF8C5A"/>
<path d="M106.056 144.064C99.584 140.196 93.4843 135.733 87.7565 130.824C87.087 130.154 86.1944 129.633 85.3018 129.336C84.5579 129.113 83.814 129.187 83.0702 129.485C82.4007 129.485 81.7312 129.782 81.3593 130.303C76.301 133.204 71.3171 136.328 66.482 139.601C63.9529 141.312 61.4237 143.023 58.8946 144.734C56.4398 146.445 53.9851 148.156 51.5303 149.792C48.778 151.652 46.1745 153.66 43.7198 155.892C43.2735 156.338 43.0503 157.008 43.1991 157.677C43.1991 158.198 43.4222 158.793 43.7942 159.165C47.5135 163.182 52.9437 165.339 57.7788 167.645C63.1346 170.174 68.5648 172.629 73.995 174.935C76.8217 176.125 79.6484 177.315 82.4751 178.431C85.0786 179.472 88.5004 181.555 90.9551 179.323C91.8478 178.356 92.5916 177.241 93.1867 175.976C93.9306 174.712 94.6001 173.447 95.2695 172.182C96.6085 169.653 97.9475 167.05 99.212 164.446C102.113 158.57 104.642 152.47 106.948 146.296C107.171 145.403 106.799 144.511 106.056 144.064Z" fill="#BEAAFF"/>
<path d="M119.296 95.3412C119.296 95.1181 119.222 94.8949 119.148 94.7461C119.073 94.5974 118.999 94.4486 118.85 94.2998C118.701 94.151 118.552 94.0767 118.329 94.0767C118.106 94.0767 117.957 94.151 117.809 94.2998C117.66 94.4486 117.585 94.5974 117.511 94.7461L117.065 95.8619C116.693 96.829 116.246 97.8704 115.875 98.9118C115.354 100.325 114.908 101.738 114.536 103.226C113.717 106.276 113.122 109.4 112.825 112.524C112.75 112.971 112.899 113.492 113.345 113.789C113.494 113.863 113.643 113.938 113.792 113.938C113.866 113.938 114.015 113.938 114.089 113.863C114.387 113.715 114.61 113.343 114.61 112.971C114.908 109.921 115.354 106.946 116.098 103.97C116.693 101.515 117.511 99.2093 118.552 96.9033C118.701 96.829 118.85 96.7546 118.924 96.6802C119.073 96.457 119.222 96.2339 119.222 96.0107C119.371 95.7875 119.371 95.5644 119.296 95.3412Z" fill="#2C232E"/>
<path d="M154.481 99.0604L152.473 96.6057C152.324 96.4569 152.101 96.3081 151.952 96.2337C151.654 96.0106 151.357 95.8618 150.91 95.8618C150.39 95.8618 149.943 96.085 149.646 96.3825C149.423 96.3825 149.125 96.4569 148.902 96.6057H148.828C147.34 97.5727 146.075 98.8373 145.108 100.325C144.141 101.738 143.546 103.821 144.513 105.383C145.703 107.317 148.233 107.466 150.092 106.35C150.91 105.83 151.654 105.309 152.324 104.639C152.993 104.044 153.588 103.524 154.183 102.929C154.853 102.482 155.225 101.738 155.299 100.994C155.448 100.325 155.076 99.5811 154.481 99.0604Z" fill="#0038FF"/>
<path fill-rule="evenodd" clip-rule="evenodd" d="M87.749 83.385C90.07 83.385 91.962 85.288 91.962 87.785V104.527C91.962 106.716 90.081 108.619 87.749 108.619H63.087C60.766 108.619 58.874 106.716 58.874 104.373V87.631C58.874 85.288 60.755 83.385 63.087 83.385H87.749" fill="#D7D8D7"/>
<path fill-rule="evenodd" clip-rule="evenodd" d="M87.892 83.385V83.759C90.015 83.759 91.742 85.486 91.742 87.631V104.373C91.742 106.507 90.015 108.234 87.892 108.245H63.109C60.975 108.245 59.259 106.518 59.259 104.373V87.631C59.259 85.497 60.986 83.77 63.109 83.759H87.892V83H63.109C60.568 83 58.5 85.068 58.5 87.631V104.373C58.5 106.925 60.568 109.004 63.109 109.004H87.892C90.433 109.004 92.501 106.936 92.501 104.373V87.631C92.501 85.079 90.433 83.011 87.892 83V83.385" fill="#1A1919"/>
<path fill-rule="evenodd" clip-rule="evenodd" d="M58.874 96.376H58.94L58.962 96.398V99.324C58.962 99.577 59.16 99.775 59.413 99.775H68.444C68.675 99.775 68.895 99.643 68.994 99.423V99.423C69.511 98.312 69.764 97.124 69.764 95.925C69.764 94.792 69.533 93.648 69.06 92.581C68.961 92.361 68.752 92.218 68.51 92.218H59.402C59.149 92.218 58.951 92.416 58.951 92.669V95.595L58.94 95.617H58.874L58.72 95.771L58.874 95.925H58.995L59.105 95.881L59.215 95.771L59.259 95.661V92.68L59.413 92.526H68.51C68.631 92.526 68.741 92.592 68.785 92.702C69.236 93.725 69.467 94.825 69.467 95.925C69.467 97.08 69.214 98.224 68.719 99.291V99.291C68.664 99.401 68.565 99.467 68.444 99.467H59.402L59.248 99.313V96.321L59.204 96.211L59.094 96.101L58.984 96.057H58.874L58.72 96.211L58.874 96.376" fill="#131514"/>
<path fill-rule="evenodd" clip-rule="evenodd" d="M58.874 100.677H58.94L58.962 100.699V104.362C58.962 106.661 60.821 108.531 63.12 108.531H67.85C68.048 108.531 68.235 108.432 68.356 108.267C69.302 106.87 69.775 105.253 69.775 103.625C69.775 102.492 69.544 101.348 69.071 100.281C68.972 100.061 68.763 99.918 68.521 99.918H58.874L58.72 100.072L58.874 100.226H68.499C68.62 100.226 68.73 100.303 68.774 100.402V100.402C69.225 101.436 69.456 102.525 69.456 103.625C69.456 105.198 68.994 106.76 68.081 108.102C68.026 108.179 67.927 108.234 67.828 108.234H63.098C60.975 108.234 59.248 106.507 59.248 104.362V100.633L59.204 100.523L59.094 100.413L58.984 100.369H58.874L58.72 100.523L58.874 100.677" fill="#131514"/>
<path fill-rule="evenodd" clip-rule="evenodd" d="M58.874 92.0639H68.51C68.752 92.0639 68.961 91.9209 69.06 91.7009C69.533 90.6339 69.764 89.5009 69.764 88.3679C69.764 86.7289 69.28 85.1119 68.334 83.7149C68.224 83.5499 68.026 83.4509 67.828 83.4509H63.109C60.81 83.4509 58.951 85.3209 58.951 87.6199V91.2829L58.94 91.3159H58.874L58.731 91.4589L58.885 91.6129H59.006L59.116 91.5689L59.226 91.4589L59.27 91.3489V87.6309C59.27 85.4969 60.997 83.7699 63.12 83.7589H67.839C67.938 83.7589 68.037 83.8139 68.092 83.8909V83.8909C69.005 85.2329 69.467 86.7949 69.467 88.3679C69.467 89.4569 69.247 90.5569 68.796 91.5799C68.73 91.7009 68.62 91.7669 68.51 91.7669H58.874L58.731 91.9209L58.874 92.0639" fill="#131514"/>
<path fill-rule="evenodd" clip-rule="evenodd" d="M75.121 83.385V83.44L75.11 83.451H69.17C68.917 83.451 68.719 83.66 68.719 83.902V83.946L68.752 84.1L68.763 84.133C69.203 84.881 69.511 85.695 69.698 86.542L69.764 86.63L69.885 86.707L69.995 86.729C71.821 86.476 73.658 86.344 75.495 86.344C77.519 86.344 79.543 86.498 81.556 86.806L81.655 86.784L81.765 86.718L81.831 86.641C82.227 85.728 82.788 84.903 83.481 84.188V84.188C83.569 84.1 83.613 83.99 83.613 83.869C83.613 83.748 83.569 83.627 83.47 83.539L83.415 83.55L83.206 83.462L83.151 83.451H75.891L75.88 83.44V83.385L75.726 83.231L75.572 83.385V83.506L75.616 83.616L75.715 83.726L75.825 83.77H83.118L83.294 83.847L83.349 83.704L83.239 83.814L83.283 83.924L83.239 84.034C82.524 84.771 81.941 85.629 81.534 86.575L81.677 86.641L81.611 86.509L81.501 86.575L81.578 86.707L81.6 86.531C79.576 86.223 77.541 86.058 75.495 86.058C73.647 86.058 71.788 86.19 69.951 86.443L69.973 86.597L70.061 86.476L69.94 86.388L69.863 86.52L70.006 86.487C69.808 85.607 69.489 84.76 69.038 83.99L68.906 84.067L69.049 84.023L69.005 83.869L68.862 83.913H69.016L69.17 83.759H75.176L75.286 83.715L75.396 83.605L75.44 83.495V83.385L75.286 83.231L75.121 83.385" fill="#131514"/>
<path fill-rule="evenodd" clip-rule="evenodd" d="M75.88 108.608V108.553L75.902 108.531H81.842C82.095 108.531 82.293 108.322 82.293 108.08V108.036L82.249 107.882L82.238 107.849C81.809 107.101 81.49 106.287 81.303 105.44L81.237 105.352L81.116 105.275L81.006 105.253C79.18 105.506 77.343 105.638 75.506 105.638C73.669 105.638 71.832 105.506 70.006 105.253L69.896 105.275L69.775 105.352L69.709 105.44C69.522 106.287 69.203 107.101 68.774 107.849L68.719 108.08C68.719 108.234 68.796 108.388 68.95 108.476L68.983 108.487L69.137 108.531H69.17H75.11L75.132 108.553V108.608L75.286 108.762L75.44 108.608V108.487L75.396 108.377L75.297 108.267L75.187 108.223H69.192L69.06 108.201L69.027 108.344L69.104 108.212L69.016 108.08L69.038 108.003C69.489 107.222 69.819 106.386 70.006 105.506L69.863 105.473L69.951 105.594L70.072 105.517L69.984 105.396L69.962 105.55C71.799 105.803 73.658 105.935 75.506 105.935C77.354 105.935 79.213 105.803 81.05 105.55L81.028 105.396L80.94 105.517L81.061 105.594L81.149 105.473L81.006 105.506C81.204 106.386 81.523 107.222 81.974 108.003L82.106 107.926L81.963 107.97L82.007 108.124L82.15 108.08H81.996L81.842 108.234H75.847L75.737 108.278L75.627 108.388L75.583 108.498V108.619L75.737 108.773L75.88 108.608" fill="#131514"/>
<path fill-rule="evenodd" clip-rule="evenodd" d="M92.127 99.918H82.502C82.26 99.918 82.051 100.061 81.952 100.281C81.479 101.348 81.248 102.492 81.248 103.625C81.248 105.253 81.732 106.881 82.667 108.267V108.267C82.777 108.432 82.964 108.531 83.162 108.531H87.892C90.191 108.531 92.05 106.661 92.05 104.362V100.699L92.072 100.677H92.127L92.281 100.523L92.127 100.369H92.006L91.896 100.413L91.786 100.523L91.742 100.633V104.362C91.742 106.496 90.015 108.223 87.892 108.234H83.162C83.063 108.234 82.964 108.179 82.909 108.102V108.102C81.996 106.76 81.534 105.198 81.534 103.625C81.534 102.536 81.754 101.436 82.216 100.402C82.26 100.292 82.37 100.226 82.491 100.226H92.116L92.27 100.072L92.127 99.918" fill="#131514"/>
<path fill-rule="evenodd" clip-rule="evenodd" d="M92.127 95.617H92.072L92.05 95.595V92.68C92.05 92.427 91.852 92.229 91.599 92.229H82.502C82.26 92.229 82.051 92.372 81.952 92.592V92.592C81.479 93.659 81.248 94.792 81.248 95.936C81.248 97.135 81.501 98.323 82.018 99.434V99.434C82.117 99.643 82.326 99.786 82.568 99.786H91.599C91.852 99.786 92.05 99.577 92.05 99.335V96.409L92.072 96.387H92.127L92.281 96.233L92.127 96.079H92.006L91.896 96.123L91.786 96.233L91.742 96.343V99.335L91.588 99.489H82.557C82.436 99.489 82.337 99.423 82.282 99.313V99.313C81.787 98.246 81.534 97.091 81.534 95.947C81.534 94.847 81.754 93.758 82.216 92.724V92.724C82.26 92.614 82.37 92.537 82.491 92.548H91.588L91.742 92.702V95.694L91.786 95.804L91.896 95.914L92.006 95.958H92.127L92.281 95.804L92.127 95.617" fill="#131514"/>
<path fill-rule="evenodd" clip-rule="evenodd" d="M92.127 91.3159H92.072L92.05 91.2939V87.6309C92.05 85.3319 90.191 83.4619 87.892 83.4619H84.79C84.658 83.4619 84.526 83.5059 84.416 83.5939V83.5939C82.909 84.7819 81.864 86.4539 81.457 88.3349L81.6 88.3569L81.501 88.2359L81.391 88.3239H81.292H81.27V88.4669L81.402 88.3899L81.27 88.2029L81.138 88.2799L81.281 88.3129C81.347 88.0159 81.424 87.7189 81.523 87.4329L81.512 87.3119L81.446 87.1799L81.347 87.1029H81.325H81.314C79.378 86.8169 77.431 86.6739 75.484 86.6739C73.669 86.6739 71.854 86.7949 70.05 87.0479L69.951 87.1029L69.863 87.2239L69.83 87.3339C69.874 87.6749 69.896 88.0269 69.896 88.3679C69.896 89.3249 69.731 90.2709 69.412 91.1839C69.302 91.4919 69.247 91.8219 69.247 92.1519C69.247 92.4819 69.302 92.8009 69.412 93.1199C69.731 94.0329 69.896 94.9789 69.896 95.9249C69.896 96.8929 69.731 97.8719 69.39 98.7959C69.28 99.1149 69.214 99.4449 69.214 99.7749C69.214 100.105 69.269 100.446 69.39 100.754V100.754C69.72 101.678 69.896 102.646 69.896 103.625C69.896 103.966 69.874 104.318 69.83 104.659L69.863 104.769L69.951 104.89L70.05 104.945C71.854 105.198 73.669 105.319 75.484 105.319C77.299 105.319 79.114 105.198 80.918 104.945L81.017 104.89L81.105 104.769L81.138 104.659C81.094 104.318 81.072 103.966 81.072 103.625C81.072 102.646 81.237 101.678 81.578 100.754V100.754C81.688 100.435 81.754 100.105 81.754 99.7749C81.754 99.4449 81.699 99.1039 81.578 98.7959C81.237 97.8719 81.072 96.8929 81.072 95.9249C81.072 94.7589 81.314 93.6039 81.787 92.5259C81.908 92.2509 82.183 92.0749 82.48 92.0749H92.105L92.259 91.9209L92.105 91.7669H82.48C82.062 91.7669 81.677 92.0089 81.512 92.3939C81.017 93.5159 80.775 94.7149 80.775 95.9139C80.775 96.9149 80.951 97.9269 81.292 98.8839C81.391 99.1699 81.446 99.4669 81.446 99.7639C81.446 100.061 81.391 100.358 81.292 100.644C80.951 101.601 80.775 102.602 80.775 103.614C80.775 103.966 80.797 104.329 80.841 104.681L80.995 104.659L80.874 104.571L80.786 104.692L80.907 104.78L80.885 104.626C79.092 104.879 77.299 105 75.495 105C73.691 105 71.887 104.879 70.105 104.626L70.083 104.78L70.204 104.692L70.116 104.571L69.995 104.659L70.149 104.681C70.193 104.329 70.215 103.966 70.215 103.614C70.215 102.602 70.039 101.601 69.698 100.644C69.599 100.358 69.544 100.061 69.544 99.7639C69.544 99.4669 69.599 99.1699 69.698 98.8839C70.05 97.9269 70.215 96.9149 70.215 95.9139C70.215 94.9349 70.05 93.9449 69.72 92.9989C69.621 92.7239 69.577 92.4269 69.577 92.1409C69.577 91.8439 69.621 91.5579 69.72 91.2829C70.05 90.3479 70.215 89.3579 70.215 88.3679C70.215 88.0049 70.193 87.6529 70.149 87.2899L69.995 87.3119L70.116 87.3999L70.204 87.2789L70.083 87.1909L70.105 87.3449C71.898 87.0919 73.691 86.9709 75.495 86.9709C77.431 86.9709 79.367 87.1139 81.281 87.3999L81.303 87.2459L81.27 87.3999H81.292L81.325 87.2569L81.193 87.3229L81.259 87.4549L81.391 87.3889L81.248 87.3449C81.149 87.6419 81.061 87.9499 80.995 88.2579L81.017 88.3679L81.138 88.5439L81.248 88.6099H81.281H81.292H81.446L81.545 88.5769L81.688 88.4559L81.743 88.3679C82.139 86.5639 83.14 84.9469 84.592 83.8029L84.779 83.7369H87.881C90.015 83.7369 91.731 85.4749 91.731 87.6089V91.3599L91.775 91.4699L91.885 91.5799L91.995 91.6239H92.116L92.27 91.4699L92.127 91.3159" fill="#131514"/>
<path d="M251.016 148.39C252.842 148.39 254.317 148.786 255.461 149.204L254.625 153.098C252.502 152.119 250.62 152.184 249.938 152.272C248.563 152.448 247.936 153.153 247.925 153.812C247.881 155.98 254.613 156.244 254.591 161.095C254.58 164.912 251.313 167.375 246.319 167.397C244.185 167.375 242.139 166.925 241.028 166.419L241.886 162.393C242.986 162.899 244.383 163.592 246.77 163.548C248.145 163.537 249.608 162.987 249.619 161.755C249.63 160.941 249.003 160.369 247.155 159.467C245.351 158.587 242.953 157.102 242.986 154.462C243.008 150.887 246.319 148.39 251.016 148.39ZM220.766 148.709C221.8 148.709 222.724 149.391 222.955 150.579L224.958 161.216L229.907 148.709C229.907 148.709 234.867 148.709 234.901 148.709L227.201 167.09H222.174L218.379 152.427C218.148 151.525 217.95 151.195 217.246 150.81C216.102 150.194 214.221 149.611 212.56 149.248L212.67 148.709H220.766ZM237.772 167.09H233.02L236.947 148.709H241.699L237.772 167.09ZM271.399 167.09H267L266.427 164.351H260.334L259.343 167.09H254.349L261.477 150.062C261.818 149.237 262.589 148.709 263.502 148.709H267.56L271.399 167.09ZM261.697 160.578H265.646L264.205 153.67L261.697 160.578Z" fill="white"/>
<path d="M251.577 171.644C252.743 171.644 253.579 171.919 254.129 172.425C254.701 172.942 255.031 173.668 255.031 174.69C255.031 175.713 254.701 176.561 254.129 177.144C253.535 177.737 252.556 178.046 251.335 178.046C250.741 178.046 250.268 178.013 249.861 177.969V171.786H249.85C250.345 171.698 250.939 171.644 251.577 171.644ZM251.622 172.293C251.204 172.293 250.885 172.326 250.665 172.381V177.363C250.873 177.396 251.17 177.396 251.489 177.396C253.238 177.396 254.173 176.429 254.173 174.724C254.184 173.239 253.337 172.293 251.622 172.293Z" fill="white"/>
<path d="M258.122 173.393C259.607 173.393 259.992 174.68 259.992 175.516C259.992 175.681 259.981 175.801 259.959 175.9L256.78 175.89C256.802 177.001 257.495 177.463 258.331 177.463C258.925 177.463 259.288 177.363 259.585 177.231L259.739 177.825C259.453 177.957 258.947 178.111 258.221 178.111C256.824 178.111 255.999 177.187 255.999 175.823C255.999 174.459 256.802 173.393 258.122 173.393ZM258.045 173.965C257.209 173.965 256.846 174.724 256.78 175.296H259.19C259.201 174.779 258.969 173.965 258.045 173.965Z" fill="white"/>
<path d="M262.05 174.196H262.071C262.357 173.69 262.885 173.37 263.611 173.37C264.744 173.37 265.525 174.305 265.525 175.669C265.525 177.286 264.502 178.09 263.49 178.09C262.841 178.09 262.313 177.836 261.961 177.242H261.939L261.895 177.98H261.191C261.213 177.672 261.224 177.21 261.224 176.814L261.235 171.358H262.05V174.196ZM263.336 174.031C262.786 174.031 262.259 174.427 262.093 175.042C262.06 175.141 262.05 175.263 262.05 175.384V176.187C262.05 176.286 262.06 176.396 262.082 176.484C262.236 177.056 262.72 177.451 263.314 177.451C264.183 177.451 264.689 176.748 264.689 175.714C264.689 174.812 264.227 174.031 263.336 174.031Z" fill="white"/>
<path d="M267.615 178.002H266.79V173.481H267.615V178.002ZM267.197 171.688C267.505 171.688 267.703 171.908 267.704 172.204C267.704 172.479 267.505 172.711 267.175 172.711C266.878 172.711 266.68 172.49 266.68 172.204C266.68 171.93 266.889 171.688 267.197 171.688Z" fill="white"/>
<path d="M270.2 172.392V173.481H271.377V174.108H270.2V176.55C270.2 177.111 270.354 177.43 270.816 177.43C271.036 177.43 271.168 177.408 271.289 177.375L271.322 178.002C271.168 178.057 270.915 178.112 270.596 178.112C270.211 178.112 269.903 177.98 269.705 177.771C269.485 177.518 269.386 177.111 269.386 176.583V174.119H268.682V173.492H269.386V172.645L270.2 172.392Z" fill="white"/>
</g>
<path d="M249.073 61.4976H246.441V64.2867H249.073C250.064 64.2867 250.716 63.8175 250.716 62.9052C250.716 61.9929 250.064 61.4976 249.073 61.4976ZM262.732 53.5213C262.732 55.5806 261.168 56.6754 259.396 56.6754C257.623 56.6754 256.059 55.5806 256.059 53.5213V48.4905H257.258V53.4953C257.258 54.8246 258.171 55.5806 259.396 55.5806C260.621 55.5806 261.533 54.8246 261.533 53.4953V48.4905H262.732V53.5213V53.5213ZM251.993 56.4929H250.742L246.441 50.0806V56.4929H245.242V48.4645H246.858L250.82 54.4597V48.4645H252.019V56.4929H251.993ZM245.216 60.4289H249.282C250.924 60.4289 251.941 61.4716 251.941 62.9313C251.941 64.1825 251.133 65.0687 249.829 65.3033L251.915 68.4573H250.507L248.526 65.3815H246.415V68.4573H245.19V60.4289H245.216ZM256.424 60.4289H262.472V61.654H260.073V67.2844H262.472V68.5095H256.424V67.2844H258.822V61.654H256.424V60.4289ZM270.5 66.7109V50.2891C270.5 45.7014 266.799 42 262.211 42H245.789C241.201 42 237.5 45.7014 237.5 50.2891V66.7109C237.5 71.2986 241.201 75 245.789 75H262.211C266.773 75 270.5 71.2986 270.5 66.7109Z" fill="#F0F0F0"/>
<defs>
<filter id="filter0_d_387_13073" x="0.5" y="0" width="326" height="254.5" filterUnits="userSpaceOnUse" color-interpolation-filters="sRGB">
<feFlood flood-opacity="0" result="BackgroundImageFix"/>
<feColorMatrix in="SourceAlpha" type="matrix" values="0 0 0 0 0 0 0 0 0 0 0 0 0 0 0 0 0 0 127 0" result="hardAlpha"/>
<feOffset dx="6" dy="6"/>
<feGaussianBlur stdDeviation="17.5"/>
<feColorMatrix type="matrix" values="0 0 0 0 0 0 0 0 0 0 0 0 0 0 0 0 0 0 0.25 0"/>
<feBlend mode="normal" in2="BackgroundImageFix" result="effect1_dropShadow_387_13073"/>
<feBlend mode="normal" in="SourceGraphic" in2="effect1_dropShadow_387_13073" result="shape"/>
</filter>
</defs>
</svg>
