<svg width="32" height="32" viewBox="0 0 32 32" fill="none" xmlns="http://www.w3.org/2000/svg">
<path d="M9.31352 20.2055H5.71174V24.1014H9.31352C10.6686 24.1014 11.5602 23.446 11.5602 22.1717C11.5602 20.8973 10.6686 20.2055 9.31352 20.2055ZM28 9.06372C28 11.9402 25.8603 13.4694 23.4354 13.4694C21.0104 13.4694 18.8707 11.9402 18.8707 9.06372V2.03641H20.5111V9.02731C20.5111 10.8843 21.7593 11.9402 23.4354 11.9402C25.1114 11.9402 26.3596 10.8843 26.3596 9.02731V2.03641H28V9.06372ZM13.3076 13.2146H11.5958L5.71174 4.25748V13.2146H4.07132V2H6.28232L11.7028 10.3745V2H13.3432V13.2146H13.3076ZM4.03566 18.7126H9.59881C11.8455 18.7126 13.2363 20.169 13.2363 22.2081C13.2363 23.9558 12.1308 25.1938 10.3477 25.5214L13.2006 29.9272H11.2749L8.56464 25.6307H5.67608V29.9272H4V18.7126H4.03566ZM19.37 18.7126H27.6434V20.4239H24.3626V28.2887H27.6434V30H19.37V28.2887H22.6508V20.4239H19.37V18.7126Z" fill="#2C232E"/>
</svg>
