<svg width="327" height="255" viewBox="0 0 327 255" fill="none" xmlns="http://www.w3.org/2000/svg">
<g filter="url(#filter0_d_423_13493)">
<path fill-rule="evenodd" clip-rule="evenodd" d="M276.52 29.3333C276.52 29.3333 285.5 29.3333 285.5 38.403L285.434 183.264C285.434 183.264 285.434 192.333 276.443 192.333H38.4798C38.4798 192.333 29.5 192.333 29.5 183.264L29.5771 38.403C29.5771 38.403 29.5771 29.3333 38.5568 29.3333H276.52Z" fill="#2C232E"/>
<path d="M142.56 185.824C143.538 184.95 144.284 183.741 144.555 182.416C144.902 180.989 144.787 179.536 144.324 178.224C142.101 171.009 137.923 164.256 133.745 158.146C129.567 152.036 125.08 146.338 120.336 140.768C117.443 137.231 114.473 133.796 111.504 130.362C119.733 137.18 127.73 144.307 135.663 151.626C138.839 154.572 141.937 157.621 145.036 160.67C146.527 162.11 148.019 163.551 149.343 165.108C150.449 166.42 151.837 168.426 153.071 169.995C155.064 172.375 157.803 173.546 160.427 171.978C162.639 170.744 164.158 167.22 162.757 164.481C154.479 148.3 143.872 133.83 132.109 120.259C122.119 108.823 111.293 97.9664 99.8499 87.9323C101.779 89.2189 103.707 90.5054 105.636 91.7919C111.345 95.7544 116.81 99.9354 122.236 104.489C127.675 109.133 132.972 114.073 137.935 119.244C139.336 120.698 140.84 122.229 142.255 123.772C143.772 125.393 144.659 126.461 145.867 127.85C147.076 129.239 148.349 131.079 149.506 132.751C149.853 133.252 150.187 133.664 150.444 134.178C150.38 134.371 150.405 134.551 150.418 134.641C150.134 137.805 152.011 140.661 155.085 141.6C160.936 143.338 163.446 135.815 161.273 130.889C159.371 126.567 155.604 122.695 152.544 119.274C146.913 113.279 140.947 107.516 134.672 102.165C122.355 91.1531 109.175 81.183 95.2242 72.2414C91.4824 69.8356 87.6634 67.5326 83.7801 65.4225C79.2667 62.7592 74.3545 61.1633 69.1461 60.7118C67.2042 60.6213 65.339 62.357 64.6826 64.1959C64.2837 65.2632 64.1548 66.292 64.3089 67.3723C64.4629 68.4526 64.797 69.5073 65.4784 70.4205C68.1652 74.4465 71.7139 77.4311 75.1983 80.6085C78.3484 83.3743 81.5629 85.9472 84.7258 88.803C91.1417 94.5018 97.4033 100.406 103.6 106.504C106.712 109.642 109.823 112.781 112.858 116.023C114.259 117.476 115.57 118.943 116.985 120.486L117.203 120.731C109 113.45 100.475 106.49 91.8348 100.006C84.8529 94.8474 77.6137 89.8171 69.8083 86.6129C66.9793 85.4548 64.0212 85.9684 62.503 88.8488C60.9847 91.7291 61.7298 95.0216 64.0698 97.2599C74.5741 107.795 84.9369 118.626 94.9781 129.779C96.1737 131.078 97.3823 132.467 98.578 133.767C99.0151 134.255 99.4522 134.744 99.8894 135.233L101.214 136.789L101.548 137.201L101.561 137.291C102.988 138.925 104.415 140.558 105.752 142.205C102.833 139.774 99.8245 137.355 96.8286 135.026C94.1542 133.02 91.2098 130.408 88.2651 129.083C83.7387 126.973 79.2888 127.975 77.1013 132.604C75.6988 135.651 77.5367 140.166 80.4942 141.581C81.9858 142.379 83.7348 142.405 85.2139 141.827C86.4226 142.573 87.5413 143.332 88.7628 144.168C89.3672 144.541 89.9843 145.004 90.5887 145.378L90.8973 145.609L91.8231 146.304C93.0446 147.14 94.1761 147.989 95.4105 148.915C100.142 152.466 104.707 156.132 109.207 159.992C113.707 163.851 118.22 167.8 122.476 171.878C124.61 173.962 126.744 176.046 128.879 178.13C131.013 180.214 133.443 183.082 135.41 185.282C137.159 187.237 140.219 187.444 142.56 185.824Z" fill="#6E9E96"/>
<path d="M125.619 82.3591C129.934 83.6237 134.174 84.9627 138.488 86.3016L149.423 89.649C149.646 89.7234 149.795 89.8722 149.646 90.0953C149.348 90.6904 148.977 91.2855 148.53 91.8062C147.786 92.7732 146.745 94.1866 145.406 94.1866C141.91 94.3353 138.414 95.0792 135.141 96.3438C134.917 96.4182 134.397 96.5669 134.248 96.3438C134.322 96.9389 134.322 97.4596 134.174 97.9803L134.099 98.9473C133.207 100.807 132.983 100.212 131.942 101.923C130.901 103.559 123.536 104.824 121.751 105.121C121.751 105.121 111.56 98.2778 112.825 91.955C114.089 85.6321 125.619 82.3591 125.619 82.3591Z" fill="#FF8C5A"/>
<path d="M195.242 68.1765C191.595 65.3402 186.801 64.4624 182.276 63.5845C167.015 60.6807 151.955 56.764 137.234 51.8343C137.099 51.6992 136.964 51.6317 136.829 51.4966C136.086 51.2941 135.411 51.0915 134.668 50.8889C132.845 50.3486 130.954 49.7409 129.063 49.3357C126.969 49.4708 124.944 50.2811 123.323 51.6317C119.271 55.2783 118.461 61.4235 121.567 65.948C123.593 68.7843 126.902 70.405 130.076 71.8231C147.836 79.7241 167.015 83.9785 186.463 84.4512C190.853 84.5187 195.985 84.046 198.416 80.3994C200.915 76.5502 198.889 71.0127 195.242 68.1765Z" fill="#0038FF"/>
<path d="M188.894 73.444C188.759 76.1452 186.531 77.4958 184.1 77.3607C170.256 76.4153 156.683 73.444 143.312 69.8649C141.624 69.3922 140.003 68.9195 138.315 68.4468C135.951 67.7715 132.98 67.4338 131.494 65.3404C130.886 64.4625 130.549 63.3145 130.684 62.234C130.819 61.1536 131.292 60.1406 132.102 59.3303C132.845 58.655 133.858 58.1823 134.871 58.0472C135.884 57.9121 136.964 58.0472 137.909 58.5199C139.53 59.1952 141.016 60.0056 142.637 60.6809C144.257 61.3562 145.81 61.9639 147.431 62.5717C148.241 62.9093 148.984 63.1795 149.727 63.4496L150.808 63.7872C150.267 63.6522 150.875 63.7872 150.943 63.8548L151.685 64.0573C154.994 65.0703 158.371 65.8806 161.815 66.5559C165.597 67.2988 169.378 67.9065 173.227 68.3117C175.186 68.5143 177.212 68.7169 179.17 68.852C180.116 68.9195 181.128 68.987 182.074 69.0545H182.344H182.817L184.572 69.1221C186.936 69.1896 189.029 70.7428 188.894 73.444Z" fill="#2C232E"/>
<path d="M152.12 72.5671C143.132 71.8445 133.956 77.0848 130.008 85.192C128.363 88.57 127.581 92.324 127.341 96.0721C127.106 99.6734 127.358 103.333 128.433 106.782C131.929 118.009 144.847 125.264 156.315 122.667C167.783 120.071 176.272 108.209 175.314 96.4951C174.356 84.7808 164.275 74.5469 152.608 73.1252" fill="#BEAAFF"/>
<path d="M152.578 72.3676C142.192 71.5862 131.835 77.9897 128.386 87.8946C127.335 90.9201 126.841 94.1336 126.729 97.3295C126.612 100.625 126.923 103.968 127.94 107.123C129.408 111.688 132.487 115.629 136.335 118.455C140.206 121.299 144.888 123.049 149.688 123.355C154.488 123.66 159.311 122.432 163.423 119.942C171.889 114.813 177.217 104.597 175.678 94.6917C174.139 84.8221 166.273 76.3859 156.738 73.6718C155.533 73.331 154.312 73.0843 153.072 72.9257C152.831 72.8963 152.514 72.9609 152.296 73.0784C152.232 73.1137 151.897 73.2958 152.15 73.331C161.649 74.5295 170.044 81.4558 173.358 90.3914C176.753 99.5502 173.857 109.884 166.919 116.593C163.453 119.942 159.017 122.338 154.188 122.867C149.594 123.372 144.882 122.321 140.794 120.206C136.722 118.103 133.186 114.907 130.877 110.93C128.004 105.971 127.434 100.067 128.016 94.4568C128.598 88.864 130.583 83.465 134.584 79.4173C138.103 75.8572 142.809 73.4015 147.808 72.8434C149.083 72.7024 150.375 72.6789 151.656 72.7729C151.909 72.7905 152.208 72.7435 152.432 72.6202C152.49 72.5849 152.837 72.3852 152.578 72.3676Z" fill="#BEAAFF"/>
<path d="M172.884 94.2422C172.884 94.3832 172.931 94.5241 172.948 94.6593C172.948 94.6886 172.948 94.8003 172.948 94.8825C172.948 94.9648 172.948 95.0764 172.948 95.1057C172.948 95.3114 172.978 95.5229 172.984 95.7343C173.016 96.2979 173.016 96.8628 172.984 97.4263C172.984 97.7083 172.96 97.9903 172.913 98.2723C172.913 98.4133 172.872 98.5542 172.86 98.6894C172.859 98.7148 172.859 98.7403 172.86 98.7657L172.825 98.9479C172.604 100.135 172.264 101.296 171.809 102.414C171.756 102.549 171.703 102.678 171.644 102.808C171.646 102.819 171.646 102.831 171.644 102.843C171.515 103.095 171.398 103.36 171.262 103.607C170.965 104.174 170.638 104.725 170.281 105.257C170.123 105.492 169.964 105.727 169.8 105.956L169.541 106.297L169.388 106.491L169.241 106.667L168.895 107.073C168.683 107.308 168.466 107.543 168.243 107.772C167.843 108.183 167.432 108.577 167.003 108.947C166.762 109.158 166.516 109.364 166.269 109.569L165.934 109.834L165.634 110.063L165.464 110.18L165.112 110.427L164.395 110.897C163.848 111.238 163.29 111.561 162.72 111.861C162.151 112.16 161.669 112.389 161.134 112.624L160.623 112.842L159.948 113.088C158.879 113.458 157.788 113.76 156.681 113.993C156.129 114.105 155.577 114.205 155.013 114.281C154.866 114.281 154.126 114.381 154.643 114.334C154.343 114.363 154.055 114.393 153.744 114.41C152.618 114.493 151.488 114.504 150.36 114.446C149.796 114.414 149.232 114.367 148.668 114.305L147.922 114.205H147.875L147.387 114.117C146.279 113.91 145.184 113.636 144.109 113.294C143.575 113.124 143.04 112.936 142.517 112.707L142.012 112.501C141.753 112.389 141.495 112.266 141.236 112.143C140.22 111.655 139.238 111.098 138.299 110.474C137.888 110.198 137.482 109.887 137.124 109.611L136.683 109.252C136.419 109.029 136.166 108.806 135.914 108.571C135.07 107.785 134.284 106.939 133.564 106.039C133.482 105.933 133.394 105.827 133.311 105.716L133.223 105.592C133.1 105.416 132.971 105.24 132.853 105.064C132.506 104.558 132.177 104.041 131.872 103.518C131.566 102.996 131.349 102.567 131.114 102.085C130.997 101.838 130.879 101.597 130.773 101.351L130.615 100.975L130.58 100.898C130.58 100.898 130.58 100.834 130.538 100.781C130.147 99.7122 129.843 98.6141 129.628 97.4968C129.575 97.2324 129.534 96.9681 129.493 96.7037C129.493 96.5921 129.493 96.4746 129.452 96.363C129.452 96.363 129.452 96.3218 129.452 96.2924C129.405 95.705 129.369 95.1175 129.375 94.483C129.381 93.8485 129.405 93.4079 129.457 92.8733C129.457 92.6207 129.51 92.3681 129.551 92.1155C129.551 92.0626 129.551 91.9627 129.581 91.9392C129.622 91.7277 129.657 91.5163 129.704 91.3048C129.968 90.1365 130.336 88.9942 130.803 87.8915C130.803 87.962 131.032 87.4039 131.055 87.351C131.179 87.0925 131.314 86.8399 131.449 86.5873C131.754 85.9998 132.089 85.4711 132.448 84.9306C132.753 84.4783 133.07 84.0376 133.405 83.6088L133.54 83.4502L133.817 83.1271C134.052 82.8627 134.287 82.5983 134.533 82.3398C135.371 81.4722 136.274 80.6708 137.236 79.9429L137.353 79.8607L137.7 79.6139L138.411 79.144C138.951 78.7973 139.509 78.4742 140.073 78.1746C140.637 77.875 141.09 77.6635 141.612 77.4344C142.112 77.2093 142.624 77.0132 143.146 76.8469C145.317 76.1122 147.598 75.7526 149.89 75.7836C152.292 75.8197 154.673 76.2443 156.94 77.0408C156.934 77.4561 157.067 77.8615 157.317 78.1933C157.567 78.525 157.92 78.7644 158.32 78.8737C158.873 78.9838 159.416 79.133 159.948 79.3202C160.077 79.3613 160.2 79.4142 160.324 79.4612L160.6 79.5728L160.893 79.7079C161.105 79.7961 161.311 79.8783 161.528 79.9547L161.634 79.9958L161.904 80.1192C162.174 80.2484 162.444 80.3894 162.709 80.5363C163.102 80.7536 163.49 80.9886 163.884 81.2413C164.119 81.4645 164.348 81.6936 164.571 81.9227C164.791 82.1545 165.075 82.3142 165.388 82.381C165.787 82.7158 166.169 83.0624 166.563 83.4267C167.467 84.2974 168.318 85.2214 169.112 86.1937C169.212 86.3112 169.312 86.4346 169.406 86.5579L169.67 86.8987L169.829 87.1102L170.099 87.492C170.475 88.0384 170.834 88.5965 171.163 89.1663C171.492 89.7362 171.791 90.3413 172.061 90.9288C172.12 91.0756 172.185 91.2166 172.243 91.3576V91.4046C172.349 91.7395 172.473 92.0626 172.572 92.3975C172.753 92.991 172.897 93.5953 173.001 94.2069L172.884 94.2422ZM175.034 86.6931C173.567 84.2491 171.77 82.0192 169.694 80.0663C167.725 78.1291 165.396 76.5963 162.838 75.5545C162.125 75.2891 161.377 75.1307 160.617 75.0845C158.463 73.936 156.145 73.1256 153.744 72.6817C148.405 71.7411 142.904 72.566 138.076 75.0316C133.156 77.4496 129.206 81.4686 126.873 86.4287C125.733 88.8611 125.084 91.4947 124.964 94.1783C124.844 96.862 125.255 99.5429 126.173 102.067C128.058 107.137 131.506 111.476 136.02 114.457C140.351 117.263 145.361 118.847 150.519 119.04C161.293 119.515 172.508 113.623 176.397 103.301C177.406 100.606 177.797 97.7186 177.541 94.8522C177.284 91.9857 176.388 89.2135 174.917 86.7401" fill="#2C232E"/>
<path d="M161.545 92.8143C161.308 92.9687 161.058 93.1043 160.799 93.2196C159.624 93.6661 158.297 93.5427 157.092 93.4546C155.747 93.3548 154.408 93.1903 153.074 93.0023C150.66 92.6542 148.269 92.1638 145.913 91.5336C146.306 90.0707 146.641 88.5962 146.905 87.0922C146.968 86.7687 146.956 86.4352 146.87 86.117C150.855 86.9005 154.69 88.3124 158.232 90.2999C159.269 90.8372 160.253 91.4726 161.169 92.1974C161.331 92.3359 161.476 92.4915 161.604 92.6615L161.645 92.7203C161.592 92.7203 161.498 92.8436 161.545 92.8143ZM160.159 102.29C160.13 102.29 160.294 102.519 160.306 102.549C160.318 102.578 160.359 102.619 160.365 102.613C160.37 102.608 160.365 102.655 160.365 102.678C160.318 102.584 160.365 102.596 160.365 102.678C160.199 102.795 160.024 102.899 159.842 102.989C159.654 103.094 159.457 103.183 159.254 103.254C158.62 103.468 157.955 103.577 157.286 103.577C154.46 103.624 151.558 102.737 148.832 101.961C146.828 101.418 144.876 100.698 142.999 99.8111C143.55 98.7761 143.989 97.685 144.309 96.5565C144.497 96.0278 144.679 95.499 144.855 94.9703C147.12 95.6354 149.347 96.4198 151.529 97.3202C154.144 98.3285 156.633 99.6397 158.943 101.227C159.402 101.518 159.812 101.878 160.159 102.296V102.29ZM162.039 89.0779C160.917 88.3553 159.754 87.6856 158.561 87.0746C159.086 86.0973 159.464 85.0482 159.683 83.961C159.772 83.5262 159.694 83.0737 159.464 82.6941C159.234 82.3145 158.869 82.0356 158.443 81.9131C158.016 81.7907 157.559 81.8338 157.163 82.0337C156.766 82.2336 156.46 82.5757 156.305 82.9916C156.123 83.679 155.888 84.3428 155.665 85.0126C155.6 85.2123 155.518 85.412 155.442 85.6C155.13 85.4708 154.825 85.3415 154.513 85.224L153.597 84.8716C153.685 84.5778 153.755 84.2841 153.814 83.9962C153.997 83.1722 154.095 82.3317 154.108 81.4877C154.108 79.4433 150.877 79.3786 150.9 81.4172C150.923 82.0254 150.878 82.6343 150.765 83.2325C150.717 83.461 150.657 83.6866 150.583 83.9081C148.835 83.428 147.057 83.0629 145.261 82.8154C143.915 82.6215 143.345 84.4603 144.05 85.3239C143.803 85.5264 143.629 85.8053 143.557 86.117C143.104 88.219 142.516 90.2893 141.794 92.3149C141.465 93.2431 141.084 94.1831 140.702 95.0114C140.249 95.9867 139.615 96.9207 139.233 97.9488C138.768 97.8944 138.298 97.9899 137.891 98.2213C137.484 98.4527 137.162 98.808 136.971 99.2354C136.755 99.7201 136.723 100.267 136.882 100.774C137.041 101.28 137.38 101.711 137.835 101.985C139.255 102.769 140.727 103.456 142.241 104.041C142.059 104.863 141.883 105.686 141.7 106.503C141.436 107.73 141.013 109.099 141.924 110.139C142.153 110.363 142.448 110.507 142.765 110.551C143.082 110.594 143.405 110.534 143.686 110.38C144.773 109.845 144.937 108.418 145.143 107.354L145.566 105.181C146.153 105.363 146.77 105.533 147.375 105.692C147.981 105.85 148.727 106.027 149.402 106.185C149.384 106.263 149.373 106.341 149.367 106.42C149.247 107.508 149.247 108.605 149.367 109.693C149.602 111.014 151.558 110.92 151.923 109.734C152.163 108.773 152.288 107.787 152.293 106.796C153.968 107.177 155.686 107.343 157.404 107.29C159.326 107.251 161.183 106.585 162.691 105.392C163.39 104.797 163.836 103.957 163.936 103.044C164.037 102.131 163.785 101.214 163.231 100.481C162.233 99.0944 160.711 98.178 159.266 97.2909C158.931 97.0852 158.59 96.8855 158.25 96.7034C159.487 96.7733 160.727 96.5997 161.898 96.1923C163.408 95.6048 164.871 94.4298 164.777 92.6674C164.688 91.0166 163.337 89.9356 162.051 89.1014" fill="#2C232E"/>
<path d="M152.919 100.733C152.919 99.9144 152.473 99.0962 151.729 98.6498C149.423 97.3853 144.588 99.9144 144.365 100.063C138.562 103.857 130.677 107.576 120.858 111.072C120.635 110.998 120.338 110.998 120.115 111.147C118.032 112.263 115.875 112.263 113.569 111.965C113.42 111.667 113.345 111.37 113.271 111.072C113.271 110.775 113.494 110.477 113.643 110.18C113.866 109.733 114.015 109.287 114.238 108.841C114.61 107.948 114.907 107.056 115.131 106.163H115.205L121.677 105.121L124.28 95.8975L125.545 82.4336C124.28 82.1361 122.941 82.1361 121.677 82.4336C119.445 82.8055 117.213 83.1031 115.056 83.5494C110.667 84.442 106.279 85.8554 102.634 88.5333C101.741 89.2028 100.923 90.021 100.328 90.9137C99.5839 92.0295 98.9888 93.1452 98.3937 94.3354C97.4267 96.4926 96.6828 98.6498 96.0877 100.956C94.9719 105.493 94.3025 110.105 93.1867 114.643C92.666 116.949 91.9221 119.18 91.0295 121.412C90.5831 122.379 90.0624 123.346 89.5417 124.313C89.2442 124.759 88.9466 125.28 88.7235 125.801C88.5003 126.396 88.2772 126.917 87.9796 127.512C87.9052 127.735 87.7564 127.884 87.6821 128.107C86.6407 129.371 85.5249 130.562 84.3347 131.677C82.1031 133.76 80.0203 135.992 78.235 138.447C78.1606 138.521 78.1606 138.67 78.235 138.744C78.6813 139.19 79.202 139.637 79.7227 140.009C79.9459 140.529 80.2434 140.976 80.6154 141.348C80.9873 141.72 81.3592 142.017 81.7312 142.463C82.1031 142.835 82.475 143.43 82.8469 143.877C83.6652 144.769 84.5578 145.588 85.5992 146.257C87.6821 147.67 89.988 148.786 92.4428 149.679C94.6 150.497 96.6828 151.39 98.9888 151.39C99.2863 151.539 99.5839 151.687 99.9558 151.836C100.402 151.985 100.848 151.836 101.072 151.539L103.675 148.34L104.121 147.894C104.196 147.819 104.345 147.67 104.419 147.522C104.493 147.447 104.493 147.447 104.568 147.373C105.535 146.555 106.576 145.811 107.618 145.067C108.361 144.472 109.105 143.877 109.849 143.282C112.453 142.835 114.982 141.794 117.139 140.232C120.933 137.628 123.536 133.835 125.322 129.743C127.181 127.809 129.041 125.726 130.752 123.644C130.826 123.569 130.826 123.495 130.901 123.421L131.049 123.272C131.347 122.974 131.57 122.677 131.868 122.379H131.942C135.141 117.618 143.844 113.453 143.918 113.378C143.993 113.304 153.663 108.618 152.919 100.733Z" fill="#FF8C5A"/>
<path d="M106.055 144.398C99.5839 140.529 93.4842 136.066 87.7564 131.157C87.0869 130.487 86.1943 129.967 85.3017 129.669C84.5578 129.446 83.8139 129.52 83.0701 129.818C82.4006 129.818 81.7311 130.115 81.3592 130.636C76.3009 133.537 71.317 136.661 66.4819 139.934C63.9528 141.645 61.4236 143.356 58.8945 145.067C56.4398 146.778 53.985 148.489 51.5303 150.125C48.778 151.985 46.1744 153.993 43.7197 156.225C43.2734 156.671 43.0502 157.341 43.199 158.01C43.199 158.531 43.4221 159.126 43.7941 159.498C47.5134 163.515 52.9436 165.672 57.7787 167.978C63.1345 170.507 68.5647 172.962 73.9949 175.268C76.8216 176.458 79.6483 177.648 82.475 178.764C85.0785 179.805 88.5003 181.888 90.955 179.657C91.8477 178.69 92.5915 177.574 93.1866 176.309C93.9305 175.045 94.6 173.78 95.2695 172.516C96.6084 169.986 97.9474 167.383 99.2119 164.779C102.113 158.903 104.642 152.803 106.948 146.629C107.171 145.737 106.799 144.844 106.055 144.398Z" fill="#BEAAFF"/>
<path d="M119.296 95.6745C119.296 95.4513 119.222 95.2282 119.148 95.0794C119.073 94.9306 118.999 94.7818 118.85 94.6331C118.701 94.4843 118.552 94.4099 118.329 94.4099C118.106 94.4099 117.957 94.4843 117.809 94.6331C117.66 94.7818 117.585 94.9306 117.511 95.0794L117.065 96.1952C116.693 97.1622 116.246 98.2036 115.875 99.245C115.354 100.658 114.907 102.072 114.536 103.559C113.717 106.609 113.122 109.734 112.825 112.858C112.75 113.304 112.899 113.825 113.345 114.122C113.494 114.197 113.643 114.271 113.792 114.271C113.866 114.271 114.015 114.271 114.089 114.197C114.387 114.048 114.61 113.676 114.61 113.304C114.907 110.254 115.354 107.279 116.098 104.303C116.693 101.849 117.511 99.5426 118.552 97.2366C118.701 97.1622 118.85 97.0878 118.924 97.0134C119.073 96.7903 119.222 96.5671 119.222 96.344C119.371 96.1208 119.371 95.8976 119.296 95.6745Z" fill="#2C232E"/>
<path d="M154.481 99.3937L152.473 96.9389C152.324 96.7902 152.101 96.6414 151.952 96.567C151.654 96.3438 151.357 96.1951 150.91 96.1951C150.39 96.1951 149.943 96.4182 149.646 96.7158C149.423 96.7158 149.125 96.7902 148.902 96.9389H148.828C147.34 97.906 146.075 99.1705 145.108 100.658C144.141 102.072 143.546 104.154 144.513 105.717C145.703 107.651 148.233 107.799 150.092 106.684C150.91 106.163 151.654 105.642 152.324 104.973C152.993 104.378 153.588 103.857 154.183 103.262C154.853 102.815 155.225 102.072 155.299 101.328C155.448 100.658 155.076 99.9144 154.481 99.3937Z" fill="#0038FF"/>
<path fill-rule="evenodd" clip-rule="evenodd" d="M87.749 83.7183C90.07 83.7183 91.962 85.6213 91.962 88.1183V104.86C91.962 107.049 90.081 108.952 87.749 108.952H63.087C60.766 108.952 58.874 107.049 58.874 104.706V87.9643C58.874 85.6213 60.755 83.7183 63.087 83.7183H87.749Z" fill="#D7D8D7"/>
<path fill-rule="evenodd" clip-rule="evenodd" d="M87.892 83.7183V84.0923C90.015 84.0923 91.742 85.8193 91.742 87.9643V104.706C91.742 106.84 90.015 108.567 87.892 108.578H63.109C60.975 108.578 59.259 106.851 59.259 104.706V87.9643C59.259 85.8303 60.986 84.1033 63.109 84.0923H87.892V83.3333H63.109C60.568 83.3333 58.5 85.4013 58.5 87.9643V104.706C58.5 107.258 60.568 109.337 63.109 109.337H87.892C90.433 109.337 92.501 107.269 92.501 104.706V87.9643C92.501 85.4123 90.433 83.3443 87.892 83.3333V83.7183Z" fill="#1A1919"/>
<path fill-rule="evenodd" clip-rule="evenodd" d="M58.874 96.7093H58.94L58.962 96.7313V99.6573C58.962 99.9103 59.16 100.108 59.413 100.108H68.444C68.675 100.108 68.895 99.9763 68.994 99.7563C69.511 98.6453 69.764 97.4573 69.764 96.2583C69.764 95.1253 69.533 93.9813 69.06 92.9143C68.961 92.6943 68.752 92.5513 68.51 92.5513H59.402C59.149 92.5513 58.951 92.7493 58.951 93.0023V95.9283L58.94 95.9503H58.874L58.72 96.1043L58.874 96.2583H58.995L59.105 96.2143L59.215 96.1043L59.259 95.9943V93.0133L59.413 92.8593H68.51C68.631 92.8593 68.741 92.9253 68.785 93.0353C69.236 94.0583 69.467 95.1583 69.467 96.2583C69.467 97.4133 69.214 98.5573 68.719 99.6243C68.664 99.7343 68.565 99.8003 68.444 99.8003H59.402L59.248 99.6463V96.6543L59.204 96.5443L59.094 96.4343L58.984 96.3903H58.874L58.72 96.5443L58.874 96.7093Z" fill="#131514"/>
<path fill-rule="evenodd" clip-rule="evenodd" d="M58.874 101.01H58.94L58.962 101.032V104.695C58.962 106.994 60.821 108.864 63.12 108.864H67.85C68.048 108.864 68.235 108.765 68.356 108.6C69.302 107.203 69.775 105.586 69.775 103.958C69.775 102.825 69.544 101.681 69.071 100.614C68.972 100.394 68.763 100.251 68.521 100.251H58.874L58.72 100.405L58.874 100.559H68.499C68.62 100.559 68.73 100.636 68.774 100.735C69.225 101.769 69.456 102.858 69.456 103.958C69.456 105.531 68.994 107.093 68.081 108.435C68.026 108.512 67.927 108.567 67.828 108.567H63.098C60.975 108.567 59.248 106.84 59.248 104.695V100.966L59.204 100.856L59.094 100.746L58.984 100.702H58.874L58.72 100.856L58.874 101.01Z" fill="#131514"/>
<path fill-rule="evenodd" clip-rule="evenodd" d="M58.874 92.3972H68.51C68.752 92.3972 68.961 92.2542 69.06 92.0342C69.533 90.9672 69.764 89.8342 69.764 88.7012C69.764 87.0622 69.28 85.4452 68.334 84.0482C68.224 83.8832 68.026 83.7842 67.828 83.7842H63.109C60.81 83.7842 58.951 85.6542 58.951 87.9532V91.6162L58.94 91.6492H58.874L58.731 91.7922L58.885 91.9462H59.006L59.116 91.9022L59.226 91.7922L59.27 91.6822V87.9642C59.27 85.8302 60.997 84.1032 63.12 84.0922H67.839C67.938 84.0922 68.037 84.1472 68.092 84.2242C69.005 85.5662 69.467 87.1282 69.467 88.7012C69.467 89.7902 69.247 90.8902 68.796 91.9132C68.73 92.0342 68.62 92.1002 68.51 92.1002H58.874L58.731 92.2542L58.874 92.3972Z" fill="#131514"/>
<path fill-rule="evenodd" clip-rule="evenodd" d="M75.121 83.7182V83.7732L75.11 83.7842H69.17C68.917 83.7842 68.719 83.9932 68.719 84.2352V84.2792L68.752 84.4332L68.763 84.4662C69.203 85.2142 69.511 86.0282 69.698 86.8752L69.764 86.9632L69.885 87.0402L69.995 87.0622C71.821 86.8092 73.658 86.6772 75.495 86.6772C77.519 86.6772 79.543 86.8312 81.556 87.1392L81.655 87.1172L81.765 87.0512L81.831 86.9742C82.227 86.0612 82.788 85.2362 83.481 84.5212C83.569 84.4332 83.613 84.3232 83.613 84.2022C83.613 84.0812 83.569 83.9602 83.47 83.8722L83.415 83.8832L83.206 83.7952L83.151 83.7842H75.891L75.88 83.7732V83.7182L75.726 83.5642L75.572 83.7182V83.8392L75.616 83.9492L75.715 84.0592L75.825 84.1032H83.118L83.294 84.1802L83.349 84.0372L83.239 84.1472L83.283 84.2572L83.239 84.3672C82.524 85.1042 81.941 85.9622 81.534 86.9082L81.677 86.9742L81.611 86.8422L81.501 86.9082L81.578 87.0402L81.6 86.8642C79.576 86.5562 77.541 86.3912 75.495 86.3912C73.647 86.3912 71.788 86.5232 69.951 86.7762L69.973 86.9302L70.061 86.8092L69.94 86.7212L69.863 86.8532L70.006 86.8202C69.808 85.9402 69.489 85.0932 69.038 84.3232L68.906 84.4002L69.049 84.3562L69.005 84.2022L68.862 84.2462H69.016L69.17 84.0922H75.176L75.286 84.0482L75.396 83.9382L75.44 83.8282V83.7182L75.286 83.5642L75.121 83.7182Z" fill="#131514"/>
<path fill-rule="evenodd" clip-rule="evenodd" d="M75.88 108.941V108.886L75.902 108.864H81.842C82.095 108.864 82.293 108.655 82.293 108.413V108.369L82.249 108.215L82.238 108.182C81.809 107.434 81.49 106.62 81.303 105.773L81.237 105.685L81.116 105.608L81.006 105.586C79.18 105.839 77.343 105.971 75.506 105.971C73.669 105.971 71.832 105.839 70.006 105.586L69.896 105.608L69.775 105.685L69.709 105.773C69.522 106.62 69.203 107.434 68.774 108.182L68.719 108.413C68.719 108.567 68.796 108.721 68.95 108.809L68.983 108.82L69.137 108.864H69.17H75.11L75.132 108.886V108.941L75.286 109.095L75.44 108.941V108.82L75.396 108.71L75.297 108.6L75.187 108.556H69.192L69.06 108.534L69.027 108.677L69.104 108.545L69.016 108.413L69.038 108.336C69.489 107.555 69.819 106.719 70.006 105.839L69.863 105.806L69.951 105.927L70.072 105.85L69.984 105.729L69.962 105.883C71.799 106.136 73.658 106.268 75.506 106.268C77.354 106.268 79.213 106.136 81.05 105.883L81.028 105.729L80.94 105.85L81.061 105.927L81.149 105.806L81.006 105.839C81.204 106.719 81.523 107.555 81.974 108.336L82.106 108.259L81.963 108.303L82.007 108.457L82.15 108.413H81.996L81.842 108.567H75.847L75.737 108.611L75.627 108.721L75.583 108.831V108.952L75.737 109.106L75.88 108.941Z" fill="#131514"/>
<path fill-rule="evenodd" clip-rule="evenodd" d="M92.127 100.251H82.502C82.26 100.251 82.051 100.394 81.952 100.614C81.479 101.681 81.248 102.825 81.248 103.958C81.248 105.586 81.732 107.214 82.667 108.6C82.777 108.765 82.964 108.864 83.162 108.864H87.892C90.191 108.864 92.05 106.994 92.05 104.695V101.032L92.072 101.01H92.127L92.281 100.856L92.127 100.702H92.006L91.896 100.746L91.786 100.856L91.742 100.966V104.695C91.742 106.829 90.015 108.556 87.892 108.567H83.162C83.063 108.567 82.964 108.512 82.909 108.435C81.996 107.093 81.534 105.531 81.534 103.958C81.534 102.869 81.754 101.769 82.216 100.735C82.26 100.625 82.37 100.559 82.491 100.559H92.116L92.27 100.405L92.127 100.251Z" fill="#131514"/>
<path fill-rule="evenodd" clip-rule="evenodd" d="M92.127 95.9503H92.072L92.05 95.9283V93.0133C92.05 92.7603 91.852 92.5623 91.599 92.5623H82.502C82.26 92.5623 82.051 92.7053 81.952 92.9253C81.479 93.9923 81.248 95.1253 81.248 96.2693C81.248 97.4683 81.501 98.6563 82.018 99.7673C82.117 99.9763 82.326 100.119 82.568 100.119H91.599C91.852 100.119 92.05 99.9103 92.05 99.6683V96.7423L92.072 96.7203H92.127L92.281 96.5663L92.127 96.4123H92.006L91.896 96.4563L91.786 96.5663L91.742 96.6763V99.6683L91.588 99.8223H82.557C82.436 99.8223 82.337 99.7563 82.282 99.6463C81.787 98.5793 81.534 97.4243 81.534 96.2803C81.534 95.1803 81.754 94.0913 82.216 93.0573C82.26 92.9473 82.37 92.8703 82.491 92.8813H91.588L91.742 93.0353V96.0273L91.786 96.1373L91.896 96.2473L92.006 96.2913H92.127L92.281 96.1373L92.127 95.9503Z" fill="#131514"/>
<path fill-rule="evenodd" clip-rule="evenodd" d="M92.127 91.6492H92.072L92.05 91.6272V87.9642C92.05 85.6652 90.191 83.7952 87.892 83.7952H84.79C84.658 83.7952 84.526 83.8392 84.416 83.9272C82.909 85.1152 81.864 86.7872 81.457 88.6682L81.6 88.6902L81.501 88.5692L81.391 88.6572H81.292H81.27V88.8002L81.402 88.7232L81.27 88.5362L81.138 88.6132L81.281 88.6462C81.347 88.3492 81.424 88.0522 81.523 87.7662L81.512 87.6452L81.446 87.5132L81.347 87.4362H81.325H81.314C79.378 87.1502 77.431 87.0072 75.484 87.0072C73.669 87.0072 71.854 87.1282 70.05 87.3812L69.951 87.4362L69.863 87.5572L69.83 87.6672C69.874 88.0082 69.896 88.3602 69.896 88.7012C69.896 89.6582 69.731 90.6042 69.412 91.5172C69.302 91.8252 69.247 92.1552 69.247 92.4852C69.247 92.8152 69.302 93.1342 69.412 93.4532C69.731 94.3662 69.896 95.3122 69.896 96.2582C69.896 97.2262 69.731 98.2052 69.39 99.1292C69.28 99.4482 69.214 99.7782 69.214 100.108C69.214 100.438 69.269 100.779 69.39 101.087C69.72 102.011 69.896 102.979 69.896 103.958C69.896 104.299 69.874 104.651 69.83 104.992L69.863 105.102L69.951 105.223L70.05 105.278C71.854 105.531 73.669 105.652 75.484 105.652C77.299 105.652 79.114 105.531 80.918 105.278L81.017 105.223L81.105 105.102L81.138 104.992C81.094 104.651 81.072 104.299 81.072 103.958C81.072 102.979 81.237 102.011 81.578 101.087C81.688 100.768 81.754 100.438 81.754 100.108C81.754 99.7782 81.699 99.4372 81.578 99.1292C81.237 98.2052 81.072 97.2262 81.072 96.2582C81.072 95.0922 81.314 93.9372 81.787 92.8592C81.908 92.5842 82.183 92.4082 82.48 92.4082H92.105L92.259 92.2542L92.105 92.1002H82.48C82.062 92.1002 81.677 92.3422 81.512 92.7272C81.017 93.8492 80.775 95.0482 80.775 96.2472C80.775 97.2482 80.951 98.2602 81.292 99.2172C81.391 99.5032 81.446 99.8002 81.446 100.097C81.446 100.394 81.391 100.691 81.292 100.977C80.951 101.934 80.775 102.935 80.775 103.947C80.775 104.299 80.797 104.662 80.841 105.014L80.995 104.992L80.874 104.904L80.786 105.025L80.907 105.113L80.885 104.959C79.092 105.212 77.299 105.333 75.495 105.333C73.691 105.333 71.887 105.212 70.105 104.959L70.083 105.113L70.204 105.025L70.116 104.904L69.995 104.992L70.149 105.014C70.193 104.662 70.215 104.299 70.215 103.947C70.215 102.935 70.039 101.934 69.698 100.977C69.599 100.691 69.544 100.394 69.544 100.097C69.544 99.8002 69.599 99.5032 69.698 99.2172C70.05 98.2602 70.215 97.2482 70.215 96.2472C70.215 95.2682 70.05 94.2782 69.72 93.3322C69.621 93.0572 69.577 92.7602 69.577 92.4742C69.577 92.1772 69.621 91.8912 69.72 91.6162C70.05 90.6812 70.215 89.6912 70.215 88.7012C70.215 88.3382 70.193 87.9862 70.149 87.6232L69.995 87.6452L70.116 87.7332L70.204 87.6122L70.083 87.5242L70.105 87.6782C71.898 87.4252 73.691 87.3042 75.495 87.3042C77.431 87.3042 79.367 87.4472 81.281 87.7332L81.303 87.5792L81.27 87.7332H81.292L81.325 87.5902L81.193 87.6562L81.259 87.7882L81.391 87.7222L81.248 87.6782C81.149 87.9752 81.061 88.2832 80.995 88.5912L81.017 88.7012L81.138 88.8772L81.248 88.9432H81.281H81.292H81.446L81.545 88.9102L81.688 88.7892L81.743 88.7012C82.139 86.8972 83.14 85.2802 84.592 84.1362L84.779 84.0702H87.881C90.015 84.0702 91.731 85.8082 91.731 87.9422V91.6932L91.775 91.8032L91.885 91.9132L91.995 91.9572H92.116L92.27 91.8032L92.127 91.6492Z" fill="#131514"/>
<path d="M251.016 148.723C252.842 148.723 254.316 149.119 255.46 149.537L254.625 153.431C252.502 152.452 250.62 152.518 249.938 152.606C248.563 152.782 247.936 153.486 247.925 154.146C247.881 156.313 254.613 156.577 254.591 161.428C254.58 165.245 251.313 167.709 246.319 167.731C244.185 167.709 242.139 167.258 241.028 166.752L241.886 162.726C242.986 163.232 244.383 163.925 246.77 163.881C248.145 163.87 249.607 163.32 249.619 162.088C249.63 161.274 249.003 160.702 247.155 159.8C245.351 158.92 242.953 157.435 242.986 154.795C243.008 151.22 246.319 148.723 251.016 148.723ZM220.766 149.042C221.8 149.042 222.724 149.724 222.955 150.912L224.958 161.549L229.907 149.042C229.907 149.042 234.867 149.042 234.901 149.042L227.201 167.423H222.174L218.379 152.76C218.148 151.858 217.95 151.528 217.246 151.143C216.102 150.527 214.221 149.944 212.56 149.581L212.67 149.042H220.766ZM237.772 167.423H233.02L236.947 149.042H241.699L237.772 167.423ZM271.399 167.423H267L266.427 164.684H260.333L259.343 167.423H254.349L261.477 150.395C261.818 149.57 262.589 149.042 263.501 149.042H267.56L271.399 167.423ZM261.697 160.911H265.646L264.205 154.003L261.697 160.911Z" fill="white"/>
<path d="M251.577 171.977C252.743 171.977 253.579 172.252 254.129 172.758C254.701 173.275 255.031 174.001 255.031 175.024C255.031 176.047 254.701 176.894 254.129 177.477C253.535 178.071 252.556 178.379 251.335 178.379C250.741 178.379 250.268 178.346 249.861 178.302V172.119H249.85C250.345 172.031 250.939 171.977 251.577 171.977ZM251.622 172.626C251.204 172.626 250.885 172.659 250.665 172.714V177.697C250.873 177.729 251.17 177.73 251.489 177.73C253.238 177.73 254.173 176.762 254.173 175.057C254.184 173.572 253.337 172.626 251.622 172.626Z" fill="white"/>
<path d="M258.122 173.726C259.607 173.726 259.992 175.013 259.992 175.849C259.992 176.014 259.981 176.135 259.959 176.234L256.78 176.223C256.802 177.334 257.495 177.796 258.331 177.796C258.925 177.796 259.288 177.697 259.585 177.565L259.739 178.158C259.453 178.29 258.947 178.445 258.221 178.445C256.824 178.444 255.999 177.52 255.999 176.156C255.999 174.793 256.802 173.726 258.122 173.726ZM258.045 174.298C257.209 174.298 256.846 175.057 256.78 175.629H259.19C259.201 175.112 258.969 174.298 258.045 174.298Z" fill="white"/>
<path d="M262.049 174.529H262.071C262.357 174.023 262.885 173.704 263.611 173.704C264.744 173.704 265.525 174.639 265.525 176.002C265.525 177.619 264.502 178.423 263.49 178.423C262.841 178.423 262.313 178.17 261.961 177.576H261.939L261.895 178.313H261.191C261.213 178.005 261.224 177.543 261.224 177.147L261.235 171.691H262.049V174.529ZM263.336 174.364C262.786 174.364 262.258 174.76 262.093 175.375C262.06 175.474 262.049 175.596 262.049 175.717V176.52C262.049 176.619 262.06 176.729 262.082 176.817C262.236 177.389 262.72 177.785 263.314 177.785C264.183 177.785 264.689 177.081 264.689 176.047C264.689 175.145 264.227 174.364 263.336 174.364Z" fill="white"/>
<path d="M267.615 178.335H266.79V173.814H267.615V178.335ZM267.197 172.021C267.505 172.021 267.703 172.241 267.703 172.538C267.703 172.813 267.505 173.044 267.175 173.044C266.878 173.044 266.68 172.824 266.68 172.538C266.68 172.263 266.889 172.021 267.197 172.021Z" fill="white"/>
<path d="M270.2 172.725V173.814H271.377V174.441H270.2V176.883C270.2 177.444 270.354 177.763 270.816 177.763C271.036 177.763 271.168 177.741 271.289 177.708L271.322 178.335C271.168 178.39 270.915 178.445 270.596 178.445C270.211 178.445 269.903 178.313 269.705 178.104C269.485 177.851 269.386 177.444 269.386 176.916V174.452H268.682V173.825H269.386V172.978L270.2 172.725Z" fill="white"/>
</g>
<path d="M249.073 61.8309H246.441V64.62H249.073C250.064 64.62 250.716 64.1508 250.716 63.2385C250.716 62.3261 250.064 61.8309 249.073 61.8309ZM262.732 53.8546C262.732 55.9138 261.168 57.0086 259.396 57.0086C257.623 57.0086 256.059 55.9138 256.059 53.8546V48.8238H257.258V53.8285C257.258 55.1579 258.171 55.9138 259.396 55.9138C260.621 55.9138 261.533 55.1579 261.533 53.8285V48.8238H262.732V53.8546ZM251.993 56.8261H250.742L246.441 50.4138V56.8261H245.242V48.7977H246.858L250.82 54.793V48.7977H252.019V56.8261H251.993ZM245.216 60.7622H249.282C250.924 60.7622 251.941 61.8048 251.941 63.2645C251.941 64.5157 251.133 65.402 249.829 65.6366L251.915 68.7906H250.507L248.526 65.7148H246.415V68.7906H245.19V60.7622H245.216ZM256.424 60.7622H262.472V61.9873H260.073V67.6176H262.472V68.8427H256.424V67.6176H258.822V61.9873H256.424V60.7622ZM270.5 67.0441V50.6224C270.5 46.0347 266.799 42.3333 262.211 42.3333H245.789C241.201 42.3333 237.5 46.0347 237.5 50.6224V67.0441C237.5 71.6318 241.201 75.3333 245.789 75.3333H262.211C266.773 75.3333 270.5 71.6318 270.5 67.0441Z" fill="#F0F0F0"/>
<defs>
<filter id="filter0_d_423_13493" x="0.5" y="0.333252" width="326" height="254.5" filterUnits="userSpaceOnUse" color-interpolation-filters="sRGB">
<feFlood flood-opacity="0" result="BackgroundImageFix"/>
<feColorMatrix in="SourceAlpha" type="matrix" values="0 0 0 0 0 0 0 0 0 0 0 0 0 0 0 0 0 0 127 0" result="hardAlpha"/>
<feOffset dx="6" dy="6"/>
<feGaussianBlur stdDeviation="17.5"/>
<feColorMatrix type="matrix" values="0 0 0 0 0 0 0 0 0 0 0 0 0 0 0 0 0 0 0.25 0"/>
<feBlend mode="normal" in2="BackgroundImageFix" result="effect1_dropShadow_423_13493"/>
<feBlend mode="normal" in="SourceGraphic" in2="effect1_dropShadow_423_13493" result="shape"/>
</filter>
</defs>
</svg>
