<svg width="33" height="33" viewBox="0 0 33 33" fill="none" xmlns="http://www.w3.org/2000/svg">
<g clip-path="url(#clip0_385_12752)">
<path d="M9.84246 5.35758C9.84228 5.93477 9.37789 6.40266 8.8047 6.40266L5.69011 6.40266C3.97046 6.40295 2.57683 7.80737 2.57683 9.53921V12.6744C2.57683 13.2516 2.11208 13.7205 1.53907 13.7208C0.965766 13.7208 0.5 13.2518 0.5 12.6744V9.53921C0.5 6.65268 2.82386 4.31279 5.69011 4.3125L8.8047 4.3125C9.378 4.3125 9.84246 4.78024 9.84246 5.35758ZM9.84377 28.3559C9.84349 28.933 9.37783 29.401 8.8047 29.401L5.69142 29.401C2.82504 29.401 0.501496 27.0608 0.501302 24.1743V21.0377C0.501343 20.4604 0.965791 19.9926 1.53907 19.9926C2.11223 19.9928 2.57678 20.4605 2.57683 21.0377V24.1743C2.57702 25.9061 3.97164 27.3095 5.69142 27.3095L8.8047 27.3095C9.378 27.3095 9.84377 27.7785 9.84377 28.3559ZM8.8047 12.6744C8.8047 13.2518 8.34024 13.7208 7.76694 13.7208C7.19373 13.7207 6.72918 13.2517 6.72918 12.6744V11.6294C6.72922 11.0521 7.19376 10.5844 7.76694 10.5843C8.34021 10.5843 8.80465 11.0521 8.8047 11.6294V12.6744ZM17.5742 21.1479C18.0868 21.4061 18.2941 22.0346 18.0378 22.5509L17.1094 22.0828C18.0346 22.5487 18.0378 22.5522 18.0378 22.5522L18.0365 22.5535L18.0261 22.5745L18.0065 22.6112C17.9914 22.639 17.9718 22.6745 17.9466 22.7161C17.8962 22.7998 17.8242 22.9098 17.7292 23.0374C17.5394 23.2922 17.2522 23.62 16.849 23.9448C16.0294 24.605 14.7661 25.2193 12.9571 25.2193C11.1479 25.2193 9.88467 24.605 9.06512 23.9448C8.66192 23.62 8.37467 23.2922 8.18491 23.0374C8.09009 22.9101 8.01918 22.7997 7.96876 22.7161C7.9436 22.6744 7.92273 22.639 7.90756 22.6112L7.88934 22.5745L7.88152 22.5614L7.87762 22.5535V22.5522C7.88088 22.5499 7.93538 22.5205 8.8047 22.0828L7.87631 22.5509C7.61999 22.0345 7.82841 21.406 8.34116 21.1479C8.84981 20.8921 9.46789 21.0968 9.72788 21.6042C9.73 21.608 9.73534 21.6169 9.7435 21.6304C9.76196 21.661 9.79553 21.7142 9.84637 21.7825C9.94856 21.9197 10.1164 22.1144 10.362 22.3123C10.84 22.6973 11.6523 23.1291 12.9571 23.1292C14.2617 23.1292 15.0741 22.6973 15.5521 22.3123C15.7977 22.1144 15.9655 21.9197 16.0677 21.7825C16.1186 21.7141 16.1534 21.661 16.1719 21.6304C16.1802 21.6166 16.1856 21.6077 16.1875 21.6042C16.4476 21.0966 17.0655 20.8917 17.5742 21.1479ZM13.9948 15.811C13.9948 17.5429 12.6013 18.9474 10.8815 18.9476L9.84377 18.9476C9.27047 18.9476 8.8047 18.4785 8.8047 17.9012C8.80498 17.3241 9.27064 16.8561 9.84377 16.8561L10.8815 16.8561C11.4547 16.8559 11.9193 16.3882 11.9193 15.811V11.6294C11.9193 11.0522 12.3839 10.5845 12.9571 10.5843C13.5303 10.5843 13.9948 11.0521 13.9948 11.6294V15.811ZM19.1862 12.6744C19.1862 13.2518 18.7205 13.7208 18.1472 13.7208C17.5741 13.7206 17.1094 13.2516 17.1094 12.6744V11.6294C17.1095 11.0522 17.5741 10.5845 18.1472 10.5843C18.7204 10.5843 19.1862 11.0521 19.1862 11.6294V12.6744ZM32.3894 8.2922C32.6566 9.68395 32.4361 11.1474 31.7657 12.4371C31.1697 13.5621 30.2625 14.4979 29.1602 15.1252L29.0469 26.5739C29.0308 27.1358 28.8539 27.6883 28.5391 28.1658C28.2242 28.6433 27.7833 29.0258 27.2696 29.2672C26.9315 29.4099 26.572 29.4881 26.211 29.498C25.5441 29.5232 24.9003 29.3099 24.3933 28.8961C23.8863 28.4823 23.5485 27.8941 23.4401 27.2361L22.4571 26.7103C22.1337 26.5317 21.8662 26.2683 21.681 25.9471C21.5031 25.6197 21.409 25.2495 21.4076 24.8692C21.4073 24.4878 21.5098 24.1084 21.7032 23.7717C21.8948 23.4376 22.1678 23.1558 22.4948 22.9548L23.4545 22.3726L22.5052 21.8559C22.1821 21.6774 21.9143 21.4139 21.7292 21.0928C21.5246 20.7553 21.4193 20.3633 21.4232 19.9598C21.4273 19.556 21.5408 19.1555 21.7526 18.8033C21.9443 18.4691 22.2172 18.1875 22.5443 17.9864L23.5039 17.4042L23.5482 15.3193C22.4577 14.7678 21.5687 13.894 20.9948 12.8095C20.3766 11.6595 20.1487 10.324 20.3438 8.99766C20.5389 7.67113 21.1467 6.42285 22.0795 5.43626L22.5039 4.99829C23.6222 4.06821 25.007 3.53968 26.4258 3.50214C27.8448 3.46468 29.2125 3.92045 30.2982 4.79242C31.3839 5.6644 32.1221 6.90041 32.3894 8.2922ZM30.4102 11.7513C30.919 10.7996 31.0941 9.71452 30.9063 8.67902C30.7133 7.63302 30.1652 6.70204 29.3542 6.04337C28.5308 5.40238 27.5071 5.06343 26.4441 5.07959C25.3809 5.13713 24.351 5.5471 23.5144 6.24531C22.6974 6.95292 22.1326 7.91093 21.9154 8.95963C21.6983 10.0081 21.8415 11.0841 22.3204 12.0083C22.8138 12.9509 23.6263 13.676 24.6172 14.0578C24.7625 14.1073 24.889 14.1987 24.9805 14.3214C25.072 14.4442 25.125 14.5939 25.1329 14.7502L25.112 17.8749C25.1139 18.0164 25.0777 18.1574 25.0066 18.2827C24.9353 18.4082 24.8322 18.514 24.7084 18.587L23.3477 19.4235C23.2625 19.4666 23.1931 19.5374 23.1524 19.6242C23.1013 19.7082 23.0772 19.8059 23.0821 19.9022C23.0688 19.9995 23.0918 20.0972 23.1472 20.1749C23.1862 20.2589 23.2542 20.3253 23.3386 20.3624L24.7058 21.0823C24.8281 21.1467 24.9299 21.2437 24.9987 21.3642C25.0676 21.4849 25.1011 21.6248 25.0964 21.7668L25.0873 22.7279C25.0813 22.8683 25.0406 23.0064 24.9701 23.1305C24.8996 23.2546 24.8009 23.3611 24.6823 23.44L23.3217 24.2765C23.2364 24.3196 23.167 24.3916 23.1263 24.4785C23.0729 24.5575 23.044 24.651 23.0443 24.7447C23.0525 24.8436 23.0786 24.9398 23.1211 25.0279C23.1727 25.1019 23.2378 25.1653 23.3125 25.2154L24.6563 25.9589C24.7789 26.0233 24.8804 26.1214 24.9493 26.2421C25.018 26.3627 25.0517 26.5015 25.0469 26.6434C25.0435 26.965 25.1676 27.2692 25.3907 27.4891C25.6174 27.7127 25.927 27.834 26.2513 27.8261C26.4161 27.8127 26.5781 27.7681 26.7292 27.695C26.9514 27.5964 27.1432 27.4351 27.2787 27.2308C27.4141 27.0265 27.488 26.7884 27.4909 26.5477L27.5873 14.665C27.5909 14.5036 27.642 14.3444 27.7344 14.2086C27.8268 14.0731 27.956 13.9668 28.1055 13.9031C28.6697 13.6524 29.1837 13.292 29.6159 12.8436C29.9308 12.5188 30.1984 12.1502 30.4102 11.7513ZM28.5821 8.26728C28.581 8.5547 28.5205 8.84169 28.4037 9.10911C28.2969 9.37003 28.1397 9.60868 27.9428 9.81195C27.7457 10.0153 27.5118 10.1793 27.2553 10.2932C26.993 10.4181 26.7098 10.4867 26.4245 10.4938C26.1463 10.5081 25.8712 10.4585 25.6198 10.3496C25.3578 10.2556 25.119 10.1076 24.9193 9.91554C24.7226 9.72047 24.5707 9.48415 24.4727 9.22188C24.3515 8.96583 24.2952 8.68069 24.3099 8.39185C24.3151 8.1096 24.3725 7.82788 24.4779 7.56182C24.5794 7.30393 24.7286 7.06559 24.9167 6.86029C25.1144 6.65019 25.3515 6.48202 25.6133 6.36726C25.8783 6.25067 26.1608 6.18256 26.4454 6.16663C26.7254 6.15934 27.0023 6.20455 27.2618 6.29907C27.5247 6.40139 27.7624 6.55653 27.961 6.75539C28.1597 6.94696 28.3166 7.17874 28.4206 7.43725C28.5246 7.69938 28.5789 7.98085 28.5821 8.26728ZM27.0027 8.35645C27.0058 8.2849 26.99 8.21446 26.9584 8.15189C26.9207 8.09371 26.8712 8.0441 26.8125 8.00765C26.7763 7.94858 26.7262 7.89981 26.6667 7.86472C26.603 7.83672 26.533 7.82294 26.4623 7.82538C26.3919 7.82786 26.322 7.84559 26.2579 7.87784C26.1894 7.90428 26.1272 7.94657 26.0756 7.99978C26.024 8.05297 25.9843 8.11656 25.9597 8.18598C25.9201 8.23766 25.8915 8.29745 25.8777 8.36038C25.8811 8.4309 25.8966 8.50005 25.9219 8.56494C25.9583 8.62424 26.008 8.67402 26.0678 8.70918C26.1053 8.7672 26.1551 8.8157 26.2136 8.85211C26.2773 8.88011 26.3473 8.89389 26.418 8.89144C26.4885 8.88897 26.5583 8.87125 26.6224 8.83899C26.6908 8.81224 26.7539 8.77108 26.806 8.71836C26.8665 8.67904 26.9169 8.62548 26.9545 8.56363C26.9811 8.49701 26.9978 8.42719 27.0027 8.35645Z" fill="#2C232E"/>
</g>
<defs>
<clipPath id="clip0_385_12752">
<rect width="32" height="32" fill="white" transform="translate(0.5 0.5)"/>
</clipPath>
</defs>
</svg>
