<svg width="24" height="10" viewBox="0 0 24 10" fill="none" xmlns="http://www.w3.org/2000/svg">
<path fill-rule="evenodd" clip-rule="evenodd" d="M5.70711 0.292893C6.09763 0.683418 6.09763 1.31658 5.70711 1.70711L3.41421 4L23 4C23.5523 4 24 4.44772 24 5C24 5.55229 23.5523 6 23 6L3.41421 6L5.70711 8.29289C6.09763 8.68342 6.09763 9.31658 5.70711 9.70711C5.31658 10.0976 4.68342 10.0976 4.29289 9.70711L0.292893 5.70711C0.105357 5.51957 0 5.26522 0 5C0 4.73478 0.105357 4.48043 0.292893 4.29289L4.29289 0.292893C4.68342 -0.0976311 5.31658 -0.0976311 5.70711 0.292893Z" fill="#2C232E"/>
</svg>
