<svg width="25" height="25" viewBox="0 0 25 25" fill="none" xmlns="http://www.w3.org/2000/svg">
<path fill-rule="evenodd" clip-rule="evenodd" d="M12.5352 8.49994C13.0874 8.49994 13.5352 8.94765 13.5352 9.49994V9.77449C14.1593 9.85658 14.7431 10.142 15.1931 10.592C15.7323 11.1312 16.0352 11.8624 16.0352 12.6249C16.0352 13.3154 15.7868 13.9802 15.3396 14.4999C15.7868 15.0197 16.0352 15.6845 16.0352 16.3749C16.0352 17.1374 15.7323 17.8687 15.1931 18.4079C14.7431 18.8579 14.1593 19.1433 13.5352 19.2254V19.4999C13.5352 20.0522 13.0874 20.4999 12.5352 20.4999C11.9829 20.4999 11.5352 20.0522 11.5352 19.4999V19.2499H10.6602C10.1079 19.2499 9.66016 18.8022 9.66016 18.2499V10.7499C9.66016 10.1977 10.1079 9.74994 10.6602 9.74994H11.5352V9.49994C11.5352 8.94765 11.9829 8.49994 12.5352 8.49994ZM11.6602 11.7499V13.4999H13.1602C13.3922 13.4999 13.6148 13.4078 13.7789 13.2437C13.943 13.0796 14.0352 12.857 14.0352 12.6249C14.0352 12.3929 13.943 12.1703 13.7789 12.0062C13.6148 11.8421 13.3922 11.7499 13.1602 11.7499H11.6602ZM13.1602 15.4999H11.6602V17.2499H12.5334H13.1602C13.3922 17.2499 13.6148 17.1578 13.7789 16.9937C13.943 16.8296 14.0352 16.607 14.0352 16.3749C14.0352 16.1429 13.943 15.9203 13.7789 15.7562C13.6148 15.5921 13.3922 15.4999 13.1602 15.4999Z" fill="#2C232E"/>
<path fill-rule="evenodd" clip-rule="evenodd" d="M20.5 6.49994H4.5C3.39543 6.49994 2.5 7.39537 2.5 8.49994V20.4999C2.5 21.6045 3.39543 22.4999 4.5 22.4999H20.5C21.6046 22.4999 22.5 21.6045 22.5 20.4999V8.49994C22.5 7.39537 21.6046 6.49994 20.5 6.49994ZM4.5 4.49994C2.29086 4.49994 0.5 6.2908 0.5 8.49994V20.4999C0.5 22.7091 2.29086 24.4999 4.5 24.4999H20.5C22.7091 24.4999 24.5 22.7091 24.5 20.4999V8.49994C24.5 6.2908 22.7091 4.49994 20.5 4.49994H4.5Z" fill="#2C232E"/>
<path d="M2.51397 7.586L0.5 8.92865V7.82283C0.5 5.96112 1.7844 4.34555 3.59818 3.92582L17.8219 0.634263C20.329 0.0540907 22.7237 1.95793 22.7237 4.53128V6.42827L20.7237 6.50827V4.53128C20.7237 3.24461 19.5264 2.29268 18.2728 2.58277L4.04909 5.87433C3.2201 6.06617 2.61227 6.75763 2.51397 7.586Z" fill="#2C232E"/>
</svg>
