<svg width="32" height="32" viewBox="0 0 32 32" fill="none" xmlns="http://www.w3.org/2000/svg">
<path fill-rule="evenodd" clip-rule="evenodd" d="M11.347 5.85628C12.5875 4.66351 14.2619 4 15.9999 4C17.738 4 19.4123 4.66351 20.6528 5.85628C21.8946 7.05032 22.5999 8.67836 22.5999 10.3846V13C22.5999 13.5523 22.1522 14 21.5999 14C21.0476 14 20.5999 13.5523 20.5999 13V10.3846C20.5999 9.23467 20.1252 8.12351 19.2666 7.29795C18.4067 6.4711 17.2323 6 15.9999 6C14.7675 6 13.5931 6.4711 12.7332 7.29795C11.8746 8.12351 11.3999 9.23467 11.3999 10.3846V13C11.3999 13.5523 10.9522 14 10.3999 14C9.84762 14 9.3999 13.5523 9.3999 13V10.3846C9.3999 8.67835 10.1052 7.05032 11.347 5.85628Z" fill="#2C232E"/>
<path fill-rule="evenodd" clip-rule="evenodd" d="M16 19C15.4477 19 15 19.4477 15 20C15 20.5523 15.4477 21 16 21C16.5523 21 17 20.5523 17 20C17 19.4477 16.5523 19 16 19ZM19 20C19 21.6569 17.6569 23 16 23C14.3431 23 13 21.6569 13 20C13 18.3431 14.3431 17 16 17C17.6569 17 19 18.3431 19 20Z" fill="#2C232E"/>
<path fill-rule="evenodd" clip-rule="evenodd" d="M24 14H8V26H24V14ZM8 12C6.89543 12 6 12.8954 6 14V26C6 27.1046 6.89543 28 8 28H24C25.1046 28 26 27.1046 26 26V14C26 12.8954 25.1046 12 24 12H8Z" fill="#2C232E"/>
</svg> 