<svg width="375" height="524" viewBox="0 0 375 524" fill="none" xmlns="http://www.w3.org/2000/svg">
<path d="M123.593 199.452H123.352C121.392 197.558 119.607 195.477 117.746 193.474C116.738 192.094 115.72 190.714 114.68 189.368C112.271 184.78 107.278 181.32 103.04 178.736C99.8689 176.714 96.5781 174.886 93.1859 173.261C89.7807 171.728 86.2111 170.6 83.1234 168.476C74.8565 162.804 74.9332 151.373 80.3532 143.719C86.0469 135.693 96.2299 133.273 105.187 136.941C107.033 137.702 108.777 138.692 110.377 139.887C112.745 142.824 114.811 145.994 116.541 149.347C118.941 153.723 120.297 158.595 120.505 163.582C120.702 168.06 120.735 172.538 121.02 177.017C121.217 180.006 121.206 183.882 122.826 186.532C124.447 189.181 128.224 189.729 130.841 188.338C133.458 186.948 134.849 184.057 135.801 181.385C137.882 175.538 139.207 167.928 138.309 161.676C137.499 156.037 134.071 150.179 130.852 145.592C127.797 141.212 123.702 136.022 118.808 133.394C118.008 132.759 117.198 132.135 116.366 131.554C109.238 126.518 101.847 125.291 93.0984 123.364C82.7073 121.076 73.0608 115.272 67.0495 106.37C61.3011 97.8846 60.8193 86.6614 68.4292 79.0844C75.8091 71.7372 86.5177 69.843 96.5255 70.697C114.165 72.219 129.166 84.1321 139.864 97.4795C141.429 99.4285 142.94 101.476 144.386 103.6C151.208 115.118 154.625 128.334 154.24 141.715C154.087 150.979 152.466 160.976 148.229 169.297C145.141 175.352 140.006 181.484 141.933 188.711C142.078 189.123 142.314 189.496 142.625 189.803C142.935 190.11 143.311 190.343 143.725 190.483C144.138 190.624 144.578 190.668 145.011 190.613C145.445 190.558 145.86 190.406 146.225 190.167C158.27 181.955 163.383 166.888 165.223 153.037C166.832 140.993 166.558 127.93 162.879 116.225C158.105 100.983 147.046 87.0118 133.951 78.0441C131.972 76.7201 129.892 75.5523 127.732 74.5513C125.341 73.2879 122.881 72.162 120.363 71.1788L118.359 70.3905L117.976 70.2481L115.392 69.3502C113.651 68.748 111.91 68.1348 110.201 67.456C102.821 64.5434 95.1131 60.1308 91.1603 52.9589C86.7805 44.9986 86.4958 35.0784 92.7151 27.9502C97.9709 21.928 106.106 19.552 113.738 18.4242C120.752 17.4013 127.909 18.0772 134.608 20.3951C169.942 32.4395 192.574 70.5437 198.465 105.801C201.481 124.398 198.307 143.471 189.432 160.089C180.88 175.867 166.35 190.484 149.576 197.853C147.59 199.293 145.466 200.533 143.236 201.554C142.811 201.759 142.377 201.942 141.933 202.102C141.933 202.102 141.451 202.288 141.342 202.31L140.564 202.682C139.141 203.212 137.646 203.522 136.13 203.602C133.245 203.743 130.389 202.978 127.962 201.412C126.385 201.037 124.896 200.356 123.582 199.408" fill="#6E9E96"/>
<path d="M186.508 146.212C186.508 146.212 268.279 141.307 302.978 249.137C302.978 249.137 329.651 315.59 293.616 315.59H135.056C119.432 340.774 95.8026 334.817 95.8026 334.817C95.8026 334.817 70.1808 327.601 72.5897 295.169C76.7614 238.812 86.9007 147.154 186.464 146.179" fill="#BEAAFF"/>
<path d="M144.21 186.101C144.173 186.205 144.144 186.311 144.123 186.419L144.21 186.101Z" fill="#FF8C5A"/>
<path d="M142.644 172.009C146.783 171.9 150.451 170.06 154.371 169.02C156.464 168.438 158.61 168.071 160.777 167.925C163.209 167.92 165.617 168.416 167.85 169.381C168.156 169.502 168.487 169.547 168.814 169.513C170.315 170.235 171.727 171.131 173.018 172.184C175.954 174.598 178.217 177.728 179.588 181.272C180.999 185.066 181.614 189.11 181.395 193.152C181.241 195.244 180.595 197.368 181.198 199.437C181.57 200.708 182.446 202.405 183.836 202.821C186.147 203.522 188.643 200.74 189.979 199.24C191.75 197.135 193.305 194.857 194.622 192.441C196.297 189.55 199.494 185.51 198.509 181.929C197.709 179.028 193.976 177.757 191.49 176.827C189.145 176.088 186.882 175.112 184.734 173.914L184.066 173.564C181.976 172.591 180.333 170.861 179.468 168.724C178.614 166.074 179.643 162.987 181.132 160.764C183.442 157.304 187.702 155.913 191.643 155.289C194.909 154.856 198.205 154.695 201.498 154.807C204.148 154.632 206.819 154.545 209.425 154.216H209.776C212.205 154.585 214.682 154.495 217.079 153.953C218.274 153.639 219.405 153.116 220.419 152.409C210.081 148.521 199.16 146.41 188.118 146.168C187.023 146.168 186.486 146.168 186.486 146.168C184.044 146.168 181.679 146.278 179.336 146.409C179.013 147.315 178.76 148.245 178.581 149.19C178.581 150.46 178.384 151.774 178.252 153.023C178.299 154.59 178.204 156.159 177.968 157.709C177.968 158.07 177.968 158.432 177.968 158.804C178.022 159.771 177.967 160.74 177.803 161.695C177.578 162.671 177.014 163.536 176.213 164.137C175.412 164.738 174.424 165.036 173.423 164.979C173.076 165.044 172.72 165.037 172.376 164.96C172.031 164.883 171.706 164.737 171.42 164.53C170.701 164.242 170.123 163.684 169.81 162.976C169.423 162.379 169.141 161.719 168.978 161.027C168.448 159.317 168.041 157.572 167.763 155.804C167.467 154.26 167.368 152.617 166.952 151.106C166.718 150.247 166.348 149.43 165.857 148.687C165.737 148.413 165.606 148.161 165.474 147.898C153.115 149.747 141.207 153.88 130.359 160.085C131.06 166.534 135.67 172.184 142.644 172.009ZM180.245 161.519H180.398C180.344 161.695 180.289 161.859 180.245 162.034C180.245 161.935 180.245 161.837 180.245 161.727C180.25 161.658 180.25 161.589 180.245 161.519Z" fill="#FF8C5A"/>
<path d="M144.134 187.678C144.134 187.382 144.134 188.193 144.232 188.422C144.309 188.793 144.408 189.159 144.528 189.517L144.911 189.791C145.803 190.337 146.724 190.834 147.67 191.28H147.747H147.824L148.601 191.62L150.189 192.255C152.379 193.142 154.568 193.996 156.758 195.025C158.864 195.963 160.734 197.358 162.233 199.109C164.361 201.832 165.968 204.924 166.974 208.23C169.055 214.712 169.383 221.797 169.087 228.563C169.042 232.131 168.575 235.682 167.697 239.14C166.481 243.231 164.771 247.158 162.605 250.835C161.281 253.156 159.572 255.214 158.226 257.568C158.226 257.623 158.171 257.667 158.149 257.711L157.678 258.368C157.137 259.059 156.65 259.791 156.222 260.558C156.123 260.755 155.806 261.653 155.828 261.587C155.667 261.906 155.528 262.235 155.412 262.572C155.148 263.359 155.143 264.209 155.4 264.997C155.656 265.786 156.159 266.471 156.835 266.952C159.025 268.365 161.883 266.952 163.963 266.01C164.817 265.627 165.66 265.2 166.503 264.795C167.876 264.239 169.329 263.906 170.807 263.81H170.905C172 263.558 173.095 263.339 174.19 263.175C178.071 262.526 182.05 262.816 185.796 264.018C187.645 264.448 189.378 265.273 190.877 266.438C191.786 267.023 192.657 267.666 193.483 268.365C197.863 272.066 200.425 277.299 202.702 282.424C202.921 282.906 203.129 283.398 203.348 283.88C204.564 286.175 205.894 288.408 207.334 290.57C208.022 291.539 208.791 292.447 209.633 293.286C210.366 294.071 211.229 294.723 212.185 295.213C213.192 295.721 214.264 296.089 215.371 296.308C216.38 296.517 217.427 296.437 218.393 296.078H218.59L218.776 295.968C219.061 295.826 219.335 295.662 219.608 295.497C219.608 295.497 219.685 295.498 219.696 295.421C219.956 295.212 220.201 294.985 220.43 294.742L220.736 294.413C220.736 294.359 221.13 293.888 221.141 293.866C221.47 293.376 221.769 292.868 222.039 292.344C222.279 291.847 222.488 291.335 222.663 290.811C222.871 290.209 223.047 289.596 223.2 288.983C223.486 287.971 223.669 286.932 223.747 285.884C224.367 280.801 223.252 275.658 220.583 271.288C219.984 270.254 219.284 269.282 218.492 268.387C217.672 267.436 216.794 266.536 215.864 265.693C214.953 264.886 213.979 264.154 212.951 263.503C211.867 262.789 210.745 262.134 209.59 261.543C204.799 259.056 199.446 257.852 194.052 258.05C190.264 258.302 186.519 259.288 182.698 259.09C179.544 258.937 175.318 257.349 176.621 253.298C177.475 250.637 180.694 249.433 183.059 248.546C186.55 247.405 190.219 246.904 193.888 247.068C201.5 247.229 208.99 249.006 215.864 252.28C221.667 255.061 226.233 259.704 229.967 264.861C233.427 269.635 235.825 274.945 238.814 279.982C240.021 282.168 241.492 284.198 243.194 286.026C244.584 287.558 246.287 288.776 248.187 289.596C248.879 289.857 249.589 290.069 250.311 290.231L250.585 290.286H250.88H251.669C252.907 290.37 254.151 290.266 255.358 289.979C257.8 289.453 260.096 288.395 262.081 286.88C263.94 285.398 265.417 283.493 266.389 281.323C267.36 279.153 267.798 276.782 267.666 274.409C267.463 271.799 266.78 269.248 265.651 266.887C264.283 264.035 262.565 261.365 260.538 258.937C252.107 248.878 240.454 242.049 227.558 239.611C221.181 238.288 214.62 238.099 208.177 239.053C206.546 239.311 204.931 239.658 203.337 240.093L201.826 240.542C200.118 241.308 198.399 242.053 196.658 242.732C192.925 244.265 187.724 246.816 183.585 245.447C182.385 245.076 181.374 244.257 180.762 243.16C180.15 242.063 179.985 240.772 180.3 239.557C181.003 237.718 182.387 236.22 184.165 235.374C187.8 233.283 192.081 232.089 196.089 230.994C199.226 230.077 202.44 229.446 205.692 229.111C208.013 228.892 210.356 228.738 212.677 228.574C214.002 228.476 215.327 228.377 216.641 228.257L218.481 228.092L219.214 228.016H219.466H219.729C222.215 227.739 224.683 227.319 227.12 226.757C228.322 226.485 229.51 226.152 230.678 225.76L231.642 225.421L231.795 225.366L232.803 224.928C235.089 224.509 237.195 223.41 238.847 221.775C241.376 219.07 241.54 214.11 238.463 211.679C237.002 210.695 235.276 210.18 233.514 210.201C231.149 210.059 228.775 210.114 226.419 210.365C221.242 210.983 216.194 212.413 211.462 214.603C201.443 219.081 193.165 227.03 182.49 230.206C180.442 230.808 178.23 231.246 176.478 230.698C176.281 230.629 176.09 230.541 175.909 230.436C175.182 229.702 174.69 228.769 174.495 227.756C174.3 226.742 174.411 225.692 174.814 224.742C175.009 224.238 175.259 223.757 175.559 223.308C176.935 221.616 178.613 220.194 180.508 219.114L182.194 218.096C183.037 217.636 183.891 217.198 184.767 216.793C186.092 216.015 187.439 215.271 188.808 214.548L189.18 214.362C189.76 214.077 190.351 213.803 190.932 213.552C195.925 211.362 201.191 209.807 206.042 207.277C209.66 205.481 212.982 203.143 215.897 200.346C218.667 197.576 221.021 193.897 220.758 189.824C220.528 186.539 218.875 182.948 215.283 182.214C212.196 181.579 208.998 182.937 206.414 184.524C203.675 186.207 201.293 188.414 199.407 191.017C195.958 195.704 192.487 200.39 189.125 205.153C186.596 208.734 184.066 212.654 180.125 214.833C178.674 215.644 177.071 216.144 175.416 216.3C173.303 215.052 172.515 212.347 172.329 210.07C171.967 205.69 174.015 201.31 175.394 197.303C175.756 196.208 176.106 195.167 176.358 194.083C176.413 193.842 176.467 193.602 176.511 193.361C176.515 193.335 176.515 193.309 176.511 193.284C176.511 192.846 176.588 192.408 176.588 191.97C176.574 189.939 176.203 187.927 175.493 186.025C174.016 182.347 171.164 179.39 167.544 177.78L167.445 177.725L166.974 177.539L166.12 177.265C165.792 177.166 165.441 177.079 165.102 177.002L164.335 176.882C162.881 176.727 161.416 176.694 159.956 176.783L159.189 176.849L157.985 177.024C157.207 177.155 156.419 177.32 155.652 177.517C154.886 177.714 153.912 177.999 153.057 178.305L152.455 178.513C152.072 178.677 151.689 178.842 151.36 179.028C150.572 179.399 149.805 179.812 149.061 180.265C148.754 180.451 148.47 180.648 148.174 180.845L147.944 180.999L147.736 181.185C147.121 181.702 146.536 182.254 145.984 182.838L145.732 183.134V183.2C145.568 183.462 145.371 183.714 145.207 183.988C145.042 184.262 144.758 184.853 144.802 184.711C144.714 184.952 144.626 185.192 144.55 185.433C144.473 185.674 144.429 185.904 144.375 186.145C144.375 186.145 144.298 186.616 144.287 186.857C144.276 187.098 144.123 187.393 144.134 187.678Z" fill="#FF8C5A"/>
<path d="M105.318 192.507C106.343 193.098 107.19 193.956 107.768 194.989C108.346 196.022 108.635 197.192 108.603 198.376C108.54 199.631 108.164 200.851 107.508 201.923C106.095 203.863 104.512 205.673 102.777 207.332C98.6493 211.435 94.8388 215.846 91.379 220.526C88.6854 224.293 85.9043 229.045 88.3679 233.666C88.7814 234.553 89.4292 235.311 90.2416 235.857C91.0539 236.403 92 236.717 92.9776 236.765C94.9205 236.617 96.7497 235.792 98.1458 234.432C106.172 227.676 106.445 215.95 111.132 207.223C112.071 205.183 113.473 203.391 115.227 201.989C116.53 201.08 118.687 199.996 120.264 200.817C120.395 200.886 120.52 200.967 120.636 201.058C121.119 201.75 121.406 202.56 121.468 203.401C121.523 203.973 121.523 204.549 121.468 205.121C120.686 207.439 119.607 209.647 118.26 211.69C116.618 214.46 115.096 217.34 113.508 220.176C109.993 225.333 106.303 230.403 102.646 235.505C97.7954 242.195 93.339 249.313 89.0796 256.397C85.0173 263.186 81.3383 270.544 80.6704 278.548C80.3092 282.625 80.8129 286.734 82.1486 290.603C83.2435 293.724 84.9079 296.877 87.9299 298.542C89.0889 299.21 90.3949 299.581 91.732 299.623C93.0691 299.665 94.3959 299.376 95.5945 298.782C98.4962 297.304 99.9086 294.238 100.982 291.337C103.588 284.285 104.124 276.61 105.022 269.208C105.343 266.624 105.745 264.069 106.226 261.543C108.23 255.028 110.168 248.491 111.997 241.922C113.212 237.542 114.417 233.261 115.731 228.958L117.11 225.07C118.454 220.995 120.056 217.008 121.906 213.136C123.406 210.135 125.738 205.526 128.99 204.562C129.665 204.423 130.365 204.475 131.011 204.713C131.658 204.951 132.224 205.365 132.648 205.909C133.222 206.645 133.639 207.492 133.875 208.395C134.11 209.299 134.158 210.242 134.016 211.165C133.644 216.442 130.918 221.6 128.465 226.165C125.87 231.005 123.133 235.746 120.57 240.597C116.793 247.769 113.136 255.236 111.657 263.273C111.014 266.639 110.648 270.052 110.562 273.478C110.562 276.544 111.022 279.544 113.092 281.931C113.985 283.029 115.218 283.799 116.596 284.121L116.847 284.263C117.122 284.365 117.404 284.446 117.691 284.504C118.033 284.482 118.377 284.482 118.72 284.504H118.818C120.138 283.779 121.411 282.971 122.629 282.084C123.056 281.625 123.428 281.187 123.603 280.989C125 279.072 126.231 277.039 127.282 274.913C133.031 263.722 134.794 250.824 136.414 238.473C136.852 235.188 137.268 231.804 137.728 228.465C138.144 225.432 138.626 222.497 138.955 219.913C139.557 215.139 140.268 208.613 144.331 205.372C145.754 204.277 148.097 203.894 149.4 205.493C151.402 208.075 152.394 211.298 152.192 214.559C152.049 217.616 151.556 220.647 150.725 223.592C149.937 226.647 149.28 229.735 148.426 232.779C147.966 233.961 147.484 235.144 147.002 236.327C146.389 237.805 145.907 239.327 145.305 240.805C145.141 241.21 144.955 241.615 144.769 242.02L144.177 243.214C143.082 245.097 142.053 247.002 141.122 248.951C139.611 252.16 137.838 255.74 138.407 259.397C138.856 262.178 140.761 264.478 143.531 264.467C148.711 266.087 153.145 260.437 155.576 256.408C157.068 253.928 158.35 251.328 159.408 248.634C160.565 245.475 161.377 242.2 161.828 238.867C162.645 235.594 163.256 232.274 163.657 228.925C164.423 222.848 164.751 215.632 162.288 209.697C161.678 207.686 160.742 205.788 159.518 204.08C158.811 203.084 157.941 202.213 156.945 201.507C156.284 200.753 155.503 200.113 154.634 199.613C152.049 198.308 149.233 197.527 146.345 197.314C144.506 197.095 142.644 196.974 140.794 196.81C138.069 196.183 135.664 194.587 134.027 192.321C133.391 191.354 132.9 190.299 132.571 189.189C132.429 188.839 132.297 188.499 132.144 188.16C131.991 187.82 131.794 187.47 131.618 187.12C131.571 187.012 131.512 186.909 131.443 186.813C131.388 186.736 131.312 186.616 131.279 186.583C131.246 186.55 130.567 185.904 130.589 185.882L130.129 185.587C130.043 185.568 129.959 185.542 129.877 185.51H129.702H129.647C129.396 185.598 129.133 185.663 128.881 185.729L128.782 185.784C128.531 185.926 128.279 186.036 128.027 186.167C125.947 187.262 124.008 188.631 121.709 189.145C120.376 189.669 118.958 189.94 117.526 189.945C113.387 189.945 109.632 188.007 105.624 187.317C104.268 187.087 102.887 187.042 101.518 187.185C100.336 188.879 99.2079 190.605 98.1348 192.364C99.2694 191.861 100.501 191.612 101.742 191.637C102.983 191.661 104.204 191.958 105.318 192.507Z" fill="#FF8C5A"/>
<path d="M245.953 209.675C243.956 215.43 243.257 221.554 243.905 227.611C244.503 232.191 246.18 236.563 248.8 240.367C251.231 243.947 254.384 246.816 257.253 250.024C260.002 253.349 263.06 256.406 266.385 259.156C269.701 261.583 273.498 263.274 277.52 264.116C282.524 265.197 287.655 265.566 292.762 265.211C294.076 264.992 295.401 264.762 296.726 264.51C299.444 263.966 302.117 263.212 304.719 262.255C305.518 262.101 306.317 261.937 307.106 261.762H307.226C305.573 256.178 303.996 251.908 303.328 250.145C301.675 251.393 300.043 252.674 298.39 253.944C296.342 255.532 294.207 257.021 292.149 258.587C291.853 258.828 291.579 259.058 291.306 259.309L290.78 259.496C290.331 259.699 289.902 259.945 289.499 260.229C288.658 260.624 287.795 260.971 286.915 261.269C285.833 261.545 284.736 261.76 283.63 261.915C282.915 261.883 282.206 261.769 281.517 261.576C280.616 261.29 279.863 260.665 279.415 259.833C278.967 259.002 278.861 258.028 279.119 257.119C280.597 251.645 287.156 250.145 291.612 247.977C294.747 246.493 297.956 245.17 301.226 244.013C300.306 241.378 299.361 238.823 298.39 236.348C296.134 237.64 293.857 238.9 291.525 240.049C289.874 240.87 288.156 241.548 286.389 242.075C284.963 242.619 283.448 242.893 281.922 242.885C281.177 242.819 280.542 242.524 280.63 241.462C280.962 239.958 281.696 238.573 282.754 237.454C285.023 234.657 287.647 232.169 290.561 230.052C291.973 229.275 293.397 228.508 294.831 227.775C293.539 224.855 292.214 222.048 290.857 219.355C288.382 221.15 285.951 223.001 283.477 224.829C281.604 226.198 279.622 227.523 277.761 228.968L275.571 230.425C273.272 232.02 270.826 233.395 268.268 234.531C265.136 235.735 260.373 235.429 260.297 231.06C260.297 228.64 262.136 226.406 263.724 224.764C265.578 222.848 267.642 221.148 269.877 219.694C274.778 216.611 279.936 213.959 285.294 211.767L286.575 211.208C284.553 207.631 282.466 204.244 280.312 201.047C277.312 203.149 274.411 205.427 271.553 207.617C267.899 210.591 264.063 213.334 260.067 215.829C258.42 216.888 256.622 217.693 254.734 218.216C253.453 218.523 252.435 218.588 251.647 217.504C250.858 216.42 251.263 214.865 251.778 213.508C252.443 211.892 253.393 210.409 254.581 209.128C257.609 205.859 261.13 203.085 265.016 200.905C268.629 198.715 272.341 196.81 276.13 194.981C273.688 191.696 271.191 188.609 268.662 185.751C267.907 186.222 267.129 186.681 266.385 187.174C257.713 192.988 251.154 200.817 245.953 209.675Z" fill="#FF8C5A"/>
<path d="M197.83 288.774C195.295 284.158 191.625 280.265 187.165 277.464C182.927 274.875 178.15 273.298 173.204 272.854C170.347 272.271 167.41 272.179 164.522 272.58C160.372 273.182 156.298 275.241 152.05 274.879C148.207 274.562 145.141 270.839 141.101 271.726C139.366 272.195 137.829 273.213 136.721 274.628C136.425 274.847 136.14 275.088 135.856 275.339C134.966 276.867 133.971 278.33 132.878 279.719C130.013 283.26 126.614 286.334 122.804 288.829L122.684 288.906C122.248 289.057 121.826 289.248 121.424 289.475C120.732 289.877 120.089 290.359 119.508 290.91C116.923 292.366 114.436 293.99 112.063 295.771C108.055 298.838 104.651 302.621 102.022 306.929C99.3283 310.64 97.5436 314.922 98.737 319.302C99.6897 322.816 102.81 324.623 106.303 324.875C107.585 325.028 108.883 324.813 110.047 324.254C111.211 323.696 112.191 322.817 112.873 321.721C115.38 318.535 115.84 313.323 116.388 309.677C116.99 305.735 118.096 297.884 121.468 294.162L121.808 293.921C124.523 292.136 128.52 292.333 130.567 294.556C131.432 296.406 130.644 298.936 129.801 301.005C128.116 304.629 126.08 308.08 123.724 311.308C118.796 318.721 113.442 326.233 110.157 334.554C117.921 332.802 127.468 327.985 135.1 315.612H137.684L137.422 310.137C137.19 307.673 137.15 305.194 137.301 302.724C137.652 299.363 138.462 295.705 140.476 292.869C141.118 291.974 141.92 291.205 142.842 290.603C143.33 290.643 143.797 290.823 144.186 291.122C144.575 291.421 144.868 291.827 145.031 292.289C145.962 294.556 145.108 297.337 144.44 299.549C143.63 302.242 142.546 304.826 141.714 307.509C140.876 310.144 140.401 312.881 140.301 315.644H151.711C152.163 314.265 152.507 312.851 152.74 311.418L152.838 310.75C152.719 310.573 152.661 310.361 152.674 310.148C152.68 305.048 151.726 299.992 149.86 295.246C148.864 292.541 147.408 289.552 147.583 286.595C147.736 283.913 150.462 282.161 152.685 284.077C154.908 285.993 156.036 289.289 156.78 291.972C157.035 292.86 157.236 293.763 157.382 294.676C157.438 294.889 157.482 295.105 157.514 295.322C158.186 300.057 157.881 304.879 156.616 309.491C156.569 309.647 156.49 309.792 156.386 309.918C155.778 311.891 154.997 313.807 154.054 315.644H172.734C172.642 314.27 172.448 312.905 172.153 311.56C170.659 305.596 167.82 300.053 163.854 295.355C160.755 291.49 155.368 285.347 160.415 280.748C162.104 279.623 164.118 279.088 166.142 279.226C168.601 279.722 170.861 280.924 172.646 282.686C176.084 286.048 177.803 290.8 178.854 295.388C180.162 300.706 180.558 306.208 180.026 311.659C179.873 313.006 179.643 314.341 179.391 315.666H201.75C202.626 307.761 202.319 299.647 199.341 292.256C198.87 291.085 198.344 289.924 197.83 288.774Z" fill="#FF8C5A"/>
<path d="M83.1669 226.998C80.3296 236.845 78.1351 246.867 76.5972 256.999C77.7365 254.671 78.6849 252.254 79.4331 249.773C79.9806 248.032 80.4405 246.258 80.8456 244.473C81.4478 238.659 82.1924 232.801 83.1669 226.998Z" fill="#FF8C5A"/>
<path d="M238.836 180.889C239.441 177.85 240.306 174.868 241.42 171.977C242.466 169.576 243.817 167.32 245.438 165.264C240.614 161.962 235.544 159.034 230.273 156.505C230.208 156.987 230.142 157.468 230.087 157.95C230.01 162.527 230.295 167.126 230.667 171.692C230.733 172.458 230.81 173.225 230.897 173.991C231.456 176.521 232.146 179.017 232.879 181.535C233.719 184.192 234.356 186.907 234.784 189.66C235.469 191.688 235.649 193.853 235.31 195.967C235.214 196.286 234.995 196.555 234.702 196.715C234.409 196.875 234.065 196.913 233.744 196.821C231.302 195.835 230.273 192.802 229.474 190.525C227.404 184.678 226.802 178.393 224.7 172.568C224.579 172.228 224.459 171.9 224.328 171.571C223.662 170.255 222.931 168.972 222.138 167.728C219.674 163.918 216.291 159.888 211.703 158.706C209.232 158.114 206.634 158.385 204.338 159.472C202.042 160.559 200.186 162.398 199.078 164.684C198.41 165.832 197.985 167.104 197.829 168.422C197.672 169.741 197.788 171.077 198.169 172.349C198.695 173.622 199.511 174.755 200.553 175.656C201.595 176.557 202.834 177.202 204.17 177.539C208.549 178.886 213.444 178.053 217.594 180.145C219.378 181.058 220.946 182.342 222.192 183.911C222.674 184.755 223.134 185.631 223.561 186.506C225.751 191.105 227.547 195.956 229.945 200.467C230.976 202.973 232.654 205.16 234.806 206.807C235.388 207.186 236.039 207.447 236.722 207.573C237.762 207.838 238.85 207.851 239.895 207.611C240.94 207.371 241.914 206.885 242.734 206.194C244.413 204.596 245.683 202.616 246.435 200.423C247.212 198.606 247.957 196.153 248.625 194.719C250.814 190.339 254.428 187.054 258.304 184.295C260.056 183.035 261.775 181.722 263.516 180.44C259.509 176.358 255.225 172.556 250.694 169.064C250.092 169.732 249.511 170.422 248.942 171.144C248.373 171.867 248 172.349 247.541 172.962C247.056 173.94 246.622 174.941 246.238 175.962C244.943 179.613 244.072 183.401 243.643 187.251C243.312 190.863 242.618 194.432 241.573 197.905C241.504 198.114 241.383 198.302 241.221 198.451C241.06 198.6 240.863 198.705 240.649 198.756C240.435 198.808 240.211 198.804 240 198.745C239.788 198.686 239.594 198.574 239.438 198.42C237.171 196.503 237.095 192.945 237.248 190.229C237.497 187.075 238.028 183.949 238.836 180.889Z" fill="#FF8C5A"/>
<path d="M122.147 173.969C120.176 177.593 115.577 176.159 112.008 174.352C109.418 176.984 106.987 179.766 104.726 182.685C107.053 182.796 109.384 182.738 111.701 182.51C116.508 182.028 121.556 180.944 125.443 177.944C130.918 173.761 130.797 166.994 128.465 161.246C124.966 163.408 121.622 165.812 118.457 168.44C121.184 169.589 123.57 171.33 122.147 173.969Z" fill="#FF8C5A"/>
<path d="M263.822 297.228C261.536 295.105 258.827 293.49 255.873 292.486C250.693 290.797 245.165 290.469 239.821 291.534C236.634 291.666 233.552 292.711 230.941 294.545L230.208 295.049C226.303 296.902 222.679 299.299 219.444 302.166C215.002 306.096 211.129 310.625 207.936 315.623H236.109V315.568C237.359 311.82 238.863 308.162 240.61 304.618C242.11 301.761 244.289 299.012 247.519 298.049C250.057 297.452 252.723 297.742 255.074 298.87C256.015 299.206 256.882 299.723 257.625 300.392C259.815 302.034 261.687 304.476 261.841 307.235C262.005 310.257 259.651 312.13 256.859 312.644C253.793 313.214 250.585 312.721 247.486 312.863C246.884 312.863 246.249 312.94 245.602 313.028C244.985 313.061 244.372 313.157 243.774 313.312C242.387 313.657 241.14 314.422 240.204 315.502H272.418C272.783 310.495 271.29 305.528 268.224 301.553C266.972 299.908 265.489 298.451 263.822 297.228Z" fill="#FF8C5A"/>
<path d="M291.054 292.683C291.672 291.101 292.603 289.66 293.791 288.446C294.098 288.052 294.404 287.679 294.7 287.351C295.149 286.836 295.631 286.256 296.244 285.665C297.844 283.757 298.99 281.511 299.594 279.095C299.991 277.702 300.025 276.23 299.694 274.82C299.362 273.409 298.676 272.107 297.7 271.036C296.006 269.433 293.77 268.526 291.437 268.496C286.718 268.299 281.878 270.598 278.079 273.226C275.433 274.946 273.103 277.109 271.191 279.621C269.084 281.72 267.52 284.302 266.636 287.143C266.147 288.977 266.251 290.92 266.936 292.691C267.621 294.462 268.85 295.97 270.447 296.997C273.25 299.001 276.776 299.899 280.028 300.885C281.542 301.333 283.03 301.866 284.484 302.483L286.127 302.899C288.061 303.36 289.946 304.01 291.755 304.837C292.269 304.936 292.795 305.045 293.309 305.166C295.872 305.779 299.562 306.611 301.051 309.064C302.54 311.516 300.503 314.079 298.27 315.152C300.564 314.773 302.742 313.877 304.639 312.532C306.536 311.187 308.102 309.428 309.219 307.389C307.135 307.253 305.179 306.334 303.744 304.815C303.192 304.24 302.847 303.498 302.761 302.706C302.676 301.913 302.856 301.115 303.273 300.436C305.502 297.506 308.742 295.512 312.362 294.84C312.534 291.241 312.41 287.634 311.989 284.055C309.799 286.968 307.763 289.968 305.562 292.815L305.288 293.154C304.081 295.716 302.582 298.13 300.821 300.348C300.173 301.225 299.288 301.899 298.27 302.29C297.252 302.68 296.144 302.772 295.076 302.553C294.008 302.334 293.024 301.815 292.242 301.055C291.459 300.296 290.91 299.329 290.66 298.268C290.308 296.87 290.357 295.401 290.802 294.03C290.829 293.572 290.914 293.12 291.054 292.683Z" fill="#FF8C5A"/>
<path d="M91.8717 310.662C90.9435 308.408 89.7132 306.29 88.2146 304.366C86.824 303.206 85.2692 302.177 83.8348 301.082C81.108 299.131 79.2436 296.199 78.6338 292.902C77.9878 289.278 78.3272 285.479 77.1994 281.953C76.545 279.928 75.5326 278.036 74.2102 276.369C73.8489 279.872 73.5423 283.3 73.2576 286.628C75.7541 287.537 76.7395 290.088 76.3563 292.596C75.8713 295.365 74.4994 297.901 72.4474 299.822C72.4435 303.803 72.9776 307.766 74.035 311.604C74.3088 311.297 74.5716 310.991 74.8562 310.695C76.4987 308.9 78.2615 306.918 80.5281 305.91C81.3108 305.522 82.1917 305.378 83.0574 305.494C85.4663 305.658 86.605 308.144 86.8459 310.63C87.2292 314.626 84.7327 317.572 82.1814 320.331C81.3164 321.251 80.4405 322.116 79.5426 322.948C80.4089 324.105 81.3527 325.203 82.3676 326.233C83.8423 323.899 85.5205 321.701 87.3825 319.663C87.4995 319.545 87.6385 319.452 87.7917 319.388C87.9448 319.325 88.109 319.292 88.2748 319.292C88.4407 319.292 88.6049 319.325 88.758 319.388C88.9112 319.452 89.0502 319.545 89.1672 319.663C91.3571 322.521 90.2622 325.915 88.5102 328.696C88.138 329.298 87.7328 329.879 87.3168 330.448C89.4115 331.934 91.6667 333.179 94.0397 334.16C94.5431 331.376 94.5431 328.524 94.0397 325.74C94.4045 320.617 93.6652 315.475 91.8717 310.662Z" fill="#FF8C5A"/>
<path d="M286.904 315.294C286.214 315.207 285.481 315.086 284.714 314.999H284.528C283.573 315.133 282.629 315.334 281.703 315.601H289.094L286.904 315.294Z" fill="#FF8C5A"/>
<path d="M180.07 178.918C180.07 178.918 151.7 174.725 152.696 152.64C153.693 130.554 152.696 93.786 152.696 93.786C152.696 93.786 147.484 79.0699 156.934 75.9165L182.117 50.7327L228.357 89.6143C228.357 89.6143 223.101 135.854 207.345 147.417L206.25 170.542C206.25 170.542 204.159 181.032 180.07 178.918Z" fill="#D4D2D2"/>
<path d="M152.696 62.2734C152.696 62.2734 168.452 24.443 213.652 40.2102C213.652 40.2102 254.636 53.8752 244.124 87.501C244.124 87.501 240.971 104.319 210.498 95.9102C180.026 87.501 179.84 71.044 182.971 66.8394C186.103 62.6348 182.971 56.3278 176.862 60.1821C171.245 63.7188 169.504 88.5522 169.504 88.5522L168.409 118.4C168.409 118.4 168.409 122.178 170.511 123.229C172.613 124.28 173.423 110.484 197.72 112.729C197.72 112.729 219.915 114.82 218.864 127.434C217.813 140.048 205.199 157.917 187.329 156.866C169.46 155.815 158.806 128.846 160.908 109.937C160.908 109.937 165.627 77.6246 160.372 76.5734C160.372 76.5734 151.426 74.1974 152.926 102.37C153.046 104.768 145.349 83.2964 152.707 62.2734" fill="#2C232E"/>
<path d="M145.579 227.008L166.865 202.416C166.865 202.416 174.42 190.514 195.881 190.251L204.038 190.536C204.038 190.536 210.159 190.744 208.998 194.762C207.838 198.781 200.731 197.51 200.731 197.51C200.731 197.51 188.008 197.073 187.833 202.131C187.658 207.19 191.895 216.464 191.895 216.464C191.895 216.464 196.275 224.72 190.8 228.585C185.326 232.45 170.971 231.947 170.971 231.947L166.46 243.991L145.579 228.06" fill="#D4D2D2"/>
<path d="M229.342 168.932L203.929 223.319C203.929 223.319 200.961 231.246 207.027 231.246C210.663 231.246 221.7 231.596 231.259 231.246L247.113 215.391L265.147 169.403C265.147 169.403 267.939 164.794 259.202 164.454C251.537 164.148 241.004 163.983 235.376 164.454C231.259 164.794 229.342 168.9 229.342 168.9" fill="#2C232E"/>
<path d="M248.449 239.031C248.449 239.031 231.598 236.743 226.638 243.991L213.75 195.408C213.264 192.29 213.972 189.104 215.732 186.485C218.7 181.787 220.692 181.524 223.66 184.503C226.627 187.481 244.289 207.65 244.289 207.65C244.289 207.65 248.066 210.935 251.044 206.007C252.864 202.922 254.2 199.577 255.008 196.087C255.008 196.087 262.136 207.65 257.198 219.541C252.26 231.432 251.45 233.086 251.45 233.086C251.45 233.086 248.471 237.049 248.471 239.031" fill="#D4D2D2"/>
<path d="M192.289 96.3373C190.526 96.5337 188.74 96.3085 187.08 95.6804C185.42 95.0522 183.933 94.039 182.741 92.724C181.34 91.202 180.081 88.6727 181.011 86.5814C181.515 85.4864 179.851 84.6652 179.369 85.782C178.274 88.2238 179.249 91.0159 180.53 93.1729C181.756 95.1524 183.533 96.7315 185.643 97.717C190.023 99.7864 196.001 99.4798 199.297 95.5271C201.049 93.4467 201.881 89.5377 199.965 87.2383C199.792 86.9925 199.536 86.818 199.243 86.7475C198.951 86.677 198.643 86.7152 198.377 86.8551C198.11 87.0093 197.905 87.2535 197.801 87.5443C197.697 87.8352 197.699 88.1536 197.808 88.4427C198.239 89.2191 198.458 90.0952 198.443 90.983C198.397 91.8888 198.102 92.7642 197.589 93.5124C196.733 94.6312 195.551 95.4574 194.206 95.8775" fill="black"/>
<path d="M216.433 98.79C214.669 98.9863 212.884 98.7612 211.224 98.133C209.564 97.5048 208.077 96.4916 206.885 95.1766C205.484 93.6547 204.224 91.1253 205.155 89.034C205.659 87.939 203.994 87.1178 203.513 88.2347C202.418 90.6654 203.392 93.4685 204.673 95.6256C205.901 97.6018 207.678 99.1772 209.787 100.159C214.167 102.239 220.145 101.932 223.441 97.9688C225.193 95.8884 226.025 91.9794 224.098 89.68C223.928 89.4331 223.674 89.2575 223.383 89.1867C223.092 89.116 222.785 89.1552 222.521 89.2968C222.253 89.4509 222.049 89.6952 221.945 89.9861C221.84 90.2769 221.843 90.5953 221.952 90.8845C222.383 91.6608 222.602 92.5369 222.587 93.4247C222.535 94.3312 222.228 95.2045 221.7 95.9431C220.85 97.0668 219.671 97.8975 218.327 98.3192" fill="black"/>
<path d="M140.345 235.768C139.938 235.216 139.33 234.845 138.652 234.736C137.974 234.628 137.28 234.79 136.721 235.188L136.414 235.44C132.779 238.462 129.374 241.889 126.023 245.229C122.673 248.568 119.267 252.138 116.081 255.773C109.726 262.985 103.873 270.624 98.5619 278.636C95.5325 283.22 92.682 287.921 90.0103 292.739C88.5759 295.323 92.7586 297.217 94.1821 294.644C103.256 278.27 114.611 263.269 127.906 250.09C131.695 246.324 135.779 242.973 139.776 239.447C140.316 239.028 140.676 238.418 140.782 237.743C140.888 237.067 140.731 236.376 140.345 235.812" fill="#2C232E"/>
<path d="M204.29 131.617C203.018 131.963 201.69 132.06 200.381 131.901C199.122 131.901 197.874 131.847 196.636 131.759C194.14 131.573 191.665 131.299 189.18 130.993C188.889 130.953 188.626 130.8 188.449 130.567C188.271 130.334 188.193 130.04 188.233 129.75C188.272 129.459 188.425 129.196 188.658 129.019C188.891 128.841 189.185 128.763 189.475 128.803C191.907 129.214 194.367 129.434 196.833 129.46C198.016 129.46 199.21 129.46 200.392 129.46C201.691 129.262 203.013 129.262 204.312 129.46C205.297 129.733 205.199 131.233 204.312 131.649" fill="#D4D2D2"/>
<path d="M293.485 295.103C294.104 294.811 294.584 294.286 294.82 293.643C295.055 292.999 295.028 292.289 294.744 291.665C294.685 291.545 294.619 291.428 294.547 291.315C292.28 287.165 289.565 283.169 286.937 279.271C284.309 275.373 281.462 271.321 278.473 267.5C272.605 259.898 266.221 252.709 259.366 245.984C255.446 242.141 251.362 238.44 247.157 234.914C244.891 233.009 242.241 236.754 244.486 238.637C258.852 250.662 271.431 264.672 281.845 280.245C284.813 284.625 287.32 289.322 290.025 293.921C290.334 294.531 290.864 294.999 291.507 295.231C292.15 295.463 292.857 295.441 293.485 295.169" fill="#2C232E"/>
<path d="M149.915 165.111C151.329 167.471 153.028 169.648 154.974 171.593C158.722 175.391 163.189 178.406 168.113 180.462C173.33 182.578 178.928 183.589 184.556 183.433C190.183 183.276 195.717 181.955 200.808 179.553C203.729 178.194 206.484 176.504 209.02 174.517C211.558 172.726 213.512 170.228 214.637 167.334C215.338 165.199 212.174 163.972 211.429 166.096C210.477 168.277 208.885 170.118 206.863 171.374C204.812 172.849 202.631 174.135 200.348 175.217C195.643 177.475 190.537 178.781 185.326 179.061C175.962 179.468 166.806 176.221 159.791 170.005C157.85 168.276 156.122 166.32 154.645 164.18C153.78 162.949 153.074 161.613 152.543 160.206C152.098 158.788 151.869 157.311 151.864 155.826C151.776 155.298 151.498 154.821 151.083 154.484C150.667 154.147 150.143 153.974 149.608 153.997C149.08 154.027 148.58 154.248 148.201 154.619C147.823 154.989 147.591 155.484 147.55 156.012C147.101 159.111 148.371 162.439 149.915 165.056" fill="#2C232E"/>
<path d="M191.085 112.411C191.085 112.411 203.403 118.357 204.969 115.39C205.954 113.506 204.969 104.78 204.969 104.78L191.085 112.411Z" fill="#D4D2D2"/>
<path d="M299.627 147.077C296.977 147.504 294.328 148.008 291.7 148.588C286.404 149.758 281.177 151.22 276.042 152.968C273.14 153.954 270.25 154.972 267.425 156.154C267.082 156.334 266.819 156.636 266.688 157C266.557 157.364 266.568 157.764 266.718 158.121C266.868 158.478 267.147 158.765 267.499 158.926C267.851 159.087 268.25 159.11 268.618 158.99C274.566 156.768 280.643 154.911 286.816 153.428C289.904 152.705 292.992 152.048 296.112 151.512C297.667 151.238 299.233 150.986 300.799 150.767L303.142 150.45C303.62 150.355 304.102 150.286 304.587 150.242C304.884 150.423 305.229 150.509 305.576 150.488C305.924 150.467 306.256 150.339 306.528 150.123C306.8 149.907 307 149.612 307.099 149.279C307.199 148.946 307.193 148.59 307.084 148.26C305.836 145.446 301.916 146.738 299.583 147.165" fill="#2C232E"/>
<path d="M275.396 103.914C273.761 107.068 272.206 110.258 270.732 113.484C267.792 119.999 265.211 126.67 263.001 133.467C261.753 137.288 260.559 141.132 259.574 145.041C258.928 147.581 262.771 148.325 263.516 145.906C265.883 137.883 268.731 130.011 272.045 122.331C273.71 118.506 275.48 114.729 277.356 110.999C278.298 109.137 279.268 107.29 280.269 105.458C280.772 104.538 281.276 103.63 281.791 102.721C282.068 102.138 282.379 101.571 282.721 101.024C283.186 100.885 283.592 100.596 283.875 100.202C284.158 99.8077 284.303 99.3306 284.285 98.8456C284.267 98.3606 284.089 97.8952 283.778 97.5224C283.468 97.1496 283.042 96.8907 282.568 96.7862C278.593 95.9978 276.863 101.166 275.418 103.914" fill="#2C232E"/>
<path d="M254.11 136.806C254.105 136.898 254.105 136.989 254.11 137.08C254.11 137.08 254.11 137.179 254.11 137.233C254.11 137.288 254.11 137.354 254.11 137.376L254.045 137.77C253.972 138.14 253.881 138.505 253.771 138.865C253.716 139.04 253.661 139.215 253.596 139.391C253.53 139.566 253.53 139.555 253.508 139.642C253.51 139.679 253.51 139.715 253.508 139.752C253.206 140.459 252.839 141.137 252.413 141.778L252.249 141.997C252.128 142.128 252.019 142.281 251.909 142.413C251.647 142.719 251.362 143.015 251.066 143.3L250.672 143.661L250.464 143.836L250.344 143.935L250.234 144.022L249.96 144.219L249.468 144.559C249.161 144.756 248.854 144.942 248.537 145.106L248.011 145.391L247.76 145.5L247.551 145.599H247.431L247.179 145.697L246.676 145.884C246.303 146.015 245.92 146.125 245.581 146.223C245.241 146.322 244.869 146.398 244.486 146.464L244.135 146.519H243.697C242.999 146.586 242.296 146.604 241.595 146.573C241.245 146.573 240.905 146.573 240.555 146.497C240.456 146.497 240.007 146.42 240.314 146.497L239.766 146.398C239.077 146.274 238.397 146.106 237.73 145.895C237.39 145.785 237.062 145.665 236.733 145.533L236.295 145.358L236.011 145.227C235.373 144.922 234.755 144.579 234.16 144.197C233.865 144 233.569 143.803 233.295 143.595L233.022 143.387L232.605 143.037C232.069 142.566 231.565 142.062 231.094 141.526C230.886 141.285 230.689 141.044 230.492 140.792C230.492 140.792 230.306 140.529 230.284 140.496L229.923 139.949C229.525 139.321 229.177 138.661 228.883 137.978C228.883 137.901 228.806 137.825 228.773 137.737C228.775 137.704 228.775 137.671 228.773 137.639C228.773 137.507 228.675 137.387 228.631 137.255C228.499 136.883 228.379 136.5 228.269 136.16C228.16 135.821 228.094 135.482 228.029 135.131C228.029 134.967 227.963 134.792 227.941 134.617C227.936 134.533 227.936 134.449 227.941 134.365V134.31C227.946 134.281 227.946 134.251 227.941 134.222C227.887 133.493 227.887 132.761 227.941 132.032C227.941 131.857 227.941 131.693 227.941 131.518C227.941 131.343 227.941 131.365 227.941 131.299C228.007 130.905 228.072 130.521 228.16 130.149C228.248 129.777 228.346 129.47 228.456 129.142L228.62 128.682C228.625 128.646 228.625 128.609 228.62 128.572L228.795 128.2C229.123 127.505 229.516 126.841 229.967 126.218C229.967 126.218 230.175 125.945 230.197 125.912C230.218 125.879 230.426 125.638 230.547 125.496C230.667 125.353 231.105 124.893 231.401 124.609C231.697 124.324 231.905 124.149 232.178 123.93L232.277 123.853L232.496 123.689L233.043 123.306C233.677 122.888 234.343 122.521 235.036 122.211H235.113L235.354 122.112L235.857 121.926C236.23 121.795 236.613 121.674 237.007 121.576C237.401 121.477 237.686 121.411 238.036 121.357C238.369 121.293 238.706 121.249 239.044 121.225C240.461 121.107 241.888 121.24 243.259 121.62C244.701 122.025 246.066 122.665 247.3 123.514C247.231 123.772 247.249 124.045 247.349 124.292C247.45 124.539 247.629 124.746 247.858 124.882C248.172 125.042 248.476 125.221 248.767 125.419L248.975 125.572C248.975 125.572 249.128 125.693 249.128 125.682L249.282 125.813L249.621 126.065H249.687C249.729 126.111 249.777 126.151 249.829 126.185C249.971 126.317 250.114 126.437 250.245 126.58C250.453 126.777 250.651 126.985 250.836 127.204C250.946 127.379 251.055 127.554 251.154 127.74C251.242 127.922 251.388 128.068 251.57 128.156C251.756 128.43 251.942 128.715 252.106 129C252.51 129.691 252.875 130.404 253.201 131.135C253.201 131.233 253.278 131.321 253.322 131.408L253.431 131.671L253.486 131.824C253.486 131.923 253.563 132.022 253.596 132.109C253.738 132.514 253.869 132.919 253.979 133.335C254.097 133.746 254.192 134.163 254.264 134.584C254.264 134.682 254.264 134.781 254.264 134.879C254.264 135.098 254.264 135.328 254.264 135.547C254.285 135.948 254.285 136.351 254.264 136.752L254.11 136.806ZM256.607 132.372C256.106 130.609 255.369 128.922 254.417 127.357C253.534 125.838 252.362 124.506 250.968 123.437C250.578 123.162 250.15 122.944 249.698 122.791C248.581 121.743 247.311 120.872 245.931 120.207C242.858 118.765 239.385 118.413 236.085 119.21C232.785 120.006 229.854 121.902 227.777 124.587C225.65 127.361 224.659 130.842 225.006 134.321C225.371 137.783 226.793 141.048 229.08 143.672C231.238 146.092 234.017 147.876 237.117 148.829C243.522 150.822 251.154 148.829 255.041 142.982C256.056 141.425 256.724 139.667 256.998 137.828C257.272 135.99 257.146 134.114 256.629 132.328" fill="#FF8C5A"/>
<path d="M247.508 134.135C247.339 134.193 247.167 134.24 246.993 134.277C246.214 134.302 245.44 134.152 244.727 133.839C243.938 133.566 243.15 133.248 242.383 132.92C240.977 132.323 239.609 131.639 238.288 130.872C238.748 130.018 239.175 129.131 239.558 128.233C239.635 128.038 239.676 127.83 239.679 127.62C241.971 128.736 244.067 130.215 245.887 132C246.434 132.501 246.929 133.054 247.365 133.653C247.442 133.768 247.508 133.888 247.562 134.015C247.562 134.015 247.453 134.069 247.497 134.015L247.508 134.135ZM245.23 139.763C245.23 139.763 245.23 139.927 245.23 139.949C245.226 139.967 245.226 139.986 245.23 140.004C245.23 139.938 245.23 139.949 245.23 140.004C245.112 140.051 244.991 140.091 244.869 140.124C244.74 140.16 244.608 140.182 244.475 140.19C244.063 140.23 243.648 140.197 243.248 140.092C241.529 139.551 239.899 138.761 238.409 137.748C237.277 137.09 236.207 136.331 235.211 135.482C235.701 134.911 236.13 134.291 236.492 133.631C236.69 133.336 236.876 133.029 237.062 132.723C238.325 133.493 239.545 134.33 240.719 135.23C242.149 136.281 243.45 137.498 244.595 138.854C244.834 139.107 245.027 139.4 245.164 139.719L245.23 139.763ZM248.285 131.693C247.717 131.061 247.118 130.458 246.489 129.887C246.942 129.35 247.311 128.748 247.584 128.102C247.726 127.843 247.766 127.541 247.695 127.255C247.624 126.969 247.448 126.72 247.201 126.558C247.076 126.486 246.938 126.439 246.795 126.42C246.652 126.401 246.506 126.411 246.367 126.448C246.227 126.486 246.097 126.551 245.982 126.639C245.868 126.728 245.773 126.838 245.701 126.963C245.493 127.368 245.252 127.751 245.011 128.135C244.945 128.252 244.872 128.365 244.792 128.474L244.289 128.091L243.785 127.73L244.059 127.215C244.29 126.723 244.473 126.209 244.606 125.682C244.924 124.39 242.975 123.843 242.69 125.135C242.608 125.511 242.487 125.878 242.329 126.229C242.268 126.365 242.198 126.497 242.121 126.624C241.175 126.111 240.198 125.658 239.197 125.266C238.409 124.937 237.795 126.01 238.102 126.656C237.918 126.746 237.77 126.897 237.686 127.084C237.101 128.344 236.435 129.566 235.693 130.741C235.355 131.267 234.99 131.775 234.598 132.263C234.182 132.81 233.668 133.292 233.284 133.872C233.012 133.763 232.711 133.748 232.43 133.829C232.148 133.91 231.901 134.084 231.729 134.321C231.524 134.596 231.423 134.935 231.443 135.277C231.463 135.62 231.603 135.944 231.839 136.194C232.572 136.909 233.355 137.571 234.182 138.175C233.941 138.668 233.711 139.15 233.481 139.643C233.142 140.365 232.682 141.165 233.076 141.964C233.173 142.14 233.326 142.278 233.511 142.355C233.696 142.433 233.902 142.445 234.095 142.391C234.828 142.227 235.135 141.351 235.419 140.716C235.617 140.278 235.814 139.851 236 139.413C236.339 139.621 236.679 139.829 237.018 140.015C237.357 140.201 237.774 140.442 238.113 140.65C238.113 140.65 238.113 140.738 238.058 140.792C237.827 141.46 237.666 142.15 237.576 142.851C237.573 143.033 237.629 143.212 237.738 143.358C237.847 143.505 238.001 143.611 238.177 143.66C238.353 143.708 238.54 143.698 238.709 143.628C238.877 143.559 239.018 143.436 239.109 143.278C239.402 142.707 239.626 142.105 239.777 141.482C240.723 141.981 241.732 142.35 242.777 142.577C243.936 142.851 245.153 142.72 246.227 142.205C246.749 141.93 247.151 141.471 247.353 140.916C247.556 140.361 247.544 139.751 247.322 139.205C246.864 138.21 246.217 137.313 245.416 136.566L244.891 136.029C245.625 136.265 246.4 136.351 247.168 136.281C247.683 136.267 248.18 136.088 248.586 135.771C248.992 135.454 249.286 135.015 249.424 134.518C249.457 134.019 249.375 133.519 249.186 133.056C248.996 132.593 248.703 132.179 248.329 131.847" fill="#FF8C5A"/>
<path d="M224.185 38.3597C221.401 36.5332 218.4 35.0618 215.251 33.9799C209.107 31.8075 202.595 30.8734 196.089 31.2316C189.15 31.6867 182.374 33.5357 176.166 36.668C169.958 39.8004 164.445 44.1518 159.956 49.4625C157.374 52.4871 155.141 55.7927 153.298 59.317C151.557 62.6018 150.243 66.3138 150.638 70.1242C150.922 72.8287 155.083 72.5002 154.853 69.7847C154.601 66.8393 155.871 64.1238 157.295 61.6164C162.098 53.2959 169.098 46.4581 177.53 41.8526C187.714 36.479 199.569 35.2058 210.663 38.294C213.699 39.1486 216.622 40.3654 219.368 41.9183C220.963 42.8202 222.435 43.9243 223.747 45.2031C224.95 46.5021 225.943 47.9796 226.693 49.5829C227.071 50.1114 227.628 50.4841 228.261 50.6312C228.894 50.7784 229.559 50.6898 230.131 50.3822C230.699 50.0752 231.141 49.577 231.377 48.9759C231.613 48.3747 231.63 47.7093 231.423 47.0974C230.328 43.4731 227.273 40.5277 224.218 38.4801" fill="#2C232E"/>
<path d="M257.067 322.664C256.514 323.088 255.816 323.28 255.124 323.196C254.432 323.112 253.801 322.759 253.366 322.215C253.278 322.094 253.201 321.985 253.136 321.875C250.42 317.9 248.055 313.586 245.712 309.382C243.369 305.177 241.048 300.732 238.945 296.242C234.773 287.407 231.206 278.298 228.269 268.978C226.598 263.635 225.138 258.237 223.89 252.784C223.211 249.849 227.831 249.182 228.499 252.094C232.763 270.663 239.643 288.532 248.931 305.166C251.581 309.907 254.636 314.331 257.548 318.897C257.96 319.459 258.142 320.158 258.056 320.849C257.971 321.541 257.625 322.174 257.089 322.62" fill="#2C232E"/>
<path fill-rule="evenodd" clip-rule="evenodd" d="M129.959 322.478C129.941 322.48 129.976 322.476 129.959 322.478C131.501 320.664 132.948 318.624 134.38 316.316C134.38 316.316 136.557 312.597 139.378 305.971C200.52 300.295 262.188 305.51 321.516 321.377C330.562 323.774 327.723 338.144 318.666 335.669C266.032 321.353 208.725 316.33 153.451 320.255C196.164 323.953 393.323 342.518 467 375.918V553.373H-93V328.865C-53.4827 317.214 52.0998 315.158 75.1219 314.845C81.2672 330.724 95.8029 334.817 95.8029 334.817C95.8029 334.817 114.773 339.6 129.959 322.478Z" fill="#D4D2D2"/>
</svg>
