<svg width="41" height="41" viewBox="0 0 41 41" fill="none" xmlns="http://www.w3.org/2000/svg">
<path fill-rule="evenodd" clip-rule="evenodd" d="M8.5 19.6667C8.5 16.9053 10.7386 14.6667 13.5 14.6667H27.5C30.2614 14.6667 32.5 16.9053 32.5 19.6667H30.5C30.5 18.0099 29.1569 16.6667 27.5 16.6667H13.5C11.8431 16.6667 10.5 18.0099 10.5 19.6667V27.6667C10.5 29.3236 11.8431 30.6667 13.5 30.6667H27.5C29.1569 30.6667 30.5 29.3236 30.5 27.6667H32.5C32.5 30.4281 30.2614 32.6667 27.5 32.6667H13.5C10.7386 32.6667 8.5 30.4281 8.5 27.6667V19.6667Z" fill="#2C232E"/>
<path fill-rule="evenodd" clip-rule="evenodd" d="M32.5 20.6667H26.5C25.3954 20.6667 24.5 21.5621 24.5 22.6667V24.6667C24.5 25.7713 25.3954 26.6667 26.5 26.6667H32.5V20.6667ZM26.5 18.6667C24.2909 18.6667 22.5 20.4576 22.5 22.6667V24.6667C22.5 26.8758 24.2909 28.6667 26.5 28.6667H32.5C33.6046 28.6667 34.5 27.7713 34.5 26.6667V20.6667C34.5 19.5621 33.6046 18.6667 32.5 18.6667H26.5Z" fill="#2C232E"/>
<path d="M28.5 23.6667C28.5 24.219 28.0523 24.6667 27.5 24.6667C26.9477 24.6667 26.5 24.219 26.5 23.6667C26.5 23.1144 26.9477 22.6667 27.5 22.6667C28.0523 22.6667 28.5 23.1144 28.5 23.6667Z" fill="#2C232E"/>
<path fill-rule="evenodd" clip-rule="evenodd" d="M22.8303 11.0813C22.5128 10.6559 21.9183 10.5527 21.476 10.8461L12.6524 16.7C12.1922 17.0053 11.5716 16.8797 11.2663 16.4195C10.961 15.9593 11.0866 15.3387 11.5468 15.0334L20.3704 9.17954C21.6973 8.29922 23.4808 8.60898 24.4332 9.88515L28.3014 15.0686C28.6317 15.5112 28.5407 16.1378 28.0981 16.4681C27.6555 16.7984 27.0289 16.7074 26.6986 16.2648L22.8303 11.0813Z" fill="#2C232E"/>
</svg>
