<svg width="327" height="327" viewBox="0 0 327 327" fill="none" xmlns="http://www.w3.org/2000/svg">
<path d="M111.022 141.745C111.022 141.745 138.94 123.984 156.563 88.9279C156.563 88.9279 172.841 61.0103 188.474 83.9184C204.106 106.826 179.81 113.573 175.055 111.614C175.055 111.614 193.324 131.44 174.229 144.445C155.133 157.451 138.22 127.15 138.22 127.15C138.22 127.15 149.266 159.982 135.042 154.189C120.819 148.396 119.834 143.905 109.465 147.315L107.57 145.197L111.022 141.745Z" fill="#D4D2D2"/>
<path d="M205.175 78.2417C196.607 70.0126 182.204 74.3443 172.82 78.4853C160.641 83.9079 150.378 92.9631 141.302 102.558C136.144 108.048 131.273 113.799 126.707 119.79C122.153 125.721 117.811 132.234 115.64 139.446C114.242 144.064 121.211 145.865 122.789 141.416C124.548 136.03 126.892 130.852 129.779 125.975C132.803 121.239 136.264 116.796 140.116 112.704C147.593 104.539 155.61 96.511 164.708 90.1671C172.841 84.501 183.39 78.4324 193.663 79.1843C198.598 79.5444 202.93 82.1286 204.254 87.1487C205.578 92.1688 203.724 97.4218 200.462 101.351C196.596 105.873 191.14 108.736 185.222 109.347C178.38 110.173 172.217 108.436 165.894 106.064C163.341 105.1 161.096 108.955 163.193 110.692C170.342 116.613 179.408 130.307 171.147 138.875C167.324 142.836 161.043 142.147 157.008 138.875C152.263 134.988 151.321 128.21 152.157 122.469C152.221 122.163 152.221 121.848 152.158 121.542C152.095 121.236 151.969 120.946 151.789 120.691C151.609 120.435 151.378 120.22 151.111 120.058C150.844 119.895 150.546 119.79 150.236 119.748C149.927 119.705 149.612 119.727 149.311 119.812C149.01 119.897 148.73 120.043 148.488 120.24C148.246 120.438 148.047 120.683 147.904 120.961C147.761 121.239 147.677 121.543 147.656 121.855C146.788 128.951 148.387 137.011 153.873 141.978C158.883 146.532 166.677 148.184 172.492 144.17C177.787 140.484 179.768 133.505 179.069 127.309C178.603 123.656 177.357 120.145 175.415 117.015C174.855 116.088 174.232 115.199 173.551 114.357C183.019 116.221 193.134 114.727 200.685 108.415C208.85 101.584 214.114 86.778 205.26 78.2629" fill="#2C232E"/>
<path d="M196.014 178.347C198.258 179.645 199.895 181.78 200.566 184.284C201.237 186.788 200.888 189.456 199.594 191.702L166.688 248.681C166.047 249.794 165.193 250.77 164.175 251.553C163.157 252.336 161.995 252.91 160.754 253.243C159.514 253.577 158.22 253.663 156.947 253.496C155.674 253.329 154.445 252.913 153.333 252.271L52.4653 194.021C50.2186 192.723 48.5794 190.586 47.9081 188.08C47.2368 185.573 47.5884 182.903 48.8856 180.656L81.7809 123.677C82.4226 122.565 83.2771 121.59 84.2956 120.808C85.3142 120.026 86.4767 119.453 87.7169 119.12C88.9571 118.788 90.2506 118.703 91.5236 118.871C92.7966 119.038 94.0241 119.455 95.136 120.097L196.014 178.347Z" fill="#0038FF"/>
<path d="M171.825 239.806L186.991 213.53C186.927 208.079 186.751 202.6 186.461 197.092C185.995 188.62 185.328 180.094 184.205 171.537L161.488 158.415C161.424 159.082 161.361 159.749 161.287 160.416C160.454 167.943 159.377 175.356 158.057 182.657C157.739 184.447 157.4 186.226 157.05 188.006L156.51 190.664C156.51 190.664 156.51 190.727 156.51 190.759C156.415 191.172 156.33 191.575 156.245 191.988C156.161 192.401 156.002 193.047 155.885 193.555C155.684 194.508 155.568 195.101 155.515 195.345C155.338 188.729 154.985 182.075 154.456 175.381C153.863 167.883 152.994 160.236 151.628 152.653L128.328 139.192C128 141.014 127.661 142.846 127.354 144.657C126.88 147.418 126.383 150.171 125.86 152.918C125.486 150.842 125.084 148.77 124.653 146.701C123.88 142.973 122.99 139.287 122.047 135.559L102.2 124.1C102.814 125.975 103.259 127.892 103.831 129.713C104.043 130.412 104.234 131.101 104.435 131.831C104.53 132.17 104.636 132.52 104.731 132.891C105.07 134.204 105.43 135.517 105.79 136.83C108.419 147.228 110.418 157.774 111.774 168.412C112.442 173.708 112.929 179.077 113.225 184.362C113.511 189.425 113.638 194.477 114.994 199.645C115.862 202.928 117.303 205.788 120.289 207.652C121.451 208.442 122.809 208.896 124.213 208.963C125.616 209.03 127.011 208.708 128.243 208.033C131.283 206.518 132.564 202.97 133.539 199.56C134.248 196.965 134.852 194.318 135.434 191.659C136.599 186.311 137.711 180.92 138.728 175.498C138.876 176.825 139.014 178.149 139.141 179.469C139.512 183.346 139.819 187.201 140.063 191.056C140.19 192.983 140.285 194.9 140.38 196.828C140.375 196.891 140.375 196.955 140.38 197.018C140.38 197.4 140.38 197.77 140.38 198.152C140.38 199.115 140.444 200.069 140.465 201.032C140.666 208.7 140.624 216.326 140.264 223.856C140.084 227.584 139.777 231.269 139.639 235.018C139.522 238.09 139.3 241.108 139.469 244.222L153.397 252.271C153.888 252.547 154.401 252.781 154.932 252.97C155.981 251.671 156.866 250.248 157.569 248.734C158.402 246.818 159.134 244.859 159.762 242.866C161.075 239.054 162.229 235.167 163.31 231.216C166.972 217.907 169.732 204.366 171.57 190.685C171.57 191.469 171.666 192.252 171.719 193.047C171.803 194.413 171.878 195.79 171.952 197.167C171.952 197.76 172.005 198.342 172.036 198.935C172.036 199.232 172.036 199.518 172.036 199.814C172.036 200.736 172.036 199.253 172.036 199.232C172.166 199.909 172.194 200.601 172.121 201.286C172.121 201.88 172.121 202.462 172.121 203.055C172.121 204.326 172.195 205.586 172.217 206.857C172.269 209.399 172.333 211.941 172.365 214.472C172.428 219.439 172.365 224.396 172.259 229.299C172.174 232.805 172.015 236.289 171.825 239.806Z" fill="#2C232E"/>
<path d="M86.1549 172.914L76.0406 167.195C75.4247 166.842 74.9733 166.26 74.7849 165.575C74.5964 164.891 74.6861 164.16 75.0345 163.541L78.9531 156.625L80.7959 153.374C80.9653 153.065 81.1939 152.792 81.4688 152.572C81.7437 152.351 82.0594 152.187 82.3978 152.088C82.7363 151.99 83.0908 151.959 83.441 151.998C83.7913 152.037 84.1305 152.145 84.4392 152.315L94.5429 158.034C94.8534 158.203 95.1272 158.432 95.3487 158.708C95.5702 158.984 95.7349 159.301 95.8334 159.64C95.9318 159.98 95.9621 160.336 95.9224 160.687C95.8827 161.039 95.7738 161.379 95.602 161.688L89.8405 171.855C89.6722 172.164 89.4445 172.436 89.1706 172.657C88.8967 172.877 88.5819 173.041 88.2443 173.14C87.9068 173.238 87.5531 173.269 87.2036 173.23C86.8541 173.191 86.5157 173.084 86.2079 172.914" fill="#F0F0F0"/>
<path d="M125.648 167.83C125.648 167.83 175.881 159.463 221.92 120.394C221.92 120.394 259.581 91.0991 267.958 132.954C276.336 174.81 231.684 160.649 226.103 155.068C226.103 155.068 248.429 202.727 213.542 209.685C178.656 216.644 171.687 167.629 171.687 167.629C171.687 167.629 168.902 216.654 152.157 199.921C135.413 183.187 136.811 176.197 120.078 174.81L118.68 169.016L125.648 167.83Z" fill="#D4D2D2"/>
<path d="M259.687 140.971C259.048 137.479 257.544 134.202 255.313 131.44C254.234 130.095 253.032 128.854 251.722 127.733C250.303 126.515 249.138 125.043 247.2 124.714V124.852C244.023 124.164 240.718 128.199 243.758 130.666C245.008 131.726 246.279 131.853 247.613 132.583C248.713 133.267 249.653 134.182 250.367 135.263C251.838 137.352 252.759 139.778 253.046 142.316C253.363 144.927 252.907 147.573 251.734 149.926C250.561 152.279 248.723 154.237 246.448 155.555C244.107 156.96 241.412 157.661 238.684 157.577C235.955 157.492 233.309 156.625 231.059 155.078C228.5 153.343 226.122 151.352 223.964 149.137C222.767 147.983 221.379 146.849 220.066 145.653C219.016 144.006 217.67 142.57 216.095 141.416V141.501C215.475 141.149 214.757 141.01 214.05 141.104C213.344 141.197 212.687 141.519 212.18 142.02C211.673 142.521 211.344 143.174 211.242 143.879C211.139 144.584 211.27 145.304 211.615 145.928C212.674 148.046 214.548 149.285 216.169 150.906C218.104 152.793 219.875 154.84 221.464 157.027C224.4 161.047 226.784 165.442 228.549 170.096C231.78 179.014 232.055 188.101 225.648 195.642C223.06 198.834 219.774 201.39 216.043 203.112C212.312 204.835 208.235 205.677 204.127 205.576C199.751 205.321 195.476 204.166 191.567 202.183C187.658 200.2 184.2 197.433 181.409 194.053C174.546 185.813 171.878 174.311 173.72 163.848C174.091 161.73 170.935 160.829 170.543 162.958C168.361 173.369 169.399 184.701 175.023 193.905C177.694 198.289 181.267 202.055 185.505 204.953C189.744 207.851 194.55 209.814 199.605 210.712C204.498 211.572 209.523 211.301 214.295 209.92C219.068 208.54 223.462 206.087 227.141 202.748C234.756 195.8 237.732 185.104 236.397 175.074C235.72 170.486 234.194 166.065 231.896 162.037C235.167 163.408 238.74 163.899 242.259 163.461C245.778 163.022 249.121 161.67 251.955 159.537C254.874 157.476 257.153 154.634 258.53 151.337C259.907 148.04 260.326 144.422 259.74 140.897" fill="#2C232E"/>
<path d="M213.945 223.887C215.83 219.344 222.724 218.031 226.971 216.908C232.24 215.493 237.63 214.574 243.07 214.165C248.362 213.801 253.677 213.882 258.956 214.409C264.4 214.928 270.458 215.637 275.573 217.66C278.041 218.634 279.809 220.911 279.057 223.686C278.411 226.101 275.541 228.071 273.021 227.171C268.689 225.624 264.622 223.782 260.121 222.691C255.571 221.595 250.906 221.044 246.226 221.049C241.656 221.054 237.097 221.508 232.616 222.405C230.39 222.865 228.191 223.449 226.029 224.152C224.874 224.523 220.924 225.264 220.532 226.599C219.102 231.502 211.911 228.78 213.934 223.887" fill="#2C232E"/>
</svg>
