<svg width="32" height="33" viewBox="0 0 32 33" fill="none" xmlns="http://www.w3.org/2000/svg">
<path d="M3.18364 6.14453C1.0963 6.14453 0 7.40313 0 9.29029V25.9988C0 27.8859 1.0963 29.1445 3.18364 29.1445H27.8164C29.9037 29.1445 31 27.8859 31 25.9988V9.29029C31 7.40313 29.9037 6.14453 27.8164 6.14453H3.18364Z" fill="#D9D6CC"/>
<path d="M3.43502 7.43408C1.78282 7.43408 1.29077 8.41246 1.29077 9.6278V17.6257L8.58231 17.639C10.5303 17.6426 11.328 18.417 12.1397 19.5005C12.3465 19.7765 12.5979 20.1505 12.8435 20.3934C13.5768 21.1186 14.5384 21.4809 15.5001 21.4809C16.4617 21.4809 17.4233 21.1186 18.1566 20.3934C18.4022 20.1505 18.6537 19.7765 18.8604 19.5005C19.6722 18.417 20.4698 17.6426 22.4178 17.639L29.7094 17.6257V9.6278C29.7094 8.41246 29.2173 7.43408 27.5651 7.43408H3.43502Z" fill="#F16D5E"/>
<path d="M3.43502 7.43408C1.78283 7.43408 1.29077 8.41246 1.29077 9.6278V12.1902C1.29077 10.9749 1.78283 9.9965 3.43502 9.9965H27.5651C29.2173 9.9965 29.7094 10.9749 29.7094 12.1902V9.6278C29.7094 8.41246 29.2173 7.43408 27.5651 7.43408H3.43502Z" fill="#3295C9"/>
<mask id="mask0_432_2520" style="mask-type:luminance" maskUnits="userSpaceOnUse" x="1" y="7" width="29" height="6">
<path d="M3.43502 7.43408C1.78282 7.43408 1.29077 8.41246 1.29077 9.6278V12.1902C1.29077 10.9749 1.78282 9.9965 3.43502 9.9965H27.5651C29.2173 9.9965 29.7094 10.9749 29.7094 12.1902V9.6278C29.7094 8.41246 29.2173 7.43408 27.5651 7.43408H3.43502Z" fill="white"/>
</mask>
<g mask="url(#mask0_432_2520)">
<g filter="url(#filter0_f_432_2520)">
<path d="M3.43502 9.99658C1.78282 9.99658 1.29077 10.975 1.29077 12.1903V14.7527C1.29077 13.5374 1.78282 12.559 3.43502 12.559H27.5651C29.2173 12.559 29.7094 13.5374 29.7094 14.7527V12.1903C29.7094 10.975 29.2173 9.99658 27.5651 9.99658H3.43502Z" fill="black" fill-opacity="0.317757"/>
</g>
</g>
<path d="M3.43502 9.99658C1.78282 9.99658 1.29077 10.975 1.29077 12.1903V14.7527C1.29077 13.5374 1.78282 12.559 3.43502 12.559H27.5651C29.2173 12.559 29.7094 13.5374 29.7094 14.7527V12.1903C29.7094 10.975 29.2173 9.99658 27.5651 9.99658H3.43502Z" fill="#FCAD00"/>
<mask id="mask1_432_2520" style="mask-type:luminance" maskUnits="userSpaceOnUse" x="1" y="9" width="29" height="6">
<path d="M3.43502 9.99658C1.78282 9.99658 1.29077 10.975 1.29077 12.1903V14.7527C1.29077 13.5374 1.78282 12.559 3.43502 12.559H27.5651C29.2173 12.559 29.7094 13.5374 29.7094 14.7527V12.1903C29.7094 10.975 29.2173 9.99658 27.5651 9.99658H3.43502Z" fill="white"/>
</mask>
<g mask="url(#mask1_432_2520)">
<g filter="url(#filter1_f_432_2520)">
<path d="M3.43502 12.5591C1.78282 12.5591 1.29077 13.5375 1.29077 14.7528V17.3152C1.29077 16.0999 1.78282 15.1215 3.43502 15.1215H27.5651C29.2173 15.1215 29.7094 16.0999 29.7094 17.3152V14.7528C29.7094 13.5375 29.2173 12.5591 27.5651 12.5591H3.43502Z" fill="black" fill-opacity="0.313725"/>
</g>
</g>
<path d="M3.43502 12.5591C1.78282 12.5591 1.29077 13.5375 1.29077 14.7528V17.3152C1.29077 16.0999 1.78282 15.1215 3.43502 15.1215H27.5651C29.2173 15.1215 29.7094 16.0999 29.7094 17.3152V14.7528C29.7094 13.5375 29.2173 12.5591 27.5651 12.5591H3.43502Z" fill="#50BE3D"/>
<mask id="mask2_432_2520" style="mask-type:luminance" maskUnits="userSpaceOnUse" x="1" y="12" width="29" height="6">
<path d="M3.43502 12.5591C1.78282 12.5591 1.29077 13.5375 1.29077 14.7528V17.3152C1.29077 16.0999 1.78282 15.1215 3.43502 15.1215H27.5651C29.2173 15.1215 29.7094 16.0999 29.7094 17.3152V14.7528C29.7094 13.5375 29.2173 12.5591 27.5651 12.5591H3.43502Z" fill="white"/>
</mask>
<g mask="url(#mask2_432_2520)">
<g filter="url(#filter2_f_432_2520)">
<path d="M3.43502 15.1216C1.78282 15.1216 1.29077 16.1 1.29077 17.3153V19.8777C1.29077 18.6624 1.78282 17.684 3.43502 17.684H27.5651C29.2173 17.684 29.7094 18.6624 29.7094 19.8777V17.3153C29.7094 16.1 29.2173 15.1216 27.5651 15.1216H3.43502Z" fill="black" fill-opacity="0.313725"/>
</g>
</g>
<mask id="mask3_432_2520" style="mask-type:luminance" maskUnits="userSpaceOnUse" x="1" y="15" width="29" height="7">
<path d="M3.43502 15.1213C1.78283 15.1213 1.29077 16.0997 1.29077 17.3151V17.6257L8.58231 17.639C10.5303 17.6426 11.328 18.417 12.1397 19.5005C12.3465 19.7765 12.5979 20.1505 12.8435 20.3934C13.5768 21.1186 14.5384 21.4809 15.5001 21.4809C16.4617 21.4809 17.4233 21.1186 18.1566 20.3934C18.4022 20.1505 18.6537 19.7765 18.8604 19.5005C19.6722 18.417 20.4698 17.6426 22.4178 17.639L29.7094 17.6257V17.3151C29.7094 16.0997 29.2173 15.1213 27.5651 15.1213H3.43502Z" fill="white"/>
</mask>
<g mask="url(#mask3_432_2520)">
<g filter="url(#filter3_f_432_2520)">
<path d="M3.18364 6.14453C1.0963 6.14453 0 7.40313 0 9.29029V25.9988C0 27.8859 1.0963 29.1445 3.18364 29.1445H27.8164C29.9037 29.1445 31 27.8859 31 25.9988V9.29029C31 7.40313 29.9037 6.14453 27.8164 6.14453H3.18364ZM3.43495 7.43415H27.5651C29.2172 7.43415 29.7093 8.41253 29.7093 9.62787V17.6258L22.4178 17.6391C20.4697 17.6427 19.6721 18.417 18.8604 19.5006C18.6536 19.7765 18.4021 20.1506 18.1566 20.3934C17.4232 21.1187 16.4617 21.481 15.5 21.481C14.5383 21.481 13.5768 21.1187 12.8434 20.3934C12.5979 20.1506 12.3464 19.7765 12.1396 19.5006C11.3279 18.417 10.5303 17.6427 8.58224 17.6391L1.2907 17.6258V9.62787C1.2907 8.41253 1.78275 7.43415 3.43495 7.43415Z" fill="#F26D5F" fill-opacity="0.298039"/>
</g>
</g>
<path d="M0 15.7483H1.2907V17.6258H0V15.7483Z" fill="url(#paint0_linear_432_2520)"/>
<path d="M29.7092 15.7483H30.9999V17.6258H29.7092V15.7483Z" fill="url(#paint1_linear_432_2520)"/>
<defs>
<filter id="filter0_f_432_2520" x="-25.6432" y="-16.9374" width="82.2867" height="58.6241" filterUnits="userSpaceOnUse" color-interpolation-filters="sRGB">
<feFlood flood-opacity="0" result="BackgroundImageFix"/>
<feBlend mode="normal" in="SourceGraphic" in2="BackgroundImageFix" result="shape"/>
<feGaussianBlur stdDeviation="13.467" result="effect1_foregroundBlur_432_2520"/>
</filter>
<filter id="filter1_f_432_2520" x="-25.6432" y="-14.3749" width="82.2867" height="58.6241" filterUnits="userSpaceOnUse" color-interpolation-filters="sRGB">
<feFlood flood-opacity="0" result="BackgroundImageFix"/>
<feBlend mode="normal" in="SourceGraphic" in2="BackgroundImageFix" result="shape"/>
<feGaussianBlur stdDeviation="13.467" result="effect1_foregroundBlur_432_2520"/>
</filter>
<filter id="filter2_f_432_2520" x="-25.6432" y="-11.8124" width="82.2867" height="58.6241" filterUnits="userSpaceOnUse" color-interpolation-filters="sRGB">
<feFlood flood-opacity="0" result="BackgroundImageFix"/>
<feBlend mode="normal" in="SourceGraphic" in2="BackgroundImageFix" result="shape"/>
<feGaussianBlur stdDeviation="13.467" result="effect1_foregroundBlur_432_2520"/>
</filter>
<filter id="filter3_f_432_2520" x="-33.4854" y="-27.3409" width="97.9708" height="89.9708" filterUnits="userSpaceOnUse" color-interpolation-filters="sRGB">
<feFlood flood-opacity="0" result="BackgroundImageFix"/>
<feBlend mode="normal" in="SourceGraphic" in2="BackgroundImageFix" result="shape"/>
<feGaussianBlur stdDeviation="16.7427" result="effect1_foregroundBlur_432_2520"/>
</filter>
<linearGradient id="paint0_linear_432_2520" x1="0" y1="17.6258" x2="0" y2="16.6526" gradientUnits="userSpaceOnUse">
<stop stop-color="#CBC9BE"/>
<stop offset="1" stop-color="#C8C5BB" stop-opacity="0"/>
</linearGradient>
<linearGradient id="paint1_linear_432_2520" x1="29.7092" y1="17.6258" x2="29.7092" y2="16.6526" gradientUnits="userSpaceOnUse">
<stop stop-color="#CBC9BE"/>
<stop offset="1" stop-color="#C8C5BB" stop-opacity="0"/>
</linearGradient>
</defs>
</svg>
