<svg width="375" height="363" viewBox="0 0 375 363" fill="none" xmlns="http://www.w3.org/2000/svg">
<g filter="url(#filter0_d_181_1807)">
<path fill-rule="evenodd" clip-rule="evenodd" d="M104.66 34.2253C104.66 34.2253 104.66 25 113.879 25L261.12 25.0678C261.12 25.0678 270.339 25.0678 270.339 34.3044L270.339 278.775C270.339 278.775 270.339 288 261.12 288L113.879 287.921C113.879 287.921 104.661 287.921 104.661 278.696L104.66 34.2253Z" fill="#2C232E"/>
<path d="M159.567 241.84C162.886 241.61 165.714 243.681 167.884 245.974C172.523 250.886 174.8 257.526 179.468 262.389C184.484 267.63 192.047 270.193 198.9 271.979C200.951 272.497 202.969 273.008 205.017 273.459C208.051 274.062 211.075 274.602 214.165 274.909C215.274 275.02 216.383 275.124 217.491 275.227H217.632C222.293 275.409 227.183 275.412 231.678 276.821C232.3 276.899 232.916 277.012 233.526 277.158C237.24 278.097 240.715 279.811 243.721 282.188C244.588 282.815 245.39 283.527 246.115 284.314C247.25 285.438 248.271 286.67 249.164 287.993L202.149 287.968C201.249 286.867 200.39 285.737 199.642 284.558C199.084 283.675 198.541 282.783 197.997 281.889C195.959 279.654 193.674 277.659 191.185 275.941C188.235 273.903 185.201 271.913 181.915 270.433C179.598 269.405 176.796 268.403 174.208 268.954C172.626 269.291 171.554 270.545 172.042 272.209C172.53 273.873 174.119 275.231 175.368 276.341C178.758 279.322 182.583 281.637 186.368 284.055C188.361 285.292 190.311 286.597 192.216 287.963L181.018 287.956C180.856 287.091 180.646 286.244 180.366 285.458C180.3 285.014 180.209 284.574 180.093 284.14L179.785 283.882C179.443 283.259 179.001 282.697 178.478 282.218C178.026 281.53 177.455 280.929 176.792 280.442C176.127 279.971 175.337 279.706 174.523 279.68C170.952 278.612 168.054 281.822 167.714 285.598C167.644 286.383 167.647 287.167 167.709 287.949L158.388 287.944C158.866 287.026 159.363 286.051 159.822 285.043C161.914 281.016 163.052 276.562 163.149 272.024C163.178 268.359 162.31 260.489 156.814 261.746C153.786 262.438 151.376 265.345 149.79 267.819C147.776 270.985 146.397 274.503 144.986 278.013C143.633 281.375 142.129 284.642 140.595 287.934L113.878 287.921C113.872 287.921 113.8 287.917 113.672 287.911C114.552 287.092 115.511 286.348 116.513 285.676C116.905 285.409 117.303 285.15 117.706 284.895C117.714 284.894 117.721 284.894 117.729 284.895C122.168 282.935 127.099 281.688 131.261 279.865C135.338 278.082 139.056 275.645 141.832 272.186C144.608 268.728 146.419 264.694 147.85 260.529L148.005 260.322C148.26 259.571 148.478 258.798 148.674 258.003C149.761 254.46 150.685 250.798 151.979 247.306C152.138 247.033 152.304 246.762 152.482 246.496C154.079 244.135 156.387 242.149 159.298 241.832L159.567 241.84Z" fill="#0038FF"/>
<path d="M270.338 278.775C270.338 278.775 270.338 288 261.12 288L252.239 287.996C250.366 282.566 250.066 276.437 250.711 270.848C251.473 264.254 253.709 257.33 258.104 252.245C260.471 249.487 263.535 247.416 266.975 246.249C268.074 245.868 269.199 245.614 270.338 245.426V278.775Z" fill="#FF8C5A"/>
<path d="M270.339 129.926C268.497 130.983 266.794 132.259 265.33 133.818C263.475 135.793 261.874 138.663 261.449 141.544C261.337 143.925 262.015 146.277 263.378 148.231L263.4 148.275C265.559 150.55 267.955 150.944 270.339 150.357V154.907C269.248 155.573 268.265 156.35 267.507 157.271C265.374 159.85 267.328 162.898 270.339 163.171V187.696C268.125 185.107 265.696 182.743 262.924 180.639C261.265 179.39 259.52 178.26 257.701 177.258C257.405 176.932 257.12 176.596 256.851 176.256C255.224 174.917 253.827 173.242 253.332 171.186C252.194 166.459 256.474 162.771 256.755 158.24C257.065 153.243 254.548 148.516 253.738 143.667C253.194 140.283 253.227 136.832 253.835 133.459C254.323 127.678 255.868 121.986 258.888 116.952C261.75 112.166 265.67 108.11 270.339 105.091V129.926Z" fill="#6E9E96"/>
<path d="M165.638 25.0234C166.064 25.7312 166.493 26.4371 166.928 27.1387C169.689 31.5694 172.831 35.8043 176.838 39.1885C178.361 40.5453 180.114 41.6207 182.012 42.3652C183.613 42.9348 185.458 43.3638 186.692 42.417C187.927 41.4701 187.823 40.2758 187.431 38.7705C186.851 36.544 185.706 34.5167 184.497 32.5713C182.877 29.9546 181.056 27.4643 179.161 25.0293L191.719 25.0352C192.639 26.078 193.611 27.0753 194.632 28.0225C196.598 29.8348 199.264 31.9871 202.102 31.8799C206.096 31.7211 207.115 28.2806 206.669 25.042L234.277 25.0547C231.409 28.7113 227.953 31.8181 224.594 34.9688C220.92 38.4158 217.634 42.1808 213.506 45.1396C209.107 48.3115 204.02 50.3944 198.661 51.2168C191.575 52.2819 184.438 51.3202 177.593 49.2676C167.095 43.3906 157.718 35.8747 150.791 25.8887C150.592 25.5994 150.393 25.3084 150.196 25.0166L165.638 25.0234Z" fill="#BEAAFF"/>
<path d="M261.12 25.0674C261.12 25.0674 263.169 25.0679 265.334 26.0352C266.249 26.7625 267.117 27.596 267.933 28.54C268.733 29.4667 269.471 30.6318 270.103 31.9043C270.255 32.6254 270.339 33.4224 270.339 34.3037V46.9668C269.544 48.2679 268.479 49.5777 267.337 50.7178C265.057 52.9922 263.164 54.3163 260.359 56.0693C254.519 59.7161 248.349 62.6675 242.838 66.8506C236.872 71.3666 231.543 76.8486 228.423 83.7354C224.808 91.728 222.72 100.952 222.801 109.732C222.838 113.904 223.252 118.498 224.808 122.411C225.906 125.17 227.403 128.918 230.552 129.854C235.357 131.274 237.098 126.265 237.205 122.566C237.331 118.065 236.085 113.69 235.694 109.252C235.147 103.068 236.802 96.2214 239.39 90.9102C240.053 89.5376 240.793 88.2042 241.608 86.916C242.36 85.6893 243.212 84.5265 244.154 83.4395C245.117 82.3205 246.151 81.2635 247.248 80.2764C248.274 79.3207 249.396 78.4747 250.597 77.751C255.812 74.437 261.316 73.1605 267.6 73.6191C268.521 73.6718 269.436 73.7905 270.339 73.9756V95.0234C268.852 95.9561 267.339 96.8435 265.822 97.7236C265.238 97.9862 264.695 98.2483 264.129 98.5146C258.163 101.318 252.094 104.492 247.865 109.703C247.058 110.692 246.317 111.734 245.648 112.821C244.321 114.608 243.397 116.661 242.939 118.839C241.635 123.264 241.4 127.935 242.254 132.468C242.476 133.74 242.764 134.998 243.078 136.248V136.366C243.152 138.082 243.714 139.761 244.339 141.389C244.831 142.372 245.345 143.349 245.818 144.348C246.971 146.778 248.712 150.085 247.104 152.696C246.032 154.434 243.891 154.97 241.995 154.479C241.596 154.348 241.206 154.191 240.827 154.009C240.861 154.035 239.837 153.687 239.612 153.583C238.675 153.101 237.779 152.545 236.932 151.919L236.152 151.391L235.986 151.302C233.25 149.734 230.726 147.795 227.961 146.286C223.614 143.912 218.924 141.852 214.118 140.616C210.086 139.577 205.971 139.263 201.821 139.178C193.885 139.011 185.568 139.569 178.017 142.181C174.165 143.452 170.579 145.42 167.438 147.987C165.342 149.74 163.889 152.115 162.78 154.578C161.627 157.123 160.685 159.753 159.709 162.371C159.473 163 159.236 163.629 158.992 164.25L158.622 165.171L158.589 165.264L158.537 165.363C158.038 166.484 157.477 167.575 156.856 168.633C156.76 168.788 156.653 168.94 156.549 169.096C156.124 169.236 155.695 169.362 155.259 169.466C154.934 169.54 153.673 169.639 154.682 169.591C154.242 169.613 153.762 169.64 153.37 169.64C152.979 169.64 151.962 169.444 152.908 169.64C152.498 169.555 152.091 169.48 151.688 169.365C151.4 169.284 151.119 169.188 150.838 169.081C151 169.129 150.202 168.759 149.973 168.626C149.655 168.445 149.356 168.215 149.038 168.034L148.956 167.989C148.842 167.897 148.723 167.805 148.613 167.705C147.913 167.07 147.248 166.397 146.62 165.689L146.399 165.452L146.214 165.183C145.974 164.846 145.738 164.509 145.516 164.161C144.96 163.302 144.452 162.412 143.996 161.495C143.775 161.055 143.571 160.611 143.367 160.163L143.098 159.464C142.725 158.473 142.395 157.46 142.114 156.436C141.866 155.533 141.653 154.622 141.476 153.702C141.387 153.232 141.309 152.762 141.236 152.289L141.143 151.387C141 149.682 141 147.968 141.143 146.264C141.161 146.159 141.235 145.529 141.265 145.369C141.342 144.962 141.435 144.558 141.542 144.155C141.631 143.819 141.73 143.482 141.845 143.149C141.904 142.968 141.978 142.783 142.041 142.599V142.576L142.096 142.458C144.218 137.994 147.389 134.518 151.573 132.916C153.789 132.032 156.143 131.548 158.527 131.484C159.038 131.473 159.551 131.489 160.061 131.532H160.194C160.474 131.584 160.759 131.636 161.04 131.695C162.33 131.973 163.594 132.349 164.851 132.745C169.637 134.262 174.783 136.559 179.913 136.026C182.578 135.749 185.734 134.746 187.139 132.235L187.165 132.187C186.939 130.246 186.308 128.374 185.317 126.69C182.652 122.119 177.987 119.242 173.718 116.364C168.048 112.54 162.463 108.59 156.87 104.658C153.767 102.505 151.116 99.763 149.068 96.5879C147.138 93.592 145.464 89.8672 146.133 86.2314C146.898 82.0559 151.041 80.0178 154.926 79.6738C159.698 79.2522 164.074 81.9304 167.401 85.1074C170.786 88.3474 173.537 92.3568 175.788 96.4512C178.882 102.08 180.811 108.235 183.528 114.034C183.85 114.717 184.183 115.399 184.523 116.079L184.759 116.512C185.639 118.092 186.552 119.655 187.498 121.198C188.001 122.212 188.525 123.21 189.087 124.19C189.497 124.845 189.912 125.496 190.333 126.136C191.619 128.096 193.282 130.411 195.378 131.843C195.912 132.188 196.484 132.472 197.082 132.687C199.433 133.53 202.061 133.056 203.736 131.207C203.857 130.996 203.953 130.77 204.024 130.537C204.622 128.477 204.049 125.892 203.284 123.51C199.281 111.049 189.749 101.536 184.231 89.8818C181.603 84.3302 179.666 78.5197 178.882 72.417C178.53 69.6568 178.406 66.8723 178.512 64.0918C178.586 62.0429 178.867 59.9236 180.127 58.2334C182.859 54.5681 188.714 54.6305 191.955 57.5264C194.047 59.4015 195.124 61.9166 195.8 64.5537C195.977 64.9421 196.173 65.3308 196.347 65.7266L196.417 65.9111C196.561 66.2809 196.705 66.6508 196.838 67.0205C197.326 68.3815 197.733 69.7651 198.103 71.1631C198.817 74.0151 199.374 76.9049 199.77 79.8184L199.814 80.1289L199.851 80.4209L199.958 81.2832C200.047 82.0006 200.128 82.718 200.209 83.4316C200.376 84.9814 200.527 86.5313 200.675 88.0811C200.934 90.8143 201.163 93.5478 201.485 96.2773C201.962 100.082 202.784 103.835 203.939 107.491C205.351 112.177 206.819 117.174 209.365 121.387C210.522 123.314 212.104 125.237 214.369 125.825C217.374 126.606 220.306 124.705 221.196 121.816C222.705 116.927 219.574 110.89 217.682 106.529C216.802 104.512 215.892 102.511 214.953 100.523C214.757 99.9317 214.562 99.3506 214.388 98.7588C213.836 96.8986 213.388 95.0091 213.043 93.0996C211.679 85.6545 211.886 77.7657 213.198 70.3242C215.875 55.0748 223.267 41.2749 235.029 31.0889C237.73 28.7273 240.708 26.7036 243.896 25.0596L261.12 25.0674Z" fill="#0038FF"/>
<path d="M139.425 25.0112C139.769 25.5787 140.125 26.1384 140.51 26.6763C142.676 29.709 145.068 32.5935 147.285 35.5522C150.653 40.0386 154.6 44.229 159.745 46.6479C161.449 47.4506 164.344 48.2684 166.492 49.1265C168.964 50.114 171.578 51.2459 173.348 53.3208C174.18 54.2633 174.774 55.3916 175.081 56.6108C175.389 57.8301 175.4 59.1051 175.115 60.3296C174.99 61.1375 174.702 61.9113 174.268 62.604C172.638 65.2078 169.81 67.0167 166.964 68.4702C161.738 71.3994 156.09 73.5892 150.764 76.3149C149.748 76.8327 148.738 77.3952 147.747 77.9907C145.941 79.4874 144.48 81.3574 143.463 83.4722C141.113 88.3911 142.222 94.0868 140.743 99.2905C139.856 102.434 137.938 105.246 134.811 106.456C131.843 107.606 128.586 106.943 125.806 105.593C120.347 102.941 117.146 96.9457 118.539 90.9614C119.804 85.5394 124.446 81.478 128.848 78.4858C130.271 77.5169 131.761 76.6297 133.284 75.8013C133.672 75.6385 134.06 75.4793 134.449 75.3276C141.22 72.7239 148.572 71.8436 155.38 69.2769C158.027 68.2671 161.538 66.9868 162.647 64.0981C162.753 63.7212 162.705 63.3178 162.514 62.9761C162.323 62.6343 162.004 62.3818 161.627 62.2749C159.155 61.8163 156.656 62.2972 154.235 63.0591C151.015 63.551 147.84 64.5239 144.761 65.4966C141.834 66.4212 138.932 67.2937 135.975 68.0112C135.073 68.1333 134.171 68.2479 133.281 68.3403C127.94 68.8951 122.561 69.3467 117.187 69.3726C114.81 69.1802 112.436 68.884 110.075 68.4624C108.275 68.139 106.457 67.7179 104.66 67.1929V34.2251C104.661 34.198 104.666 32.6746 105.285 30.8735C110.085 35.1076 113.416 40.8895 117.918 45.395C119.699 47.1659 121.684 48.7179 123.832 50.0181C126.692 52.385 129.89 54.3089 133.321 55.7251C136.669 57.0825 140.322 57.7595 143.844 58.5288C147.448 59.3203 151.122 60.0006 154.819 60.1411C158.005 60.2632 162.174 60.0777 164.359 57.3667C165.061 56.4938 164.843 55.2551 163.701 54.8853C159.642 53.5797 155.38 53.1876 151.162 52.729C146.579 52.2297 142.21 51.4792 137.856 49.9702C136.647 49.5489 135.461 49.0631 134.304 48.5161C133.576 47.9872 132.851 47.4508 132.134 46.9146C129.282 44.8574 126.735 42.4056 124.572 39.6323C121.308 35.3305 119.728 30.1606 120.924 25.0034L139.425 25.0112Z" fill="#6E9E96"/>
<path d="M104.66 76.7656C108.46 77.8139 111.574 80.6274 112.8 84.9258C113.595 87.7034 113.575 90.6187 113.298 93.4814L113.358 93.8955C113.809 96.9542 113.979 100.083 114.26 103.187C114.282 107.063 114.407 110.935 115.073 114.767C115.878 119.356 117.612 124.346 121.726 126.972C124.376 128.662 128.013 129.794 131.096 128.714C133.665 127.808 135.414 125.549 136.641 123.196C136.756 122.934 136.884 122.671 137.01 122.404C138.496 119.948 139.302 117.104 140.252 114.4C141.287 111.441 142.688 107.029 146.03 106.057C150.203 104.81 155.019 108.46 158.452 110.357C161.284 111.929 164.068 113.516 166.54 115.628C168.311 117.159 171.637 120.007 170.898 122.744C170.447 124.379 168.469 125.46 166.991 125.926C164.581 126.68 162.082 125.981 159.631 125.862C154.883 125.687 150.149 126.498 145.73 128.244C141.609 129.955 138 132.704 135.254 136.223C134.049 137.764 133.035 139.445 132.235 141.23C132.28 141.613 132.235 142.001 132.102 142.362C131.182 144.988 130.346 147.891 130.572 150.702C130.801 153.239 131.287 155.746 132.024 158.185C133.343 162.756 135.591 167.025 135.82 171.87C136.233 180.58 128.852 186.305 120.78 186.823C114.958 187.195 109.083 184.951 104.66 181.142V147.435C105.649 146.572 106.754 145.851 107.947 145.299C108.804 144.696 109.752 144.234 110.755 143.931C112.515 143.405 114.438 143.235 116.238 142.865C118.304 142.487 120.34 141.963 122.332 141.297C123.142 141.091 123.908 140.744 124.598 140.272C125.526 139.725 126.199 139.085 126.376 138.346C126.609 138.003 126.771 137.618 126.853 137.212C126.935 136.806 126.935 136.387 126.853 135.981C126.907 134.795 126.535 133.628 125.804 132.692C125.073 131.756 124.032 131.113 122.868 130.878C121.752 130.641 120.61 130.726 119.483 130.748C119.058 130.748 118.632 130.748 118.207 130.748C116.352 130.434 114.344 130.508 112.714 130.537C111.24 130.415 109.688 130.241 108.209 130.241C106.998 130.06 105.811 129.766 104.66 129.368V76.7656ZM113.159 175.521C113.129 175.753 113.283 175.779 113.317 175.694V175.591H113.306C113.267 175.53 113.217 175.477 113.159 175.436C113.162 175.464 113.162 175.492 113.159 175.521ZM122.583 127.985C122.668 127.967 122.706 127.967 122.839 127.967H123.17C122.976 127.913 122.778 127.857 122.583 127.801V127.985Z" fill="#FF8C5A"/>
<path d="M179.677 148.01C186.571 145.029 195.05 145.172 202.199 145.912C206.131 146.288 210.037 146.907 213.893 147.766C217.778 148.332 221.714 148.975 225.411 150.355C228.596 151.531 231.678 152.971 234.625 154.659C239.423 157.437 246.169 162.505 244.395 168.626C244.491 171.881 241.825 174.178 238.577 174.766C234.308 175.542 230.061 173.545 226.257 171.844C223.943 170.805 221.662 169.624 219.445 168.403C218.972 168.185 218.506 167.956 218.026 167.745C217.545 167.534 217.065 167.331 216.58 167.139C214.836 166.455 213.032 165.947 211.287 165.271C209.887 164.731 208.49 164.191 207.081 163.681C203.489 162.763 199.855 162.071 196.244 161.221C192.777 160.411 189.176 159.741 185.606 159.741C181.71 159.749 178.031 160.681 175.037 163.244C173.19 164.82 173.677 167.565 175.037 169.199C178.926 173.893 186.611 174.562 192.233 175.147C195.282 175.461 198.735 175.949 202.305 176.363C206.227 176.815 210.156 177.221 214.081 177.65C228.582 179.237 243.796 180.979 257.077 187.437C259.596 188.619 262.012 190.011 264.299 191.598C264.576 191.79 265.102 192.219 265.649 192.707C266.72 194.114 267.702 195.589 268.587 197.12C268.609 197.187 268.633 197.227 268.635 197.231C268.609 197.636 268.609 198.042 268.635 198.447C268.571 198.784 268.485 199.117 268.376 199.442C268.307 199.538 268.25 199.641 268.206 199.75C267.864 201.375 266.992 202.84 265.726 203.914C262.983 206.4 259.479 207.069 255.875 207.095C251.851 207.072 247.836 206.717 243.87 206.033C234.412 204.502 225.54 200.405 217.038 196.148C211.28 193.281 205.636 190.192 199.903 187.271C194.48 184.504 188.355 181.434 182.161 181.131C179.969 181.027 177.673 181.304 176.021 182.876C174.653 184.178 174.106 185.824 174.542 187.2C175.751 191.002 181.226 193.613 184.782 195.3C189.335 197.46 194.13 199.069 198.912 200.626C200.45 201.129 201.98 201.636 203.514 202.147C208.593 203.596 213.709 204.906 218.821 206.215C226.57 208.22 234.295 210.315 241.993 212.502C245.001 213.001 248.025 213.413 251.067 213.716C257.446 214.334 264.004 214.747 270.339 216.055V241.749C267.756 242.177 265.126 242.307 262.499 242.128C253.096 241.544 244.358 237.42 236.292 232.812C227.865 227.996 219.408 222.951 211.424 217.425C205.407 213.257 199.359 209.066 193.208 205.065C189.841 203.274 186.43 201.55 183.129 199.701C181.603 198.843 178.298 196.813 175.341 196.107C174.667 196.056 173.989 196.072 173.319 196.154C172.336 196.246 171.395 196.6 170.595 197.179C170.494 197.321 170.404 197.471 170.326 197.627C169.394 199.506 170.713 202.005 171.822 203.511C173.363 205.634 175.781 207.01 178.077 208.179C188.433 213.482 202.199 213.483 210.33 222.73C211.798 224.398 213.165 226.447 213.205 228.747C213.242 231.151 211.701 233.104 209.679 234.243C204.371 237.239 198.734 234.102 194.24 231.032C188.562 227.138 183.543 222.574 178.531 217.892C176.498 215.983 174.428 213.993 172.062 212.477C170.786 211.744 169.345 211.345 167.874 211.318C166.48 211.309 165.11 211.68 163.91 212.39C162.71 213.1 161.725 214.124 161.062 215.351C159.55 218.139 159.824 221.816 161.302 224.567C161.7 225.307 162.158 226.013 162.67 226.679C163.986 228.654 165.967 230.282 168.074 231.487C173.337 234.483 179.459 236.089 185.332 237.405C197.53 240.15 210.179 241.78 222.664 242.683C224.771 243.115 226.863 243.608 228.918 244.199C233.126 245.339 237.175 246.999 240.972 249.141C242.593 250.406 244.022 251.901 245.212 253.579C245.989 254.681 246.569 255.909 246.927 257.208C247.141 257.948 247.293 258.706 247.459 259.445L247.518 259.712L247.54 260.011C247.585 260.477 247.615 260.943 247.615 261.413C247.637 261.731 247.615 262.053 247.615 262.371C247.607 262.475 247.537 263.021 247.536 263.11C247.451 263.554 247.355 263.994 247.226 264.431C247.145 264.704 247.048 264.971 246.949 265.237L246.915 265.3C246.546 265.906 246.214 266.532 245.807 267.116L245.747 267.172C245.511 267.416 245.308 267.678 245.078 267.911C244.753 268.233 244.429 268.537 244.059 268.829C244.203 268.689 243.264 269.388 243.042 269.524C242.351 269.939 241.619 270.308 240.91 270.678C240.873 270.7 240.802 270.73 240.74 270.763C240.473 270.87 240.207 270.973 239.937 271.073C239.368 271.266 238.788 271.466 238.207 271.636C236.858 272.021 235.485 272.319 234.097 272.527C234.164 272.505 232.926 272.672 232.707 272.672C232.338 272.702 231.968 272.742 231.598 272.742C230.748 272.661 229.923 272.564 229.155 272.476C224.098 271.913 219.091 270.964 214.178 269.639C212.193 269.084 210.216 268.466 208.264 267.789C206.978 267.279 205.718 266.732 204.486 266.15C196.491 262.437 189.235 257.511 181.939 252.64C175.182 248.131 168.532 243.312 163.161 237.153C158.205 231.446 153.663 222.977 154.834 215.173C155.54 210.435 157.699 205.974 157.614 201.118C157.575 199.436 157.22 197.776 156.568 196.225C155.917 193.536 154.287 191.306 152.919 188.887C152.757 188.598 152.616 188.299 152.453 188.014L152.379 187.892C152.302 187.6 152.209 187.285 152.106 187L152.077 186.927V186.686C152.102 186.604 152.135 186.483 152.158 186.387C152.261 186.209 152.376 186.02 152.491 185.839C152.513 185.865 153.129 185.166 153.288 185.018C153.333 184.977 153.47 184.881 153.555 184.818C153.673 184.737 153.797 184.663 153.924 184.597C154.327 184.39 154.738 184.153 155.129 183.964C155.521 183.775 155.924 183.606 156.324 183.432C157.621 183.02 158.848 182.414 159.964 181.634C162.692 179.67 164.289 176.785 165.058 173.574C165.202 171.4 165.298 169.221 165.509 167.05C165.846 163.666 166.381 160.297 168 157.264C168.562 156.226 169.295 155.289 170.166 154.493C170.971 153.304 171.971 152.26 173.123 151.405C174.976 150.017 177.029 148.922 179.212 148.158L179.677 148.01Z" fill="#BEAAFF"/>
<path d="M123.34 189.086C130.075 186.12 138.092 185.791 143.178 192.123C146.793 196.624 148.183 202.501 148.874 208.119C149.654 214.458 149.225 220.857 148.253 227.144C146.616 237.734 143.004 248.279 138.676 258.076C134.714 267.042 128.567 275.767 118.716 278.637C113.869 280.049 109.034 279.639 104.66 277.942V248.629C105.447 246.48 106.219 244.209 108.06 242.746C109.561 241.562 111.368 241.433 112.61 243.042C113.077 243.645 113.419 244.335 113.616 245.072C113.502 245.301 113.461 245.559 113.497 245.811C113.808 248.63 112.211 251.925 111.365 254.577C110.193 258.246 108.807 262.186 108.884 266.088C108.951 269.468 110.744 272.16 114.303 272.427C116.99 272.641 119.688 271.902 121.536 270.208C122.464 269.723 123.234 268.983 123.754 268.074C125.1 265.707 124.778 262.715 124.309 260.159C123.034 253.15 119.788 246.644 117.681 239.876C117.247 238.525 116.933 237.139 116.743 235.733C116.761 235.556 116.783 235.367 116.809 235.186C117.006 234.537 117.253 233.906 117.548 233.296C120.723 226.805 127.029 222.595 131.963 217.558C132.432 217.081 132.906 216.586 133.371 216.079C134.783 214.768 136.052 213.31 137.154 211.729C139.623 208.094 144.401 199.132 138.598 196.14L138.602 196.08C133.376 193.392 131.35 203.192 130.47 206.303C129.59 209.413 128.592 212.291 125.384 213.7C124.429 214.124 123.397 214.347 122.353 214.355C120.934 213.778 119.721 212.661 118.491 211.434C116.476 209.433 114.58 206.917 112.063 205.516C110.296 204.532 107.66 204.506 106.921 206.784C106.26 208.848 107.427 211.248 108.255 213.071C109.445 215.675 110.921 218.135 112.322 220.624C112.872 221.6 113.401 222.473 113.589 223.405C114.054 225.689 113.897 228.056 113.135 230.259C112.089 233.225 110.019 235.796 107.801 238.06C106.782 238.974 105.724 239.846 104.66 240.712V199.33C109.609 194.56 115.864 190.709 122.596 189.227L123.34 189.086Z" fill="#6E9E96"/>
<path fill-rule="evenodd" clip-rule="evenodd" d="M209.297 82.1952C209.297 84.2515 207.119 85.9278 204.261 85.9278L185.102 85.9278C182.597 85.9278 180.419 84.2613 180.419 82.1952L180.42 60.3458C180.42 58.2895 182.597 56.6133 185.279 56.6133L204.438 56.6133C207.119 56.6133 209.297 58.2798 209.297 60.3458L209.297 82.1952Z" fill="#D4D2D2"/>
<path fill-rule="evenodd" clip-rule="evenodd" d="M209.287 82.3217L208.859 82.3217C208.859 84.2026 206.883 85.7326 204.428 85.7326L185.269 85.7326C182.827 85.7326 180.851 84.2026 180.838 82.3217L180.838 60.3651C180.838 58.4745 182.814 56.9542 185.269 56.9542L204.428 56.9542C206.87 56.9542 208.847 58.4842 208.859 60.3651L208.859 82.3217L209.728 82.3217L209.728 60.3651C209.728 58.1139 207.361 56.2817 204.428 56.2817L185.269 56.2817C182.349 56.2817 179.97 58.1139 179.97 60.3651L179.97 82.3217C179.97 84.5729 182.336 86.4051 185.269 86.4051L204.428 86.4051C207.349 86.4051 209.715 84.5729 209.728 82.3217L209.287 82.3217Z" fill="#2C232E"/>
<path fill-rule="evenodd" clip-rule="evenodd" d="M194.426 56.6125L194.426 56.671L194.4 56.6905L191.052 56.6905C190.762 56.6905 190.536 56.8659 190.536 57.09L190.536 65.0911C190.536 65.2958 190.687 65.4907 190.939 65.5784C192.21 66.0364 193.57 66.2606 194.942 66.2606C196.238 66.2606 197.547 66.0559 198.768 65.6368C199.02 65.5491 199.184 65.364 199.184 65.1496L199.184 57.0803C199.184 56.8561 198.957 56.6807 198.668 56.6807L195.319 56.6807L195.294 56.671L195.294 56.6125L195.118 56.4761L194.942 56.6125L194.942 56.7197L194.992 56.8172L195.118 56.9146L195.244 56.9536L198.655 56.9536L198.831 57.09L198.831 65.1496C198.831 65.2568 198.756 65.3542 198.63 65.3932C197.459 65.7928 196.2 65.9974 194.942 65.9974C193.62 65.9974 192.311 65.7733 191.09 65.3347C190.964 65.286 190.888 65.1983 190.888 65.0911L190.888 57.0803L191.065 56.9439L194.489 56.9439L194.614 56.9049L194.74 56.8074L194.791 56.71L194.791 56.6125L194.614 56.4761L194.426 56.6125Z" fill="#2C232E"/>
<path fill-rule="evenodd" clip-rule="evenodd" d="M189.501 56.6125L189.501 56.671L189.476 56.6905L185.284 56.6905C182.653 56.6905 180.514 58.3375 180.514 60.3743L180.514 64.5648C180.514 64.7403 180.627 64.9059 180.816 65.0131C182.414 65.8512 184.265 66.2703 186.128 66.2703C187.424 66.2703 188.734 66.0656 189.955 65.6466C190.206 65.5589 190.37 65.3737 190.37 65.1593L190.37 56.6125L190.194 56.4761L190.018 56.6125L190.018 65.1398C190.018 65.247 189.929 65.3445 189.816 65.3835C188.633 65.783 187.387 65.9877 186.128 65.9877C184.328 65.9877 182.54 65.5784 181.004 64.7695C180.916 64.7208 180.853 64.6331 180.853 64.5453L180.853 60.3548C180.853 58.4739 182.83 56.9439 185.284 56.9439L189.552 56.9439L189.678 56.9049L189.804 56.8074L189.854 56.71L189.854 56.6125L189.678 56.4761L189.501 56.6125Z" fill="#2C232E"/>
<path fill-rule="evenodd" clip-rule="evenodd" d="M199.359 56.6135L199.359 65.1506C199.359 65.365 199.522 65.5501 199.774 65.6378C200.995 66.0569 202.292 66.2616 203.588 66.2616C205.464 66.2616 207.314 65.8328 208.913 64.9946C209.102 64.8972 209.215 64.7218 209.215 64.5463L209.215 60.3655C209.215 58.3287 207.075 56.6817 204.444 56.6817L200.252 56.6817L200.215 56.672L200.215 56.6135L200.051 56.4868L199.875 56.6233L199.875 56.7305L199.925 56.8279L200.051 56.9254L200.177 56.9643L204.432 56.9643C206.874 56.9643 208.85 58.4944 208.863 60.3753L208.863 64.5561C208.863 64.6438 208.8 64.7315 208.712 64.7802C207.176 65.5891 205.388 65.9984 203.588 65.9984C202.342 65.9984 201.083 65.8035 199.913 65.404C199.774 65.3455 199.699 65.248 199.699 65.1506L199.699 56.6135L199.522 56.4868L199.359 56.6135Z" fill="#2C232E"/>
<path fill-rule="evenodd" clip-rule="evenodd" d="M209.292 71.0054L209.229 71.0054L209.217 70.9956L209.217 65.7331C209.217 65.5089 208.978 65.3335 208.701 65.3335L208.65 65.3335L208.474 65.3627L208.436 65.3725C207.58 65.7623 206.649 66.0352 205.68 66.2008L205.579 66.2593L205.491 66.3665L205.466 66.464C205.755 68.0817 205.906 69.7092 205.906 71.3367C205.906 73.1299 205.73 74.9231 205.377 76.7065L205.403 76.7942L205.478 76.8917L205.566 76.9501C206.611 77.301 207.555 77.798 208.373 78.412C208.474 78.4899 208.6 78.5289 208.739 78.5289C208.877 78.5289 209.015 78.4899 209.116 78.4022L209.104 78.3535L209.204 78.1683L209.217 78.1196L209.217 71.6876L209.229 71.6778L209.292 71.6778L209.469 71.5414L209.292 71.4049L209.154 71.4049L209.028 71.4439L208.902 71.5316L208.852 71.6291L208.852 78.0904L208.764 78.2463L208.927 78.295L208.801 78.1976L208.676 78.2365L208.55 78.1976C207.706 77.5641 206.724 77.0476 205.642 76.687L205.566 76.8137L205.717 76.7552L205.642 76.6578L205.491 76.726L205.692 76.7455C206.045 74.9523 206.233 73.1494 206.233 71.3367C206.233 69.6995 206.082 68.0525 205.793 66.425L205.617 66.4445L205.755 66.5224L205.856 66.4152L205.705 66.347L205.743 66.4737C206.75 66.2983 207.719 66.0157 208.6 65.6161L208.512 65.4992L208.562 65.6259L208.739 65.5869L208.688 65.4602L208.688 65.5966L208.864 65.7331L208.864 71.0541L208.915 71.1516L209.041 71.249L209.167 71.288L209.292 71.288L209.469 71.1516L209.292 71.0054Z" fill="#2C232E"/>
<path fill-rule="evenodd" clip-rule="evenodd" d="M180.428 71.6778L180.491 71.6778L180.516 71.6973L180.516 76.9599C180.516 77.184 180.755 77.3594 181.032 77.3594L181.082 77.3594L181.258 77.3205L181.296 77.3107C182.152 76.9306 183.084 76.648 184.053 76.4824L184.154 76.4239L184.242 76.3167L184.267 76.2192C183.978 74.6015 183.826 72.974 183.826 71.3465C183.826 69.719 183.978 68.0915 184.267 66.4737L184.242 66.3763L184.154 66.2691L184.053 66.2106C183.084 66.0449 182.152 65.7623 181.296 65.3822L181.032 65.3335C180.856 65.3335 180.679 65.4017 180.579 65.5382L180.566 65.5674L180.516 65.7038L180.516 65.7331L180.516 70.9956L180.491 71.0151L180.428 71.0151L180.251 71.1516L180.428 71.288L180.566 71.288L180.692 71.249L180.818 71.1613L180.868 71.0639L180.868 65.7526L180.893 65.6356L180.73 65.6064L180.881 65.6746L181.032 65.5966L181.12 65.6161C182.014 66.0157 182.97 66.308 183.978 66.4737L184.015 66.347L183.877 66.425L183.965 66.5322L184.103 66.4542L183.927 66.4347C183.638 68.0622 183.487 69.7092 183.487 71.3465C183.487 72.9837 183.638 74.6307 183.927 76.2582L184.103 76.2387L183.965 76.1607L183.877 76.268L184.015 76.3459L183.978 76.2192C182.97 76.3946 182.014 76.6773 181.12 77.0768L181.208 77.1938L181.158 77.0671L180.982 77.1061L181.032 77.2328L181.032 77.0963L180.856 76.9599L180.856 71.6486L180.805 71.5511L180.679 71.4537L180.554 71.4147L180.415 71.4147L180.239 71.5511L180.428 71.6778Z" fill="#2C232E"/>
<path fill-rule="evenodd" clip-rule="evenodd" d="M190.37 86.0724L190.37 77.5451C190.37 77.3307 190.206 77.1455 189.955 77.0578C188.734 76.6387 187.424 76.4341 186.128 76.4341C184.265 76.4341 182.402 76.8629 180.816 77.6913C180.627 77.7887 180.514 77.9544 180.514 78.1298L180.514 82.3204C180.514 84.3572 182.653 86.0042 185.284 86.0042L189.476 86.0042L189.501 86.0237L189.501 86.0724L189.678 86.2088L189.854 86.0724L189.854 85.9652L189.804 85.8677L189.678 85.7703L189.552 85.7313L185.284 85.7313C182.842 85.7313 180.866 84.2012 180.853 82.3204L180.853 78.1298C180.853 78.0421 180.916 77.9544 181.004 77.9057C182.54 77.0968 184.328 76.6875 186.128 76.6875C187.374 76.6875 188.633 76.8824 189.816 77.2917C189.942 77.3307 190.018 77.4281 190.018 77.5353L190.018 86.0626L190.194 86.1991L190.37 86.0724Z" fill="#2C232E"/>
<path fill-rule="evenodd" clip-rule="evenodd" d="M195.298 86.0724L195.298 86.0237L195.323 86.0042L198.659 86.0042C198.948 86.0042 199.175 85.8287 199.175 85.6046L199.175 77.5451C199.175 77.3307 199.011 77.1455 198.759 77.0578C197.538 76.6387 196.242 76.4341 194.933 76.4341C193.561 76.4341 192.201 76.6582 190.93 77.1163C190.69 77.204 190.527 77.3891 190.527 77.6035L190.527 85.6046C190.527 85.8287 190.766 86.0042 191.043 86.0042L194.391 86.0042L194.416 86.0237L194.416 86.0724L194.593 86.2088L194.769 86.0724L194.769 85.9652L194.719 85.8677L194.593 85.7703L194.467 85.7313L191.043 85.7313L190.867 85.5949L190.867 77.5938C190.867 77.4866 190.942 77.3989 191.068 77.3502C192.289 76.9116 193.611 76.6875 194.92 76.6875C196.179 76.6875 197.425 76.8824 198.608 77.2917C198.734 77.3307 198.822 77.4281 198.81 77.5353L198.81 85.5949L198.634 85.7313L195.21 85.7313L195.084 85.7703L194.958 85.8677L194.907 85.9652L194.907 86.0724L195.084 86.2088L195.298 86.0724Z" fill="#2C232E"/>
<path fill-rule="evenodd" clip-rule="evenodd" d="M200.216 86.0738L200.216 86.0251L200.241 86.0056L204.433 86.0056C207.064 86.0056 209.204 84.3586 209.204 82.3218L209.204 79.5736C209.204 79.4566 209.154 79.3397 209.053 79.2422C207.693 77.9071 205.78 76.9813 203.627 76.6207L203.602 76.7474L203.741 76.6597L203.64 76.5622L203.64 76.4745L203.64 76.455L203.476 76.455L203.564 76.5719L203.778 76.455L203.69 76.338L203.652 76.4647C203.992 76.5232 204.332 76.5914 204.66 76.6791L204.798 76.6694L204.949 76.6109L205.037 76.5232L205.037 76.5037L205.037 76.494C205.364 74.7788 205.528 73.0538 205.528 71.3289C205.528 69.7209 205.39 68.1128 205.1 66.5146L205.037 66.4269L204.899 66.3489L204.773 66.3197C204.383 66.3587 203.98 66.3781 203.59 66.3781C202.494 66.3781 201.412 66.232 200.367 65.9493C200.015 65.8519 199.637 65.8032 199.259 65.8032C198.882 65.8032 198.517 65.8519 198.151 65.9493C197.107 66.232 196.024 66.3781 194.942 66.3781C193.834 66.3781 192.713 66.232 191.656 65.9299C191.291 65.8324 190.913 65.7739 190.536 65.7739C190.158 65.7739 189.768 65.8227 189.415 65.9299C188.358 66.2222 187.25 66.3781 186.13 66.3781C185.74 66.3781 185.337 66.3587 184.947 66.3197L184.821 66.3489L184.682 66.4269L184.619 66.5146C184.33 68.1128 184.191 69.7209 184.191 71.3289C184.191 72.9369 184.33 74.5449 184.619 76.1431L184.682 76.2308L184.821 76.3088L184.947 76.338C185.337 76.2991 185.74 76.2796 186.13 76.2796C187.25 76.2796 188.358 76.4258 189.415 76.7279C189.78 76.8253 190.158 76.8838 190.536 76.8838C190.913 76.8838 191.304 76.8351 191.656 76.7279C192.713 76.4258 193.834 76.2796 194.942 76.2796C196.276 76.2796 197.598 76.494 198.831 76.913C199.146 77.0202 199.347 77.2639 199.347 77.527L199.347 86.0543L199.524 86.1908L199.7 86.0543L199.7 77.527C199.7 77.1567 199.423 76.8156 198.982 76.6694C197.698 76.2308 196.326 76.0164 194.954 76.0164C193.809 76.0164 192.65 76.1724 191.555 76.4745C191.228 76.5622 190.888 76.6109 190.548 76.6109C190.208 76.6109 189.869 76.5622 189.541 76.4745C188.446 76.1724 187.301 76.0164 186.142 76.0164C185.74 76.0164 185.324 76.0359 184.921 76.0749L184.947 76.2114L185.047 76.1042L184.909 76.0262L184.808 76.1334L184.984 76.1139C184.695 74.5254 184.556 72.9369 184.556 71.3386C184.556 69.7403 184.695 68.1421 184.984 66.5633L184.808 66.5438L184.909 66.651L185.047 66.5731L184.947 66.4659L184.921 66.6023C185.324 66.6413 185.74 66.6608 186.142 66.6608C187.301 66.6608 188.446 66.5048 189.541 66.2027C189.869 66.115 190.208 66.0663 190.548 66.0663C190.888 66.0663 191.228 66.115 191.555 66.2027C192.65 66.5146 193.809 66.6608 194.954 66.6608C196.074 66.6608 197.207 66.5146 198.29 66.2222C198.605 66.1345 198.945 66.0955 199.272 66.0955C199.612 66.0955 199.939 66.1345 200.254 66.2222C201.324 66.5146 202.457 66.6608 203.59 66.6608C204.005 66.6608 204.408 66.6413 204.823 66.6023L204.798 66.4659L204.697 66.5731L204.836 66.651L204.936 66.5438L204.76 66.5633C205.05 68.1518 205.188 69.7403 205.188 71.3386C205.188 73.0538 205.025 74.769 204.697 76.4647L204.874 76.4842L204.697 76.455L204.697 76.4745L204.861 76.5037L204.785 76.3868L204.634 76.4453L204.71 76.5622L204.76 76.4355C204.42 76.3478 204.068 76.2698 203.715 76.2114L203.59 76.2308L203.388 76.338L203.313 76.4355L203.313 76.4647L203.313 76.4745L203.313 76.6109L203.35 76.6986L203.489 76.8253L203.59 76.8741C205.654 77.2249 207.504 78.1117 208.814 79.3981L208.889 79.5638L208.889 82.312C208.889 84.2027 206.9 85.723 204.458 85.723L200.166 85.723L200.04 85.762L199.914 85.8594L199.863 85.9569L199.863 86.0641L200.04 86.2005L200.216 86.0738Z" fill="#2C232E"/>
<path d="M256.32 47.8873H258.457H258.502V34.2686H256.454V44.4384L249.687 34.2686H246.927V47.8873H248.975V37.01L256.32 47.8873Z" fill="#F0F0F0"/>
<path d="M252.625 67.8284C255.653 67.8284 258.324 65.9713 258.324 62.4782V53.9443H256.276V62.4339C256.276 64.689 254.718 65.9713 252.625 65.9713C250.533 65.9713 248.975 64.689 248.975 62.4339V53.9443H246.927V62.4782C246.927 65.9713 249.598 67.8284 252.625 67.8284Z" fill="#F0F0F0"/>
<path fill-rule="evenodd" clip-rule="evenodd" d="M246.972 73.8857H253.916C256.721 73.8857 258.457 75.6544 258.457 78.1305C258.457 80.2529 257.077 81.7563 254.851 82.1542L258.413 87.5045H256.009L252.625 82.2869H249.02V87.5045H246.927V73.8857H246.972ZM249.064 75.6986H253.56C255.252 75.6986 256.365 76.5387 256.365 78.0863C256.365 79.6339 255.252 80.4298 253.56 80.4298H249.064V75.6986Z" fill="#F0F0F0"/>
<path fill-rule="evenodd" clip-rule="evenodd" d="M257.255 93.5615H246.927V95.6397H251.023V105.19H246.927V107.269H257.255V105.19H253.16V95.6397H257.255V93.5615Z" fill="#F0F0F0"/>
</g>
<defs>
<filter id="filter0_d_181_1807" x="54.6605" y="0" width="265.679" height="363" filterUnits="userSpaceOnUse" color-interpolation-filters="sRGB">
<feFlood flood-opacity="0" result="BackgroundImageFix"/>
<feColorMatrix in="SourceAlpha" type="matrix" values="0 0 0 0 0 0 0 0 0 0 0 0 0 0 0 0 0 0 127 0" result="hardAlpha"/>
<feOffset dy="25"/>
<feGaussianBlur stdDeviation="25"/>
<feColorMatrix type="matrix" values="0 0 0 0 0 0 0 0 0 0 0 0 0 0 0 0 0 0 0.25 0"/>
<feBlend mode="normal" in2="BackgroundImageFix" result="effect1_dropShadow_181_1807"/>
<feBlend mode="normal" in="SourceGraphic" in2="effect1_dropShadow_181_1807" result="shape"/>
</filter>
</defs>
</svg>
